G04 #@! TF.GenerationSoftware,KiCad,Pcbnew,(5.1.4-0-10_14)*
G04 #@! TF.CreationDate,2020-05-16T21:52:49+09:00*
G04 #@! TF.ProjectId,chavdai40-bp,63686176-6461-4693-9430-2d62702e6b69,rev?*
G04 #@! TF.SameCoordinates,Original*
G04 #@! TF.FileFunction,Profile,NP*
%FSLAX46Y46*%
G04 Gerber Fmt 4.6, Leading zero omitted, Abs format (unit mm)*
G04 Created by KiCad (PCBNEW (5.1.4-0-10_14)) date 2020-05-16 21:52:49*
%MOMM*%
%LPD*%
G04 APERTURE LIST*
%ADD10C,0.050000*%
G04 APERTURE END LIST*
D10*
X239600000Y-41700000D02*
X27600000Y-41700000D01*
X241600000Y-43700000D02*
X241600000Y-49000000D01*
X241600000Y-49000000D02*
G75*
G02X239600000Y-51000000I-2000000J0D01*
G01*
X239600000Y-41700000D02*
G75*
G02X241600000Y-43700000I0J-2000000D01*
G01*
X255905737Y-41500000D02*
G75*
G03X255905737Y-41500000I-2617972J0D01*
G01*
X258150000Y-49000000D02*
X258150000Y-43700000D01*
X260150000Y-51000000D02*
G75*
G02X258150000Y-49000000I0J2000000D01*
G01*
X258150000Y-43700000D02*
G75*
G02X260150000Y-41700000I2000000J0D01*
G01*
X279750001Y-41550000D02*
G75*
G03X279750001Y-41550000I-2612236J0D01*
G01*
X270800000Y-41700000D02*
G75*
G02X272800000Y-43700000I0J-2000000D01*
G01*
X272800000Y-49000000D02*
G75*
G02X270800000Y-51000000I-2000000J0D01*
G01*
X272800000Y-43700000D02*
X272800000Y-49000000D01*
X260150000Y-51000000D02*
X270800000Y-51000000D01*
X279400000Y-24700000D02*
X279400000Y-30000000D01*
X279400000Y-30000000D02*
G75*
G02X277400000Y-32000000I-2000000J0D01*
G01*
X277400000Y-22700000D02*
G75*
G02X279400000Y-24700000I0J-2000000D01*
G01*
X277400000Y-60800000D02*
G75*
G02X279400000Y-62800000I0J-2000000D01*
G01*
X279400000Y-68100000D02*
G75*
G02X277400000Y-70100000I-2000000J0D01*
G01*
X279400000Y-62800000D02*
X279400000Y-68100000D01*
X253800000Y-79800000D02*
G75*
G02X255800000Y-81800000I0J-2000000D01*
G01*
X255800000Y-87100000D02*
G75*
G02X253800000Y-89100000I-2000000J0D01*
G01*
X255800000Y-81800000D02*
X255800000Y-87100000D01*
X27000000Y-70100000D02*
G75*
G02X25600000Y-68700000I0J1400000D01*
G01*
X51300000Y-87100000D02*
X51300000Y-81800000D01*
X53300000Y-89100000D02*
G75*
G02X51300000Y-87100000I0J2000000D01*
G01*
X51300000Y-81800000D02*
G75*
G02X53300000Y-79800000I2000000J0D01*
G01*
X25600000Y-43700000D02*
G75*
G02X27600000Y-41700000I2000000J0D01*
G01*
X27600000Y-51000000D02*
G75*
G02X25600000Y-49000000I0J2000000D01*
G01*
X25600000Y-49000000D02*
X25600000Y-43700000D01*
X27600000Y-32000000D02*
G75*
G02X25600000Y-30000000I0J2000000D01*
G01*
X25600000Y-24700000D02*
G75*
G02X27600000Y-22700000I2000000J0D01*
G01*
X207100000Y-79800000D02*
X253800000Y-79800000D01*
X178500000Y-79800000D02*
X199400000Y-79800000D01*
X154700000Y-79800000D02*
X170800000Y-79800000D01*
X130900000Y-79800000D02*
X147000000Y-79800000D01*
X107100000Y-79800000D02*
X123200000Y-79800000D01*
X53300000Y-79800000D02*
X99400000Y-79800000D01*
X205900001Y-93600000D02*
G75*
G03X205900001Y-93600000I-2612236J0D01*
G01*
X177350001Y-93600000D02*
G75*
G03X177350001Y-93600000I-2612236J0D01*
G01*
X153450000Y-93600000D02*
G75*
G03X153450000Y-93600000I-2560321J0D01*
G01*
X129650000Y-93600000D02*
G75*
G03X129650000Y-93600000I-2560321J0D01*
G01*
X105857334Y-93600000D02*
G75*
G03X105857334Y-93600000I-2560321J0D01*
G01*
X55800000Y-74550000D02*
G75*
G03X55800000Y-74550000I-2554456J0D01*
G01*
X260150000Y-41700000D02*
X270800000Y-41700000D01*
X32001958Y-74550000D02*
G75*
G03X32001958Y-74550000I-2554456J0D01*
G01*
X25700000Y-61300000D02*
X25600000Y-61600000D01*
X25800000Y-61000000D02*
X25700000Y-61300000D01*
X25900000Y-60800000D02*
X25800000Y-61000000D01*
X26100000Y-60600000D02*
X25900000Y-60800000D01*
X26300000Y-60400000D02*
X26100000Y-60600000D01*
X26400000Y-60200000D02*
X26300000Y-60400000D01*
X26500000Y-59900000D02*
X26400000Y-60200000D01*
X49400000Y-60800000D02*
X33300000Y-60800000D01*
X256300000Y-56800000D02*
G75*
G03X256300000Y-56800000I-3000000J0D01*
G01*
X280200000Y-56800000D02*
G75*
G03X280200000Y-56800000I-3100000J0D01*
G01*
X50300000Y-59900000D02*
X50300000Y-59200000D01*
X50300000Y-59200000D02*
G75*
G02X56300000Y-59200000I3000000J0D01*
G01*
X56300000Y-59200000D02*
X56300000Y-60000000D01*
X50300000Y-59900000D02*
G75*
G02X49400000Y-60800000I-900000J0D01*
G01*
X57100000Y-60800000D02*
G75*
G02X56300000Y-60000000I0J800000D01*
G01*
X200300000Y-78200000D02*
G75*
G02X206300000Y-78200000I3000000J0D01*
G01*
X200300000Y-78900000D02*
G75*
G02X199400000Y-79800000I-900000J0D01*
G01*
X206300000Y-78200000D02*
X206300000Y-79000000D01*
X200300000Y-78900000D02*
X200300000Y-78200000D01*
X207100000Y-79800000D02*
G75*
G02X206300000Y-79000000I0J800000D01*
G01*
X171700000Y-78900000D02*
G75*
G02X170800000Y-79800000I-900000J0D01*
G01*
X177700000Y-78200000D02*
X177700000Y-79000000D01*
X171700000Y-78200000D02*
G75*
G02X177700000Y-78200000I3000000J0D01*
G01*
X178500000Y-79800000D02*
G75*
G02X177700000Y-79000000I0J800000D01*
G01*
X171700000Y-78900000D02*
X171700000Y-78200000D01*
X147900000Y-78900000D02*
X147900000Y-78200000D01*
X147900000Y-78900000D02*
G75*
G02X147000000Y-79800000I-900000J0D01*
G01*
X147900000Y-78200000D02*
G75*
G02X153900000Y-78200000I3000000J0D01*
G01*
X153900000Y-78200000D02*
X153900000Y-79000000D01*
X154700000Y-79800000D02*
G75*
G02X153900000Y-79000000I0J800000D01*
G01*
X124100000Y-78900000D02*
X124100000Y-78200000D01*
X124100000Y-78200000D02*
G75*
G02X130100000Y-78200000I3000000J0D01*
G01*
X130100000Y-78200000D02*
X130100000Y-79000000D01*
X130900000Y-79800000D02*
G75*
G02X130100000Y-79000000I0J800000D01*
G01*
X124100000Y-78900000D02*
G75*
G02X123200000Y-79800000I-900000J0D01*
G01*
X100300000Y-78900000D02*
X100300000Y-78200000D01*
X100300000Y-78200000D02*
G75*
G02X106300000Y-78200000I3000000J0D01*
G01*
X106300000Y-78200000D02*
X106300000Y-79000000D01*
X100300000Y-78900000D02*
G75*
G02X99400000Y-79800000I-900000J0D01*
G01*
X107100000Y-79800000D02*
G75*
G02X106300000Y-79000000I0J800000D01*
G01*
X33300000Y-60800000D02*
G75*
G02X32500000Y-60000000I0J800000D01*
G01*
X26500000Y-59200000D02*
G75*
G02X32500000Y-59200000I3000000J0D01*
G01*
X32500000Y-59200000D02*
X32500000Y-60000000D01*
X26500000Y-59900000D02*
X26500000Y-59200000D01*
X253800000Y-89100000D02*
X53300000Y-89100000D01*
X25600000Y-68700000D02*
X25600000Y-61600000D01*
X277400000Y-70100000D02*
X27000000Y-70100000D01*
X57100000Y-60800000D02*
X277400000Y-60800000D01*
X27600000Y-51000000D02*
X239600000Y-51000000D01*
X25600000Y-30000000D02*
X25600000Y-24700000D01*
X277400000Y-32000000D02*
X27600000Y-32000000D01*
X27600000Y-22700000D02*
X277400000Y-22700000D01*
X289600000Y-12000000D02*
G75*
G02X294600000Y-17000000I0J-5000000D01*
G01*
X294600000Y-99000000D02*
G75*
G02X289600000Y-104000000I-5000000J0D01*
G01*
X17000000Y-104000000D02*
G75*
G02X12000000Y-99000000I0J5000000D01*
G01*
X12001500Y-17000000D02*
G75*
G02X17000000Y-12001500I4998500J0D01*
G01*
X17000000Y-104000000D02*
X289600000Y-104000000D01*
X294600000Y-99000000D02*
X294600000Y-17000000D01*
X12000000Y-17000000D02*
X12000000Y-99000000D01*
X17000000Y-12001500D02*
X289600000Y-12000000D01*
M02*
