G04 #@! TF.GenerationSoftware,KiCad,Pcbnew,(5.1.4-0-10_14)*
G04 #@! TF.CreationDate,2020-05-16T21:52:49+09:00*
G04 #@! TF.ProjectId,chavdai40-bp,63686176-6461-4693-9430-2d62702e6b69,rev?*
G04 #@! TF.SameCoordinates,Original*
G04 #@! TF.FileFunction,Legend,Top*
G04 #@! TF.FilePolarity,Positive*
%FSLAX46Y46*%
G04 Gerber Fmt 4.6, Leading zero omitted, Abs format (unit mm)*
G04 Created by KiCad (PCBNEW (5.1.4-0-10_14)) date 2020-05-16 21:52:49*
%MOMM*%
%LPD*%
G04 APERTURE LIST*
%ADD10C,0.150000*%
G04 APERTURE END LIST*
D10*
X155462952Y-55775380D02*
X155462952Y-56489666D01*
X155415333Y-56632523D01*
X155320095Y-56727761D01*
X155177238Y-56775380D01*
X155082000Y-56775380D01*
X156415333Y-56775380D02*
X155939142Y-56775380D01*
X155939142Y-55775380D01*
X157320095Y-56680142D02*
X157272476Y-56727761D01*
X157129619Y-56775380D01*
X157034380Y-56775380D01*
X156891523Y-56727761D01*
X156796285Y-56632523D01*
X156748666Y-56537285D01*
X156701047Y-56346809D01*
X156701047Y-56203952D01*
X156748666Y-56013476D01*
X156796285Y-55918238D01*
X156891523Y-55823000D01*
X157034380Y-55775380D01*
X157129619Y-55775380D01*
X157272476Y-55823000D01*
X157320095Y-55870619D01*
X158034380Y-55775380D02*
X158034380Y-56489666D01*
X157986761Y-56632523D01*
X157891523Y-56727761D01*
X157748666Y-56775380D01*
X157653428Y-56775380D01*
X158986761Y-56775380D02*
X158510571Y-56775380D01*
X158510571Y-55775380D01*
X159891523Y-56680142D02*
X159843904Y-56727761D01*
X159701047Y-56775380D01*
X159605809Y-56775380D01*
X159462952Y-56727761D01*
X159367714Y-56632523D01*
X159320095Y-56537285D01*
X159272476Y-56346809D01*
X159272476Y-56203952D01*
X159320095Y-56013476D01*
X159367714Y-55918238D01*
X159462952Y-55823000D01*
X159605809Y-55775380D01*
X159701047Y-55775380D01*
X159843904Y-55823000D01*
X159891523Y-55870619D01*
X160605809Y-55775380D02*
X160605809Y-56489666D01*
X160558190Y-56632523D01*
X160462952Y-56727761D01*
X160320095Y-56775380D01*
X160224857Y-56775380D01*
X161558190Y-56775380D02*
X161082000Y-56775380D01*
X161082000Y-55775380D01*
X162462952Y-56680142D02*
X162415333Y-56727761D01*
X162272476Y-56775380D01*
X162177238Y-56775380D01*
X162034380Y-56727761D01*
X161939142Y-56632523D01*
X161891523Y-56537285D01*
X161843904Y-56346809D01*
X161843904Y-56203952D01*
X161891523Y-56013476D01*
X161939142Y-55918238D01*
X162034380Y-55823000D01*
X162177238Y-55775380D01*
X162272476Y-55775380D01*
X162415333Y-55823000D01*
X162462952Y-55870619D01*
X163177238Y-55775380D02*
X163177238Y-56489666D01*
X163129619Y-56632523D01*
X163034380Y-56727761D01*
X162891523Y-56775380D01*
X162796285Y-56775380D01*
X164129619Y-56775380D02*
X163653428Y-56775380D01*
X163653428Y-55775380D01*
X165034380Y-56680142D02*
X164986761Y-56727761D01*
X164843904Y-56775380D01*
X164748666Y-56775380D01*
X164605809Y-56727761D01*
X164510571Y-56632523D01*
X164462952Y-56537285D01*
X164415333Y-56346809D01*
X164415333Y-56203952D01*
X164462952Y-56013476D01*
X164510571Y-55918238D01*
X164605809Y-55823000D01*
X164748666Y-55775380D01*
X164843904Y-55775380D01*
X164986761Y-55823000D01*
X165034380Y-55870619D01*
%LPC*%
M02*
