G04 #@! TF.GenerationSoftware,KiCad,Pcbnew,(5.1.4-0-10_14)*
G04 #@! TF.CreationDate,2020-05-16T01:02:51+09:00*
G04 #@! TF.ProjectId,chavdai40,63686176-6461-4693-9430-2e6b69636164,rev?*
G04 #@! TF.SameCoordinates,Original*
G04 #@! TF.FileFunction,Copper,L1,Top*
G04 #@! TF.FilePolarity,Positive*
%FSLAX46Y46*%
G04 Gerber Fmt 4.6, Leading zero omitted, Abs format (unit mm)*
G04 Created by KiCad (PCBNEW (5.1.4-0-10_14)) date 2020-05-16 01:02:51*
%MOMM*%
%LPD*%
G04 APERTURE LIST*
%ADD10C,1.153000*%
%ADD11C,2.250000*%
%ADD12O,1.000000X1.600000*%
%ADD13O,1.000000X2.100000*%
%ADD14R,0.300000X2.450000*%
%ADD15R,0.600000X2.450000*%
%ADD16R,1.000000X1.000000*%
%ADD17O,1.000000X1.000000*%
%ADD18C,0.800000*%
%ADD19C,0.381000*%
%ADD20C,0.304800*%
%ADD21C,0.254000*%
G04 APERTURE END LIST*
D10*
X48006000Y-94488000D03*
X284734000Y-21717000D03*
X21463000Y-21463000D03*
D11*
X87566500Y-65024000D03*
X93916500Y-62484000D03*
X155829000Y-81534000D03*
X149479000Y-84074000D03*
X165354000Y-81534000D03*
X159004000Y-84074000D03*
X117729000Y-81534000D03*
X111379000Y-84074000D03*
X43910250Y-62484000D03*
X37560250Y-65024000D03*
X32797750Y-45974000D03*
X39147750Y-43434000D03*
X30416500Y-26924000D03*
X36766500Y-24384000D03*
X58991500Y-45974000D03*
X65341500Y-43434000D03*
X261397750Y-45974000D03*
X267747750Y-43434000D03*
X116141500Y-45974000D03*
X122491500Y-43434000D03*
X92329000Y-26924000D03*
X98679000Y-24384000D03*
X73279000Y-26924000D03*
X79629000Y-24384000D03*
X244729000Y-26924000D03*
X251079000Y-24384000D03*
X197104000Y-84074000D03*
X203454000Y-81534000D03*
D12*
X41812750Y-14601500D03*
X50452750Y-14601500D03*
D13*
X41812750Y-18781500D03*
X50452750Y-18781500D03*
D14*
X46382750Y-20196500D03*
X45882750Y-20196500D03*
X45382750Y-20196500D03*
X46882750Y-20196500D03*
X44882750Y-20196500D03*
X47382750Y-20196500D03*
X44382750Y-20196500D03*
X47882750Y-20196500D03*
D15*
X48582750Y-20196500D03*
X43682750Y-20196500D03*
X49357750Y-20196500D03*
X42907750Y-20196500D03*
D11*
X244729000Y-84074000D03*
X251079000Y-81534000D03*
X220916500Y-84074000D03*
X227266500Y-81534000D03*
X78041500Y-84074000D03*
X84391500Y-81534000D03*
X54229000Y-84074000D03*
X60579000Y-81534000D03*
X266160250Y-65024000D03*
X272510250Y-62484000D03*
X242347750Y-65024000D03*
X248697750Y-62484000D03*
X220916500Y-65024000D03*
X227266500Y-62484000D03*
X201866500Y-65024000D03*
X208216500Y-62484000D03*
X182816500Y-65024000D03*
X189166500Y-62484000D03*
X163766500Y-65024000D03*
X170116500Y-62484000D03*
X144716500Y-65024000D03*
X151066500Y-62484000D03*
X125666500Y-65024000D03*
X132016500Y-62484000D03*
X106616500Y-65024000D03*
X112966500Y-62484000D03*
X68516500Y-65024000D03*
X74866500Y-62484000D03*
X230441500Y-45974000D03*
X236791500Y-43434000D03*
X211391500Y-45974000D03*
X217741500Y-43434000D03*
X192341500Y-45974000D03*
X198691500Y-43434000D03*
X173291500Y-45974000D03*
X179641500Y-43434000D03*
X154241500Y-45974000D03*
X160591500Y-43434000D03*
X135191500Y-45974000D03*
X141541500Y-43434000D03*
X97091500Y-45974000D03*
X103441500Y-43434000D03*
X78041500Y-45974000D03*
X84391500Y-43434000D03*
X268541500Y-26924000D03*
X274891500Y-24384000D03*
X225679000Y-26924000D03*
X232029000Y-24384000D03*
X206629000Y-26924000D03*
X212979000Y-24384000D03*
X187579000Y-26924000D03*
X193929000Y-24384000D03*
X168529000Y-26924000D03*
X174879000Y-24384000D03*
X149479000Y-26924000D03*
X155829000Y-24384000D03*
X130429000Y-26924000D03*
X136779000Y-24384000D03*
X111379000Y-26924000D03*
X117729000Y-24384000D03*
X54229000Y-26924000D03*
X60579000Y-24384000D03*
D16*
X33782000Y-61468000D03*
D17*
X33782000Y-60198000D03*
X35052000Y-61468000D03*
X35052000Y-60198000D03*
X36322000Y-61468000D03*
X36322000Y-60198000D03*
X37592000Y-61468000D03*
X37592000Y-60198000D03*
X38862000Y-61468000D03*
X38862000Y-60198000D03*
D18*
X48768000Y-47371000D03*
X50038000Y-47371000D03*
X50038000Y-46101000D03*
X33782000Y-69977000D03*
X43180000Y-28701992D03*
X49403000Y-28702000D03*
X50038000Y-23495000D03*
X42037000Y-22479000D03*
X54737000Y-42926000D03*
X42456000Y-50330000D03*
X48768000Y-46101000D03*
X43180000Y-44323000D03*
X55245000Y-46101000D03*
X41656000Y-52578000D03*
X53149500Y-66103500D03*
X45593000Y-47244000D03*
X31877000Y-62738000D03*
X39370000Y-50038000D03*
X38227000Y-31877000D03*
X47752000Y-35941000D03*
X53594000Y-42164000D03*
X42418000Y-42164000D03*
X49657000Y-64516000D03*
X66929000Y-70104000D03*
X45656500Y-24257000D03*
X45542200Y-30607000D03*
X56388000Y-42862500D03*
X46812200Y-30607000D03*
X45382750Y-22586250D03*
X45382750Y-22586250D03*
X57658000Y-42862500D03*
X53848000Y-49657000D03*
X46736000Y-51562000D03*
X45974000Y-50546000D03*
X53848000Y-48260000D03*
X47879000Y-23495000D03*
X44450000Y-23495000D03*
X40259000Y-22606000D03*
D19*
X35687000Y-63119000D02*
X35052000Y-62484000D01*
X37973000Y-63119000D02*
X35687000Y-63119000D01*
X38862000Y-62230000D02*
X37973000Y-63119000D01*
X35052000Y-62484000D02*
X35052000Y-61468000D01*
X38862000Y-61468000D02*
X38862000Y-62230000D01*
X43180000Y-28701992D02*
X49402992Y-28701992D01*
X49402992Y-28701992D02*
X49403000Y-28702000D01*
X50038000Y-22225000D02*
X50038000Y-23495000D01*
X49357750Y-21544750D02*
X50038000Y-22225000D01*
X49357750Y-20196500D02*
X49357750Y-21544750D01*
X42907750Y-21608250D02*
X42037000Y-22479000D01*
X42907750Y-20196500D02*
X42907750Y-21608250D01*
X53721000Y-43942000D02*
X54737000Y-42926000D01*
X53721000Y-45974000D02*
X53721000Y-43942000D01*
X44577000Y-52451000D02*
X52451000Y-52451000D01*
X52451000Y-52451000D02*
X54737000Y-50165000D01*
X42456000Y-50330000D02*
X44577000Y-52451000D01*
X54737000Y-50165000D02*
X54737000Y-46990000D01*
X54737000Y-46990000D02*
X53721000Y-45974000D01*
X36322000Y-62357000D02*
X36322000Y-61468000D01*
X37084000Y-63119000D02*
X36322000Y-62357000D01*
X41812750Y-19101500D02*
X42907750Y-20196500D01*
X41812750Y-18781500D02*
X41812750Y-19101500D01*
X50452750Y-19101500D02*
X49357750Y-20196500D01*
X50452750Y-18781500D02*
X50452750Y-19101500D01*
X53594000Y-46101000D02*
X50038000Y-46101000D01*
X53721000Y-45974000D02*
X53594000Y-46101000D01*
X46990000Y-44323000D02*
X48768000Y-46101000D01*
X43180000Y-44323000D02*
X46990000Y-44323000D01*
X48368001Y-47770999D02*
X48768000Y-47371000D01*
X47117000Y-49022000D02*
X48368001Y-47770999D01*
X43764000Y-49022000D02*
X47117000Y-49022000D01*
X42456000Y-50330000D02*
X43764000Y-49022000D01*
X33782000Y-65024000D02*
X35687000Y-63119000D01*
X33782000Y-69977000D02*
X33782000Y-65024000D01*
X41478000Y-51308000D02*
X42456000Y-50330000D01*
X42164000Y-59690000D02*
X42164000Y-57023000D01*
X40386000Y-55245000D02*
X40386000Y-51943000D01*
X40386000Y-51943000D02*
X41021000Y-51308000D01*
X40386000Y-61468000D02*
X42164000Y-59690000D01*
X42164000Y-57023000D02*
X40386000Y-55245000D01*
X41021000Y-51308000D02*
X41478000Y-51308000D01*
X38862000Y-61468000D02*
X40386000Y-61468000D01*
X55499000Y-46355000D02*
X55245000Y-46101000D01*
X55499000Y-46355000D02*
X55880000Y-46736000D01*
X55880000Y-46736000D02*
X55880000Y-50800000D01*
X55880000Y-50800000D02*
X52959000Y-53721000D01*
X42055999Y-52977999D02*
X42799000Y-53721000D01*
X41656000Y-52578000D02*
X42055999Y-52977999D01*
X52959000Y-53721000D02*
X49530000Y-53721000D01*
X49530000Y-53721000D02*
X42799000Y-53721000D01*
D20*
X49530000Y-53721000D02*
X49530000Y-62484000D01*
X49530000Y-62484000D02*
X52749501Y-65703501D01*
X52749501Y-65703501D02*
X53149500Y-66103500D01*
D21*
X39370000Y-52197000D02*
X33083500Y-58483500D01*
X40767000Y-47117000D02*
X39370000Y-48514000D01*
X44900315Y-47117000D02*
X40767000Y-47117000D01*
X45027315Y-47244000D02*
X44900315Y-47117000D01*
X45593000Y-47244000D02*
X45027315Y-47244000D01*
X38862000Y-59309000D02*
X38862000Y-60198000D01*
X38036500Y-58483500D02*
X38862000Y-59309000D01*
X33083500Y-58483500D02*
X38036500Y-58483500D01*
X39370000Y-48514000D02*
X39370000Y-50038000D01*
X39370000Y-50038000D02*
X39370000Y-52197000D01*
X32400000Y-62215000D02*
X31877000Y-62738000D01*
X32400000Y-59167000D02*
X32400000Y-62215000D01*
X33083500Y-58483500D02*
X32400000Y-59167000D01*
X47352001Y-35541001D02*
X47752000Y-35941000D01*
X43688000Y-31877000D02*
X47352001Y-35541001D01*
X38227000Y-31877000D02*
X43688000Y-31877000D01*
X42926000Y-41656000D02*
X42418000Y-42164000D01*
X53086000Y-41656000D02*
X42926000Y-41656000D01*
X53594000Y-42164000D02*
X53086000Y-41656000D01*
X65659000Y-71374000D02*
X66929000Y-70104000D01*
X49657000Y-65786000D02*
X55245000Y-71374000D01*
X55245000Y-71374000D02*
X65659000Y-71374000D01*
X49657000Y-64516000D02*
X49657000Y-65786000D01*
X46882750Y-18688750D02*
X46882750Y-20196500D01*
X46736000Y-18542000D02*
X46882750Y-18688750D01*
X45882750Y-18732898D02*
X46073648Y-18542000D01*
X46073648Y-18542000D02*
X46736000Y-18542000D01*
X45882750Y-20196500D02*
X45882750Y-18732898D01*
X46882750Y-20196500D02*
X46882750Y-22903750D01*
X46882750Y-22903750D02*
X46882750Y-23030750D01*
X46882750Y-23030750D02*
X45656500Y-24257000D01*
X45542200Y-31191200D02*
X45542200Y-30607000D01*
X56388000Y-42037000D02*
X45542200Y-31191200D01*
X56388000Y-42862500D02*
X56388000Y-42037000D01*
X45382750Y-21675500D02*
X45551250Y-21844000D01*
X45382750Y-20196500D02*
X45382750Y-21675500D01*
X45551250Y-21844000D02*
X46228000Y-21844000D01*
X46382750Y-21689250D02*
X46382750Y-20196500D01*
X46228000Y-21844000D02*
X46382750Y-21689250D01*
X45382750Y-21675500D02*
X45382750Y-22586250D01*
X46812200Y-31318200D02*
X46812200Y-30607000D01*
X57658000Y-42164000D02*
X46812200Y-31318200D01*
X57658000Y-42862500D02*
X57658000Y-42164000D01*
X53213000Y-49657000D02*
X53848000Y-49657000D01*
X52070000Y-50800000D02*
X53213000Y-49657000D01*
X47498000Y-50800000D02*
X52070000Y-50800000D01*
X46736000Y-51562000D02*
X47498000Y-50800000D01*
X52070000Y-50038000D02*
X53848000Y-48260000D01*
X51816000Y-50292000D02*
X52070000Y-50038000D01*
X46228000Y-50292000D02*
X51816000Y-50292000D01*
X45974000Y-50546000D02*
X46228000Y-50292000D01*
X37846000Y-65309750D02*
X37560250Y-65024000D01*
X37846000Y-69850000D02*
X37846000Y-65309750D01*
X31369000Y-33909000D02*
X31369000Y-27876500D01*
X30607000Y-34671000D02*
X31369000Y-33909000D01*
X33401000Y-45370750D02*
X33401000Y-38354000D01*
X30607000Y-35560000D02*
X30607000Y-34671000D01*
X31369000Y-27876500D02*
X30416500Y-26924000D01*
X33401000Y-38354000D02*
X30607000Y-35560000D01*
X32797750Y-45974000D02*
X33401000Y-45370750D01*
X39497000Y-71501000D02*
X37846000Y-69850000D01*
X43053000Y-71501000D02*
X39497000Y-71501000D01*
X50038000Y-78486000D02*
X43053000Y-71501000D01*
X50038000Y-79883000D02*
X50038000Y-78486000D01*
X54229000Y-84074000D02*
X50038000Y-79883000D01*
X36195000Y-71501000D02*
X37846000Y-69850000D01*
X29972000Y-71501000D02*
X36195000Y-71501000D01*
X26500000Y-57400000D02*
X26500000Y-68029000D01*
X32797750Y-45974000D02*
X33401000Y-46577250D01*
X33401000Y-50499000D02*
X26500000Y-57400000D01*
X33401000Y-46577250D02*
X33401000Y-50499000D01*
X26500000Y-68029000D02*
X29972000Y-71501000D01*
X69215000Y-75247500D02*
X78041500Y-84074000D01*
X69215000Y-65722500D02*
X69215000Y-75247500D01*
X68516500Y-65024000D02*
X69215000Y-65722500D01*
X59690000Y-56197500D02*
X68516500Y-65024000D01*
X59690000Y-46672500D02*
X59690000Y-56197500D01*
X58991500Y-45974000D02*
X59690000Y-46672500D01*
X58991500Y-35877500D02*
X58991500Y-45974000D01*
X54991000Y-31877000D02*
X58991500Y-35877500D01*
X54991000Y-27686000D02*
X54991000Y-31877000D01*
X54229000Y-26924000D02*
X54991000Y-27686000D01*
X78740000Y-56197500D02*
X87566500Y-65024000D01*
X78740000Y-46672500D02*
X78740000Y-56197500D01*
X78041500Y-45974000D02*
X78740000Y-46672500D01*
X73914000Y-41846500D02*
X78041500Y-45974000D01*
X73914000Y-27559000D02*
X73914000Y-41846500D01*
X73279000Y-26924000D02*
X73914000Y-27559000D01*
X92964000Y-41846500D02*
X97091500Y-45974000D01*
X92964000Y-27559000D02*
X92964000Y-41846500D01*
X92329000Y-26924000D02*
X92964000Y-27559000D01*
X97917000Y-56324500D02*
X106616500Y-65024000D01*
X97917000Y-46799500D02*
X97917000Y-56324500D01*
X97091500Y-45974000D02*
X97917000Y-46799500D01*
X107188000Y-79883000D02*
X111379000Y-84074000D01*
X107188000Y-65595500D02*
X107188000Y-79883000D01*
X106616500Y-65024000D02*
X107188000Y-65595500D01*
X112141000Y-41973500D02*
X116141500Y-45974000D01*
X112141000Y-27686000D02*
X112141000Y-41973500D01*
X111379000Y-26924000D02*
X112141000Y-27686000D01*
X116713000Y-56070500D02*
X125666500Y-65024000D01*
X116713000Y-46545500D02*
X116713000Y-56070500D01*
X116141500Y-45974000D02*
X116713000Y-46545500D01*
X158623000Y-83693000D02*
X159004000Y-84074000D01*
X149860000Y-83693000D02*
X158623000Y-83693000D01*
X149479000Y-84074000D02*
X149860000Y-83693000D01*
X145415000Y-65722500D02*
X144716500Y-65024000D01*
X145415000Y-80010000D02*
X145415000Y-65722500D01*
X149479000Y-84074000D02*
X145415000Y-80010000D01*
X135890000Y-46672500D02*
X135191500Y-45974000D01*
X135890000Y-56197500D02*
X135890000Y-46672500D01*
X144716500Y-65024000D02*
X135890000Y-56197500D01*
X131191000Y-41973500D02*
X135191500Y-45974000D01*
X131191000Y-27686000D02*
X131191000Y-41973500D01*
X130429000Y-26924000D02*
X131191000Y-27686000D01*
X154813000Y-46545500D02*
X154241500Y-45974000D01*
X154813000Y-56070500D02*
X154813000Y-46545500D01*
X163766500Y-65024000D02*
X154813000Y-56070500D01*
X150114000Y-27559000D02*
X149479000Y-26924000D01*
X150114000Y-41846500D02*
X150114000Y-27559000D01*
X154241500Y-45974000D02*
X150114000Y-41846500D01*
X169164000Y-41846500D02*
X173291500Y-45974000D01*
X169164000Y-27559000D02*
X169164000Y-41846500D01*
X168529000Y-26924000D02*
X169164000Y-27559000D01*
X173990000Y-56197500D02*
X182816500Y-65024000D01*
X173990000Y-46672500D02*
X173990000Y-56197500D01*
X173291500Y-45974000D02*
X173990000Y-46672500D01*
X201866500Y-66103500D02*
X201866500Y-65024000D01*
X202565000Y-66802000D02*
X201866500Y-66103500D01*
X199394499Y-72131501D02*
X202565000Y-68961000D01*
X199394499Y-81783501D02*
X199394499Y-72131501D01*
X202565000Y-68961000D02*
X202565000Y-66802000D01*
X197104000Y-84074000D02*
X199394499Y-81783501D01*
X192341500Y-46926500D02*
X192341500Y-45974000D01*
X192913000Y-52197000D02*
X192913000Y-47498000D01*
X201866500Y-61150500D02*
X192913000Y-52197000D01*
X192913000Y-47498000D02*
X192341500Y-46926500D01*
X201866500Y-65024000D02*
X201866500Y-61150500D01*
X188468000Y-27813000D02*
X187579000Y-26924000D01*
X188468000Y-42100500D02*
X188468000Y-27813000D01*
X192341500Y-45974000D02*
X188468000Y-42100500D01*
X207264000Y-41846500D02*
X211391500Y-45974000D01*
X207264000Y-27559000D02*
X207264000Y-41846500D01*
X206629000Y-26924000D02*
X207264000Y-27559000D01*
X212217000Y-56324500D02*
X220916500Y-65024000D01*
X212217000Y-46799500D02*
X212217000Y-56324500D01*
X211391500Y-45974000D02*
X212217000Y-46799500D01*
X221361000Y-83629500D02*
X220916500Y-84074000D01*
X221361000Y-65468500D02*
X221361000Y-83629500D01*
X220916500Y-65024000D02*
X221361000Y-65468500D01*
X242697000Y-65373250D02*
X242697000Y-82042000D01*
X242697000Y-82042000D02*
X244729000Y-84074000D01*
X242347750Y-65024000D02*
X242697000Y-65373250D01*
X231267000Y-46799500D02*
X230441500Y-45974000D01*
X231267000Y-53943250D02*
X231267000Y-46799500D01*
X242347750Y-65024000D02*
X231267000Y-53943250D01*
X226314000Y-27559000D02*
X225679000Y-26924000D01*
X226314000Y-41846500D02*
X226314000Y-27559000D01*
X230441500Y-45974000D02*
X226314000Y-41846500D01*
X261239000Y-46132750D02*
X261397750Y-45974000D01*
X254095250Y-46132750D02*
X261239000Y-46132750D01*
X256476500Y-55340250D02*
X266160250Y-65024000D01*
X256476500Y-48514000D02*
X256476500Y-55340250D01*
X254095250Y-46132750D02*
X256476500Y-48514000D01*
X245491000Y-37528500D02*
X254095250Y-46132750D01*
X245491000Y-28702000D02*
X245491000Y-37528500D01*
X244856000Y-28067000D02*
X245491000Y-28702000D01*
X244856000Y-27051000D02*
X244856000Y-28067000D01*
X244729000Y-26924000D02*
X244856000Y-27051000D01*
X47879000Y-22479000D02*
X47879000Y-23495000D01*
X47382750Y-21982750D02*
X47879000Y-22479000D01*
X47382750Y-20196500D02*
X47382750Y-21982750D01*
X44382750Y-20196500D02*
X44382750Y-23427750D01*
X44382750Y-23427750D02*
X44450000Y-23495000D01*
D19*
X42291000Y-24638000D02*
X40259000Y-22606000D01*
X43677500Y-24638000D02*
X42291000Y-24638000D01*
X43682750Y-24632750D02*
X43677500Y-24638000D01*
X43307000Y-22606000D02*
X43307000Y-24257000D01*
X43307000Y-24257000D02*
X43682750Y-24632750D01*
X43682750Y-22230250D02*
X43307000Y-22606000D01*
X43682750Y-20196500D02*
X43682750Y-22230250D01*
X48667249Y-22251249D02*
X48667249Y-20280999D01*
X49022000Y-24130000D02*
X49022000Y-22606000D01*
X47625000Y-25527000D02*
X49022000Y-24130000D01*
X49022000Y-22606000D02*
X48667249Y-22251249D01*
X44577000Y-25527000D02*
X47625000Y-25527000D01*
X48667249Y-20280999D02*
X48582750Y-20196500D01*
X43682750Y-24632750D02*
X44577000Y-25527000D01*
D21*
G36*
X50546000Y-18928500D02*
G01*
X50325750Y-18928500D01*
X50325750Y-18908500D01*
X50305750Y-18908500D01*
X50305750Y-18654500D01*
X50325750Y-18654500D01*
X50325750Y-17263546D01*
X50150876Y-17137381D01*
X49927774Y-17217224D01*
X49739986Y-17339131D01*
X49595634Y-17479706D01*
X49477481Y-17400759D01*
X49302772Y-17328392D01*
X49117302Y-17291500D01*
X48928198Y-17291500D01*
X48742728Y-17328392D01*
X48568019Y-17400759D01*
X48410786Y-17505819D01*
X48277069Y-17639536D01*
X48172009Y-17796769D01*
X48099642Y-17971478D01*
X48062750Y-18156948D01*
X48062750Y-18336383D01*
X48032750Y-18333428D01*
X47732750Y-18333428D01*
X47632750Y-18343277D01*
X47558187Y-18335933D01*
X47519395Y-18263358D01*
X47424172Y-18147328D01*
X47395097Y-18123467D01*
X47301284Y-18029654D01*
X47277422Y-18000578D01*
X47161392Y-17905355D01*
X47029015Y-17834598D01*
X46885378Y-17791026D01*
X46773426Y-17780000D01*
X46773423Y-17780000D01*
X46736000Y-17776314D01*
X46698577Y-17780000D01*
X46111071Y-17780000D01*
X46073648Y-17776314D01*
X46036225Y-17780000D01*
X46036222Y-17780000D01*
X45924270Y-17791026D01*
X45780633Y-17834598D01*
X45648256Y-17905355D01*
X45532226Y-18000578D01*
X45508361Y-18029658D01*
X45370400Y-18167618D01*
X45341329Y-18191476D01*
X45317472Y-18220546D01*
X45317471Y-18220547D01*
X45246105Y-18307506D01*
X45232222Y-18333480D01*
X45132750Y-18343277D01*
X45032750Y-18333428D01*
X44732750Y-18333428D01*
X44632750Y-18343277D01*
X44532750Y-18333428D01*
X44232750Y-18333428D01*
X44202750Y-18336383D01*
X44202750Y-18156948D01*
X44165858Y-17971478D01*
X44093491Y-17796769D01*
X43988431Y-17639536D01*
X43854714Y-17505819D01*
X43697481Y-17400759D01*
X43522772Y-17328392D01*
X43337302Y-17291500D01*
X43148198Y-17291500D01*
X42962728Y-17328392D01*
X42788019Y-17400759D01*
X42669866Y-17479706D01*
X42525514Y-17339131D01*
X42337726Y-17217224D01*
X42114624Y-17137381D01*
X41939750Y-17263546D01*
X41939750Y-18654500D01*
X41959750Y-18654500D01*
X41959750Y-18908500D01*
X41939750Y-18908500D01*
X41939750Y-18928500D01*
X41783000Y-18928500D01*
X41783000Y-14728500D01*
X41939750Y-14728500D01*
X41939750Y-15869454D01*
X42114624Y-15995619D01*
X42337726Y-15915776D01*
X42525514Y-15793869D01*
X42685911Y-15637669D01*
X42812753Y-15453178D01*
X42901165Y-15247487D01*
X42947750Y-15028500D01*
X42947750Y-14728500D01*
X49317750Y-14728500D01*
X49317750Y-15028500D01*
X49364335Y-15247487D01*
X49452747Y-15453178D01*
X49579589Y-15637669D01*
X49739986Y-15793869D01*
X49927774Y-15915776D01*
X50150876Y-15995619D01*
X50325750Y-15869454D01*
X50325750Y-14728500D01*
X49317750Y-14728500D01*
X42947750Y-14728500D01*
X41939750Y-14728500D01*
X41783000Y-14728500D01*
X41783000Y-13333546D01*
X41939750Y-13333546D01*
X41939750Y-14474500D01*
X42947750Y-14474500D01*
X42947750Y-14174500D01*
X49317750Y-14174500D01*
X49317750Y-14474500D01*
X50325750Y-14474500D01*
X50325750Y-13333546D01*
X50150876Y-13207381D01*
X49927774Y-13287224D01*
X49739986Y-13409131D01*
X49579589Y-13565331D01*
X49452747Y-13749822D01*
X49364335Y-13955513D01*
X49317750Y-14174500D01*
X42947750Y-14174500D01*
X42901165Y-13955513D01*
X42812753Y-13749822D01*
X42685911Y-13565331D01*
X42525514Y-13409131D01*
X42337726Y-13287224D01*
X42114624Y-13207381D01*
X41939750Y-13333546D01*
X41783000Y-13333546D01*
X41783000Y-12661363D01*
X50546000Y-12661315D01*
X50546000Y-18928500D01*
X50546000Y-18928500D01*
G37*
X50546000Y-18928500D02*
X50325750Y-18928500D01*
X50325750Y-18908500D01*
X50305750Y-18908500D01*
X50305750Y-18654500D01*
X50325750Y-18654500D01*
X50325750Y-17263546D01*
X50150876Y-17137381D01*
X49927774Y-17217224D01*
X49739986Y-17339131D01*
X49595634Y-17479706D01*
X49477481Y-17400759D01*
X49302772Y-17328392D01*
X49117302Y-17291500D01*
X48928198Y-17291500D01*
X48742728Y-17328392D01*
X48568019Y-17400759D01*
X48410786Y-17505819D01*
X48277069Y-17639536D01*
X48172009Y-17796769D01*
X48099642Y-17971478D01*
X48062750Y-18156948D01*
X48062750Y-18336383D01*
X48032750Y-18333428D01*
X47732750Y-18333428D01*
X47632750Y-18343277D01*
X47558187Y-18335933D01*
X47519395Y-18263358D01*
X47424172Y-18147328D01*
X47395097Y-18123467D01*
X47301284Y-18029654D01*
X47277422Y-18000578D01*
X47161392Y-17905355D01*
X47029015Y-17834598D01*
X46885378Y-17791026D01*
X46773426Y-17780000D01*
X46773423Y-17780000D01*
X46736000Y-17776314D01*
X46698577Y-17780000D01*
X46111071Y-17780000D01*
X46073648Y-17776314D01*
X46036225Y-17780000D01*
X46036222Y-17780000D01*
X45924270Y-17791026D01*
X45780633Y-17834598D01*
X45648256Y-17905355D01*
X45532226Y-18000578D01*
X45508361Y-18029658D01*
X45370400Y-18167618D01*
X45341329Y-18191476D01*
X45317472Y-18220546D01*
X45317471Y-18220547D01*
X45246105Y-18307506D01*
X45232222Y-18333480D01*
X45132750Y-18343277D01*
X45032750Y-18333428D01*
X44732750Y-18333428D01*
X44632750Y-18343277D01*
X44532750Y-18333428D01*
X44232750Y-18333428D01*
X44202750Y-18336383D01*
X44202750Y-18156948D01*
X44165858Y-17971478D01*
X44093491Y-17796769D01*
X43988431Y-17639536D01*
X43854714Y-17505819D01*
X43697481Y-17400759D01*
X43522772Y-17328392D01*
X43337302Y-17291500D01*
X43148198Y-17291500D01*
X42962728Y-17328392D01*
X42788019Y-17400759D01*
X42669866Y-17479706D01*
X42525514Y-17339131D01*
X42337726Y-17217224D01*
X42114624Y-17137381D01*
X41939750Y-17263546D01*
X41939750Y-18654500D01*
X41959750Y-18654500D01*
X41959750Y-18908500D01*
X41939750Y-18908500D01*
X41939750Y-18928500D01*
X41783000Y-18928500D01*
X41783000Y-14728500D01*
X41939750Y-14728500D01*
X41939750Y-15869454D01*
X42114624Y-15995619D01*
X42337726Y-15915776D01*
X42525514Y-15793869D01*
X42685911Y-15637669D01*
X42812753Y-15453178D01*
X42901165Y-15247487D01*
X42947750Y-15028500D01*
X42947750Y-14728500D01*
X49317750Y-14728500D01*
X49317750Y-15028500D01*
X49364335Y-15247487D01*
X49452747Y-15453178D01*
X49579589Y-15637669D01*
X49739986Y-15793869D01*
X49927774Y-15915776D01*
X50150876Y-15995619D01*
X50325750Y-15869454D01*
X50325750Y-14728500D01*
X49317750Y-14728500D01*
X42947750Y-14728500D01*
X41939750Y-14728500D01*
X41783000Y-14728500D01*
X41783000Y-13333546D01*
X41939750Y-13333546D01*
X41939750Y-14474500D01*
X42947750Y-14474500D01*
X42947750Y-14174500D01*
X49317750Y-14174500D01*
X49317750Y-14474500D01*
X50325750Y-14474500D01*
X50325750Y-13333546D01*
X50150876Y-13207381D01*
X49927774Y-13287224D01*
X49739986Y-13409131D01*
X49579589Y-13565331D01*
X49452747Y-13749822D01*
X49364335Y-13955513D01*
X49317750Y-14174500D01*
X42947750Y-14174500D01*
X42901165Y-13955513D01*
X42812753Y-13749822D01*
X42685911Y-13565331D01*
X42525514Y-13409131D01*
X42337726Y-13287224D01*
X42114624Y-13207381D01*
X41939750Y-13333546D01*
X41783000Y-13333546D01*
X41783000Y-12661363D01*
X50546000Y-12661315D01*
X50546000Y-18928500D01*
G36*
X50673000Y-48006000D02*
G01*
X48133000Y-48006000D01*
X48133000Y-45466000D01*
X50673000Y-45466000D01*
X50673000Y-48006000D01*
X50673000Y-48006000D01*
G37*
X50673000Y-48006000D02*
X48133000Y-48006000D01*
X48133000Y-45466000D01*
X50673000Y-45466000D01*
X50673000Y-48006000D01*
M02*
