M48
; DRILL file {KiCad (5.1.4-0-10_14)} date 2020 May 16, Saturday 01:03:25
; FORMAT={-:-/ absolute / inch / decimal}
; #@! TF.CreationDate,2020-05-16T01:03:25+09:00
; #@! TF.GenerationSoftware,Kicad,Pcbnew,(5.1.4-0-10_14)
; #@! TF.FileFunction,NonPlated,1,2,NPTH
FMAT,2
INCH
T1C0.0256
T2C0.0454
T3C0.0689
T4C0.1200
T5C0.1570
%
G90
G05
T1
X1.7025Y-0.7186
X1.93Y-0.7186
T2
X11.21Y-0.855
X1.89Y-3.72
X0.845Y-0.845
T3
X8.6475Y-3.41
X9.0475Y-3.41
X5.2725Y-1.91
X5.6725Y-1.91
X1.4287Y-2.66
X1.8287Y-2.66
X7.1475Y-2.66
X7.5475Y-2.66
X9.0225Y-1.91
X3.235Y-1.16
X6.585Y-1.16
X6.985Y-1.16
X3.7725Y-1.91
X4.1725Y-1.91
X9.4225Y-1.91
X2.835Y-1.16
X3.0225Y-1.91
X3.4225Y-1.91
X8.2725Y-1.91
X8.6725Y-1.91
X9.985Y-1.16
X5.835Y-1.16
X6.235Y-1.16
X9.585Y-1.16
X5.085Y-1.16
X5.485Y-1.16
X1.2412Y-1.91
X1.6412Y-1.91
X3.0225Y-3.41
X3.4225Y-3.41
X10.5225Y-1.16
X2.485Y-3.41
X1.1475Y-1.16
X1.5475Y-1.16
X2.085Y-3.41
X10.9225Y-1.16
X3.3975Y-2.66
X3.7975Y-2.66
X6.235Y-3.41
X6.3975Y-2.66
X6.7975Y-2.66
X5.835Y-3.41
X10.4287Y-2.66
X4.335Y-1.16
X4.735Y-1.16
X7.71Y-3.41
X8.11Y-3.41
X5.6475Y-2.66
X6.0475Y-2.66
X7.5225Y-1.91
X7.9225Y-1.91
X8.835Y-1.16
X9.235Y-1.16
X2.085Y-1.16
X2.485Y-1.16
X10.8287Y-2.66
X4.8975Y-2.66
X5.2975Y-2.66
X6.7725Y-1.91
X7.1725Y-1.91
X9.4912Y-2.66
X9.8912Y-2.66
X8.085Y-1.16
X8.485Y-1.16
X4.5225Y-1.91
X4.9225Y-1.91
X4.1475Y-2.66
X4.335Y-3.41
X4.735Y-3.41
X2.2725Y-1.91
X10.2412Y-1.91
X6.61Y-3.41
X6.0225Y-1.91
X6.4225Y-1.91
X7.735Y-1.16
X2.6725Y-1.91
X10.6412Y-1.91
X7.335Y-1.16
X3.585Y-1.16
X3.985Y-1.16
X8.6475Y-2.66
X9.0475Y-2.66
X4.5475Y-2.66
X9.585Y-3.41
X7.8975Y-2.66
X8.2975Y-2.66
X2.6475Y-2.66
X3.0475Y-2.66
X6.21Y-3.41
X9.985Y-3.41
T4
X4.0665Y-3.685
X8.0035Y-3.685
X4.0663Y-3.685
X5.0038Y-3.685
X9.9725Y-1.635
X5.9413Y-3.685
X6.8788Y-3.685
X10.91Y-1.635
X1.16Y-2.935
X2.0975Y-2.935
T5
X3.9725Y-1.91
X7.91Y-3.41
X5.8475Y-2.66
X10.7225Y-1.16
X6.5975Y-2.66
X1.3475Y-1.16
X6.035Y-1.16
X4.0665Y-3.085
X6.035Y-3.41
X8.0035Y-3.085
X3.5975Y-2.66
X8.4725Y-1.91
X5.285Y-1.16
X3.2225Y-3.41
X2.285Y-3.41
X3.2225Y-1.91
X7.7225Y-1.91
X4.535Y-1.16
X9.035Y-1.16
X4.535Y-3.41
X2.285Y-1.16
X10.6288Y-2.66
X4.0663Y-3.085
X5.0038Y-3.085
X5.0975Y-2.66
X2.4725Y-1.91
X9.9725Y-2.235
X10.4413Y-1.91
X5.9413Y-3.085
X6.9725Y-1.91
X6.41Y-3.41
X6.8788Y-3.085
X6.2225Y-1.91
X8.285Y-1.16
X10.91Y-2.235
X9.6913Y-2.66
X4.7225Y-1.91
X4.3475Y-2.66
X5.4725Y-1.91
X7.535Y-1.16
X3.785Y-1.16
X2.8475Y-2.66
X8.8475Y-2.66
X9.785Y-3.41
X3.035Y-1.16
X9.2225Y-1.91
X6.785Y-1.16
X8.0975Y-2.66
X8.8475Y-3.41
X1.16Y-2.335
X1.6287Y-2.66
X2.0975Y-2.335
X7.3475Y-2.66
X1.4412Y-1.91
X9.785Y-1.16
T0
M30
