G04 #@! TF.GenerationSoftware,KiCad,Pcbnew,(5.1.4-0-10_14)*
G04 #@! TF.CreationDate,2020-05-16T01:02:51+09:00*
G04 #@! TF.ProjectId,chavdai40,63686176-6461-4693-9430-2e6b69636164,rev?*
G04 #@! TF.SameCoordinates,Original*
G04 #@! TF.FileFunction,Soldermask,Top*
G04 #@! TF.FilePolarity,Negative*
%FSLAX46Y46*%
G04 Gerber Fmt 4.6, Leading zero omitted, Abs format (unit mm)*
G04 Created by KiCad (PCBNEW (5.1.4-0-10_14)) date 2020-05-16 01:02:51*
%MOMM*%
%LPD*%
G04 APERTURE LIST*
%ADD10C,0.100000*%
G04 APERTURE END LIST*
D10*
G36*
X48147343Y-93777421D02*
G01*
X48217329Y-93791342D01*
X48349180Y-93845956D01*
X48467842Y-93925244D01*
X48568756Y-94026158D01*
X48648044Y-94144820D01*
X48702658Y-94276671D01*
X48730500Y-94416643D01*
X48730500Y-94559357D01*
X48702658Y-94699329D01*
X48648044Y-94831180D01*
X48568756Y-94949842D01*
X48467842Y-95050756D01*
X48349180Y-95130044D01*
X48217329Y-95184658D01*
X48147343Y-95198579D01*
X48077358Y-95212500D01*
X47934642Y-95212500D01*
X47864657Y-95198579D01*
X47794671Y-95184658D01*
X47662820Y-95130044D01*
X47544158Y-95050756D01*
X47443244Y-94949842D01*
X47363956Y-94831180D01*
X47309342Y-94699329D01*
X47281500Y-94559357D01*
X47281500Y-94416643D01*
X47309342Y-94276671D01*
X47363956Y-94144820D01*
X47443244Y-94026158D01*
X47544158Y-93925244D01*
X47662820Y-93845956D01*
X47794671Y-93791342D01*
X47864657Y-93777421D01*
X47934642Y-93763500D01*
X48077358Y-93763500D01*
X48147343Y-93777421D01*
X48147343Y-93777421D01*
G37*
G36*
X175027517Y-92054263D02*
G01*
X175179661Y-92084526D01*
X175298387Y-92133704D01*
X175466291Y-92203252D01*
X175466292Y-92203253D01*
X175724254Y-92375617D01*
X175943633Y-92594996D01*
X176058803Y-92767361D01*
X176115998Y-92852959D01*
X176234724Y-93139590D01*
X176295250Y-93443875D01*
X176295250Y-93754125D01*
X176234724Y-94058410D01*
X176115998Y-94345041D01*
X176115997Y-94345042D01*
X175943633Y-94603004D01*
X175724254Y-94822383D01*
X175551889Y-94937553D01*
X175466291Y-94994748D01*
X175331075Y-95050756D01*
X175179661Y-95113474D01*
X175096362Y-95130043D01*
X174875375Y-95174000D01*
X174565125Y-95174000D01*
X174344138Y-95130043D01*
X174260839Y-95113474D01*
X174109425Y-95050756D01*
X173974209Y-94994748D01*
X173888611Y-94937553D01*
X173716246Y-94822383D01*
X173496867Y-94603004D01*
X173324503Y-94345042D01*
X173324502Y-94345041D01*
X173205776Y-94058410D01*
X173145250Y-93754125D01*
X173145250Y-93443875D01*
X173205776Y-93139590D01*
X173324502Y-92852959D01*
X173381697Y-92767361D01*
X173496867Y-92594996D01*
X173716246Y-92375617D01*
X173974208Y-92203253D01*
X173974209Y-92203252D01*
X174142113Y-92133704D01*
X174260839Y-92084526D01*
X174412983Y-92054263D01*
X174565125Y-92024000D01*
X174875375Y-92024000D01*
X175027517Y-92054263D01*
X175027517Y-92054263D01*
G37*
G36*
X151215017Y-92054263D02*
G01*
X151367161Y-92084526D01*
X151485887Y-92133704D01*
X151653791Y-92203252D01*
X151653792Y-92203253D01*
X151911754Y-92375617D01*
X152131133Y-92594996D01*
X152246303Y-92767361D01*
X152303498Y-92852959D01*
X152422224Y-93139590D01*
X152482750Y-93443875D01*
X152482750Y-93754125D01*
X152422224Y-94058410D01*
X152303498Y-94345041D01*
X152303497Y-94345042D01*
X152131133Y-94603004D01*
X151911754Y-94822383D01*
X151739389Y-94937553D01*
X151653791Y-94994748D01*
X151518575Y-95050756D01*
X151367161Y-95113474D01*
X151283862Y-95130043D01*
X151062875Y-95174000D01*
X150752625Y-95174000D01*
X150531638Y-95130043D01*
X150448339Y-95113474D01*
X150296925Y-95050756D01*
X150161709Y-94994748D01*
X150076111Y-94937553D01*
X149903746Y-94822383D01*
X149684367Y-94603004D01*
X149512003Y-94345042D01*
X149512002Y-94345041D01*
X149393276Y-94058410D01*
X149332750Y-93754125D01*
X149332750Y-93443875D01*
X149393276Y-93139590D01*
X149512002Y-92852959D01*
X149569197Y-92767361D01*
X149684367Y-92594996D01*
X149903746Y-92375617D01*
X150161708Y-92203253D01*
X150161709Y-92203252D01*
X150329613Y-92133704D01*
X150448339Y-92084526D01*
X150600483Y-92054263D01*
X150752625Y-92024000D01*
X151062875Y-92024000D01*
X151215017Y-92054263D01*
X151215017Y-92054263D01*
G37*
G36*
X127402517Y-92054263D02*
G01*
X127554661Y-92084526D01*
X127673387Y-92133704D01*
X127841291Y-92203252D01*
X127841292Y-92203253D01*
X128099254Y-92375617D01*
X128318633Y-92594996D01*
X128433803Y-92767361D01*
X128490998Y-92852959D01*
X128609724Y-93139590D01*
X128670250Y-93443875D01*
X128670250Y-93754125D01*
X128609724Y-94058410D01*
X128490998Y-94345041D01*
X128490997Y-94345042D01*
X128318633Y-94603004D01*
X128099254Y-94822383D01*
X127926889Y-94937553D01*
X127841291Y-94994748D01*
X127706075Y-95050756D01*
X127554661Y-95113474D01*
X127471362Y-95130043D01*
X127250375Y-95174000D01*
X126940125Y-95174000D01*
X126719138Y-95130043D01*
X126635839Y-95113474D01*
X126484425Y-95050756D01*
X126349209Y-94994748D01*
X126263611Y-94937553D01*
X126091246Y-94822383D01*
X125871867Y-94603004D01*
X125699503Y-94345042D01*
X125699502Y-94345041D01*
X125580776Y-94058410D01*
X125520250Y-93754125D01*
X125520250Y-93443875D01*
X125580776Y-93139590D01*
X125699502Y-92852959D01*
X125756697Y-92767361D01*
X125871867Y-92594996D01*
X126091246Y-92375617D01*
X126349208Y-92203253D01*
X126349209Y-92203252D01*
X126517113Y-92133704D01*
X126635839Y-92084526D01*
X126787983Y-92054263D01*
X126940125Y-92024000D01*
X127250375Y-92024000D01*
X127402517Y-92054263D01*
X127402517Y-92054263D01*
G37*
G36*
X103596367Y-92054263D02*
G01*
X103748511Y-92084526D01*
X103867237Y-92133704D01*
X104035141Y-92203252D01*
X104035142Y-92203253D01*
X104293104Y-92375617D01*
X104512483Y-92594996D01*
X104627653Y-92767361D01*
X104684848Y-92852959D01*
X104803574Y-93139590D01*
X104864100Y-93443875D01*
X104864100Y-93754125D01*
X104803574Y-94058410D01*
X104684848Y-94345041D01*
X104684847Y-94345042D01*
X104512483Y-94603004D01*
X104293104Y-94822383D01*
X104120739Y-94937553D01*
X104035141Y-94994748D01*
X103899925Y-95050756D01*
X103748511Y-95113474D01*
X103665212Y-95130043D01*
X103444225Y-95174000D01*
X103127625Y-95174000D01*
X102906638Y-95130043D01*
X102823339Y-95113474D01*
X102671925Y-95050756D01*
X102536709Y-94994748D01*
X102451111Y-94937553D01*
X102278746Y-94822383D01*
X102059367Y-94603004D01*
X101887003Y-94345042D01*
X101887002Y-94345041D01*
X101768276Y-94058410D01*
X101707750Y-93754125D01*
X101707750Y-93443875D01*
X101768276Y-93139590D01*
X101887002Y-92852959D01*
X101944197Y-92767361D01*
X102059367Y-92594996D01*
X102278746Y-92375617D01*
X102536708Y-92203253D01*
X102536709Y-92203252D01*
X102704613Y-92133704D01*
X102823339Y-92084526D01*
X102975483Y-92054263D01*
X103127625Y-92024000D01*
X103444225Y-92024000D01*
X103596367Y-92054263D01*
X103596367Y-92054263D01*
G37*
G36*
X203596167Y-92054263D02*
G01*
X203748311Y-92084526D01*
X203867037Y-92133704D01*
X204034941Y-92203252D01*
X204034942Y-92203253D01*
X204292904Y-92375617D01*
X204512283Y-92594996D01*
X204627453Y-92767361D01*
X204684648Y-92852959D01*
X204803374Y-93139590D01*
X204863900Y-93443875D01*
X204863900Y-93754125D01*
X204803374Y-94058410D01*
X204684648Y-94345041D01*
X204684647Y-94345042D01*
X204512283Y-94603004D01*
X204292904Y-94822383D01*
X204120539Y-94937553D01*
X204034941Y-94994748D01*
X203899725Y-95050756D01*
X203748311Y-95113474D01*
X203665012Y-95130043D01*
X203444025Y-95174000D01*
X203133775Y-95174000D01*
X202912788Y-95130043D01*
X202829489Y-95113474D01*
X202678075Y-95050756D01*
X202542859Y-94994748D01*
X202457261Y-94937553D01*
X202284896Y-94822383D01*
X202065517Y-94603004D01*
X201893153Y-94345042D01*
X201893152Y-94345041D01*
X201774426Y-94058410D01*
X201713900Y-93754125D01*
X201713900Y-93443875D01*
X201774426Y-93139590D01*
X201893152Y-92852959D01*
X201950347Y-92767361D01*
X202065517Y-92594996D01*
X202284896Y-92375617D01*
X202542858Y-92203253D01*
X202542859Y-92203252D01*
X202710763Y-92133704D01*
X202829489Y-92084526D01*
X202981633Y-92054263D01*
X203133775Y-92024000D01*
X203444025Y-92024000D01*
X203596167Y-92054263D01*
X203596167Y-92054263D01*
G37*
G36*
X249135474Y-84647684D02*
G01*
X249353474Y-84737983D01*
X249507623Y-84801833D01*
X249842548Y-85025623D01*
X250127377Y-85310452D01*
X250351167Y-85645377D01*
X250386433Y-85730518D01*
X250505316Y-86017526D01*
X250583900Y-86412594D01*
X250583900Y-86815406D01*
X250505316Y-87210474D01*
X250454451Y-87333272D01*
X250351167Y-87582623D01*
X250127377Y-87917548D01*
X249842548Y-88202377D01*
X249507623Y-88426167D01*
X249353474Y-88490017D01*
X249135474Y-88580316D01*
X248740406Y-88658900D01*
X248337594Y-88658900D01*
X247942526Y-88580316D01*
X247724526Y-88490017D01*
X247570377Y-88426167D01*
X247235452Y-88202377D01*
X246950623Y-87917548D01*
X246726833Y-87582623D01*
X246623549Y-87333272D01*
X246572684Y-87210474D01*
X246494100Y-86815406D01*
X246494100Y-86412594D01*
X246572684Y-86017526D01*
X246691567Y-85730518D01*
X246726833Y-85645377D01*
X246950623Y-85310452D01*
X247235452Y-85025623D01*
X247570377Y-84801833D01*
X247724526Y-84737983D01*
X247942526Y-84647684D01*
X248337594Y-84569100D01*
X248740406Y-84569100D01*
X249135474Y-84647684D01*
X249135474Y-84647684D01*
G37*
G36*
X225322974Y-84647684D02*
G01*
X225540974Y-84737983D01*
X225695123Y-84801833D01*
X226030048Y-85025623D01*
X226314877Y-85310452D01*
X226538667Y-85645377D01*
X226573933Y-85730518D01*
X226692816Y-86017526D01*
X226771400Y-86412594D01*
X226771400Y-86815406D01*
X226692816Y-87210474D01*
X226641951Y-87333272D01*
X226538667Y-87582623D01*
X226314877Y-87917548D01*
X226030048Y-88202377D01*
X225695123Y-88426167D01*
X225540974Y-88490017D01*
X225322974Y-88580316D01*
X224927906Y-88658900D01*
X224525094Y-88658900D01*
X224130026Y-88580316D01*
X223912026Y-88490017D01*
X223757877Y-88426167D01*
X223422952Y-88202377D01*
X223138123Y-87917548D01*
X222914333Y-87582623D01*
X222811049Y-87333272D01*
X222760184Y-87210474D01*
X222681600Y-86815406D01*
X222681600Y-86412594D01*
X222760184Y-86017526D01*
X222879067Y-85730518D01*
X222914333Y-85645377D01*
X223138123Y-85310452D01*
X223422952Y-85025623D01*
X223757877Y-84801833D01*
X223912026Y-84737983D01*
X224130026Y-84647684D01*
X224525094Y-84569100D01*
X224927906Y-84569100D01*
X225322974Y-84647684D01*
X225322974Y-84647684D01*
G37*
G36*
X201510474Y-84647684D02*
G01*
X201728474Y-84737983D01*
X201882623Y-84801833D01*
X202217548Y-85025623D01*
X202502377Y-85310452D01*
X202726167Y-85645377D01*
X202761433Y-85730518D01*
X202880316Y-86017526D01*
X202958900Y-86412594D01*
X202958900Y-86815406D01*
X202880316Y-87210474D01*
X202829451Y-87333272D01*
X202726167Y-87582623D01*
X202502377Y-87917548D01*
X202217548Y-88202377D01*
X201882623Y-88426167D01*
X201728474Y-88490017D01*
X201510474Y-88580316D01*
X201115406Y-88658900D01*
X200712594Y-88658900D01*
X200317526Y-88580316D01*
X200099526Y-88490017D01*
X199945377Y-88426167D01*
X199610452Y-88202377D01*
X199325623Y-87917548D01*
X199101833Y-87582623D01*
X198998549Y-87333272D01*
X198947684Y-87210474D01*
X198869100Y-86815406D01*
X198869100Y-86412594D01*
X198947684Y-86017526D01*
X199066567Y-85730518D01*
X199101833Y-85645377D01*
X199325623Y-85310452D01*
X199610452Y-85025623D01*
X199945377Y-84801833D01*
X200099526Y-84737983D01*
X200317526Y-84647684D01*
X200712594Y-84569100D01*
X201115406Y-84569100D01*
X201510474Y-84647684D01*
X201510474Y-84647684D01*
G37*
G36*
X163410474Y-84647684D02*
G01*
X163628474Y-84737983D01*
X163782623Y-84801833D01*
X164117548Y-85025623D01*
X164402377Y-85310452D01*
X164626167Y-85645377D01*
X164661433Y-85730518D01*
X164780316Y-86017526D01*
X164858900Y-86412594D01*
X164858900Y-86815406D01*
X164780316Y-87210474D01*
X164729451Y-87333272D01*
X164626167Y-87582623D01*
X164402377Y-87917548D01*
X164117548Y-88202377D01*
X163782623Y-88426167D01*
X163628474Y-88490017D01*
X163410474Y-88580316D01*
X163015406Y-88658900D01*
X162612594Y-88658900D01*
X162217526Y-88580316D01*
X161999526Y-88490017D01*
X161845377Y-88426167D01*
X161510452Y-88202377D01*
X161225623Y-87917548D01*
X161001833Y-87582623D01*
X160898549Y-87333272D01*
X160847684Y-87210474D01*
X160769100Y-86815406D01*
X160769100Y-86412594D01*
X160847684Y-86017526D01*
X160966567Y-85730518D01*
X161001833Y-85645377D01*
X161225623Y-85310452D01*
X161510452Y-85025623D01*
X161845377Y-84801833D01*
X161999526Y-84737983D01*
X162217526Y-84647684D01*
X162612594Y-84569100D01*
X163015406Y-84569100D01*
X163410474Y-84647684D01*
X163410474Y-84647684D01*
G37*
G36*
X153885474Y-84647684D02*
G01*
X154103474Y-84737983D01*
X154257623Y-84801833D01*
X154592548Y-85025623D01*
X154877377Y-85310452D01*
X155101167Y-85645377D01*
X155136433Y-85730518D01*
X155255316Y-86017526D01*
X155333900Y-86412594D01*
X155333900Y-86815406D01*
X155255316Y-87210474D01*
X155204451Y-87333272D01*
X155101167Y-87582623D01*
X154877377Y-87917548D01*
X154592548Y-88202377D01*
X154257623Y-88426167D01*
X154103474Y-88490017D01*
X153885474Y-88580316D01*
X153490406Y-88658900D01*
X153087594Y-88658900D01*
X152692526Y-88580316D01*
X152474526Y-88490017D01*
X152320377Y-88426167D01*
X151985452Y-88202377D01*
X151700623Y-87917548D01*
X151476833Y-87582623D01*
X151373549Y-87333272D01*
X151322684Y-87210474D01*
X151244100Y-86815406D01*
X151244100Y-86412594D01*
X151322684Y-86017526D01*
X151441567Y-85730518D01*
X151476833Y-85645377D01*
X151700623Y-85310452D01*
X151985452Y-85025623D01*
X152320377Y-84801833D01*
X152474526Y-84737983D01*
X152692526Y-84647684D01*
X153087594Y-84569100D01*
X153490406Y-84569100D01*
X153885474Y-84647684D01*
X153885474Y-84647684D01*
G37*
G36*
X115785474Y-84647684D02*
G01*
X116003474Y-84737983D01*
X116157623Y-84801833D01*
X116492548Y-85025623D01*
X116777377Y-85310452D01*
X117001167Y-85645377D01*
X117036433Y-85730518D01*
X117155316Y-86017526D01*
X117233900Y-86412594D01*
X117233900Y-86815406D01*
X117155316Y-87210474D01*
X117104451Y-87333272D01*
X117001167Y-87582623D01*
X116777377Y-87917548D01*
X116492548Y-88202377D01*
X116157623Y-88426167D01*
X116003474Y-88490017D01*
X115785474Y-88580316D01*
X115390406Y-88658900D01*
X114987594Y-88658900D01*
X114592526Y-88580316D01*
X114374526Y-88490017D01*
X114220377Y-88426167D01*
X113885452Y-88202377D01*
X113600623Y-87917548D01*
X113376833Y-87582623D01*
X113273549Y-87333272D01*
X113222684Y-87210474D01*
X113144100Y-86815406D01*
X113144100Y-86412594D01*
X113222684Y-86017526D01*
X113341567Y-85730518D01*
X113376833Y-85645377D01*
X113600623Y-85310452D01*
X113885452Y-85025623D01*
X114220377Y-84801833D01*
X114374526Y-84737983D01*
X114592526Y-84647684D01*
X114987594Y-84569100D01*
X115390406Y-84569100D01*
X115785474Y-84647684D01*
X115785474Y-84647684D01*
G37*
G36*
X82447974Y-84647684D02*
G01*
X82665974Y-84737983D01*
X82820123Y-84801833D01*
X83155048Y-85025623D01*
X83439877Y-85310452D01*
X83663667Y-85645377D01*
X83698933Y-85730518D01*
X83817816Y-86017526D01*
X83896400Y-86412594D01*
X83896400Y-86815406D01*
X83817816Y-87210474D01*
X83766951Y-87333272D01*
X83663667Y-87582623D01*
X83439877Y-87917548D01*
X83155048Y-88202377D01*
X82820123Y-88426167D01*
X82665974Y-88490017D01*
X82447974Y-88580316D01*
X82052906Y-88658900D01*
X81650094Y-88658900D01*
X81255026Y-88580316D01*
X81037026Y-88490017D01*
X80882877Y-88426167D01*
X80547952Y-88202377D01*
X80263123Y-87917548D01*
X80039333Y-87582623D01*
X79936049Y-87333272D01*
X79885184Y-87210474D01*
X79806600Y-86815406D01*
X79806600Y-86412594D01*
X79885184Y-86017526D01*
X80004067Y-85730518D01*
X80039333Y-85645377D01*
X80263123Y-85310452D01*
X80547952Y-85025623D01*
X80882877Y-84801833D01*
X81037026Y-84737983D01*
X81255026Y-84647684D01*
X81650094Y-84569100D01*
X82052906Y-84569100D01*
X82447974Y-84647684D01*
X82447974Y-84647684D01*
G37*
G36*
X58635474Y-84647684D02*
G01*
X58853474Y-84737983D01*
X59007623Y-84801833D01*
X59342548Y-85025623D01*
X59627377Y-85310452D01*
X59851167Y-85645377D01*
X59886433Y-85730518D01*
X60005316Y-86017526D01*
X60083900Y-86412594D01*
X60083900Y-86815406D01*
X60005316Y-87210474D01*
X59954451Y-87333272D01*
X59851167Y-87582623D01*
X59627377Y-87917548D01*
X59342548Y-88202377D01*
X59007623Y-88426167D01*
X58853474Y-88490017D01*
X58635474Y-88580316D01*
X58240406Y-88658900D01*
X57837594Y-88658900D01*
X57442526Y-88580316D01*
X57224526Y-88490017D01*
X57070377Y-88426167D01*
X56735452Y-88202377D01*
X56450623Y-87917548D01*
X56226833Y-87582623D01*
X56123549Y-87333272D01*
X56072684Y-87210474D01*
X55994100Y-86815406D01*
X55994100Y-86412594D01*
X56072684Y-86017526D01*
X56191567Y-85730518D01*
X56226833Y-85645377D01*
X56450623Y-85310452D01*
X56735452Y-85025623D01*
X57070377Y-84801833D01*
X57224526Y-84737983D01*
X57442526Y-84647684D01*
X57837594Y-84569100D01*
X58240406Y-84569100D01*
X58635474Y-84647684D01*
X58635474Y-84647684D01*
G37*
G36*
X63389104Y-85723585D02*
G01*
X63557626Y-85793389D01*
X63709291Y-85894728D01*
X63838272Y-86023709D01*
X63939611Y-86175374D01*
X64009415Y-86343896D01*
X64045000Y-86522797D01*
X64045000Y-86705203D01*
X64009415Y-86884104D01*
X63939611Y-87052626D01*
X63838272Y-87204291D01*
X63709291Y-87333272D01*
X63557626Y-87434611D01*
X63389104Y-87504415D01*
X63210203Y-87540000D01*
X63027797Y-87540000D01*
X62848896Y-87504415D01*
X62680374Y-87434611D01*
X62528709Y-87333272D01*
X62399728Y-87204291D01*
X62298389Y-87052626D01*
X62228585Y-86884104D01*
X62193000Y-86705203D01*
X62193000Y-86522797D01*
X62228585Y-86343896D01*
X62298389Y-86175374D01*
X62399728Y-86023709D01*
X62528709Y-85894728D01*
X62680374Y-85793389D01*
X62848896Y-85723585D01*
X63027797Y-85688000D01*
X63210203Y-85688000D01*
X63389104Y-85723585D01*
X63389104Y-85723585D01*
G37*
G36*
X53229104Y-85723585D02*
G01*
X53397626Y-85793389D01*
X53549291Y-85894728D01*
X53678272Y-86023709D01*
X53779611Y-86175374D01*
X53849415Y-86343896D01*
X53885000Y-86522797D01*
X53885000Y-86705203D01*
X53849415Y-86884104D01*
X53779611Y-87052626D01*
X53678272Y-87204291D01*
X53549291Y-87333272D01*
X53397626Y-87434611D01*
X53229104Y-87504415D01*
X53050203Y-87540000D01*
X52867797Y-87540000D01*
X52688896Y-87504415D01*
X52520374Y-87434611D01*
X52368709Y-87333272D01*
X52239728Y-87204291D01*
X52138389Y-87052626D01*
X52068585Y-86884104D01*
X52033000Y-86705203D01*
X52033000Y-86522797D01*
X52068585Y-86343896D01*
X52138389Y-86175374D01*
X52239728Y-86023709D01*
X52368709Y-85894728D01*
X52520374Y-85793389D01*
X52688896Y-85723585D01*
X52867797Y-85688000D01*
X53050203Y-85688000D01*
X53229104Y-85723585D01*
X53229104Y-85723585D01*
G37*
G36*
X206264104Y-85723585D02*
G01*
X206432626Y-85793389D01*
X206584291Y-85894728D01*
X206713272Y-86023709D01*
X206814611Y-86175374D01*
X206884415Y-86343896D01*
X206920000Y-86522797D01*
X206920000Y-86705203D01*
X206884415Y-86884104D01*
X206814611Y-87052626D01*
X206713272Y-87204291D01*
X206584291Y-87333272D01*
X206432626Y-87434611D01*
X206264104Y-87504415D01*
X206085203Y-87540000D01*
X205902797Y-87540000D01*
X205723896Y-87504415D01*
X205555374Y-87434611D01*
X205403709Y-87333272D01*
X205274728Y-87204291D01*
X205173389Y-87052626D01*
X205103585Y-86884104D01*
X205068000Y-86705203D01*
X205068000Y-86522797D01*
X205103585Y-86343896D01*
X205173389Y-86175374D01*
X205274728Y-86023709D01*
X205403709Y-85894728D01*
X205555374Y-85793389D01*
X205723896Y-85723585D01*
X205902797Y-85688000D01*
X206085203Y-85688000D01*
X206264104Y-85723585D01*
X206264104Y-85723585D01*
G37*
G36*
X196104104Y-85723585D02*
G01*
X196272626Y-85793389D01*
X196424291Y-85894728D01*
X196553272Y-86023709D01*
X196654611Y-86175374D01*
X196724415Y-86343896D01*
X196760000Y-86522797D01*
X196760000Y-86705203D01*
X196724415Y-86884104D01*
X196654611Y-87052626D01*
X196553272Y-87204291D01*
X196424291Y-87333272D01*
X196272626Y-87434611D01*
X196104104Y-87504415D01*
X195925203Y-87540000D01*
X195742797Y-87540000D01*
X195563896Y-87504415D01*
X195395374Y-87434611D01*
X195243709Y-87333272D01*
X195114728Y-87204291D01*
X195013389Y-87052626D01*
X194943585Y-86884104D01*
X194908000Y-86705203D01*
X194908000Y-86522797D01*
X194943585Y-86343896D01*
X195013389Y-86175374D01*
X195114728Y-86023709D01*
X195243709Y-85894728D01*
X195395374Y-85793389D01*
X195563896Y-85723585D01*
X195742797Y-85688000D01*
X195925203Y-85688000D01*
X196104104Y-85723585D01*
X196104104Y-85723585D01*
G37*
G36*
X253889104Y-85723585D02*
G01*
X254057626Y-85793389D01*
X254209291Y-85894728D01*
X254338272Y-86023709D01*
X254439611Y-86175374D01*
X254509415Y-86343896D01*
X254545000Y-86522797D01*
X254545000Y-86705203D01*
X254509415Y-86884104D01*
X254439611Y-87052626D01*
X254338272Y-87204291D01*
X254209291Y-87333272D01*
X254057626Y-87434611D01*
X253889104Y-87504415D01*
X253710203Y-87540000D01*
X253527797Y-87540000D01*
X253348896Y-87504415D01*
X253180374Y-87434611D01*
X253028709Y-87333272D01*
X252899728Y-87204291D01*
X252798389Y-87052626D01*
X252728585Y-86884104D01*
X252693000Y-86705203D01*
X252693000Y-86522797D01*
X252728585Y-86343896D01*
X252798389Y-86175374D01*
X252899728Y-86023709D01*
X253028709Y-85894728D01*
X253180374Y-85793389D01*
X253348896Y-85723585D01*
X253527797Y-85688000D01*
X253710203Y-85688000D01*
X253889104Y-85723585D01*
X253889104Y-85723585D01*
G37*
G36*
X243729104Y-85723585D02*
G01*
X243897626Y-85793389D01*
X244049291Y-85894728D01*
X244178272Y-86023709D01*
X244279611Y-86175374D01*
X244349415Y-86343896D01*
X244385000Y-86522797D01*
X244385000Y-86705203D01*
X244349415Y-86884104D01*
X244279611Y-87052626D01*
X244178272Y-87204291D01*
X244049291Y-87333272D01*
X243897626Y-87434611D01*
X243729104Y-87504415D01*
X243550203Y-87540000D01*
X243367797Y-87540000D01*
X243188896Y-87504415D01*
X243020374Y-87434611D01*
X242868709Y-87333272D01*
X242739728Y-87204291D01*
X242638389Y-87052626D01*
X242568585Y-86884104D01*
X242533000Y-86705203D01*
X242533000Y-86522797D01*
X242568585Y-86343896D01*
X242638389Y-86175374D01*
X242739728Y-86023709D01*
X242868709Y-85894728D01*
X243020374Y-85793389D01*
X243188896Y-85723585D01*
X243367797Y-85688000D01*
X243550203Y-85688000D01*
X243729104Y-85723585D01*
X243729104Y-85723585D01*
G37*
G36*
X230076604Y-85723585D02*
G01*
X230245126Y-85793389D01*
X230396791Y-85894728D01*
X230525772Y-86023709D01*
X230627111Y-86175374D01*
X230696915Y-86343896D01*
X230732500Y-86522797D01*
X230732500Y-86705203D01*
X230696915Y-86884104D01*
X230627111Y-87052626D01*
X230525772Y-87204291D01*
X230396791Y-87333272D01*
X230245126Y-87434611D01*
X230076604Y-87504415D01*
X229897703Y-87540000D01*
X229715297Y-87540000D01*
X229536396Y-87504415D01*
X229367874Y-87434611D01*
X229216209Y-87333272D01*
X229087228Y-87204291D01*
X228985889Y-87052626D01*
X228916085Y-86884104D01*
X228880500Y-86705203D01*
X228880500Y-86522797D01*
X228916085Y-86343896D01*
X228985889Y-86175374D01*
X229087228Y-86023709D01*
X229216209Y-85894728D01*
X229367874Y-85793389D01*
X229536396Y-85723585D01*
X229715297Y-85688000D01*
X229897703Y-85688000D01*
X230076604Y-85723585D01*
X230076604Y-85723585D01*
G37*
G36*
X77041604Y-85723585D02*
G01*
X77210126Y-85793389D01*
X77361791Y-85894728D01*
X77490772Y-86023709D01*
X77592111Y-86175374D01*
X77661915Y-86343896D01*
X77697500Y-86522797D01*
X77697500Y-86705203D01*
X77661915Y-86884104D01*
X77592111Y-87052626D01*
X77490772Y-87204291D01*
X77361791Y-87333272D01*
X77210126Y-87434611D01*
X77041604Y-87504415D01*
X76862703Y-87540000D01*
X76680297Y-87540000D01*
X76501396Y-87504415D01*
X76332874Y-87434611D01*
X76181209Y-87333272D01*
X76052228Y-87204291D01*
X75950889Y-87052626D01*
X75881085Y-86884104D01*
X75845500Y-86705203D01*
X75845500Y-86522797D01*
X75881085Y-86343896D01*
X75950889Y-86175374D01*
X76052228Y-86023709D01*
X76181209Y-85894728D01*
X76332874Y-85793389D01*
X76501396Y-85723585D01*
X76680297Y-85688000D01*
X76862703Y-85688000D01*
X77041604Y-85723585D01*
X77041604Y-85723585D01*
G37*
G36*
X148479104Y-85723585D02*
G01*
X148647626Y-85793389D01*
X148799291Y-85894728D01*
X148928272Y-86023709D01*
X149029611Y-86175374D01*
X149099415Y-86343896D01*
X149135000Y-86522797D01*
X149135000Y-86705203D01*
X149099415Y-86884104D01*
X149029611Y-87052626D01*
X148928272Y-87204291D01*
X148799291Y-87333272D01*
X148647626Y-87434611D01*
X148479104Y-87504415D01*
X148300203Y-87540000D01*
X148117797Y-87540000D01*
X147938896Y-87504415D01*
X147770374Y-87434611D01*
X147618709Y-87333272D01*
X147489728Y-87204291D01*
X147388389Y-87052626D01*
X147318585Y-86884104D01*
X147283000Y-86705203D01*
X147283000Y-86522797D01*
X147318585Y-86343896D01*
X147388389Y-86175374D01*
X147489728Y-86023709D01*
X147618709Y-85894728D01*
X147770374Y-85793389D01*
X147938896Y-85723585D01*
X148117797Y-85688000D01*
X148300203Y-85688000D01*
X148479104Y-85723585D01*
X148479104Y-85723585D01*
G37*
G36*
X158004104Y-85723585D02*
G01*
X158004110Y-85723588D01*
X158004565Y-85723678D01*
X158027118Y-85730518D01*
X158051504Y-85732919D01*
X158075890Y-85730516D01*
X158098435Y-85723678D01*
X158098890Y-85723588D01*
X158098896Y-85723585D01*
X158277797Y-85688000D01*
X158460203Y-85688000D01*
X158639104Y-85723585D01*
X158807626Y-85793389D01*
X158959291Y-85894728D01*
X159088272Y-86023709D01*
X159189611Y-86175374D01*
X159259415Y-86343896D01*
X159295000Y-86522797D01*
X159295000Y-86705203D01*
X159259415Y-86884104D01*
X159189611Y-87052626D01*
X159088272Y-87204291D01*
X158959291Y-87333272D01*
X158807626Y-87434611D01*
X158639104Y-87504415D01*
X158460203Y-87540000D01*
X158277797Y-87540000D01*
X158098896Y-87504415D01*
X158098890Y-87504412D01*
X158098435Y-87504322D01*
X158075882Y-87497482D01*
X158051496Y-87495081D01*
X158027110Y-87497484D01*
X158004565Y-87504322D01*
X158004110Y-87504412D01*
X158004104Y-87504415D01*
X157825203Y-87540000D01*
X157642797Y-87540000D01*
X157463896Y-87504415D01*
X157295374Y-87434611D01*
X157143709Y-87333272D01*
X157014728Y-87204291D01*
X156913389Y-87052626D01*
X156843585Y-86884104D01*
X156808000Y-86705203D01*
X156808000Y-86522797D01*
X156843585Y-86343896D01*
X156913389Y-86175374D01*
X157014728Y-86023709D01*
X157143709Y-85894728D01*
X157295374Y-85793389D01*
X157463896Y-85723585D01*
X157642797Y-85688000D01*
X157825203Y-85688000D01*
X158004104Y-85723585D01*
X158004104Y-85723585D01*
G37*
G36*
X87201604Y-85723585D02*
G01*
X87370126Y-85793389D01*
X87521791Y-85894728D01*
X87650772Y-86023709D01*
X87752111Y-86175374D01*
X87821915Y-86343896D01*
X87857500Y-86522797D01*
X87857500Y-86705203D01*
X87821915Y-86884104D01*
X87752111Y-87052626D01*
X87650772Y-87204291D01*
X87521791Y-87333272D01*
X87370126Y-87434611D01*
X87201604Y-87504415D01*
X87022703Y-87540000D01*
X86840297Y-87540000D01*
X86661396Y-87504415D01*
X86492874Y-87434611D01*
X86341209Y-87333272D01*
X86212228Y-87204291D01*
X86110889Y-87052626D01*
X86041085Y-86884104D01*
X86005500Y-86705203D01*
X86005500Y-86522797D01*
X86041085Y-86343896D01*
X86110889Y-86175374D01*
X86212228Y-86023709D01*
X86341209Y-85894728D01*
X86492874Y-85793389D01*
X86661396Y-85723585D01*
X86840297Y-85688000D01*
X87022703Y-85688000D01*
X87201604Y-85723585D01*
X87201604Y-85723585D01*
G37*
G36*
X110379104Y-85723585D02*
G01*
X110547626Y-85793389D01*
X110699291Y-85894728D01*
X110828272Y-86023709D01*
X110929611Y-86175374D01*
X110999415Y-86343896D01*
X111035000Y-86522797D01*
X111035000Y-86705203D01*
X110999415Y-86884104D01*
X110929611Y-87052626D01*
X110828272Y-87204291D01*
X110699291Y-87333272D01*
X110547626Y-87434611D01*
X110379104Y-87504415D01*
X110200203Y-87540000D01*
X110017797Y-87540000D01*
X109838896Y-87504415D01*
X109670374Y-87434611D01*
X109518709Y-87333272D01*
X109389728Y-87204291D01*
X109288389Y-87052626D01*
X109218585Y-86884104D01*
X109183000Y-86705203D01*
X109183000Y-86522797D01*
X109218585Y-86343896D01*
X109288389Y-86175374D01*
X109389728Y-86023709D01*
X109518709Y-85894728D01*
X109670374Y-85793389D01*
X109838896Y-85723585D01*
X110017797Y-85688000D01*
X110200203Y-85688000D01*
X110379104Y-85723585D01*
X110379104Y-85723585D01*
G37*
G36*
X219916604Y-85723585D02*
G01*
X220085126Y-85793389D01*
X220236791Y-85894728D01*
X220365772Y-86023709D01*
X220467111Y-86175374D01*
X220536915Y-86343896D01*
X220572500Y-86522797D01*
X220572500Y-86705203D01*
X220536915Y-86884104D01*
X220467111Y-87052626D01*
X220365772Y-87204291D01*
X220236791Y-87333272D01*
X220085126Y-87434611D01*
X219916604Y-87504415D01*
X219737703Y-87540000D01*
X219555297Y-87540000D01*
X219376396Y-87504415D01*
X219207874Y-87434611D01*
X219056209Y-87333272D01*
X218927228Y-87204291D01*
X218825889Y-87052626D01*
X218756085Y-86884104D01*
X218720500Y-86705203D01*
X218720500Y-86522797D01*
X218756085Y-86343896D01*
X218825889Y-86175374D01*
X218927228Y-86023709D01*
X219056209Y-85894728D01*
X219207874Y-85793389D01*
X219376396Y-85723585D01*
X219555297Y-85688000D01*
X219737703Y-85688000D01*
X219916604Y-85723585D01*
X219916604Y-85723585D01*
G37*
G36*
X120539104Y-85723585D02*
G01*
X120707626Y-85793389D01*
X120859291Y-85894728D01*
X120988272Y-86023709D01*
X121089611Y-86175374D01*
X121159415Y-86343896D01*
X121195000Y-86522797D01*
X121195000Y-86705203D01*
X121159415Y-86884104D01*
X121089611Y-87052626D01*
X120988272Y-87204291D01*
X120859291Y-87333272D01*
X120707626Y-87434611D01*
X120539104Y-87504415D01*
X120360203Y-87540000D01*
X120177797Y-87540000D01*
X119998896Y-87504415D01*
X119830374Y-87434611D01*
X119678709Y-87333272D01*
X119549728Y-87204291D01*
X119448389Y-87052626D01*
X119378585Y-86884104D01*
X119343000Y-86705203D01*
X119343000Y-86522797D01*
X119378585Y-86343896D01*
X119448389Y-86175374D01*
X119549728Y-86023709D01*
X119678709Y-85894728D01*
X119830374Y-85793389D01*
X119998896Y-85723585D01*
X120177797Y-85688000D01*
X120360203Y-85688000D01*
X120539104Y-85723585D01*
X120539104Y-85723585D01*
G37*
G36*
X168164104Y-85723585D02*
G01*
X168332626Y-85793389D01*
X168484291Y-85894728D01*
X168613272Y-86023709D01*
X168714611Y-86175374D01*
X168784415Y-86343896D01*
X168820000Y-86522797D01*
X168820000Y-86705203D01*
X168784415Y-86884104D01*
X168714611Y-87052626D01*
X168613272Y-87204291D01*
X168484291Y-87333272D01*
X168332626Y-87434611D01*
X168164104Y-87504415D01*
X167985203Y-87540000D01*
X167802797Y-87540000D01*
X167623896Y-87504415D01*
X167455374Y-87434611D01*
X167303709Y-87333272D01*
X167174728Y-87204291D01*
X167073389Y-87052626D01*
X167003585Y-86884104D01*
X166968000Y-86705203D01*
X166968000Y-86522797D01*
X167003585Y-86343896D01*
X167073389Y-86175374D01*
X167174728Y-86023709D01*
X167303709Y-85894728D01*
X167455374Y-85793389D01*
X167623896Y-85723585D01*
X167802797Y-85688000D01*
X167985203Y-85688000D01*
X168164104Y-85723585D01*
X168164104Y-85723585D01*
G37*
G36*
X103885574Y-76392684D02*
G01*
X104103574Y-76482983D01*
X104257723Y-76546833D01*
X104592648Y-76770623D01*
X104877477Y-77055452D01*
X105101267Y-77390377D01*
X105101267Y-77390378D01*
X105255416Y-77762526D01*
X105334000Y-78157594D01*
X105334000Y-78560406D01*
X105255416Y-78955474D01*
X105165117Y-79173474D01*
X105101267Y-79327623D01*
X104877477Y-79662548D01*
X104592648Y-79947377D01*
X104257723Y-80171167D01*
X104103574Y-80235017D01*
X103885574Y-80325316D01*
X103490506Y-80403900D01*
X103081344Y-80403900D01*
X102686276Y-80325316D01*
X102468276Y-80235017D01*
X102314127Y-80171167D01*
X101979202Y-79947377D01*
X101694373Y-79662548D01*
X101470583Y-79327623D01*
X101406733Y-79173474D01*
X101316434Y-78955474D01*
X101237850Y-78560406D01*
X101237850Y-78157594D01*
X101316434Y-77762526D01*
X101470583Y-77390378D01*
X101470583Y-77390377D01*
X101694373Y-77055452D01*
X101979202Y-76770623D01*
X102314127Y-76546833D01*
X102468276Y-76482983D01*
X102686276Y-76392684D01*
X103081344Y-76314100D01*
X103490506Y-76314100D01*
X103885574Y-76392684D01*
X103885574Y-76392684D01*
G37*
G36*
X127691724Y-76392684D02*
G01*
X127909724Y-76482983D01*
X128063873Y-76546833D01*
X128398798Y-76770623D01*
X128683627Y-77055452D01*
X128907417Y-77390377D01*
X128907417Y-77390378D01*
X129061566Y-77762526D01*
X129140150Y-78157594D01*
X129140150Y-78560406D01*
X129061566Y-78955474D01*
X128971267Y-79173474D01*
X128907417Y-79327623D01*
X128683627Y-79662548D01*
X128398798Y-79947377D01*
X128063873Y-80171167D01*
X127909724Y-80235017D01*
X127691724Y-80325316D01*
X127296656Y-80403900D01*
X126893844Y-80403900D01*
X126498776Y-80325316D01*
X126280776Y-80235017D01*
X126126627Y-80171167D01*
X125791702Y-79947377D01*
X125506873Y-79662548D01*
X125283083Y-79327623D01*
X125219233Y-79173474D01*
X125128934Y-78955474D01*
X125050350Y-78560406D01*
X125050350Y-78157594D01*
X125128934Y-77762526D01*
X125283083Y-77390378D01*
X125283083Y-77390377D01*
X125506873Y-77055452D01*
X125791702Y-76770623D01*
X126126627Y-76546833D01*
X126280776Y-76482983D01*
X126498776Y-76392684D01*
X126893844Y-76314100D01*
X127296656Y-76314100D01*
X127691724Y-76392684D01*
X127691724Y-76392684D01*
G37*
G36*
X175316724Y-76392684D02*
G01*
X175534724Y-76482983D01*
X175688873Y-76546833D01*
X176023798Y-76770623D01*
X176308627Y-77055452D01*
X176532417Y-77390377D01*
X176532417Y-77390378D01*
X176686566Y-77762526D01*
X176765150Y-78157594D01*
X176765150Y-78560406D01*
X176686566Y-78955474D01*
X176596267Y-79173474D01*
X176532417Y-79327623D01*
X176308627Y-79662548D01*
X176023798Y-79947377D01*
X175688873Y-80171167D01*
X175534724Y-80235017D01*
X175316724Y-80325316D01*
X174921656Y-80403900D01*
X174518844Y-80403900D01*
X174123776Y-80325316D01*
X173905776Y-80235017D01*
X173751627Y-80171167D01*
X173416702Y-79947377D01*
X173131873Y-79662548D01*
X172908083Y-79327623D01*
X172844233Y-79173474D01*
X172753934Y-78955474D01*
X172675350Y-78560406D01*
X172675350Y-78157594D01*
X172753934Y-77762526D01*
X172908083Y-77390378D01*
X172908083Y-77390377D01*
X173131873Y-77055452D01*
X173416702Y-76770623D01*
X173751627Y-76546833D01*
X173905776Y-76482983D01*
X174123776Y-76392684D01*
X174518844Y-76314100D01*
X174921656Y-76314100D01*
X175316724Y-76392684D01*
X175316724Y-76392684D01*
G37*
G36*
X151504224Y-76392684D02*
G01*
X151722224Y-76482983D01*
X151876373Y-76546833D01*
X152211298Y-76770623D01*
X152496127Y-77055452D01*
X152719917Y-77390377D01*
X152719917Y-77390378D01*
X152874066Y-77762526D01*
X152952650Y-78157594D01*
X152952650Y-78560406D01*
X152874066Y-78955474D01*
X152783767Y-79173474D01*
X152719917Y-79327623D01*
X152496127Y-79662548D01*
X152211298Y-79947377D01*
X151876373Y-80171167D01*
X151722224Y-80235017D01*
X151504224Y-80325316D01*
X151109156Y-80403900D01*
X150706344Y-80403900D01*
X150311276Y-80325316D01*
X150093276Y-80235017D01*
X149939127Y-80171167D01*
X149604202Y-79947377D01*
X149319373Y-79662548D01*
X149095583Y-79327623D01*
X149031733Y-79173474D01*
X148941434Y-78955474D01*
X148862850Y-78560406D01*
X148862850Y-78157594D01*
X148941434Y-77762526D01*
X149095583Y-77390378D01*
X149095583Y-77390377D01*
X149319373Y-77055452D01*
X149604202Y-76770623D01*
X149939127Y-76546833D01*
X150093276Y-76482983D01*
X150311276Y-76392684D01*
X150706344Y-76314100D01*
X151109156Y-76314100D01*
X151504224Y-76392684D01*
X151504224Y-76392684D01*
G37*
G36*
X203885374Y-76392684D02*
G01*
X204103374Y-76482983D01*
X204257523Y-76546833D01*
X204592448Y-76770623D01*
X204877277Y-77055452D01*
X205101067Y-77390377D01*
X205101067Y-77390378D01*
X205255216Y-77762526D01*
X205333800Y-78157594D01*
X205333800Y-78560406D01*
X205255216Y-78955474D01*
X205164917Y-79173474D01*
X205101067Y-79327623D01*
X204877277Y-79662548D01*
X204592448Y-79947377D01*
X204257523Y-80171167D01*
X204103374Y-80235017D01*
X203885374Y-80325316D01*
X203490306Y-80403900D01*
X203087494Y-80403900D01*
X202692426Y-80325316D01*
X202474426Y-80235017D01*
X202320277Y-80171167D01*
X201985352Y-79947377D01*
X201700523Y-79662548D01*
X201476733Y-79327623D01*
X201412883Y-79173474D01*
X201322584Y-78955474D01*
X201244000Y-78560406D01*
X201244000Y-78157594D01*
X201322584Y-77762526D01*
X201476733Y-77390378D01*
X201476733Y-77390377D01*
X201700523Y-77055452D01*
X201985352Y-76770623D01*
X202320277Y-76546833D01*
X202474426Y-76482983D01*
X202692426Y-76392684D01*
X203087494Y-76314100D01*
X203490306Y-76314100D01*
X203885374Y-76392684D01*
X203885374Y-76392684D01*
G37*
G36*
X29923411Y-73034526D02*
G01*
X30042137Y-73083704D01*
X30210041Y-73153252D01*
X30210042Y-73153253D01*
X30468004Y-73325617D01*
X30687383Y-73544996D01*
X30802553Y-73717361D01*
X30859748Y-73802959D01*
X30978474Y-74089590D01*
X31039000Y-74393875D01*
X31039000Y-74704125D01*
X30978474Y-75008410D01*
X30859748Y-75295041D01*
X30859747Y-75295042D01*
X30687383Y-75553004D01*
X30468004Y-75772383D01*
X30295639Y-75887553D01*
X30210041Y-75944748D01*
X30042137Y-76014296D01*
X29923411Y-76063474D01*
X29619125Y-76124000D01*
X29308875Y-76124000D01*
X29004589Y-76063474D01*
X28885863Y-76014296D01*
X28717959Y-75944748D01*
X28632361Y-75887553D01*
X28459996Y-75772383D01*
X28240617Y-75553004D01*
X28068253Y-75295042D01*
X28068252Y-75295041D01*
X27949526Y-75008410D01*
X27889000Y-74704125D01*
X27889000Y-74393875D01*
X27949526Y-74089590D01*
X28068252Y-73802959D01*
X28125447Y-73717361D01*
X28240617Y-73544996D01*
X28459996Y-73325617D01*
X28717958Y-73153253D01*
X28717959Y-73153252D01*
X28885863Y-73083704D01*
X29004589Y-73034526D01*
X29308875Y-72974000D01*
X29619125Y-72974000D01*
X29923411Y-73034526D01*
X29923411Y-73034526D01*
G37*
G36*
X53735911Y-73034526D02*
G01*
X53854637Y-73083704D01*
X54022541Y-73153252D01*
X54022542Y-73153253D01*
X54280504Y-73325617D01*
X54499883Y-73544996D01*
X54615053Y-73717361D01*
X54672248Y-73802959D01*
X54790974Y-74089590D01*
X54851500Y-74393875D01*
X54851500Y-74704125D01*
X54790974Y-75008410D01*
X54672248Y-75295041D01*
X54672247Y-75295042D01*
X54499883Y-75553004D01*
X54280504Y-75772383D01*
X54108139Y-75887553D01*
X54022541Y-75944748D01*
X53854637Y-76014296D01*
X53735911Y-76063474D01*
X53431625Y-76124000D01*
X53121375Y-76124000D01*
X52817089Y-76063474D01*
X52698363Y-76014296D01*
X52530459Y-75944748D01*
X52444861Y-75887553D01*
X52272496Y-75772383D01*
X52053117Y-75553004D01*
X51880753Y-75295042D01*
X51880752Y-75295041D01*
X51762026Y-75008410D01*
X51701500Y-74704125D01*
X51701500Y-74393875D01*
X51762026Y-74089590D01*
X51880752Y-73802959D01*
X51937947Y-73717361D01*
X52053117Y-73544996D01*
X52272496Y-73325617D01*
X52530458Y-73153253D01*
X52530459Y-73153252D01*
X52698363Y-73083704D01*
X52817089Y-73034526D01*
X53121375Y-72974000D01*
X53431625Y-72974000D01*
X53735911Y-73034526D01*
X53735911Y-73034526D01*
G37*
G36*
X41966724Y-65597684D02*
G01*
X42184724Y-65687983D01*
X42338873Y-65751833D01*
X42673798Y-65975623D01*
X42958627Y-66260452D01*
X43182417Y-66595377D01*
X43214812Y-66673586D01*
X43336566Y-66967526D01*
X43415150Y-67362594D01*
X43415150Y-67765406D01*
X43336566Y-68160474D01*
X43285701Y-68283272D01*
X43182417Y-68532623D01*
X42958627Y-68867548D01*
X42673798Y-69152377D01*
X42338873Y-69376167D01*
X42184724Y-69440017D01*
X41966724Y-69530316D01*
X41571656Y-69608900D01*
X41168844Y-69608900D01*
X40773776Y-69530316D01*
X40555776Y-69440017D01*
X40401627Y-69376167D01*
X40066702Y-69152377D01*
X39781873Y-68867548D01*
X39558083Y-68532623D01*
X39454799Y-68283272D01*
X39403934Y-68160474D01*
X39325350Y-67765406D01*
X39325350Y-67362594D01*
X39403934Y-66967526D01*
X39525688Y-66673586D01*
X39558083Y-66595377D01*
X39781873Y-66260452D01*
X40066702Y-65975623D01*
X40401627Y-65751833D01*
X40555776Y-65687983D01*
X40773776Y-65597684D01*
X41168844Y-65519100D01*
X41571656Y-65519100D01*
X41966724Y-65597684D01*
X41966724Y-65597684D01*
G37*
G36*
X270566724Y-65597684D02*
G01*
X270784724Y-65687983D01*
X270938873Y-65751833D01*
X271273798Y-65975623D01*
X271558627Y-66260452D01*
X271782417Y-66595377D01*
X271814812Y-66673586D01*
X271936566Y-66967526D01*
X272015150Y-67362594D01*
X272015150Y-67765406D01*
X271936566Y-68160474D01*
X271885701Y-68283272D01*
X271782417Y-68532623D01*
X271558627Y-68867548D01*
X271273798Y-69152377D01*
X270938873Y-69376167D01*
X270784724Y-69440017D01*
X270566724Y-69530316D01*
X270171656Y-69608900D01*
X269768844Y-69608900D01*
X269373776Y-69530316D01*
X269155776Y-69440017D01*
X269001627Y-69376167D01*
X268666702Y-69152377D01*
X268381873Y-68867548D01*
X268158083Y-68532623D01*
X268054799Y-68283272D01*
X268003934Y-68160474D01*
X267925350Y-67765406D01*
X267925350Y-67362594D01*
X268003934Y-66967526D01*
X268125688Y-66673586D01*
X268158083Y-66595377D01*
X268381873Y-66260452D01*
X268666702Y-65975623D01*
X269001627Y-65751833D01*
X269155776Y-65687983D01*
X269373776Y-65597684D01*
X269768844Y-65519100D01*
X270171656Y-65519100D01*
X270566724Y-65597684D01*
X270566724Y-65597684D01*
G37*
G36*
X246754224Y-65597684D02*
G01*
X246972224Y-65687983D01*
X247126373Y-65751833D01*
X247461298Y-65975623D01*
X247746127Y-66260452D01*
X247969917Y-66595377D01*
X248002312Y-66673586D01*
X248124066Y-66967526D01*
X248202650Y-67362594D01*
X248202650Y-67765406D01*
X248124066Y-68160474D01*
X248073201Y-68283272D01*
X247969917Y-68532623D01*
X247746127Y-68867548D01*
X247461298Y-69152377D01*
X247126373Y-69376167D01*
X246972224Y-69440017D01*
X246754224Y-69530316D01*
X246359156Y-69608900D01*
X245956344Y-69608900D01*
X245561276Y-69530316D01*
X245343276Y-69440017D01*
X245189127Y-69376167D01*
X244854202Y-69152377D01*
X244569373Y-68867548D01*
X244345583Y-68532623D01*
X244242299Y-68283272D01*
X244191434Y-68160474D01*
X244112850Y-67765406D01*
X244112850Y-67362594D01*
X244191434Y-66967526D01*
X244313188Y-66673586D01*
X244345583Y-66595377D01*
X244569373Y-66260452D01*
X244854202Y-65975623D01*
X245189127Y-65751833D01*
X245343276Y-65687983D01*
X245561276Y-65597684D01*
X245956344Y-65519100D01*
X246359156Y-65519100D01*
X246754224Y-65597684D01*
X246754224Y-65597684D01*
G37*
G36*
X225322974Y-65597684D02*
G01*
X225540974Y-65687983D01*
X225695123Y-65751833D01*
X226030048Y-65975623D01*
X226314877Y-66260452D01*
X226538667Y-66595377D01*
X226571062Y-66673586D01*
X226692816Y-66967526D01*
X226771400Y-67362594D01*
X226771400Y-67765406D01*
X226692816Y-68160474D01*
X226641951Y-68283272D01*
X226538667Y-68532623D01*
X226314877Y-68867548D01*
X226030048Y-69152377D01*
X225695123Y-69376167D01*
X225540974Y-69440017D01*
X225322974Y-69530316D01*
X224927906Y-69608900D01*
X224525094Y-69608900D01*
X224130026Y-69530316D01*
X223912026Y-69440017D01*
X223757877Y-69376167D01*
X223422952Y-69152377D01*
X223138123Y-68867548D01*
X222914333Y-68532623D01*
X222811049Y-68283272D01*
X222760184Y-68160474D01*
X222681600Y-67765406D01*
X222681600Y-67362594D01*
X222760184Y-66967526D01*
X222881938Y-66673586D01*
X222914333Y-66595377D01*
X223138123Y-66260452D01*
X223422952Y-65975623D01*
X223757877Y-65751833D01*
X223912026Y-65687983D01*
X224130026Y-65597684D01*
X224525094Y-65519100D01*
X224927906Y-65519100D01*
X225322974Y-65597684D01*
X225322974Y-65597684D01*
G37*
G36*
X206272974Y-65597684D02*
G01*
X206490974Y-65687983D01*
X206645123Y-65751833D01*
X206980048Y-65975623D01*
X207264877Y-66260452D01*
X207488667Y-66595377D01*
X207521062Y-66673586D01*
X207642816Y-66967526D01*
X207721400Y-67362594D01*
X207721400Y-67765406D01*
X207642816Y-68160474D01*
X207591951Y-68283272D01*
X207488667Y-68532623D01*
X207264877Y-68867548D01*
X206980048Y-69152377D01*
X206645123Y-69376167D01*
X206490974Y-69440017D01*
X206272974Y-69530316D01*
X205877906Y-69608900D01*
X205475094Y-69608900D01*
X205080026Y-69530316D01*
X204862026Y-69440017D01*
X204707877Y-69376167D01*
X204372952Y-69152377D01*
X204088123Y-68867548D01*
X203864333Y-68532623D01*
X203761049Y-68283272D01*
X203710184Y-68160474D01*
X203631600Y-67765406D01*
X203631600Y-67362594D01*
X203710184Y-66967526D01*
X203831938Y-66673586D01*
X203864333Y-66595377D01*
X204088123Y-66260452D01*
X204372952Y-65975623D01*
X204707877Y-65751833D01*
X204862026Y-65687983D01*
X205080026Y-65597684D01*
X205475094Y-65519100D01*
X205877906Y-65519100D01*
X206272974Y-65597684D01*
X206272974Y-65597684D01*
G37*
G36*
X187222974Y-65597684D02*
G01*
X187440974Y-65687983D01*
X187595123Y-65751833D01*
X187930048Y-65975623D01*
X188214877Y-66260452D01*
X188438667Y-66595377D01*
X188471062Y-66673586D01*
X188592816Y-66967526D01*
X188671400Y-67362594D01*
X188671400Y-67765406D01*
X188592816Y-68160474D01*
X188541951Y-68283272D01*
X188438667Y-68532623D01*
X188214877Y-68867548D01*
X187930048Y-69152377D01*
X187595123Y-69376167D01*
X187440974Y-69440017D01*
X187222974Y-69530316D01*
X186827906Y-69608900D01*
X186425094Y-69608900D01*
X186030026Y-69530316D01*
X185812026Y-69440017D01*
X185657877Y-69376167D01*
X185322952Y-69152377D01*
X185038123Y-68867548D01*
X184814333Y-68532623D01*
X184711049Y-68283272D01*
X184660184Y-68160474D01*
X184581600Y-67765406D01*
X184581600Y-67362594D01*
X184660184Y-66967526D01*
X184781938Y-66673586D01*
X184814333Y-66595377D01*
X185038123Y-66260452D01*
X185322952Y-65975623D01*
X185657877Y-65751833D01*
X185812026Y-65687983D01*
X186030026Y-65597684D01*
X186425094Y-65519100D01*
X186827906Y-65519100D01*
X187222974Y-65597684D01*
X187222974Y-65597684D01*
G37*
G36*
X168172974Y-65597684D02*
G01*
X168390974Y-65687983D01*
X168545123Y-65751833D01*
X168880048Y-65975623D01*
X169164877Y-66260452D01*
X169388667Y-66595377D01*
X169421062Y-66673586D01*
X169542816Y-66967526D01*
X169621400Y-67362594D01*
X169621400Y-67765406D01*
X169542816Y-68160474D01*
X169491951Y-68283272D01*
X169388667Y-68532623D01*
X169164877Y-68867548D01*
X168880048Y-69152377D01*
X168545123Y-69376167D01*
X168390974Y-69440017D01*
X168172974Y-69530316D01*
X167777906Y-69608900D01*
X167375094Y-69608900D01*
X166980026Y-69530316D01*
X166762026Y-69440017D01*
X166607877Y-69376167D01*
X166272952Y-69152377D01*
X165988123Y-68867548D01*
X165764333Y-68532623D01*
X165661049Y-68283272D01*
X165610184Y-68160474D01*
X165531600Y-67765406D01*
X165531600Y-67362594D01*
X165610184Y-66967526D01*
X165731938Y-66673586D01*
X165764333Y-66595377D01*
X165988123Y-66260452D01*
X166272952Y-65975623D01*
X166607877Y-65751833D01*
X166762026Y-65687983D01*
X166980026Y-65597684D01*
X167375094Y-65519100D01*
X167777906Y-65519100D01*
X168172974Y-65597684D01*
X168172974Y-65597684D01*
G37*
G36*
X149122974Y-65597684D02*
G01*
X149340974Y-65687983D01*
X149495123Y-65751833D01*
X149830048Y-65975623D01*
X150114877Y-66260452D01*
X150338667Y-66595377D01*
X150371062Y-66673586D01*
X150492816Y-66967526D01*
X150571400Y-67362594D01*
X150571400Y-67765406D01*
X150492816Y-68160474D01*
X150441951Y-68283272D01*
X150338667Y-68532623D01*
X150114877Y-68867548D01*
X149830048Y-69152377D01*
X149495123Y-69376167D01*
X149340974Y-69440017D01*
X149122974Y-69530316D01*
X148727906Y-69608900D01*
X148325094Y-69608900D01*
X147930026Y-69530316D01*
X147712026Y-69440017D01*
X147557877Y-69376167D01*
X147222952Y-69152377D01*
X146938123Y-68867548D01*
X146714333Y-68532623D01*
X146611049Y-68283272D01*
X146560184Y-68160474D01*
X146481600Y-67765406D01*
X146481600Y-67362594D01*
X146560184Y-66967526D01*
X146681938Y-66673586D01*
X146714333Y-66595377D01*
X146938123Y-66260452D01*
X147222952Y-65975623D01*
X147557877Y-65751833D01*
X147712026Y-65687983D01*
X147930026Y-65597684D01*
X148325094Y-65519100D01*
X148727906Y-65519100D01*
X149122974Y-65597684D01*
X149122974Y-65597684D01*
G37*
G36*
X130072974Y-65597684D02*
G01*
X130290974Y-65687983D01*
X130445123Y-65751833D01*
X130780048Y-65975623D01*
X131064877Y-66260452D01*
X131288667Y-66595377D01*
X131321062Y-66673586D01*
X131442816Y-66967526D01*
X131521400Y-67362594D01*
X131521400Y-67765406D01*
X131442816Y-68160474D01*
X131391951Y-68283272D01*
X131288667Y-68532623D01*
X131064877Y-68867548D01*
X130780048Y-69152377D01*
X130445123Y-69376167D01*
X130290974Y-69440017D01*
X130072974Y-69530316D01*
X129677906Y-69608900D01*
X129275094Y-69608900D01*
X128880026Y-69530316D01*
X128662026Y-69440017D01*
X128507877Y-69376167D01*
X128172952Y-69152377D01*
X127888123Y-68867548D01*
X127664333Y-68532623D01*
X127561049Y-68283272D01*
X127510184Y-68160474D01*
X127431600Y-67765406D01*
X127431600Y-67362594D01*
X127510184Y-66967526D01*
X127631938Y-66673586D01*
X127664333Y-66595377D01*
X127888123Y-66260452D01*
X128172952Y-65975623D01*
X128507877Y-65751833D01*
X128662026Y-65687983D01*
X128880026Y-65597684D01*
X129275094Y-65519100D01*
X129677906Y-65519100D01*
X130072974Y-65597684D01*
X130072974Y-65597684D01*
G37*
G36*
X111022974Y-65597684D02*
G01*
X111240974Y-65687983D01*
X111395123Y-65751833D01*
X111730048Y-65975623D01*
X112014877Y-66260452D01*
X112238667Y-66595377D01*
X112271062Y-66673586D01*
X112392816Y-66967526D01*
X112471400Y-67362594D01*
X112471400Y-67765406D01*
X112392816Y-68160474D01*
X112341951Y-68283272D01*
X112238667Y-68532623D01*
X112014877Y-68867548D01*
X111730048Y-69152377D01*
X111395123Y-69376167D01*
X111240974Y-69440017D01*
X111022974Y-69530316D01*
X110627906Y-69608900D01*
X110225094Y-69608900D01*
X109830026Y-69530316D01*
X109612026Y-69440017D01*
X109457877Y-69376167D01*
X109122952Y-69152377D01*
X108838123Y-68867548D01*
X108614333Y-68532623D01*
X108511049Y-68283272D01*
X108460184Y-68160474D01*
X108381600Y-67765406D01*
X108381600Y-67362594D01*
X108460184Y-66967526D01*
X108581938Y-66673586D01*
X108614333Y-66595377D01*
X108838123Y-66260452D01*
X109122952Y-65975623D01*
X109457877Y-65751833D01*
X109612026Y-65687983D01*
X109830026Y-65597684D01*
X110225094Y-65519100D01*
X110627906Y-65519100D01*
X111022974Y-65597684D01*
X111022974Y-65597684D01*
G37*
G36*
X72922974Y-65597684D02*
G01*
X73140974Y-65687983D01*
X73295123Y-65751833D01*
X73630048Y-65975623D01*
X73914877Y-66260452D01*
X74138667Y-66595377D01*
X74171062Y-66673586D01*
X74292816Y-66967526D01*
X74371400Y-67362594D01*
X74371400Y-67765406D01*
X74292816Y-68160474D01*
X74241951Y-68283272D01*
X74138667Y-68532623D01*
X73914877Y-68867548D01*
X73630048Y-69152377D01*
X73295123Y-69376167D01*
X73140974Y-69440017D01*
X72922974Y-69530316D01*
X72527906Y-69608900D01*
X72125094Y-69608900D01*
X71730026Y-69530316D01*
X71512026Y-69440017D01*
X71357877Y-69376167D01*
X71022952Y-69152377D01*
X70738123Y-68867548D01*
X70514333Y-68532623D01*
X70411049Y-68283272D01*
X70360184Y-68160474D01*
X70281600Y-67765406D01*
X70281600Y-67362594D01*
X70360184Y-66967526D01*
X70481938Y-66673586D01*
X70514333Y-66595377D01*
X70738123Y-66260452D01*
X71022952Y-65975623D01*
X71357877Y-65751833D01*
X71512026Y-65687983D01*
X71730026Y-65597684D01*
X72125094Y-65519100D01*
X72527906Y-65519100D01*
X72922974Y-65597684D01*
X72922974Y-65597684D01*
G37*
G36*
X91972974Y-65597684D02*
G01*
X92190974Y-65687983D01*
X92345123Y-65751833D01*
X92680048Y-65975623D01*
X92964877Y-66260452D01*
X93188667Y-66595377D01*
X93221062Y-66673586D01*
X93342816Y-66967526D01*
X93421400Y-67362594D01*
X93421400Y-67765406D01*
X93342816Y-68160474D01*
X93291951Y-68283272D01*
X93188667Y-68532623D01*
X92964877Y-68867548D01*
X92680048Y-69152377D01*
X92345123Y-69376167D01*
X92190974Y-69440017D01*
X91972974Y-69530316D01*
X91577906Y-69608900D01*
X91175094Y-69608900D01*
X90780026Y-69530316D01*
X90562026Y-69440017D01*
X90407877Y-69376167D01*
X90072952Y-69152377D01*
X89788123Y-68867548D01*
X89564333Y-68532623D01*
X89461049Y-68283272D01*
X89410184Y-68160474D01*
X89331600Y-67765406D01*
X89331600Y-67362594D01*
X89410184Y-66967526D01*
X89531938Y-66673586D01*
X89564333Y-66595377D01*
X89788123Y-66260452D01*
X90072952Y-65975623D01*
X90407877Y-65751833D01*
X90562026Y-65687983D01*
X90780026Y-65597684D01*
X91175094Y-65519100D01*
X91577906Y-65519100D01*
X91972974Y-65597684D01*
X91972974Y-65597684D01*
G37*
G36*
X86566604Y-66673585D02*
G01*
X86735126Y-66743389D01*
X86886791Y-66844728D01*
X87015772Y-66973709D01*
X87117111Y-67125374D01*
X87186915Y-67293896D01*
X87222500Y-67472797D01*
X87222500Y-67655203D01*
X87186915Y-67834104D01*
X87117111Y-68002626D01*
X87015772Y-68154291D01*
X86886791Y-68283272D01*
X86735126Y-68384611D01*
X86566604Y-68454415D01*
X86387703Y-68490000D01*
X86205297Y-68490000D01*
X86026396Y-68454415D01*
X85857874Y-68384611D01*
X85706209Y-68283272D01*
X85577228Y-68154291D01*
X85475889Y-68002626D01*
X85406085Y-67834104D01*
X85370500Y-67655203D01*
X85370500Y-67472797D01*
X85406085Y-67293896D01*
X85475889Y-67125374D01*
X85577228Y-66973709D01*
X85706209Y-66844728D01*
X85857874Y-66743389D01*
X86026396Y-66673585D01*
X86205297Y-66638000D01*
X86387703Y-66638000D01*
X86566604Y-66673585D01*
X86566604Y-66673585D01*
G37*
G36*
X275320354Y-66673585D02*
G01*
X275488876Y-66743389D01*
X275640541Y-66844728D01*
X275769522Y-66973709D01*
X275870861Y-67125374D01*
X275940665Y-67293896D01*
X275976250Y-67472797D01*
X275976250Y-67655203D01*
X275940665Y-67834104D01*
X275870861Y-68002626D01*
X275769522Y-68154291D01*
X275640541Y-68283272D01*
X275488876Y-68384611D01*
X275320354Y-68454415D01*
X275141453Y-68490000D01*
X274959047Y-68490000D01*
X274780146Y-68454415D01*
X274611624Y-68384611D01*
X274459959Y-68283272D01*
X274330978Y-68154291D01*
X274229639Y-68002626D01*
X274159835Y-67834104D01*
X274124250Y-67655203D01*
X274124250Y-67472797D01*
X274159835Y-67293896D01*
X274229639Y-67125374D01*
X274330978Y-66973709D01*
X274459959Y-66844728D01*
X274611624Y-66743389D01*
X274780146Y-66673585D01*
X274959047Y-66638000D01*
X275141453Y-66638000D01*
X275320354Y-66673585D01*
X275320354Y-66673585D01*
G37*
G36*
X36560354Y-66673585D02*
G01*
X36728876Y-66743389D01*
X36880541Y-66844728D01*
X37009522Y-66973709D01*
X37110861Y-67125374D01*
X37180665Y-67293896D01*
X37216250Y-67472797D01*
X37216250Y-67655203D01*
X37180665Y-67834104D01*
X37110861Y-68002626D01*
X37009522Y-68154291D01*
X36880541Y-68283272D01*
X36728876Y-68384611D01*
X36560354Y-68454415D01*
X36381453Y-68490000D01*
X36199047Y-68490000D01*
X36020146Y-68454415D01*
X35851624Y-68384611D01*
X35699959Y-68283272D01*
X35570978Y-68154291D01*
X35469639Y-68002626D01*
X35399835Y-67834104D01*
X35364250Y-67655203D01*
X35364250Y-67472797D01*
X35399835Y-67293896D01*
X35469639Y-67125374D01*
X35570978Y-66973709D01*
X35699959Y-66844728D01*
X35851624Y-66743389D01*
X36020146Y-66673585D01*
X36199047Y-66638000D01*
X36381453Y-66638000D01*
X36560354Y-66673585D01*
X36560354Y-66673585D01*
G37*
G36*
X46720354Y-66673585D02*
G01*
X46888876Y-66743389D01*
X47040541Y-66844728D01*
X47169522Y-66973709D01*
X47270861Y-67125374D01*
X47340665Y-67293896D01*
X47376250Y-67472797D01*
X47376250Y-67655203D01*
X47340665Y-67834104D01*
X47270861Y-68002626D01*
X47169522Y-68154291D01*
X47040541Y-68283272D01*
X46888876Y-68384611D01*
X46720354Y-68454415D01*
X46541453Y-68490000D01*
X46359047Y-68490000D01*
X46180146Y-68454415D01*
X46011624Y-68384611D01*
X45859959Y-68283272D01*
X45730978Y-68154291D01*
X45629639Y-68002626D01*
X45559835Y-67834104D01*
X45524250Y-67655203D01*
X45524250Y-67472797D01*
X45559835Y-67293896D01*
X45629639Y-67125374D01*
X45730978Y-66973709D01*
X45859959Y-66844728D01*
X46011624Y-66743389D01*
X46180146Y-66673585D01*
X46359047Y-66638000D01*
X46541453Y-66638000D01*
X46720354Y-66673585D01*
X46720354Y-66673585D01*
G37*
G36*
X96726604Y-66673585D02*
G01*
X96895126Y-66743389D01*
X97046791Y-66844728D01*
X97175772Y-66973709D01*
X97277111Y-67125374D01*
X97346915Y-67293896D01*
X97382500Y-67472797D01*
X97382500Y-67655203D01*
X97346915Y-67834104D01*
X97277111Y-68002626D01*
X97175772Y-68154291D01*
X97046791Y-68283272D01*
X96895126Y-68384611D01*
X96726604Y-68454415D01*
X96547703Y-68490000D01*
X96365297Y-68490000D01*
X96186396Y-68454415D01*
X96017874Y-68384611D01*
X95866209Y-68283272D01*
X95737228Y-68154291D01*
X95635889Y-68002626D01*
X95566085Y-67834104D01*
X95530500Y-67655203D01*
X95530500Y-67472797D01*
X95566085Y-67293896D01*
X95635889Y-67125374D01*
X95737228Y-66973709D01*
X95866209Y-66844728D01*
X96017874Y-66743389D01*
X96186396Y-66673585D01*
X96365297Y-66638000D01*
X96547703Y-66638000D01*
X96726604Y-66673585D01*
X96726604Y-66673585D01*
G37*
G36*
X67516604Y-66673585D02*
G01*
X67685126Y-66743389D01*
X67836791Y-66844728D01*
X67965772Y-66973709D01*
X68067111Y-67125374D01*
X68136915Y-67293896D01*
X68172500Y-67472797D01*
X68172500Y-67655203D01*
X68136915Y-67834104D01*
X68067111Y-68002626D01*
X67965772Y-68154291D01*
X67836791Y-68283272D01*
X67685126Y-68384611D01*
X67516604Y-68454415D01*
X67337703Y-68490000D01*
X67155297Y-68490000D01*
X66976396Y-68454415D01*
X66807874Y-68384611D01*
X66656209Y-68283272D01*
X66527228Y-68154291D01*
X66425889Y-68002626D01*
X66356085Y-67834104D01*
X66320500Y-67655203D01*
X66320500Y-67472797D01*
X66356085Y-67293896D01*
X66425889Y-67125374D01*
X66527228Y-66973709D01*
X66656209Y-66844728D01*
X66807874Y-66743389D01*
X66976396Y-66673585D01*
X67155297Y-66638000D01*
X67337703Y-66638000D01*
X67516604Y-66673585D01*
X67516604Y-66673585D01*
G37*
G36*
X77676604Y-66673585D02*
G01*
X77845126Y-66743389D01*
X77996791Y-66844728D01*
X78125772Y-66973709D01*
X78227111Y-67125374D01*
X78296915Y-67293896D01*
X78332500Y-67472797D01*
X78332500Y-67655203D01*
X78296915Y-67834104D01*
X78227111Y-68002626D01*
X78125772Y-68154291D01*
X77996791Y-68283272D01*
X77845126Y-68384611D01*
X77676604Y-68454415D01*
X77497703Y-68490000D01*
X77315297Y-68490000D01*
X77136396Y-68454415D01*
X76967874Y-68384611D01*
X76816209Y-68283272D01*
X76687228Y-68154291D01*
X76585889Y-68002626D01*
X76516085Y-67834104D01*
X76480500Y-67655203D01*
X76480500Y-67472797D01*
X76516085Y-67293896D01*
X76585889Y-67125374D01*
X76687228Y-66973709D01*
X76816209Y-66844728D01*
X76967874Y-66743389D01*
X77136396Y-66673585D01*
X77315297Y-66638000D01*
X77497703Y-66638000D01*
X77676604Y-66673585D01*
X77676604Y-66673585D01*
G37*
G36*
X265160354Y-66673585D02*
G01*
X265328876Y-66743389D01*
X265480541Y-66844728D01*
X265609522Y-66973709D01*
X265710861Y-67125374D01*
X265780665Y-67293896D01*
X265816250Y-67472797D01*
X265816250Y-67655203D01*
X265780665Y-67834104D01*
X265710861Y-68002626D01*
X265609522Y-68154291D01*
X265480541Y-68283272D01*
X265328876Y-68384611D01*
X265160354Y-68454415D01*
X264981453Y-68490000D01*
X264799047Y-68490000D01*
X264620146Y-68454415D01*
X264451624Y-68384611D01*
X264299959Y-68283272D01*
X264170978Y-68154291D01*
X264069639Y-68002626D01*
X263999835Y-67834104D01*
X263964250Y-67655203D01*
X263964250Y-67472797D01*
X263999835Y-67293896D01*
X264069639Y-67125374D01*
X264170978Y-66973709D01*
X264299959Y-66844728D01*
X264451624Y-66743389D01*
X264620146Y-66673585D01*
X264799047Y-66638000D01*
X264981453Y-66638000D01*
X265160354Y-66673585D01*
X265160354Y-66673585D01*
G37*
G36*
X105616604Y-66673585D02*
G01*
X105785126Y-66743389D01*
X105936791Y-66844728D01*
X106065772Y-66973709D01*
X106167111Y-67125374D01*
X106236915Y-67293896D01*
X106272500Y-67472797D01*
X106272500Y-67655203D01*
X106236915Y-67834104D01*
X106167111Y-68002626D01*
X106065772Y-68154291D01*
X105936791Y-68283272D01*
X105785126Y-68384611D01*
X105616604Y-68454415D01*
X105437703Y-68490000D01*
X105255297Y-68490000D01*
X105076396Y-68454415D01*
X104907874Y-68384611D01*
X104756209Y-68283272D01*
X104627228Y-68154291D01*
X104525889Y-68002626D01*
X104456085Y-67834104D01*
X104420500Y-67655203D01*
X104420500Y-67472797D01*
X104456085Y-67293896D01*
X104525889Y-67125374D01*
X104627228Y-66973709D01*
X104756209Y-66844728D01*
X104907874Y-66743389D01*
X105076396Y-66673585D01*
X105255297Y-66638000D01*
X105437703Y-66638000D01*
X105616604Y-66673585D01*
X105616604Y-66673585D01*
G37*
G36*
X115776604Y-66673585D02*
G01*
X115945126Y-66743389D01*
X116096791Y-66844728D01*
X116225772Y-66973709D01*
X116327111Y-67125374D01*
X116396915Y-67293896D01*
X116432500Y-67472797D01*
X116432500Y-67655203D01*
X116396915Y-67834104D01*
X116327111Y-68002626D01*
X116225772Y-68154291D01*
X116096791Y-68283272D01*
X115945126Y-68384611D01*
X115776604Y-68454415D01*
X115597703Y-68490000D01*
X115415297Y-68490000D01*
X115236396Y-68454415D01*
X115067874Y-68384611D01*
X114916209Y-68283272D01*
X114787228Y-68154291D01*
X114685889Y-68002626D01*
X114616085Y-67834104D01*
X114580500Y-67655203D01*
X114580500Y-67472797D01*
X114616085Y-67293896D01*
X114685889Y-67125374D01*
X114787228Y-66973709D01*
X114916209Y-66844728D01*
X115067874Y-66743389D01*
X115236396Y-66673585D01*
X115415297Y-66638000D01*
X115597703Y-66638000D01*
X115776604Y-66673585D01*
X115776604Y-66673585D01*
G37*
G36*
X251507854Y-66673585D02*
G01*
X251676376Y-66743389D01*
X251828041Y-66844728D01*
X251957022Y-66973709D01*
X252058361Y-67125374D01*
X252128165Y-67293896D01*
X252163750Y-67472797D01*
X252163750Y-67655203D01*
X252128165Y-67834104D01*
X252058361Y-68002626D01*
X251957022Y-68154291D01*
X251828041Y-68283272D01*
X251676376Y-68384611D01*
X251507854Y-68454415D01*
X251328953Y-68490000D01*
X251146547Y-68490000D01*
X250967646Y-68454415D01*
X250799124Y-68384611D01*
X250647459Y-68283272D01*
X250518478Y-68154291D01*
X250417139Y-68002626D01*
X250347335Y-67834104D01*
X250311750Y-67655203D01*
X250311750Y-67472797D01*
X250347335Y-67293896D01*
X250417139Y-67125374D01*
X250518478Y-66973709D01*
X250647459Y-66844728D01*
X250799124Y-66743389D01*
X250967646Y-66673585D01*
X251146547Y-66638000D01*
X251328953Y-66638000D01*
X251507854Y-66673585D01*
X251507854Y-66673585D01*
G37*
G36*
X124666604Y-66673585D02*
G01*
X124835126Y-66743389D01*
X124986791Y-66844728D01*
X125115772Y-66973709D01*
X125217111Y-67125374D01*
X125286915Y-67293896D01*
X125322500Y-67472797D01*
X125322500Y-67655203D01*
X125286915Y-67834104D01*
X125217111Y-68002626D01*
X125115772Y-68154291D01*
X124986791Y-68283272D01*
X124835126Y-68384611D01*
X124666604Y-68454415D01*
X124487703Y-68490000D01*
X124305297Y-68490000D01*
X124126396Y-68454415D01*
X123957874Y-68384611D01*
X123806209Y-68283272D01*
X123677228Y-68154291D01*
X123575889Y-68002626D01*
X123506085Y-67834104D01*
X123470500Y-67655203D01*
X123470500Y-67472797D01*
X123506085Y-67293896D01*
X123575889Y-67125374D01*
X123677228Y-66973709D01*
X123806209Y-66844728D01*
X123957874Y-66743389D01*
X124126396Y-66673585D01*
X124305297Y-66638000D01*
X124487703Y-66638000D01*
X124666604Y-66673585D01*
X124666604Y-66673585D01*
G37*
G36*
X134826604Y-66673585D02*
G01*
X134995126Y-66743389D01*
X135146791Y-66844728D01*
X135275772Y-66973709D01*
X135377111Y-67125374D01*
X135446915Y-67293896D01*
X135482500Y-67472797D01*
X135482500Y-67655203D01*
X135446915Y-67834104D01*
X135377111Y-68002626D01*
X135275772Y-68154291D01*
X135146791Y-68283272D01*
X134995126Y-68384611D01*
X134826604Y-68454415D01*
X134647703Y-68490000D01*
X134465297Y-68490000D01*
X134286396Y-68454415D01*
X134117874Y-68384611D01*
X133966209Y-68283272D01*
X133837228Y-68154291D01*
X133735889Y-68002626D01*
X133666085Y-67834104D01*
X133630500Y-67655203D01*
X133630500Y-67472797D01*
X133666085Y-67293896D01*
X133735889Y-67125374D01*
X133837228Y-66973709D01*
X133966209Y-66844728D01*
X134117874Y-66743389D01*
X134286396Y-66673585D01*
X134465297Y-66638000D01*
X134647703Y-66638000D01*
X134826604Y-66673585D01*
X134826604Y-66673585D01*
G37*
G36*
X241347854Y-66673585D02*
G01*
X241516376Y-66743389D01*
X241668041Y-66844728D01*
X241797022Y-66973709D01*
X241898361Y-67125374D01*
X241968165Y-67293896D01*
X242003750Y-67472797D01*
X242003750Y-67655203D01*
X241968165Y-67834104D01*
X241898361Y-68002626D01*
X241797022Y-68154291D01*
X241668041Y-68283272D01*
X241516376Y-68384611D01*
X241347854Y-68454415D01*
X241168953Y-68490000D01*
X240986547Y-68490000D01*
X240807646Y-68454415D01*
X240639124Y-68384611D01*
X240487459Y-68283272D01*
X240358478Y-68154291D01*
X240257139Y-68002626D01*
X240187335Y-67834104D01*
X240151750Y-67655203D01*
X240151750Y-67472797D01*
X240187335Y-67293896D01*
X240257139Y-67125374D01*
X240358478Y-66973709D01*
X240487459Y-66844728D01*
X240639124Y-66743389D01*
X240807646Y-66673585D01*
X240986547Y-66638000D01*
X241168953Y-66638000D01*
X241347854Y-66673585D01*
X241347854Y-66673585D01*
G37*
G36*
X143716604Y-66673585D02*
G01*
X143885126Y-66743389D01*
X144036791Y-66844728D01*
X144165772Y-66973709D01*
X144267111Y-67125374D01*
X144336915Y-67293896D01*
X144372500Y-67472797D01*
X144372500Y-67655203D01*
X144336915Y-67834104D01*
X144267111Y-68002626D01*
X144165772Y-68154291D01*
X144036791Y-68283272D01*
X143885126Y-68384611D01*
X143716604Y-68454415D01*
X143537703Y-68490000D01*
X143355297Y-68490000D01*
X143176396Y-68454415D01*
X143007874Y-68384611D01*
X142856209Y-68283272D01*
X142727228Y-68154291D01*
X142625889Y-68002626D01*
X142556085Y-67834104D01*
X142520500Y-67655203D01*
X142520500Y-67472797D01*
X142556085Y-67293896D01*
X142625889Y-67125374D01*
X142727228Y-66973709D01*
X142856209Y-66844728D01*
X143007874Y-66743389D01*
X143176396Y-66673585D01*
X143355297Y-66638000D01*
X143537703Y-66638000D01*
X143716604Y-66673585D01*
X143716604Y-66673585D01*
G37*
G36*
X153876604Y-66673585D02*
G01*
X154045126Y-66743389D01*
X154196791Y-66844728D01*
X154325772Y-66973709D01*
X154427111Y-67125374D01*
X154496915Y-67293896D01*
X154532500Y-67472797D01*
X154532500Y-67655203D01*
X154496915Y-67834104D01*
X154427111Y-68002626D01*
X154325772Y-68154291D01*
X154196791Y-68283272D01*
X154045126Y-68384611D01*
X153876604Y-68454415D01*
X153697703Y-68490000D01*
X153515297Y-68490000D01*
X153336396Y-68454415D01*
X153167874Y-68384611D01*
X153016209Y-68283272D01*
X152887228Y-68154291D01*
X152785889Y-68002626D01*
X152716085Y-67834104D01*
X152680500Y-67655203D01*
X152680500Y-67472797D01*
X152716085Y-67293896D01*
X152785889Y-67125374D01*
X152887228Y-66973709D01*
X153016209Y-66844728D01*
X153167874Y-66743389D01*
X153336396Y-66673585D01*
X153515297Y-66638000D01*
X153697703Y-66638000D01*
X153876604Y-66673585D01*
X153876604Y-66673585D01*
G37*
G36*
X230076604Y-66673585D02*
G01*
X230245126Y-66743389D01*
X230396791Y-66844728D01*
X230525772Y-66973709D01*
X230627111Y-67125374D01*
X230696915Y-67293896D01*
X230732500Y-67472797D01*
X230732500Y-67655203D01*
X230696915Y-67834104D01*
X230627111Y-68002626D01*
X230525772Y-68154291D01*
X230396791Y-68283272D01*
X230245126Y-68384611D01*
X230076604Y-68454415D01*
X229897703Y-68490000D01*
X229715297Y-68490000D01*
X229536396Y-68454415D01*
X229367874Y-68384611D01*
X229216209Y-68283272D01*
X229087228Y-68154291D01*
X228985889Y-68002626D01*
X228916085Y-67834104D01*
X228880500Y-67655203D01*
X228880500Y-67472797D01*
X228916085Y-67293896D01*
X228985889Y-67125374D01*
X229087228Y-66973709D01*
X229216209Y-66844728D01*
X229367874Y-66743389D01*
X229536396Y-66673585D01*
X229715297Y-66638000D01*
X229897703Y-66638000D01*
X230076604Y-66673585D01*
X230076604Y-66673585D01*
G37*
G36*
X162766604Y-66673585D02*
G01*
X162935126Y-66743389D01*
X163086791Y-66844728D01*
X163215772Y-66973709D01*
X163317111Y-67125374D01*
X163386915Y-67293896D01*
X163422500Y-67472797D01*
X163422500Y-67655203D01*
X163386915Y-67834104D01*
X163317111Y-68002626D01*
X163215772Y-68154291D01*
X163086791Y-68283272D01*
X162935126Y-68384611D01*
X162766604Y-68454415D01*
X162587703Y-68490000D01*
X162405297Y-68490000D01*
X162226396Y-68454415D01*
X162057874Y-68384611D01*
X161906209Y-68283272D01*
X161777228Y-68154291D01*
X161675889Y-68002626D01*
X161606085Y-67834104D01*
X161570500Y-67655203D01*
X161570500Y-67472797D01*
X161606085Y-67293896D01*
X161675889Y-67125374D01*
X161777228Y-66973709D01*
X161906209Y-66844728D01*
X162057874Y-66743389D01*
X162226396Y-66673585D01*
X162405297Y-66638000D01*
X162587703Y-66638000D01*
X162766604Y-66673585D01*
X162766604Y-66673585D01*
G37*
G36*
X172926604Y-66673585D02*
G01*
X173095126Y-66743389D01*
X173246791Y-66844728D01*
X173375772Y-66973709D01*
X173477111Y-67125374D01*
X173546915Y-67293896D01*
X173582500Y-67472797D01*
X173582500Y-67655203D01*
X173546915Y-67834104D01*
X173477111Y-68002626D01*
X173375772Y-68154291D01*
X173246791Y-68283272D01*
X173095126Y-68384611D01*
X172926604Y-68454415D01*
X172747703Y-68490000D01*
X172565297Y-68490000D01*
X172386396Y-68454415D01*
X172217874Y-68384611D01*
X172066209Y-68283272D01*
X171937228Y-68154291D01*
X171835889Y-68002626D01*
X171766085Y-67834104D01*
X171730500Y-67655203D01*
X171730500Y-67472797D01*
X171766085Y-67293896D01*
X171835889Y-67125374D01*
X171937228Y-66973709D01*
X172066209Y-66844728D01*
X172217874Y-66743389D01*
X172386396Y-66673585D01*
X172565297Y-66638000D01*
X172747703Y-66638000D01*
X172926604Y-66673585D01*
X172926604Y-66673585D01*
G37*
G36*
X219916604Y-66673585D02*
G01*
X220085126Y-66743389D01*
X220236791Y-66844728D01*
X220365772Y-66973709D01*
X220467111Y-67125374D01*
X220536915Y-67293896D01*
X220572500Y-67472797D01*
X220572500Y-67655203D01*
X220536915Y-67834104D01*
X220467111Y-68002626D01*
X220365772Y-68154291D01*
X220236791Y-68283272D01*
X220085126Y-68384611D01*
X219916604Y-68454415D01*
X219737703Y-68490000D01*
X219555297Y-68490000D01*
X219376396Y-68454415D01*
X219207874Y-68384611D01*
X219056209Y-68283272D01*
X218927228Y-68154291D01*
X218825889Y-68002626D01*
X218756085Y-67834104D01*
X218720500Y-67655203D01*
X218720500Y-67472797D01*
X218756085Y-67293896D01*
X218825889Y-67125374D01*
X218927228Y-66973709D01*
X219056209Y-66844728D01*
X219207874Y-66743389D01*
X219376396Y-66673585D01*
X219555297Y-66638000D01*
X219737703Y-66638000D01*
X219916604Y-66673585D01*
X219916604Y-66673585D01*
G37*
G36*
X181816604Y-66673585D02*
G01*
X181985126Y-66743389D01*
X182136791Y-66844728D01*
X182265772Y-66973709D01*
X182367111Y-67125374D01*
X182436915Y-67293896D01*
X182472500Y-67472797D01*
X182472500Y-67655203D01*
X182436915Y-67834104D01*
X182367111Y-68002626D01*
X182265772Y-68154291D01*
X182136791Y-68283272D01*
X181985126Y-68384611D01*
X181816604Y-68454415D01*
X181637703Y-68490000D01*
X181455297Y-68490000D01*
X181276396Y-68454415D01*
X181107874Y-68384611D01*
X180956209Y-68283272D01*
X180827228Y-68154291D01*
X180725889Y-68002626D01*
X180656085Y-67834104D01*
X180620500Y-67655203D01*
X180620500Y-67472797D01*
X180656085Y-67293896D01*
X180725889Y-67125374D01*
X180827228Y-66973709D01*
X180956209Y-66844728D01*
X181107874Y-66743389D01*
X181276396Y-66673585D01*
X181455297Y-66638000D01*
X181637703Y-66638000D01*
X181816604Y-66673585D01*
X181816604Y-66673585D01*
G37*
G36*
X191976604Y-66673585D02*
G01*
X192145126Y-66743389D01*
X192296791Y-66844728D01*
X192425772Y-66973709D01*
X192527111Y-67125374D01*
X192596915Y-67293896D01*
X192632500Y-67472797D01*
X192632500Y-67655203D01*
X192596915Y-67834104D01*
X192527111Y-68002626D01*
X192425772Y-68154291D01*
X192296791Y-68283272D01*
X192145126Y-68384611D01*
X191976604Y-68454415D01*
X191797703Y-68490000D01*
X191615297Y-68490000D01*
X191436396Y-68454415D01*
X191267874Y-68384611D01*
X191116209Y-68283272D01*
X190987228Y-68154291D01*
X190885889Y-68002626D01*
X190816085Y-67834104D01*
X190780500Y-67655203D01*
X190780500Y-67472797D01*
X190816085Y-67293896D01*
X190885889Y-67125374D01*
X190987228Y-66973709D01*
X191116209Y-66844728D01*
X191267874Y-66743389D01*
X191436396Y-66673585D01*
X191615297Y-66638000D01*
X191797703Y-66638000D01*
X191976604Y-66673585D01*
X191976604Y-66673585D01*
G37*
G36*
X211026604Y-66673585D02*
G01*
X211195126Y-66743389D01*
X211346791Y-66844728D01*
X211475772Y-66973709D01*
X211577111Y-67125374D01*
X211646915Y-67293896D01*
X211682500Y-67472797D01*
X211682500Y-67655203D01*
X211646915Y-67834104D01*
X211577111Y-68002626D01*
X211475772Y-68154291D01*
X211346791Y-68283272D01*
X211195126Y-68384611D01*
X211026604Y-68454415D01*
X210847703Y-68490000D01*
X210665297Y-68490000D01*
X210486396Y-68454415D01*
X210317874Y-68384611D01*
X210166209Y-68283272D01*
X210037228Y-68154291D01*
X209935889Y-68002626D01*
X209866085Y-67834104D01*
X209830500Y-67655203D01*
X209830500Y-67472797D01*
X209866085Y-67293896D01*
X209935889Y-67125374D01*
X210037228Y-66973709D01*
X210166209Y-66844728D01*
X210317874Y-66743389D01*
X210486396Y-66673585D01*
X210665297Y-66638000D01*
X210847703Y-66638000D01*
X211026604Y-66673585D01*
X211026604Y-66673585D01*
G37*
G36*
X200866604Y-66673585D02*
G01*
X201035126Y-66743389D01*
X201186791Y-66844728D01*
X201315772Y-66973709D01*
X201417111Y-67125374D01*
X201486915Y-67293896D01*
X201522500Y-67472797D01*
X201522500Y-67655203D01*
X201486915Y-67834104D01*
X201417111Y-68002626D01*
X201315772Y-68154291D01*
X201186791Y-68283272D01*
X201035126Y-68384611D01*
X200866604Y-68454415D01*
X200687703Y-68490000D01*
X200505297Y-68490000D01*
X200326396Y-68454415D01*
X200157874Y-68384611D01*
X200006209Y-68283272D01*
X199877228Y-68154291D01*
X199775889Y-68002626D01*
X199706085Y-67834104D01*
X199670500Y-67655203D01*
X199670500Y-67472797D01*
X199706085Y-67293896D01*
X199775889Y-67125374D01*
X199877228Y-66973709D01*
X200006209Y-66844728D01*
X200157874Y-66743389D01*
X200326396Y-66673585D01*
X200505297Y-66638000D01*
X200687703Y-66638000D01*
X200866604Y-66673585D01*
X200866604Y-66673585D01*
G37*
G36*
X33890015Y-59654973D02*
G01*
X33993879Y-59686479D01*
X34021055Y-59701005D01*
X34089600Y-59737643D01*
X34173501Y-59806499D01*
X34242357Y-59890400D01*
X34278995Y-59958945D01*
X34293521Y-59986121D01*
X34297388Y-59998869D01*
X34306760Y-60021496D01*
X34320374Y-60041870D01*
X34337701Y-60059197D01*
X34358075Y-60072811D01*
X34380714Y-60082188D01*
X34404747Y-60086969D01*
X34429251Y-60086969D01*
X34453285Y-60082189D01*
X34475924Y-60072812D01*
X34496298Y-60059198D01*
X34513625Y-60041871D01*
X34527239Y-60021497D01*
X34536612Y-59998869D01*
X34540479Y-59986121D01*
X34555005Y-59958945D01*
X34591643Y-59890400D01*
X34660499Y-59806499D01*
X34744400Y-59737643D01*
X34812945Y-59701005D01*
X34840121Y-59686479D01*
X34943985Y-59654973D01*
X35024933Y-59647000D01*
X35079067Y-59647000D01*
X35160015Y-59654973D01*
X35263879Y-59686479D01*
X35291055Y-59701005D01*
X35359600Y-59737643D01*
X35443501Y-59806499D01*
X35512357Y-59890400D01*
X35548995Y-59958945D01*
X35563521Y-59986121D01*
X35567388Y-59998869D01*
X35576760Y-60021496D01*
X35590374Y-60041870D01*
X35607701Y-60059197D01*
X35628075Y-60072811D01*
X35650714Y-60082188D01*
X35674747Y-60086969D01*
X35699251Y-60086969D01*
X35723285Y-60082189D01*
X35745924Y-60072812D01*
X35766298Y-60059198D01*
X35783625Y-60041871D01*
X35797239Y-60021497D01*
X35806612Y-59998869D01*
X35810479Y-59986121D01*
X35825005Y-59958945D01*
X35861643Y-59890400D01*
X35930499Y-59806499D01*
X36014400Y-59737643D01*
X36082945Y-59701005D01*
X36110121Y-59686479D01*
X36213985Y-59654973D01*
X36294933Y-59647000D01*
X36349067Y-59647000D01*
X36430015Y-59654973D01*
X36533879Y-59686479D01*
X36561055Y-59701005D01*
X36629600Y-59737643D01*
X36713501Y-59806499D01*
X36782357Y-59890400D01*
X36818995Y-59958945D01*
X36833521Y-59986121D01*
X36837388Y-59998869D01*
X36846760Y-60021496D01*
X36860374Y-60041870D01*
X36877701Y-60059197D01*
X36898075Y-60072811D01*
X36920714Y-60082188D01*
X36944747Y-60086969D01*
X36969251Y-60086969D01*
X36993285Y-60082189D01*
X37015924Y-60072812D01*
X37036298Y-60059198D01*
X37053625Y-60041871D01*
X37067239Y-60021497D01*
X37076612Y-59998869D01*
X37080479Y-59986121D01*
X37095005Y-59958945D01*
X37131643Y-59890400D01*
X37200499Y-59806499D01*
X37284400Y-59737643D01*
X37352945Y-59701005D01*
X37380121Y-59686479D01*
X37483985Y-59654973D01*
X37564933Y-59647000D01*
X37619067Y-59647000D01*
X37700015Y-59654973D01*
X37803879Y-59686479D01*
X37831055Y-59701005D01*
X37899600Y-59737643D01*
X37983501Y-59806499D01*
X38052357Y-59890400D01*
X38088995Y-59958945D01*
X38103521Y-59986121D01*
X38107388Y-59998869D01*
X38116760Y-60021496D01*
X38130374Y-60041870D01*
X38147701Y-60059197D01*
X38168075Y-60072811D01*
X38190714Y-60082188D01*
X38214747Y-60086969D01*
X38239251Y-60086969D01*
X38263285Y-60082189D01*
X38285924Y-60072812D01*
X38306298Y-60059198D01*
X38323625Y-60041871D01*
X38337239Y-60021497D01*
X38346612Y-59998869D01*
X38350479Y-59986121D01*
X38365005Y-59958945D01*
X38401643Y-59890400D01*
X38470499Y-59806499D01*
X38554400Y-59737643D01*
X38622945Y-59701005D01*
X38650121Y-59686479D01*
X38753985Y-59654973D01*
X38834933Y-59647000D01*
X38889067Y-59647000D01*
X38970015Y-59654973D01*
X39073879Y-59686479D01*
X39101055Y-59701005D01*
X39169600Y-59737643D01*
X39253501Y-59806499D01*
X39322357Y-59890400D01*
X39358995Y-59958945D01*
X39373521Y-59986121D01*
X39405027Y-60089985D01*
X39415666Y-60198000D01*
X39405027Y-60306015D01*
X39373521Y-60409879D01*
X39373519Y-60409882D01*
X39322357Y-60505600D01*
X39253501Y-60589501D01*
X39169600Y-60658357D01*
X39114014Y-60688068D01*
X39073879Y-60709521D01*
X39061131Y-60713388D01*
X39038504Y-60722760D01*
X39018130Y-60736374D01*
X39000803Y-60753701D01*
X38987189Y-60774075D01*
X38977812Y-60796714D01*
X38973031Y-60820747D01*
X38973031Y-60845251D01*
X38977811Y-60869285D01*
X38987188Y-60891924D01*
X39000802Y-60912298D01*
X39018129Y-60929625D01*
X39038503Y-60943239D01*
X39061131Y-60952612D01*
X39073879Y-60956479D01*
X39101055Y-60971005D01*
X39169600Y-61007643D01*
X39253501Y-61076499D01*
X39322357Y-61160400D01*
X39358995Y-61228945D01*
X39373521Y-61256121D01*
X39405027Y-61359985D01*
X39415666Y-61468000D01*
X39405027Y-61576015D01*
X39373521Y-61679879D01*
X39373191Y-61680496D01*
X39322357Y-61775600D01*
X39253501Y-61859501D01*
X39169600Y-61928357D01*
X39101055Y-61964995D01*
X39073879Y-61979521D01*
X38970015Y-62011027D01*
X38889067Y-62019000D01*
X38834933Y-62019000D01*
X38753985Y-62011027D01*
X38650121Y-61979521D01*
X38622945Y-61964995D01*
X38554400Y-61928357D01*
X38470499Y-61859501D01*
X38401643Y-61775600D01*
X38350809Y-61680496D01*
X38350479Y-61679879D01*
X38346612Y-61667131D01*
X38337240Y-61644504D01*
X38323626Y-61624130D01*
X38306299Y-61606803D01*
X38285925Y-61593189D01*
X38263286Y-61583812D01*
X38239253Y-61579031D01*
X38214749Y-61579031D01*
X38190715Y-61583811D01*
X38168076Y-61593188D01*
X38147702Y-61606802D01*
X38130375Y-61624129D01*
X38116761Y-61644503D01*
X38107388Y-61667131D01*
X38103521Y-61679879D01*
X38103191Y-61680496D01*
X38052357Y-61775600D01*
X37983501Y-61859501D01*
X37899600Y-61928357D01*
X37831055Y-61964995D01*
X37803879Y-61979521D01*
X37700015Y-62011027D01*
X37619067Y-62019000D01*
X37564933Y-62019000D01*
X37483985Y-62011027D01*
X37380121Y-61979521D01*
X37352945Y-61964995D01*
X37284400Y-61928357D01*
X37200499Y-61859501D01*
X37131643Y-61775600D01*
X37080809Y-61680496D01*
X37080479Y-61679879D01*
X37076612Y-61667131D01*
X37067240Y-61644504D01*
X37053626Y-61624130D01*
X37036299Y-61606803D01*
X37015925Y-61593189D01*
X36993286Y-61583812D01*
X36969253Y-61579031D01*
X36944749Y-61579031D01*
X36920715Y-61583811D01*
X36898076Y-61593188D01*
X36877702Y-61606802D01*
X36860375Y-61624129D01*
X36846761Y-61644503D01*
X36837388Y-61667131D01*
X36833521Y-61679879D01*
X36833191Y-61680496D01*
X36782357Y-61775600D01*
X36713501Y-61859501D01*
X36629600Y-61928357D01*
X36561055Y-61964995D01*
X36533879Y-61979521D01*
X36430015Y-62011027D01*
X36349067Y-62019000D01*
X36294933Y-62019000D01*
X36213985Y-62011027D01*
X36110121Y-61979521D01*
X36082945Y-61964995D01*
X36014400Y-61928357D01*
X35930499Y-61859501D01*
X35861643Y-61775600D01*
X35810809Y-61680496D01*
X35810479Y-61679879D01*
X35806612Y-61667131D01*
X35797240Y-61644504D01*
X35783626Y-61624130D01*
X35766299Y-61606803D01*
X35745925Y-61593189D01*
X35723286Y-61583812D01*
X35699253Y-61579031D01*
X35674749Y-61579031D01*
X35650715Y-61583811D01*
X35628076Y-61593188D01*
X35607702Y-61606802D01*
X35590375Y-61624129D01*
X35576761Y-61644503D01*
X35567388Y-61667131D01*
X35563521Y-61679879D01*
X35563191Y-61680496D01*
X35512357Y-61775600D01*
X35443501Y-61859501D01*
X35359600Y-61928357D01*
X35291055Y-61964995D01*
X35263879Y-61979521D01*
X35160015Y-62011027D01*
X35079067Y-62019000D01*
X35024933Y-62019000D01*
X34943985Y-62011027D01*
X34840121Y-61979521D01*
X34812945Y-61964995D01*
X34744400Y-61928357D01*
X34660499Y-61859501D01*
X34591645Y-61775601D01*
X34591644Y-61775600D01*
X34568236Y-61731807D01*
X34554625Y-61711437D01*
X34537298Y-61694110D01*
X34516924Y-61680496D01*
X34494285Y-61671119D01*
X34470252Y-61666338D01*
X34445748Y-61666338D01*
X34421714Y-61671118D01*
X34399076Y-61680495D01*
X34378701Y-61694109D01*
X34361374Y-61711436D01*
X34347760Y-61731810D01*
X34338383Y-61754449D01*
X34333602Y-61778482D01*
X34333000Y-61790735D01*
X34333000Y-62019000D01*
X33231000Y-62019000D01*
X33231000Y-60917000D01*
X33459265Y-60917000D01*
X33483651Y-60914598D01*
X33507100Y-60907485D01*
X33528711Y-60895934D01*
X33547653Y-60880389D01*
X33563198Y-60861447D01*
X33574749Y-60839836D01*
X33581862Y-60816387D01*
X33584264Y-60792001D01*
X33583058Y-60779748D01*
X33980338Y-60779748D01*
X33980338Y-60804252D01*
X33985118Y-60828286D01*
X33994495Y-60850924D01*
X34008109Y-60871299D01*
X34025436Y-60888626D01*
X34045810Y-60902240D01*
X34068449Y-60911617D01*
X34092482Y-60916398D01*
X34104735Y-60917000D01*
X34333000Y-60917000D01*
X34333000Y-61145265D01*
X34335402Y-61169651D01*
X34342515Y-61193100D01*
X34354066Y-61214711D01*
X34369611Y-61233653D01*
X34388553Y-61249198D01*
X34410164Y-61260749D01*
X34433613Y-61267862D01*
X34457999Y-61270264D01*
X34482385Y-61267862D01*
X34505834Y-61260749D01*
X34527445Y-61249198D01*
X34546387Y-61233653D01*
X34561932Y-61214711D01*
X34568233Y-61204198D01*
X34591644Y-61160400D01*
X34660499Y-61076499D01*
X34744400Y-61007643D01*
X34812945Y-60971005D01*
X34840121Y-60956479D01*
X34852869Y-60952612D01*
X34875496Y-60943240D01*
X34895870Y-60929626D01*
X34913197Y-60912299D01*
X34926811Y-60891925D01*
X34936188Y-60869286D01*
X34940969Y-60845253D01*
X34940969Y-60820749D01*
X34940969Y-60820747D01*
X35163031Y-60820747D01*
X35163031Y-60845251D01*
X35167811Y-60869285D01*
X35177188Y-60891924D01*
X35190802Y-60912298D01*
X35208129Y-60929625D01*
X35228503Y-60943239D01*
X35251131Y-60952612D01*
X35263879Y-60956479D01*
X35291055Y-60971005D01*
X35359600Y-61007643D01*
X35443501Y-61076499D01*
X35512357Y-61160400D01*
X35548995Y-61228945D01*
X35563521Y-61256121D01*
X35567388Y-61268869D01*
X35576760Y-61291496D01*
X35590374Y-61311870D01*
X35607701Y-61329197D01*
X35628075Y-61342811D01*
X35650714Y-61352188D01*
X35674747Y-61356969D01*
X35699251Y-61356969D01*
X35723285Y-61352189D01*
X35745924Y-61342812D01*
X35766298Y-61329198D01*
X35783625Y-61311871D01*
X35797239Y-61291497D01*
X35806612Y-61268869D01*
X35810479Y-61256121D01*
X35825005Y-61228945D01*
X35861643Y-61160400D01*
X35930499Y-61076499D01*
X36014400Y-61007643D01*
X36082945Y-60971005D01*
X36110121Y-60956479D01*
X36122869Y-60952612D01*
X36145496Y-60943240D01*
X36165870Y-60929626D01*
X36183197Y-60912299D01*
X36196811Y-60891925D01*
X36206188Y-60869286D01*
X36210969Y-60845253D01*
X36210969Y-60820749D01*
X36210969Y-60820747D01*
X36433031Y-60820747D01*
X36433031Y-60845251D01*
X36437811Y-60869285D01*
X36447188Y-60891924D01*
X36460802Y-60912298D01*
X36478129Y-60929625D01*
X36498503Y-60943239D01*
X36521131Y-60952612D01*
X36533879Y-60956479D01*
X36561055Y-60971005D01*
X36629600Y-61007643D01*
X36713501Y-61076499D01*
X36782357Y-61160400D01*
X36818995Y-61228945D01*
X36833521Y-61256121D01*
X36837388Y-61268869D01*
X36846760Y-61291496D01*
X36860374Y-61311870D01*
X36877701Y-61329197D01*
X36898075Y-61342811D01*
X36920714Y-61352188D01*
X36944747Y-61356969D01*
X36969251Y-61356969D01*
X36993285Y-61352189D01*
X37015924Y-61342812D01*
X37036298Y-61329198D01*
X37053625Y-61311871D01*
X37067239Y-61291497D01*
X37076612Y-61268869D01*
X37080479Y-61256121D01*
X37095005Y-61228945D01*
X37131643Y-61160400D01*
X37200499Y-61076499D01*
X37284400Y-61007643D01*
X37352945Y-60971005D01*
X37380121Y-60956479D01*
X37392869Y-60952612D01*
X37415496Y-60943240D01*
X37435870Y-60929626D01*
X37453197Y-60912299D01*
X37466811Y-60891925D01*
X37476188Y-60869286D01*
X37480969Y-60845253D01*
X37480969Y-60820749D01*
X37480969Y-60820747D01*
X37703031Y-60820747D01*
X37703031Y-60845251D01*
X37707811Y-60869285D01*
X37717188Y-60891924D01*
X37730802Y-60912298D01*
X37748129Y-60929625D01*
X37768503Y-60943239D01*
X37791131Y-60952612D01*
X37803879Y-60956479D01*
X37831055Y-60971005D01*
X37899600Y-61007643D01*
X37983501Y-61076499D01*
X38052357Y-61160400D01*
X38088995Y-61228945D01*
X38103521Y-61256121D01*
X38107388Y-61268869D01*
X38116760Y-61291496D01*
X38130374Y-61311870D01*
X38147701Y-61329197D01*
X38168075Y-61342811D01*
X38190714Y-61352188D01*
X38214747Y-61356969D01*
X38239251Y-61356969D01*
X38263285Y-61352189D01*
X38285924Y-61342812D01*
X38306298Y-61329198D01*
X38323625Y-61311871D01*
X38337239Y-61291497D01*
X38346612Y-61268869D01*
X38350479Y-61256121D01*
X38365005Y-61228945D01*
X38401643Y-61160400D01*
X38470499Y-61076499D01*
X38554400Y-61007643D01*
X38622945Y-60971005D01*
X38650121Y-60956479D01*
X38662869Y-60952612D01*
X38685496Y-60943240D01*
X38705870Y-60929626D01*
X38723197Y-60912299D01*
X38736811Y-60891925D01*
X38746188Y-60869286D01*
X38750969Y-60845253D01*
X38750969Y-60820749D01*
X38746189Y-60796715D01*
X38736812Y-60774076D01*
X38723198Y-60753702D01*
X38705871Y-60736375D01*
X38685497Y-60722761D01*
X38662869Y-60713388D01*
X38650121Y-60709521D01*
X38609986Y-60688068D01*
X38554400Y-60658357D01*
X38470499Y-60589501D01*
X38401643Y-60505600D01*
X38350481Y-60409882D01*
X38350479Y-60409879D01*
X38346612Y-60397131D01*
X38337240Y-60374504D01*
X38323626Y-60354130D01*
X38306299Y-60336803D01*
X38285925Y-60323189D01*
X38263286Y-60313812D01*
X38239253Y-60309031D01*
X38214749Y-60309031D01*
X38190715Y-60313811D01*
X38168076Y-60323188D01*
X38147702Y-60336802D01*
X38130375Y-60354129D01*
X38116761Y-60374503D01*
X38107388Y-60397131D01*
X38103521Y-60409879D01*
X38103519Y-60409882D01*
X38052357Y-60505600D01*
X37983501Y-60589501D01*
X37899600Y-60658357D01*
X37844014Y-60688068D01*
X37803879Y-60709521D01*
X37791131Y-60713388D01*
X37768504Y-60722760D01*
X37748130Y-60736374D01*
X37730803Y-60753701D01*
X37717189Y-60774075D01*
X37707812Y-60796714D01*
X37703031Y-60820747D01*
X37480969Y-60820747D01*
X37476189Y-60796715D01*
X37466812Y-60774076D01*
X37453198Y-60753702D01*
X37435871Y-60736375D01*
X37415497Y-60722761D01*
X37392869Y-60713388D01*
X37380121Y-60709521D01*
X37339986Y-60688068D01*
X37284400Y-60658357D01*
X37200499Y-60589501D01*
X37131643Y-60505600D01*
X37080481Y-60409882D01*
X37080479Y-60409879D01*
X37076612Y-60397131D01*
X37067240Y-60374504D01*
X37053626Y-60354130D01*
X37036299Y-60336803D01*
X37015925Y-60323189D01*
X36993286Y-60313812D01*
X36969253Y-60309031D01*
X36944749Y-60309031D01*
X36920715Y-60313811D01*
X36898076Y-60323188D01*
X36877702Y-60336802D01*
X36860375Y-60354129D01*
X36846761Y-60374503D01*
X36837388Y-60397131D01*
X36833521Y-60409879D01*
X36833519Y-60409882D01*
X36782357Y-60505600D01*
X36713501Y-60589501D01*
X36629600Y-60658357D01*
X36574014Y-60688068D01*
X36533879Y-60709521D01*
X36521131Y-60713388D01*
X36498504Y-60722760D01*
X36478130Y-60736374D01*
X36460803Y-60753701D01*
X36447189Y-60774075D01*
X36437812Y-60796714D01*
X36433031Y-60820747D01*
X36210969Y-60820747D01*
X36206189Y-60796715D01*
X36196812Y-60774076D01*
X36183198Y-60753702D01*
X36165871Y-60736375D01*
X36145497Y-60722761D01*
X36122869Y-60713388D01*
X36110121Y-60709521D01*
X36069986Y-60688068D01*
X36014400Y-60658357D01*
X35930499Y-60589501D01*
X35861643Y-60505600D01*
X35810481Y-60409882D01*
X35810479Y-60409879D01*
X35806612Y-60397131D01*
X35797240Y-60374504D01*
X35783626Y-60354130D01*
X35766299Y-60336803D01*
X35745925Y-60323189D01*
X35723286Y-60313812D01*
X35699253Y-60309031D01*
X35674749Y-60309031D01*
X35650715Y-60313811D01*
X35628076Y-60323188D01*
X35607702Y-60336802D01*
X35590375Y-60354129D01*
X35576761Y-60374503D01*
X35567388Y-60397131D01*
X35563521Y-60409879D01*
X35563519Y-60409882D01*
X35512357Y-60505600D01*
X35443501Y-60589501D01*
X35359600Y-60658357D01*
X35304014Y-60688068D01*
X35263879Y-60709521D01*
X35251131Y-60713388D01*
X35228504Y-60722760D01*
X35208130Y-60736374D01*
X35190803Y-60753701D01*
X35177189Y-60774075D01*
X35167812Y-60796714D01*
X35163031Y-60820747D01*
X34940969Y-60820747D01*
X34936189Y-60796715D01*
X34926812Y-60774076D01*
X34913198Y-60753702D01*
X34895871Y-60736375D01*
X34875497Y-60722761D01*
X34852869Y-60713388D01*
X34840121Y-60709521D01*
X34799986Y-60688068D01*
X34744400Y-60658357D01*
X34660499Y-60589501D01*
X34591643Y-60505600D01*
X34540481Y-60409882D01*
X34540479Y-60409879D01*
X34536612Y-60397131D01*
X34527240Y-60374504D01*
X34513626Y-60354130D01*
X34496299Y-60336803D01*
X34475925Y-60323189D01*
X34453286Y-60313812D01*
X34429253Y-60309031D01*
X34404749Y-60309031D01*
X34380715Y-60313811D01*
X34358076Y-60323188D01*
X34337702Y-60336802D01*
X34320375Y-60354129D01*
X34306761Y-60374503D01*
X34297388Y-60397131D01*
X34293521Y-60409879D01*
X34293519Y-60409882D01*
X34242357Y-60505600D01*
X34173501Y-60589501D01*
X34089600Y-60658356D01*
X34045807Y-60681764D01*
X34025437Y-60695375D01*
X34008110Y-60712702D01*
X33994496Y-60733076D01*
X33985119Y-60755715D01*
X33980338Y-60779748D01*
X33583058Y-60779748D01*
X33581862Y-60767615D01*
X33574749Y-60744166D01*
X33563198Y-60722555D01*
X33547653Y-60703613D01*
X33528711Y-60688068D01*
X33518198Y-60681767D01*
X33474400Y-60658356D01*
X33390499Y-60589501D01*
X33321643Y-60505600D01*
X33270481Y-60409882D01*
X33270479Y-60409879D01*
X33238973Y-60306015D01*
X33228334Y-60198000D01*
X33238973Y-60089985D01*
X33270479Y-59986121D01*
X33285005Y-59958945D01*
X33321643Y-59890400D01*
X33390499Y-59806499D01*
X33474400Y-59737643D01*
X33542945Y-59701005D01*
X33570121Y-59686479D01*
X33673985Y-59654973D01*
X33754933Y-59647000D01*
X33809067Y-59647000D01*
X33890015Y-59654973D01*
X33890015Y-59654973D01*
G37*
G36*
X30060474Y-57342684D02*
G01*
X30278474Y-57432983D01*
X30432623Y-57496833D01*
X30767548Y-57720623D01*
X31052377Y-58005452D01*
X31276167Y-58340377D01*
X31340017Y-58494526D01*
X31430316Y-58712526D01*
X31508900Y-59107594D01*
X31508900Y-59510406D01*
X31430316Y-59905474D01*
X31357118Y-60082189D01*
X31276167Y-60277623D01*
X31052377Y-60612548D01*
X30767548Y-60897377D01*
X30432623Y-61121167D01*
X30278474Y-61185017D01*
X30060474Y-61275316D01*
X29665406Y-61353900D01*
X29262594Y-61353900D01*
X28867526Y-61275316D01*
X28649526Y-61185017D01*
X28495377Y-61121167D01*
X28160452Y-60897377D01*
X27875623Y-60612548D01*
X27651833Y-60277623D01*
X27570882Y-60082189D01*
X27497684Y-59905474D01*
X27419100Y-59510406D01*
X27419100Y-59107594D01*
X27497684Y-58712526D01*
X27587983Y-58494526D01*
X27651833Y-58340377D01*
X27875623Y-58005452D01*
X28160452Y-57720623D01*
X28495377Y-57496833D01*
X28649526Y-57432983D01*
X28867526Y-57342684D01*
X29262594Y-57264100D01*
X29665406Y-57264100D01*
X30060474Y-57342684D01*
X30060474Y-57342684D01*
G37*
G36*
X53872974Y-57342684D02*
G01*
X54090974Y-57432983D01*
X54245123Y-57496833D01*
X54580048Y-57720623D01*
X54864877Y-58005452D01*
X55088667Y-58340377D01*
X55152517Y-58494526D01*
X55242816Y-58712526D01*
X55321400Y-59107594D01*
X55321400Y-59510406D01*
X55242816Y-59905474D01*
X55169618Y-60082189D01*
X55088667Y-60277623D01*
X54864877Y-60612548D01*
X54580048Y-60897377D01*
X54245123Y-61121167D01*
X54090974Y-61185017D01*
X53872974Y-61275316D01*
X53477906Y-61353900D01*
X53075094Y-61353900D01*
X52680026Y-61275316D01*
X52462026Y-61185017D01*
X52307877Y-61121167D01*
X51972952Y-60897377D01*
X51688123Y-60612548D01*
X51464333Y-60277623D01*
X51383382Y-60082189D01*
X51310184Y-59905474D01*
X51231600Y-59510406D01*
X51231600Y-59107594D01*
X51310184Y-58712526D01*
X51400483Y-58494526D01*
X51464333Y-58340377D01*
X51688123Y-58005452D01*
X51972952Y-57720623D01*
X52307877Y-57496833D01*
X52462026Y-57432983D01*
X52680026Y-57342684D01*
X53075094Y-57264100D01*
X53477906Y-57264100D01*
X53872974Y-57342684D01*
X53872974Y-57342684D01*
G37*
G36*
X277710474Y-54802684D02*
G01*
X277928474Y-54892983D01*
X278082623Y-54956833D01*
X278417548Y-55180623D01*
X278702377Y-55465452D01*
X278926167Y-55800377D01*
X278926167Y-55800378D01*
X279080316Y-56172526D01*
X279158900Y-56567594D01*
X279158900Y-56970406D01*
X279080316Y-57365474D01*
X279025905Y-57496833D01*
X278926167Y-57737623D01*
X278702377Y-58072548D01*
X278417548Y-58357377D01*
X278082623Y-58581167D01*
X277928474Y-58645017D01*
X277710474Y-58735316D01*
X277315406Y-58813900D01*
X276912594Y-58813900D01*
X276517526Y-58735316D01*
X276299526Y-58645017D01*
X276145377Y-58581167D01*
X275810452Y-58357377D01*
X275525623Y-58072548D01*
X275301833Y-57737623D01*
X275202095Y-57496833D01*
X275147684Y-57365474D01*
X275069100Y-56970406D01*
X275069100Y-56567594D01*
X275147684Y-56172526D01*
X275301833Y-55800378D01*
X275301833Y-55800377D01*
X275525623Y-55465452D01*
X275810452Y-55180623D01*
X276145377Y-54956833D01*
X276299526Y-54892983D01*
X276517526Y-54802684D01*
X276912594Y-54724100D01*
X277315406Y-54724100D01*
X277710474Y-54802684D01*
X277710474Y-54802684D01*
G37*
G36*
X253897974Y-54802684D02*
G01*
X254115974Y-54892983D01*
X254270123Y-54956833D01*
X254605048Y-55180623D01*
X254889877Y-55465452D01*
X255113667Y-55800377D01*
X255113667Y-55800378D01*
X255267816Y-56172526D01*
X255346400Y-56567594D01*
X255346400Y-56970406D01*
X255267816Y-57365474D01*
X255213405Y-57496833D01*
X255113667Y-57737623D01*
X254889877Y-58072548D01*
X254605048Y-58357377D01*
X254270123Y-58581167D01*
X254115974Y-58645017D01*
X253897974Y-58735316D01*
X253502906Y-58813900D01*
X253100094Y-58813900D01*
X252705026Y-58735316D01*
X252487026Y-58645017D01*
X252332877Y-58581167D01*
X251997952Y-58357377D01*
X251713123Y-58072548D01*
X251489333Y-57737623D01*
X251389595Y-57496833D01*
X251335184Y-57365474D01*
X251256600Y-56970406D01*
X251256600Y-56567594D01*
X251335184Y-56172526D01*
X251489333Y-55800378D01*
X251489333Y-55800377D01*
X251713123Y-55465452D01*
X251997952Y-55180623D01*
X252332877Y-54956833D01*
X252487026Y-54892983D01*
X252705026Y-54802684D01*
X253100094Y-54724100D01*
X253502906Y-54724100D01*
X253897974Y-54802684D01*
X253897974Y-54802684D01*
G37*
G36*
X139597974Y-46547684D02*
G01*
X139815974Y-46637983D01*
X139970123Y-46701833D01*
X140305048Y-46925623D01*
X140589877Y-47210452D01*
X140813667Y-47545377D01*
X140846062Y-47623586D01*
X140967816Y-47917526D01*
X141046400Y-48312594D01*
X141046400Y-48715406D01*
X140967816Y-49110474D01*
X140916951Y-49233272D01*
X140813667Y-49482623D01*
X140589877Y-49817548D01*
X140305048Y-50102377D01*
X139970123Y-50326167D01*
X139815974Y-50390017D01*
X139597974Y-50480316D01*
X139202906Y-50558900D01*
X138800094Y-50558900D01*
X138405026Y-50480316D01*
X138187026Y-50390017D01*
X138032877Y-50326167D01*
X137697952Y-50102377D01*
X137413123Y-49817548D01*
X137189333Y-49482623D01*
X137086049Y-49233272D01*
X137035184Y-49110474D01*
X136956600Y-48715406D01*
X136956600Y-48312594D01*
X137035184Y-47917526D01*
X137156938Y-47623586D01*
X137189333Y-47545377D01*
X137413123Y-47210452D01*
X137697952Y-46925623D01*
X138032877Y-46701833D01*
X138187026Y-46637983D01*
X138405026Y-46547684D01*
X138800094Y-46469100D01*
X139202906Y-46469100D01*
X139597974Y-46547684D01*
X139597974Y-46547684D01*
G37*
G36*
X158647974Y-46547684D02*
G01*
X158865974Y-46637983D01*
X159020123Y-46701833D01*
X159355048Y-46925623D01*
X159639877Y-47210452D01*
X159863667Y-47545377D01*
X159896062Y-47623586D01*
X160017816Y-47917526D01*
X160096400Y-48312594D01*
X160096400Y-48715406D01*
X160017816Y-49110474D01*
X159966951Y-49233272D01*
X159863667Y-49482623D01*
X159639877Y-49817548D01*
X159355048Y-50102377D01*
X159020123Y-50326167D01*
X158865974Y-50390017D01*
X158647974Y-50480316D01*
X158252906Y-50558900D01*
X157850094Y-50558900D01*
X157455026Y-50480316D01*
X157237026Y-50390017D01*
X157082877Y-50326167D01*
X156747952Y-50102377D01*
X156463123Y-49817548D01*
X156239333Y-49482623D01*
X156136049Y-49233272D01*
X156085184Y-49110474D01*
X156006600Y-48715406D01*
X156006600Y-48312594D01*
X156085184Y-47917526D01*
X156206938Y-47623586D01*
X156239333Y-47545377D01*
X156463123Y-47210452D01*
X156747952Y-46925623D01*
X157082877Y-46701833D01*
X157237026Y-46637983D01*
X157455026Y-46547684D01*
X157850094Y-46469100D01*
X158252906Y-46469100D01*
X158647974Y-46547684D01*
X158647974Y-46547684D01*
G37*
G36*
X177697974Y-46547684D02*
G01*
X177915974Y-46637983D01*
X178070123Y-46701833D01*
X178405048Y-46925623D01*
X178689877Y-47210452D01*
X178913667Y-47545377D01*
X178946062Y-47623586D01*
X179067816Y-47917526D01*
X179146400Y-48312594D01*
X179146400Y-48715406D01*
X179067816Y-49110474D01*
X179016951Y-49233272D01*
X178913667Y-49482623D01*
X178689877Y-49817548D01*
X178405048Y-50102377D01*
X178070123Y-50326167D01*
X177915974Y-50390017D01*
X177697974Y-50480316D01*
X177302906Y-50558900D01*
X176900094Y-50558900D01*
X176505026Y-50480316D01*
X176287026Y-50390017D01*
X176132877Y-50326167D01*
X175797952Y-50102377D01*
X175513123Y-49817548D01*
X175289333Y-49482623D01*
X175186049Y-49233272D01*
X175135184Y-49110474D01*
X175056600Y-48715406D01*
X175056600Y-48312594D01*
X175135184Y-47917526D01*
X175256938Y-47623586D01*
X175289333Y-47545377D01*
X175513123Y-47210452D01*
X175797952Y-46925623D01*
X176132877Y-46701833D01*
X176287026Y-46637983D01*
X176505026Y-46547684D01*
X176900094Y-46469100D01*
X177302906Y-46469100D01*
X177697974Y-46547684D01*
X177697974Y-46547684D01*
G37*
G36*
X196747974Y-46547684D02*
G01*
X196965974Y-46637983D01*
X197120123Y-46701833D01*
X197455048Y-46925623D01*
X197739877Y-47210452D01*
X197963667Y-47545377D01*
X197996062Y-47623586D01*
X198117816Y-47917526D01*
X198196400Y-48312594D01*
X198196400Y-48715406D01*
X198117816Y-49110474D01*
X198066951Y-49233272D01*
X197963667Y-49482623D01*
X197739877Y-49817548D01*
X197455048Y-50102377D01*
X197120123Y-50326167D01*
X196965974Y-50390017D01*
X196747974Y-50480316D01*
X196352906Y-50558900D01*
X195950094Y-50558900D01*
X195555026Y-50480316D01*
X195337026Y-50390017D01*
X195182877Y-50326167D01*
X194847952Y-50102377D01*
X194563123Y-49817548D01*
X194339333Y-49482623D01*
X194236049Y-49233272D01*
X194185184Y-49110474D01*
X194106600Y-48715406D01*
X194106600Y-48312594D01*
X194185184Y-47917526D01*
X194306938Y-47623586D01*
X194339333Y-47545377D01*
X194563123Y-47210452D01*
X194847952Y-46925623D01*
X195182877Y-46701833D01*
X195337026Y-46637983D01*
X195555026Y-46547684D01*
X195950094Y-46469100D01*
X196352906Y-46469100D01*
X196747974Y-46547684D01*
X196747974Y-46547684D01*
G37*
G36*
X215797974Y-46547684D02*
G01*
X216015974Y-46637983D01*
X216170123Y-46701833D01*
X216505048Y-46925623D01*
X216789877Y-47210452D01*
X217013667Y-47545377D01*
X217046062Y-47623586D01*
X217167816Y-47917526D01*
X217246400Y-48312594D01*
X217246400Y-48715406D01*
X217167816Y-49110474D01*
X217116951Y-49233272D01*
X217013667Y-49482623D01*
X216789877Y-49817548D01*
X216505048Y-50102377D01*
X216170123Y-50326167D01*
X216015974Y-50390017D01*
X215797974Y-50480316D01*
X215402906Y-50558900D01*
X215000094Y-50558900D01*
X214605026Y-50480316D01*
X214387026Y-50390017D01*
X214232877Y-50326167D01*
X213897952Y-50102377D01*
X213613123Y-49817548D01*
X213389333Y-49482623D01*
X213286049Y-49233272D01*
X213235184Y-49110474D01*
X213156600Y-48715406D01*
X213156600Y-48312594D01*
X213235184Y-47917526D01*
X213356938Y-47623586D01*
X213389333Y-47545377D01*
X213613123Y-47210452D01*
X213897952Y-46925623D01*
X214232877Y-46701833D01*
X214387026Y-46637983D01*
X214605026Y-46547684D01*
X215000094Y-46469100D01*
X215402906Y-46469100D01*
X215797974Y-46547684D01*
X215797974Y-46547684D01*
G37*
G36*
X234847974Y-46547684D02*
G01*
X235065974Y-46637983D01*
X235220123Y-46701833D01*
X235555048Y-46925623D01*
X235839877Y-47210452D01*
X236063667Y-47545377D01*
X236096062Y-47623586D01*
X236217816Y-47917526D01*
X236296400Y-48312594D01*
X236296400Y-48715406D01*
X236217816Y-49110474D01*
X236166951Y-49233272D01*
X236063667Y-49482623D01*
X235839877Y-49817548D01*
X235555048Y-50102377D01*
X235220123Y-50326167D01*
X235065974Y-50390017D01*
X234847974Y-50480316D01*
X234452906Y-50558900D01*
X234050094Y-50558900D01*
X233655026Y-50480316D01*
X233437026Y-50390017D01*
X233282877Y-50326167D01*
X232947952Y-50102377D01*
X232663123Y-49817548D01*
X232439333Y-49482623D01*
X232336049Y-49233272D01*
X232285184Y-49110474D01*
X232206600Y-48715406D01*
X232206600Y-48312594D01*
X232285184Y-47917526D01*
X232406938Y-47623586D01*
X232439333Y-47545377D01*
X232663123Y-47210452D01*
X232947952Y-46925623D01*
X233282877Y-46701833D01*
X233437026Y-46637983D01*
X233655026Y-46547684D01*
X234050094Y-46469100D01*
X234452906Y-46469100D01*
X234847974Y-46547684D01*
X234847974Y-46547684D01*
G37*
G36*
X265804224Y-46547684D02*
G01*
X266022224Y-46637983D01*
X266176373Y-46701833D01*
X266511298Y-46925623D01*
X266796127Y-47210452D01*
X267019917Y-47545377D01*
X267052312Y-47623586D01*
X267174066Y-47917526D01*
X267252650Y-48312594D01*
X267252650Y-48715406D01*
X267174066Y-49110474D01*
X267123201Y-49233272D01*
X267019917Y-49482623D01*
X266796127Y-49817548D01*
X266511298Y-50102377D01*
X266176373Y-50326167D01*
X266022224Y-50390017D01*
X265804224Y-50480316D01*
X265409156Y-50558900D01*
X265006344Y-50558900D01*
X264611276Y-50480316D01*
X264393276Y-50390017D01*
X264239127Y-50326167D01*
X263904202Y-50102377D01*
X263619373Y-49817548D01*
X263395583Y-49482623D01*
X263292299Y-49233272D01*
X263241434Y-49110474D01*
X263162850Y-48715406D01*
X263162850Y-48312594D01*
X263241434Y-47917526D01*
X263363188Y-47623586D01*
X263395583Y-47545377D01*
X263619373Y-47210452D01*
X263904202Y-46925623D01*
X264239127Y-46701833D01*
X264393276Y-46637983D01*
X264611276Y-46547684D01*
X265006344Y-46469100D01*
X265409156Y-46469100D01*
X265804224Y-46547684D01*
X265804224Y-46547684D01*
G37*
G36*
X120547974Y-46547684D02*
G01*
X120765974Y-46637983D01*
X120920123Y-46701833D01*
X121255048Y-46925623D01*
X121539877Y-47210452D01*
X121763667Y-47545377D01*
X121796062Y-47623586D01*
X121917816Y-47917526D01*
X121996400Y-48312594D01*
X121996400Y-48715406D01*
X121917816Y-49110474D01*
X121866951Y-49233272D01*
X121763667Y-49482623D01*
X121539877Y-49817548D01*
X121255048Y-50102377D01*
X120920123Y-50326167D01*
X120765974Y-50390017D01*
X120547974Y-50480316D01*
X120152906Y-50558900D01*
X119750094Y-50558900D01*
X119355026Y-50480316D01*
X119137026Y-50390017D01*
X118982877Y-50326167D01*
X118647952Y-50102377D01*
X118363123Y-49817548D01*
X118139333Y-49482623D01*
X118036049Y-49233272D01*
X117985184Y-49110474D01*
X117906600Y-48715406D01*
X117906600Y-48312594D01*
X117985184Y-47917526D01*
X118106938Y-47623586D01*
X118139333Y-47545377D01*
X118363123Y-47210452D01*
X118647952Y-46925623D01*
X118982877Y-46701833D01*
X119137026Y-46637983D01*
X119355026Y-46547684D01*
X119750094Y-46469100D01*
X120152906Y-46469100D01*
X120547974Y-46547684D01*
X120547974Y-46547684D01*
G37*
G36*
X101497974Y-46547684D02*
G01*
X101715974Y-46637983D01*
X101870123Y-46701833D01*
X102205048Y-46925623D01*
X102489877Y-47210452D01*
X102713667Y-47545377D01*
X102746062Y-47623586D01*
X102867816Y-47917526D01*
X102946400Y-48312594D01*
X102946400Y-48715406D01*
X102867816Y-49110474D01*
X102816951Y-49233272D01*
X102713667Y-49482623D01*
X102489877Y-49817548D01*
X102205048Y-50102377D01*
X101870123Y-50326167D01*
X101715974Y-50390017D01*
X101497974Y-50480316D01*
X101102906Y-50558900D01*
X100700094Y-50558900D01*
X100305026Y-50480316D01*
X100087026Y-50390017D01*
X99932877Y-50326167D01*
X99597952Y-50102377D01*
X99313123Y-49817548D01*
X99089333Y-49482623D01*
X98986049Y-49233272D01*
X98935184Y-49110474D01*
X98856600Y-48715406D01*
X98856600Y-48312594D01*
X98935184Y-47917526D01*
X99056938Y-47623586D01*
X99089333Y-47545377D01*
X99313123Y-47210452D01*
X99597952Y-46925623D01*
X99932877Y-46701833D01*
X100087026Y-46637983D01*
X100305026Y-46547684D01*
X100700094Y-46469100D01*
X101102906Y-46469100D01*
X101497974Y-46547684D01*
X101497974Y-46547684D01*
G37*
G36*
X63397974Y-46547684D02*
G01*
X63615974Y-46637983D01*
X63770123Y-46701833D01*
X64105048Y-46925623D01*
X64389877Y-47210452D01*
X64613667Y-47545377D01*
X64646062Y-47623586D01*
X64767816Y-47917526D01*
X64846400Y-48312594D01*
X64846400Y-48715406D01*
X64767816Y-49110474D01*
X64716951Y-49233272D01*
X64613667Y-49482623D01*
X64389877Y-49817548D01*
X64105048Y-50102377D01*
X63770123Y-50326167D01*
X63615974Y-50390017D01*
X63397974Y-50480316D01*
X63002906Y-50558900D01*
X62600094Y-50558900D01*
X62205026Y-50480316D01*
X61987026Y-50390017D01*
X61832877Y-50326167D01*
X61497952Y-50102377D01*
X61213123Y-49817548D01*
X60989333Y-49482623D01*
X60886049Y-49233272D01*
X60835184Y-49110474D01*
X60756600Y-48715406D01*
X60756600Y-48312594D01*
X60835184Y-47917526D01*
X60956938Y-47623586D01*
X60989333Y-47545377D01*
X61213123Y-47210452D01*
X61497952Y-46925623D01*
X61832877Y-46701833D01*
X61987026Y-46637983D01*
X62205026Y-46547684D01*
X62600094Y-46469100D01*
X63002906Y-46469100D01*
X63397974Y-46547684D01*
X63397974Y-46547684D01*
G37*
G36*
X82447974Y-46547684D02*
G01*
X82665974Y-46637983D01*
X82820123Y-46701833D01*
X83155048Y-46925623D01*
X83439877Y-47210452D01*
X83663667Y-47545377D01*
X83696062Y-47623586D01*
X83817816Y-47917526D01*
X83896400Y-48312594D01*
X83896400Y-48715406D01*
X83817816Y-49110474D01*
X83766951Y-49233272D01*
X83663667Y-49482623D01*
X83439877Y-49817548D01*
X83155048Y-50102377D01*
X82820123Y-50326167D01*
X82665974Y-50390017D01*
X82447974Y-50480316D01*
X82052906Y-50558900D01*
X81650094Y-50558900D01*
X81255026Y-50480316D01*
X81037026Y-50390017D01*
X80882877Y-50326167D01*
X80547952Y-50102377D01*
X80263123Y-49817548D01*
X80039333Y-49482623D01*
X79936049Y-49233272D01*
X79885184Y-49110474D01*
X79806600Y-48715406D01*
X79806600Y-48312594D01*
X79885184Y-47917526D01*
X80006938Y-47623586D01*
X80039333Y-47545377D01*
X80263123Y-47210452D01*
X80547952Y-46925623D01*
X80882877Y-46701833D01*
X81037026Y-46637983D01*
X81255026Y-46547684D01*
X81650094Y-46469100D01*
X82052906Y-46469100D01*
X82447974Y-46547684D01*
X82447974Y-46547684D01*
G37*
G36*
X37204224Y-46547684D02*
G01*
X37422224Y-46637983D01*
X37576373Y-46701833D01*
X37911298Y-46925623D01*
X38196127Y-47210452D01*
X38419917Y-47545377D01*
X38452312Y-47623586D01*
X38574066Y-47917526D01*
X38652650Y-48312594D01*
X38652650Y-48715406D01*
X38574066Y-49110474D01*
X38523201Y-49233272D01*
X38419917Y-49482623D01*
X38196127Y-49817548D01*
X37911298Y-50102377D01*
X37576373Y-50326167D01*
X37422224Y-50390017D01*
X37204224Y-50480316D01*
X36809156Y-50558900D01*
X36406344Y-50558900D01*
X36011276Y-50480316D01*
X35793276Y-50390017D01*
X35639127Y-50326167D01*
X35304202Y-50102377D01*
X35019373Y-49817548D01*
X34795583Y-49482623D01*
X34692299Y-49233272D01*
X34641434Y-49110474D01*
X34562850Y-48715406D01*
X34562850Y-48312594D01*
X34641434Y-47917526D01*
X34763188Y-47623586D01*
X34795583Y-47545377D01*
X35019373Y-47210452D01*
X35304202Y-46925623D01*
X35639127Y-46701833D01*
X35793276Y-46637983D01*
X36011276Y-46547684D01*
X36406344Y-46469100D01*
X36809156Y-46469100D01*
X37204224Y-46547684D01*
X37204224Y-46547684D01*
G37*
G36*
X96091604Y-47623585D02*
G01*
X96260126Y-47693389D01*
X96411791Y-47794728D01*
X96540772Y-47923709D01*
X96642111Y-48075374D01*
X96711915Y-48243896D01*
X96747500Y-48422797D01*
X96747500Y-48605203D01*
X96711915Y-48784104D01*
X96642111Y-48952626D01*
X96540772Y-49104291D01*
X96411791Y-49233272D01*
X96260126Y-49334611D01*
X96091604Y-49404415D01*
X95912703Y-49440000D01*
X95730297Y-49440000D01*
X95551396Y-49404415D01*
X95382874Y-49334611D01*
X95231209Y-49233272D01*
X95102228Y-49104291D01*
X95000889Y-48952626D01*
X94931085Y-48784104D01*
X94895500Y-48605203D01*
X94895500Y-48422797D01*
X94931085Y-48243896D01*
X95000889Y-48075374D01*
X95102228Y-47923709D01*
X95231209Y-47794728D01*
X95382874Y-47693389D01*
X95551396Y-47623585D01*
X95730297Y-47588000D01*
X95912703Y-47588000D01*
X96091604Y-47623585D01*
X96091604Y-47623585D01*
G37*
G36*
X106251604Y-47623585D02*
G01*
X106420126Y-47693389D01*
X106571791Y-47794728D01*
X106700772Y-47923709D01*
X106802111Y-48075374D01*
X106871915Y-48243896D01*
X106907500Y-48422797D01*
X106907500Y-48605203D01*
X106871915Y-48784104D01*
X106802111Y-48952626D01*
X106700772Y-49104291D01*
X106571791Y-49233272D01*
X106420126Y-49334611D01*
X106251604Y-49404415D01*
X106072703Y-49440000D01*
X105890297Y-49440000D01*
X105711396Y-49404415D01*
X105542874Y-49334611D01*
X105391209Y-49233272D01*
X105262228Y-49104291D01*
X105160889Y-48952626D01*
X105091085Y-48784104D01*
X105055500Y-48605203D01*
X105055500Y-48422797D01*
X105091085Y-48243896D01*
X105160889Y-48075374D01*
X105262228Y-47923709D01*
X105391209Y-47794728D01*
X105542874Y-47693389D01*
X105711396Y-47623585D01*
X105890297Y-47588000D01*
X106072703Y-47588000D01*
X106251604Y-47623585D01*
X106251604Y-47623585D01*
G37*
G36*
X87201604Y-47623585D02*
G01*
X87370126Y-47693389D01*
X87521791Y-47794728D01*
X87650772Y-47923709D01*
X87752111Y-48075374D01*
X87821915Y-48243896D01*
X87857500Y-48422797D01*
X87857500Y-48605203D01*
X87821915Y-48784104D01*
X87752111Y-48952626D01*
X87650772Y-49104291D01*
X87521791Y-49233272D01*
X87370126Y-49334611D01*
X87201604Y-49404415D01*
X87022703Y-49440000D01*
X86840297Y-49440000D01*
X86661396Y-49404415D01*
X86492874Y-49334611D01*
X86341209Y-49233272D01*
X86212228Y-49104291D01*
X86110889Y-48952626D01*
X86041085Y-48784104D01*
X86005500Y-48605203D01*
X86005500Y-48422797D01*
X86041085Y-48243896D01*
X86110889Y-48075374D01*
X86212228Y-47923709D01*
X86341209Y-47794728D01*
X86492874Y-47693389D01*
X86661396Y-47623585D01*
X86840297Y-47588000D01*
X87022703Y-47588000D01*
X87201604Y-47623585D01*
X87201604Y-47623585D01*
G37*
G36*
X41957854Y-47623585D02*
G01*
X42126376Y-47693389D01*
X42278041Y-47794728D01*
X42407022Y-47923709D01*
X42508361Y-48075374D01*
X42578165Y-48243896D01*
X42613750Y-48422797D01*
X42613750Y-48605203D01*
X42578165Y-48784104D01*
X42508361Y-48952626D01*
X42407022Y-49104291D01*
X42278041Y-49233272D01*
X42126376Y-49334611D01*
X41957854Y-49404415D01*
X41778953Y-49440000D01*
X41596547Y-49440000D01*
X41417646Y-49404415D01*
X41249124Y-49334611D01*
X41097459Y-49233272D01*
X40968478Y-49104291D01*
X40867139Y-48952626D01*
X40797335Y-48784104D01*
X40761750Y-48605203D01*
X40761750Y-48422797D01*
X40797335Y-48243896D01*
X40867139Y-48075374D01*
X40968478Y-47923709D01*
X41097459Y-47794728D01*
X41249124Y-47693389D01*
X41417646Y-47623585D01*
X41596547Y-47588000D01*
X41778953Y-47588000D01*
X41957854Y-47623585D01*
X41957854Y-47623585D01*
G37*
G36*
X31797854Y-47623585D02*
G01*
X31966376Y-47693389D01*
X32118041Y-47794728D01*
X32247022Y-47923709D01*
X32348361Y-48075374D01*
X32418165Y-48243896D01*
X32453750Y-48422797D01*
X32453750Y-48605203D01*
X32418165Y-48784104D01*
X32348361Y-48952626D01*
X32247022Y-49104291D01*
X32118041Y-49233272D01*
X31966376Y-49334611D01*
X31797854Y-49404415D01*
X31618953Y-49440000D01*
X31436547Y-49440000D01*
X31257646Y-49404415D01*
X31089124Y-49334611D01*
X30937459Y-49233272D01*
X30808478Y-49104291D01*
X30707139Y-48952626D01*
X30637335Y-48784104D01*
X30601750Y-48605203D01*
X30601750Y-48422797D01*
X30637335Y-48243896D01*
X30707139Y-48075374D01*
X30808478Y-47923709D01*
X30937459Y-47794728D01*
X31089124Y-47693389D01*
X31257646Y-47623585D01*
X31436547Y-47588000D01*
X31618953Y-47588000D01*
X31797854Y-47623585D01*
X31797854Y-47623585D01*
G37*
G36*
X77041604Y-47623585D02*
G01*
X77210126Y-47693389D01*
X77361791Y-47794728D01*
X77490772Y-47923709D01*
X77592111Y-48075374D01*
X77661915Y-48243896D01*
X77697500Y-48422797D01*
X77697500Y-48605203D01*
X77661915Y-48784104D01*
X77592111Y-48952626D01*
X77490772Y-49104291D01*
X77361791Y-49233272D01*
X77210126Y-49334611D01*
X77041604Y-49404415D01*
X76862703Y-49440000D01*
X76680297Y-49440000D01*
X76501396Y-49404415D01*
X76332874Y-49334611D01*
X76181209Y-49233272D01*
X76052228Y-49104291D01*
X75950889Y-48952626D01*
X75881085Y-48784104D01*
X75845500Y-48605203D01*
X75845500Y-48422797D01*
X75881085Y-48243896D01*
X75950889Y-48075374D01*
X76052228Y-47923709D01*
X76181209Y-47794728D01*
X76332874Y-47693389D01*
X76501396Y-47623585D01*
X76680297Y-47588000D01*
X76862703Y-47588000D01*
X77041604Y-47623585D01*
X77041604Y-47623585D01*
G37*
G36*
X134191604Y-47623585D02*
G01*
X134360126Y-47693389D01*
X134511791Y-47794728D01*
X134640772Y-47923709D01*
X134742111Y-48075374D01*
X134811915Y-48243896D01*
X134847500Y-48422797D01*
X134847500Y-48605203D01*
X134811915Y-48784104D01*
X134742111Y-48952626D01*
X134640772Y-49104291D01*
X134511791Y-49233272D01*
X134360126Y-49334611D01*
X134191604Y-49404415D01*
X134012703Y-49440000D01*
X133830297Y-49440000D01*
X133651396Y-49404415D01*
X133482874Y-49334611D01*
X133331209Y-49233272D01*
X133202228Y-49104291D01*
X133100889Y-48952626D01*
X133031085Y-48784104D01*
X132995500Y-48605203D01*
X132995500Y-48422797D01*
X133031085Y-48243896D01*
X133100889Y-48075374D01*
X133202228Y-47923709D01*
X133331209Y-47794728D01*
X133482874Y-47693389D01*
X133651396Y-47623585D01*
X133830297Y-47588000D01*
X134012703Y-47588000D01*
X134191604Y-47623585D01*
X134191604Y-47623585D01*
G37*
G36*
X144351604Y-47623585D02*
G01*
X144520126Y-47693389D01*
X144671791Y-47794728D01*
X144800772Y-47923709D01*
X144902111Y-48075374D01*
X144971915Y-48243896D01*
X145007500Y-48422797D01*
X145007500Y-48605203D01*
X144971915Y-48784104D01*
X144902111Y-48952626D01*
X144800772Y-49104291D01*
X144671791Y-49233272D01*
X144520126Y-49334611D01*
X144351604Y-49404415D01*
X144172703Y-49440000D01*
X143990297Y-49440000D01*
X143811396Y-49404415D01*
X143642874Y-49334611D01*
X143491209Y-49233272D01*
X143362228Y-49104291D01*
X143260889Y-48952626D01*
X143191085Y-48784104D01*
X143155500Y-48605203D01*
X143155500Y-48422797D01*
X143191085Y-48243896D01*
X143260889Y-48075374D01*
X143362228Y-47923709D01*
X143491209Y-47794728D01*
X143642874Y-47693389D01*
X143811396Y-47623585D01*
X143990297Y-47588000D01*
X144172703Y-47588000D01*
X144351604Y-47623585D01*
X144351604Y-47623585D01*
G37*
G36*
X182451604Y-47623585D02*
G01*
X182620126Y-47693389D01*
X182771791Y-47794728D01*
X182900772Y-47923709D01*
X183002111Y-48075374D01*
X183071915Y-48243896D01*
X183107500Y-48422797D01*
X183107500Y-48605203D01*
X183071915Y-48784104D01*
X183002111Y-48952626D01*
X182900772Y-49104291D01*
X182771791Y-49233272D01*
X182620126Y-49334611D01*
X182451604Y-49404415D01*
X182272703Y-49440000D01*
X182090297Y-49440000D01*
X181911396Y-49404415D01*
X181742874Y-49334611D01*
X181591209Y-49233272D01*
X181462228Y-49104291D01*
X181360889Y-48952626D01*
X181291085Y-48784104D01*
X181255500Y-48605203D01*
X181255500Y-48422797D01*
X181291085Y-48243896D01*
X181360889Y-48075374D01*
X181462228Y-47923709D01*
X181591209Y-47794728D01*
X181742874Y-47693389D01*
X181911396Y-47623585D01*
X182090297Y-47588000D01*
X182272703Y-47588000D01*
X182451604Y-47623585D01*
X182451604Y-47623585D01*
G37*
G36*
X68151604Y-47623585D02*
G01*
X68320126Y-47693389D01*
X68471791Y-47794728D01*
X68600772Y-47923709D01*
X68702111Y-48075374D01*
X68771915Y-48243896D01*
X68807500Y-48422797D01*
X68807500Y-48605203D01*
X68771915Y-48784104D01*
X68702111Y-48952626D01*
X68600772Y-49104291D01*
X68471791Y-49233272D01*
X68320126Y-49334611D01*
X68151604Y-49404415D01*
X67972703Y-49440000D01*
X67790297Y-49440000D01*
X67611396Y-49404415D01*
X67442874Y-49334611D01*
X67291209Y-49233272D01*
X67162228Y-49104291D01*
X67060889Y-48952626D01*
X66991085Y-48784104D01*
X66955500Y-48605203D01*
X66955500Y-48422797D01*
X66991085Y-48243896D01*
X67060889Y-48075374D01*
X67162228Y-47923709D01*
X67291209Y-47794728D01*
X67442874Y-47693389D01*
X67611396Y-47623585D01*
X67790297Y-47588000D01*
X67972703Y-47588000D01*
X68151604Y-47623585D01*
X68151604Y-47623585D01*
G37*
G36*
X57991604Y-47623585D02*
G01*
X58160126Y-47693389D01*
X58311791Y-47794728D01*
X58440772Y-47923709D01*
X58542111Y-48075374D01*
X58611915Y-48243896D01*
X58647500Y-48422797D01*
X58647500Y-48605203D01*
X58611915Y-48784104D01*
X58542111Y-48952626D01*
X58440772Y-49104291D01*
X58311791Y-49233272D01*
X58160126Y-49334611D01*
X57991604Y-49404415D01*
X57812703Y-49440000D01*
X57630297Y-49440000D01*
X57451396Y-49404415D01*
X57282874Y-49334611D01*
X57131209Y-49233272D01*
X57002228Y-49104291D01*
X56900889Y-48952626D01*
X56831085Y-48784104D01*
X56795500Y-48605203D01*
X56795500Y-48422797D01*
X56831085Y-48243896D01*
X56900889Y-48075374D01*
X57002228Y-47923709D01*
X57131209Y-47794728D01*
X57282874Y-47693389D01*
X57451396Y-47623585D01*
X57630297Y-47588000D01*
X57812703Y-47588000D01*
X57991604Y-47623585D01*
X57991604Y-47623585D01*
G37*
G36*
X191341604Y-47623585D02*
G01*
X191510126Y-47693389D01*
X191661791Y-47794728D01*
X191790772Y-47923709D01*
X191892111Y-48075374D01*
X191961915Y-48243896D01*
X191997500Y-48422797D01*
X191997500Y-48605203D01*
X191961915Y-48784104D01*
X191892111Y-48952626D01*
X191790772Y-49104291D01*
X191661791Y-49233272D01*
X191510126Y-49334611D01*
X191341604Y-49404415D01*
X191162703Y-49440000D01*
X190980297Y-49440000D01*
X190801396Y-49404415D01*
X190632874Y-49334611D01*
X190481209Y-49233272D01*
X190352228Y-49104291D01*
X190250889Y-48952626D01*
X190181085Y-48784104D01*
X190145500Y-48605203D01*
X190145500Y-48422797D01*
X190181085Y-48243896D01*
X190250889Y-48075374D01*
X190352228Y-47923709D01*
X190481209Y-47794728D01*
X190632874Y-47693389D01*
X190801396Y-47623585D01*
X190980297Y-47588000D01*
X191162703Y-47588000D01*
X191341604Y-47623585D01*
X191341604Y-47623585D01*
G37*
G36*
X153241604Y-47623585D02*
G01*
X153410126Y-47693389D01*
X153561791Y-47794728D01*
X153690772Y-47923709D01*
X153792111Y-48075374D01*
X153861915Y-48243896D01*
X153897500Y-48422797D01*
X153897500Y-48605203D01*
X153861915Y-48784104D01*
X153792111Y-48952626D01*
X153690772Y-49104291D01*
X153561791Y-49233272D01*
X153410126Y-49334611D01*
X153241604Y-49404415D01*
X153062703Y-49440000D01*
X152880297Y-49440000D01*
X152701396Y-49404415D01*
X152532874Y-49334611D01*
X152381209Y-49233272D01*
X152252228Y-49104291D01*
X152150889Y-48952626D01*
X152081085Y-48784104D01*
X152045500Y-48605203D01*
X152045500Y-48422797D01*
X152081085Y-48243896D01*
X152150889Y-48075374D01*
X152252228Y-47923709D01*
X152381209Y-47794728D01*
X152532874Y-47693389D01*
X152701396Y-47623585D01*
X152880297Y-47588000D01*
X153062703Y-47588000D01*
X153241604Y-47623585D01*
X153241604Y-47623585D01*
G37*
G36*
X163401604Y-47623585D02*
G01*
X163570126Y-47693389D01*
X163721791Y-47794728D01*
X163850772Y-47923709D01*
X163952111Y-48075374D01*
X164021915Y-48243896D01*
X164057500Y-48422797D01*
X164057500Y-48605203D01*
X164021915Y-48784104D01*
X163952111Y-48952626D01*
X163850772Y-49104291D01*
X163721791Y-49233272D01*
X163570126Y-49334611D01*
X163401604Y-49404415D01*
X163222703Y-49440000D01*
X163040297Y-49440000D01*
X162861396Y-49404415D01*
X162692874Y-49334611D01*
X162541209Y-49233272D01*
X162412228Y-49104291D01*
X162310889Y-48952626D01*
X162241085Y-48784104D01*
X162205500Y-48605203D01*
X162205500Y-48422797D01*
X162241085Y-48243896D01*
X162310889Y-48075374D01*
X162412228Y-47923709D01*
X162541209Y-47794728D01*
X162692874Y-47693389D01*
X162861396Y-47623585D01*
X163040297Y-47588000D01*
X163222703Y-47588000D01*
X163401604Y-47623585D01*
X163401604Y-47623585D01*
G37*
G36*
X270557854Y-47623585D02*
G01*
X270726376Y-47693389D01*
X270878041Y-47794728D01*
X271007022Y-47923709D01*
X271108361Y-48075374D01*
X271178165Y-48243896D01*
X271213750Y-48422797D01*
X271213750Y-48605203D01*
X271178165Y-48784104D01*
X271108361Y-48952626D01*
X271007022Y-49104291D01*
X270878041Y-49233272D01*
X270726376Y-49334611D01*
X270557854Y-49404415D01*
X270378953Y-49440000D01*
X270196547Y-49440000D01*
X270017646Y-49404415D01*
X269849124Y-49334611D01*
X269697459Y-49233272D01*
X269568478Y-49104291D01*
X269467139Y-48952626D01*
X269397335Y-48784104D01*
X269361750Y-48605203D01*
X269361750Y-48422797D01*
X269397335Y-48243896D01*
X269467139Y-48075374D01*
X269568478Y-47923709D01*
X269697459Y-47794728D01*
X269849124Y-47693389D01*
X270017646Y-47623585D01*
X270196547Y-47588000D01*
X270378953Y-47588000D01*
X270557854Y-47623585D01*
X270557854Y-47623585D01*
G37*
G36*
X260397854Y-47623585D02*
G01*
X260566376Y-47693389D01*
X260718041Y-47794728D01*
X260847022Y-47923709D01*
X260948361Y-48075374D01*
X261018165Y-48243896D01*
X261053750Y-48422797D01*
X261053750Y-48605203D01*
X261018165Y-48784104D01*
X260948361Y-48952626D01*
X260847022Y-49104291D01*
X260718041Y-49233272D01*
X260566376Y-49334611D01*
X260397854Y-49404415D01*
X260218953Y-49440000D01*
X260036547Y-49440000D01*
X259857646Y-49404415D01*
X259689124Y-49334611D01*
X259537459Y-49233272D01*
X259408478Y-49104291D01*
X259307139Y-48952626D01*
X259237335Y-48784104D01*
X259201750Y-48605203D01*
X259201750Y-48422797D01*
X259237335Y-48243896D01*
X259307139Y-48075374D01*
X259408478Y-47923709D01*
X259537459Y-47794728D01*
X259689124Y-47693389D01*
X259857646Y-47623585D01*
X260036547Y-47588000D01*
X260218953Y-47588000D01*
X260397854Y-47623585D01*
X260397854Y-47623585D01*
G37*
G36*
X201501604Y-47623585D02*
G01*
X201670126Y-47693389D01*
X201821791Y-47794728D01*
X201950772Y-47923709D01*
X202052111Y-48075374D01*
X202121915Y-48243896D01*
X202157500Y-48422797D01*
X202157500Y-48605203D01*
X202121915Y-48784104D01*
X202052111Y-48952626D01*
X201950772Y-49104291D01*
X201821791Y-49233272D01*
X201670126Y-49334611D01*
X201501604Y-49404415D01*
X201322703Y-49440000D01*
X201140297Y-49440000D01*
X200961396Y-49404415D01*
X200792874Y-49334611D01*
X200641209Y-49233272D01*
X200512228Y-49104291D01*
X200410889Y-48952626D01*
X200341085Y-48784104D01*
X200305500Y-48605203D01*
X200305500Y-48422797D01*
X200341085Y-48243896D01*
X200410889Y-48075374D01*
X200512228Y-47923709D01*
X200641209Y-47794728D01*
X200792874Y-47693389D01*
X200961396Y-47623585D01*
X201140297Y-47588000D01*
X201322703Y-47588000D01*
X201501604Y-47623585D01*
X201501604Y-47623585D01*
G37*
G36*
X125301604Y-47623585D02*
G01*
X125470126Y-47693389D01*
X125621791Y-47794728D01*
X125750772Y-47923709D01*
X125852111Y-48075374D01*
X125921915Y-48243896D01*
X125957500Y-48422797D01*
X125957500Y-48605203D01*
X125921915Y-48784104D01*
X125852111Y-48952626D01*
X125750772Y-49104291D01*
X125621791Y-49233272D01*
X125470126Y-49334611D01*
X125301604Y-49404415D01*
X125122703Y-49440000D01*
X124940297Y-49440000D01*
X124761396Y-49404415D01*
X124592874Y-49334611D01*
X124441209Y-49233272D01*
X124312228Y-49104291D01*
X124210889Y-48952626D01*
X124141085Y-48784104D01*
X124105500Y-48605203D01*
X124105500Y-48422797D01*
X124141085Y-48243896D01*
X124210889Y-48075374D01*
X124312228Y-47923709D01*
X124441209Y-47794728D01*
X124592874Y-47693389D01*
X124761396Y-47623585D01*
X124940297Y-47588000D01*
X125122703Y-47588000D01*
X125301604Y-47623585D01*
X125301604Y-47623585D01*
G37*
G36*
X115141604Y-47623585D02*
G01*
X115310126Y-47693389D01*
X115461791Y-47794728D01*
X115590772Y-47923709D01*
X115692111Y-48075374D01*
X115761915Y-48243896D01*
X115797500Y-48422797D01*
X115797500Y-48605203D01*
X115761915Y-48784104D01*
X115692111Y-48952626D01*
X115590772Y-49104291D01*
X115461791Y-49233272D01*
X115310126Y-49334611D01*
X115141604Y-49404415D01*
X114962703Y-49440000D01*
X114780297Y-49440000D01*
X114601396Y-49404415D01*
X114432874Y-49334611D01*
X114281209Y-49233272D01*
X114152228Y-49104291D01*
X114050889Y-48952626D01*
X113981085Y-48784104D01*
X113945500Y-48605203D01*
X113945500Y-48422797D01*
X113981085Y-48243896D01*
X114050889Y-48075374D01*
X114152228Y-47923709D01*
X114281209Y-47794728D01*
X114432874Y-47693389D01*
X114601396Y-47623585D01*
X114780297Y-47588000D01*
X114962703Y-47588000D01*
X115141604Y-47623585D01*
X115141604Y-47623585D01*
G37*
G36*
X210391604Y-47623585D02*
G01*
X210560126Y-47693389D01*
X210711791Y-47794728D01*
X210840772Y-47923709D01*
X210942111Y-48075374D01*
X211011915Y-48243896D01*
X211047500Y-48422797D01*
X211047500Y-48605203D01*
X211011915Y-48784104D01*
X210942111Y-48952626D01*
X210840772Y-49104291D01*
X210711791Y-49233272D01*
X210560126Y-49334611D01*
X210391604Y-49404415D01*
X210212703Y-49440000D01*
X210030297Y-49440000D01*
X209851396Y-49404415D01*
X209682874Y-49334611D01*
X209531209Y-49233272D01*
X209402228Y-49104291D01*
X209300889Y-48952626D01*
X209231085Y-48784104D01*
X209195500Y-48605203D01*
X209195500Y-48422797D01*
X209231085Y-48243896D01*
X209300889Y-48075374D01*
X209402228Y-47923709D01*
X209531209Y-47794728D01*
X209682874Y-47693389D01*
X209851396Y-47623585D01*
X210030297Y-47588000D01*
X210212703Y-47588000D01*
X210391604Y-47623585D01*
X210391604Y-47623585D01*
G37*
G36*
X220551604Y-47623585D02*
G01*
X220720126Y-47693389D01*
X220871791Y-47794728D01*
X221000772Y-47923709D01*
X221102111Y-48075374D01*
X221171915Y-48243896D01*
X221207500Y-48422797D01*
X221207500Y-48605203D01*
X221171915Y-48784104D01*
X221102111Y-48952626D01*
X221000772Y-49104291D01*
X220871791Y-49233272D01*
X220720126Y-49334611D01*
X220551604Y-49404415D01*
X220372703Y-49440000D01*
X220190297Y-49440000D01*
X220011396Y-49404415D01*
X219842874Y-49334611D01*
X219691209Y-49233272D01*
X219562228Y-49104291D01*
X219460889Y-48952626D01*
X219391085Y-48784104D01*
X219355500Y-48605203D01*
X219355500Y-48422797D01*
X219391085Y-48243896D01*
X219460889Y-48075374D01*
X219562228Y-47923709D01*
X219691209Y-47794728D01*
X219842874Y-47693389D01*
X220011396Y-47623585D01*
X220190297Y-47588000D01*
X220372703Y-47588000D01*
X220551604Y-47623585D01*
X220551604Y-47623585D01*
G37*
G36*
X172291604Y-47623585D02*
G01*
X172460126Y-47693389D01*
X172611791Y-47794728D01*
X172740772Y-47923709D01*
X172842111Y-48075374D01*
X172911915Y-48243896D01*
X172947500Y-48422797D01*
X172947500Y-48605203D01*
X172911915Y-48784104D01*
X172842111Y-48952626D01*
X172740772Y-49104291D01*
X172611791Y-49233272D01*
X172460126Y-49334611D01*
X172291604Y-49404415D01*
X172112703Y-49440000D01*
X171930297Y-49440000D01*
X171751396Y-49404415D01*
X171582874Y-49334611D01*
X171431209Y-49233272D01*
X171302228Y-49104291D01*
X171200889Y-48952626D01*
X171131085Y-48784104D01*
X171095500Y-48605203D01*
X171095500Y-48422797D01*
X171131085Y-48243896D01*
X171200889Y-48075374D01*
X171302228Y-47923709D01*
X171431209Y-47794728D01*
X171582874Y-47693389D01*
X171751396Y-47623585D01*
X171930297Y-47588000D01*
X172112703Y-47588000D01*
X172291604Y-47623585D01*
X172291604Y-47623585D01*
G37*
G36*
X229441604Y-47623585D02*
G01*
X229610126Y-47693389D01*
X229761791Y-47794728D01*
X229890772Y-47923709D01*
X229992111Y-48075374D01*
X230061915Y-48243896D01*
X230097500Y-48422797D01*
X230097500Y-48605203D01*
X230061915Y-48784104D01*
X229992111Y-48952626D01*
X229890772Y-49104291D01*
X229761791Y-49233272D01*
X229610126Y-49334611D01*
X229441604Y-49404415D01*
X229262703Y-49440000D01*
X229080297Y-49440000D01*
X228901396Y-49404415D01*
X228732874Y-49334611D01*
X228581209Y-49233272D01*
X228452228Y-49104291D01*
X228350889Y-48952626D01*
X228281085Y-48784104D01*
X228245500Y-48605203D01*
X228245500Y-48422797D01*
X228281085Y-48243896D01*
X228350889Y-48075374D01*
X228452228Y-47923709D01*
X228581209Y-47794728D01*
X228732874Y-47693389D01*
X228901396Y-47623585D01*
X229080297Y-47588000D01*
X229262703Y-47588000D01*
X229441604Y-47623585D01*
X229441604Y-47623585D01*
G37*
G36*
X239601604Y-47623585D02*
G01*
X239770126Y-47693389D01*
X239921791Y-47794728D01*
X240050772Y-47923709D01*
X240152111Y-48075374D01*
X240221915Y-48243896D01*
X240257500Y-48422797D01*
X240257500Y-48605203D01*
X240221915Y-48784104D01*
X240152111Y-48952626D01*
X240050772Y-49104291D01*
X239921791Y-49233272D01*
X239770126Y-49334611D01*
X239601604Y-49404415D01*
X239422703Y-49440000D01*
X239240297Y-49440000D01*
X239061396Y-49404415D01*
X238892874Y-49334611D01*
X238741209Y-49233272D01*
X238612228Y-49104291D01*
X238510889Y-48952626D01*
X238441085Y-48784104D01*
X238405500Y-48605203D01*
X238405500Y-48422797D01*
X238441085Y-48243896D01*
X238510889Y-48075374D01*
X238612228Y-47923709D01*
X238741209Y-47794728D01*
X238892874Y-47693389D01*
X239061396Y-47623585D01*
X239240297Y-47588000D01*
X239422703Y-47588000D01*
X239601604Y-47623585D01*
X239601604Y-47623585D01*
G37*
G36*
X253608767Y-39984263D02*
G01*
X253760911Y-40014526D01*
X253879637Y-40063704D01*
X254047541Y-40133252D01*
X254047542Y-40133253D01*
X254305504Y-40305617D01*
X254524883Y-40524996D01*
X254640053Y-40697361D01*
X254697248Y-40782959D01*
X254815974Y-41069590D01*
X254876500Y-41373875D01*
X254876500Y-41684125D01*
X254815974Y-41988410D01*
X254697248Y-42275041D01*
X254697247Y-42275042D01*
X254524883Y-42533004D01*
X254305504Y-42752383D01*
X254133139Y-42867553D01*
X254047541Y-42924748D01*
X253879637Y-42994296D01*
X253760911Y-43043474D01*
X253456625Y-43104000D01*
X253146375Y-43104000D01*
X252842089Y-43043474D01*
X252723363Y-42994296D01*
X252555459Y-42924748D01*
X252469861Y-42867553D01*
X252297496Y-42752383D01*
X252078117Y-42533004D01*
X251905753Y-42275042D01*
X251905752Y-42275041D01*
X251787026Y-41988410D01*
X251726500Y-41684125D01*
X251726500Y-41373875D01*
X251787026Y-41069590D01*
X251905752Y-40782959D01*
X251962947Y-40697361D01*
X252078117Y-40524996D01*
X252297496Y-40305617D01*
X252555458Y-40133253D01*
X252555459Y-40133252D01*
X252723363Y-40063704D01*
X252842089Y-40014526D01*
X252994233Y-39984263D01*
X253146375Y-39954000D01*
X253456625Y-39954000D01*
X253608767Y-39984263D01*
X253608767Y-39984263D01*
G37*
G36*
X277421267Y-39984263D02*
G01*
X277573411Y-40014526D01*
X277692137Y-40063704D01*
X277860041Y-40133252D01*
X277860042Y-40133253D01*
X278118004Y-40305617D01*
X278337383Y-40524996D01*
X278452553Y-40697361D01*
X278509748Y-40782959D01*
X278628474Y-41069590D01*
X278689000Y-41373875D01*
X278689000Y-41684125D01*
X278628474Y-41988410D01*
X278509748Y-42275041D01*
X278509747Y-42275042D01*
X278337383Y-42533004D01*
X278118004Y-42752383D01*
X277945639Y-42867553D01*
X277860041Y-42924748D01*
X277692137Y-42994296D01*
X277573411Y-43043474D01*
X277269125Y-43104000D01*
X276958875Y-43104000D01*
X276654589Y-43043474D01*
X276535863Y-42994296D01*
X276367959Y-42924748D01*
X276282361Y-42867553D01*
X276109996Y-42752383D01*
X275890617Y-42533004D01*
X275718253Y-42275042D01*
X275718252Y-42275041D01*
X275599526Y-41988410D01*
X275539000Y-41684125D01*
X275539000Y-41373875D01*
X275599526Y-41069590D01*
X275718252Y-40782959D01*
X275775447Y-40697361D01*
X275890617Y-40524996D01*
X276109996Y-40305617D01*
X276367958Y-40133253D01*
X276367959Y-40133252D01*
X276535863Y-40063704D01*
X276654589Y-40014526D01*
X276806733Y-39984263D01*
X276958875Y-39954000D01*
X277269125Y-39954000D01*
X277421267Y-39984263D01*
X277421267Y-39984263D01*
G37*
G36*
X115785474Y-27497684D02*
G01*
X116003474Y-27587983D01*
X116157623Y-27651833D01*
X116492548Y-27875623D01*
X116777377Y-28160452D01*
X117001167Y-28495377D01*
X117033562Y-28573586D01*
X117155316Y-28867526D01*
X117233900Y-29262594D01*
X117233900Y-29665406D01*
X117155316Y-30060474D01*
X117104451Y-30183272D01*
X117001167Y-30432623D01*
X116777377Y-30767548D01*
X116492548Y-31052377D01*
X116157623Y-31276167D01*
X116003474Y-31340017D01*
X115785474Y-31430316D01*
X115390406Y-31508900D01*
X114987594Y-31508900D01*
X114592526Y-31430316D01*
X114374526Y-31340017D01*
X114220377Y-31276167D01*
X113885452Y-31052377D01*
X113600623Y-30767548D01*
X113376833Y-30432623D01*
X113273549Y-30183272D01*
X113222684Y-30060474D01*
X113144100Y-29665406D01*
X113144100Y-29262594D01*
X113222684Y-28867526D01*
X113344438Y-28573586D01*
X113376833Y-28495377D01*
X113600623Y-28160452D01*
X113885452Y-27875623D01*
X114220377Y-27651833D01*
X114374526Y-27587983D01*
X114592526Y-27497684D01*
X114987594Y-27419100D01*
X115390406Y-27419100D01*
X115785474Y-27497684D01*
X115785474Y-27497684D01*
G37*
G36*
X96735474Y-27497684D02*
G01*
X96953474Y-27587983D01*
X97107623Y-27651833D01*
X97442548Y-27875623D01*
X97727377Y-28160452D01*
X97951167Y-28495377D01*
X97983562Y-28573586D01*
X98105316Y-28867526D01*
X98183900Y-29262594D01*
X98183900Y-29665406D01*
X98105316Y-30060474D01*
X98054451Y-30183272D01*
X97951167Y-30432623D01*
X97727377Y-30767548D01*
X97442548Y-31052377D01*
X97107623Y-31276167D01*
X96953474Y-31340017D01*
X96735474Y-31430316D01*
X96340406Y-31508900D01*
X95937594Y-31508900D01*
X95542526Y-31430316D01*
X95324526Y-31340017D01*
X95170377Y-31276167D01*
X94835452Y-31052377D01*
X94550623Y-30767548D01*
X94326833Y-30432623D01*
X94223549Y-30183272D01*
X94172684Y-30060474D01*
X94094100Y-29665406D01*
X94094100Y-29262594D01*
X94172684Y-28867526D01*
X94294438Y-28573586D01*
X94326833Y-28495377D01*
X94550623Y-28160452D01*
X94835452Y-27875623D01*
X95170377Y-27651833D01*
X95324526Y-27587983D01*
X95542526Y-27497684D01*
X95937594Y-27419100D01*
X96340406Y-27419100D01*
X96735474Y-27497684D01*
X96735474Y-27497684D01*
G37*
G36*
X58635474Y-27497684D02*
G01*
X58853474Y-27587983D01*
X59007623Y-27651833D01*
X59342548Y-27875623D01*
X59627377Y-28160452D01*
X59851167Y-28495377D01*
X59883562Y-28573586D01*
X60005316Y-28867526D01*
X60083900Y-29262594D01*
X60083900Y-29665406D01*
X60005316Y-30060474D01*
X59954451Y-30183272D01*
X59851167Y-30432623D01*
X59627377Y-30767548D01*
X59342548Y-31052377D01*
X59007623Y-31276167D01*
X58853474Y-31340017D01*
X58635474Y-31430316D01*
X58240406Y-31508900D01*
X57837594Y-31508900D01*
X57442526Y-31430316D01*
X57224526Y-31340017D01*
X57070377Y-31276167D01*
X56735452Y-31052377D01*
X56450623Y-30767548D01*
X56226833Y-30432623D01*
X56123549Y-30183272D01*
X56072684Y-30060474D01*
X55994100Y-29665406D01*
X55994100Y-29262594D01*
X56072684Y-28867526D01*
X56194438Y-28573586D01*
X56226833Y-28495377D01*
X56450623Y-28160452D01*
X56735452Y-27875623D01*
X57070377Y-27651833D01*
X57224526Y-27587983D01*
X57442526Y-27497684D01*
X57837594Y-27419100D01*
X58240406Y-27419100D01*
X58635474Y-27497684D01*
X58635474Y-27497684D01*
G37*
G36*
X134835474Y-27497684D02*
G01*
X135053474Y-27587983D01*
X135207623Y-27651833D01*
X135542548Y-27875623D01*
X135827377Y-28160452D01*
X136051167Y-28495377D01*
X136083562Y-28573586D01*
X136205316Y-28867526D01*
X136283900Y-29262594D01*
X136283900Y-29665406D01*
X136205316Y-30060474D01*
X136154451Y-30183272D01*
X136051167Y-30432623D01*
X135827377Y-30767548D01*
X135542548Y-31052377D01*
X135207623Y-31276167D01*
X135053474Y-31340017D01*
X134835474Y-31430316D01*
X134440406Y-31508900D01*
X134037594Y-31508900D01*
X133642526Y-31430316D01*
X133424526Y-31340017D01*
X133270377Y-31276167D01*
X132935452Y-31052377D01*
X132650623Y-30767548D01*
X132426833Y-30432623D01*
X132323549Y-30183272D01*
X132272684Y-30060474D01*
X132194100Y-29665406D01*
X132194100Y-29262594D01*
X132272684Y-28867526D01*
X132394438Y-28573586D01*
X132426833Y-28495377D01*
X132650623Y-28160452D01*
X132935452Y-27875623D01*
X133270377Y-27651833D01*
X133424526Y-27587983D01*
X133642526Y-27497684D01*
X134037594Y-27419100D01*
X134440406Y-27419100D01*
X134835474Y-27497684D01*
X134835474Y-27497684D01*
G37*
G36*
X153885474Y-27497684D02*
G01*
X154103474Y-27587983D01*
X154257623Y-27651833D01*
X154592548Y-27875623D01*
X154877377Y-28160452D01*
X155101167Y-28495377D01*
X155133562Y-28573586D01*
X155255316Y-28867526D01*
X155333900Y-29262594D01*
X155333900Y-29665406D01*
X155255316Y-30060474D01*
X155204451Y-30183272D01*
X155101167Y-30432623D01*
X154877377Y-30767548D01*
X154592548Y-31052377D01*
X154257623Y-31276167D01*
X154103474Y-31340017D01*
X153885474Y-31430316D01*
X153490406Y-31508900D01*
X153087594Y-31508900D01*
X152692526Y-31430316D01*
X152474526Y-31340017D01*
X152320377Y-31276167D01*
X151985452Y-31052377D01*
X151700623Y-30767548D01*
X151476833Y-30432623D01*
X151373549Y-30183272D01*
X151322684Y-30060474D01*
X151244100Y-29665406D01*
X151244100Y-29262594D01*
X151322684Y-28867526D01*
X151444438Y-28573586D01*
X151476833Y-28495377D01*
X151700623Y-28160452D01*
X151985452Y-27875623D01*
X152320377Y-27651833D01*
X152474526Y-27587983D01*
X152692526Y-27497684D01*
X153087594Y-27419100D01*
X153490406Y-27419100D01*
X153885474Y-27497684D01*
X153885474Y-27497684D01*
G37*
G36*
X172935474Y-27497684D02*
G01*
X173153474Y-27587983D01*
X173307623Y-27651833D01*
X173642548Y-27875623D01*
X173927377Y-28160452D01*
X174151167Y-28495377D01*
X174183562Y-28573586D01*
X174305316Y-28867526D01*
X174383900Y-29262594D01*
X174383900Y-29665406D01*
X174305316Y-30060474D01*
X174254451Y-30183272D01*
X174151167Y-30432623D01*
X173927377Y-30767548D01*
X173642548Y-31052377D01*
X173307623Y-31276167D01*
X173153474Y-31340017D01*
X172935474Y-31430316D01*
X172540406Y-31508900D01*
X172137594Y-31508900D01*
X171742526Y-31430316D01*
X171524526Y-31340017D01*
X171370377Y-31276167D01*
X171035452Y-31052377D01*
X170750623Y-30767548D01*
X170526833Y-30432623D01*
X170423549Y-30183272D01*
X170372684Y-30060474D01*
X170294100Y-29665406D01*
X170294100Y-29262594D01*
X170372684Y-28867526D01*
X170494438Y-28573586D01*
X170526833Y-28495377D01*
X170750623Y-28160452D01*
X171035452Y-27875623D01*
X171370377Y-27651833D01*
X171524526Y-27587983D01*
X171742526Y-27497684D01*
X172137594Y-27419100D01*
X172540406Y-27419100D01*
X172935474Y-27497684D01*
X172935474Y-27497684D01*
G37*
G36*
X191985474Y-27497684D02*
G01*
X192203474Y-27587983D01*
X192357623Y-27651833D01*
X192692548Y-27875623D01*
X192977377Y-28160452D01*
X193201167Y-28495377D01*
X193233562Y-28573586D01*
X193355316Y-28867526D01*
X193433900Y-29262594D01*
X193433900Y-29665406D01*
X193355316Y-30060474D01*
X193304451Y-30183272D01*
X193201167Y-30432623D01*
X192977377Y-30767548D01*
X192692548Y-31052377D01*
X192357623Y-31276167D01*
X192203474Y-31340017D01*
X191985474Y-31430316D01*
X191590406Y-31508900D01*
X191187594Y-31508900D01*
X190792526Y-31430316D01*
X190574526Y-31340017D01*
X190420377Y-31276167D01*
X190085452Y-31052377D01*
X189800623Y-30767548D01*
X189576833Y-30432623D01*
X189473549Y-30183272D01*
X189422684Y-30060474D01*
X189344100Y-29665406D01*
X189344100Y-29262594D01*
X189422684Y-28867526D01*
X189544438Y-28573586D01*
X189576833Y-28495377D01*
X189800623Y-28160452D01*
X190085452Y-27875623D01*
X190420377Y-27651833D01*
X190574526Y-27587983D01*
X190792526Y-27497684D01*
X191187594Y-27419100D01*
X191590406Y-27419100D01*
X191985474Y-27497684D01*
X191985474Y-27497684D01*
G37*
G36*
X34822974Y-27497684D02*
G01*
X35040974Y-27587983D01*
X35195123Y-27651833D01*
X35530048Y-27875623D01*
X35814877Y-28160452D01*
X36038667Y-28495377D01*
X36071062Y-28573586D01*
X36192816Y-28867526D01*
X36271400Y-29262594D01*
X36271400Y-29665406D01*
X36192816Y-30060474D01*
X36141951Y-30183272D01*
X36038667Y-30432623D01*
X35814877Y-30767548D01*
X35530048Y-31052377D01*
X35195123Y-31276167D01*
X35040974Y-31340017D01*
X34822974Y-31430316D01*
X34427906Y-31508900D01*
X34025094Y-31508900D01*
X33630026Y-31430316D01*
X33412026Y-31340017D01*
X33257877Y-31276167D01*
X32922952Y-31052377D01*
X32638123Y-30767548D01*
X32414333Y-30432623D01*
X32311049Y-30183272D01*
X32260184Y-30060474D01*
X32181600Y-29665406D01*
X32181600Y-29262594D01*
X32260184Y-28867526D01*
X32381938Y-28573586D01*
X32414333Y-28495377D01*
X32638123Y-28160452D01*
X32922952Y-27875623D01*
X33257877Y-27651833D01*
X33412026Y-27587983D01*
X33630026Y-27497684D01*
X34025094Y-27419100D01*
X34427906Y-27419100D01*
X34822974Y-27497684D01*
X34822974Y-27497684D01*
G37*
G36*
X77685474Y-27497684D02*
G01*
X77903474Y-27587983D01*
X78057623Y-27651833D01*
X78392548Y-27875623D01*
X78677377Y-28160452D01*
X78901167Y-28495377D01*
X78933562Y-28573586D01*
X79055316Y-28867526D01*
X79133900Y-29262594D01*
X79133900Y-29665406D01*
X79055316Y-30060474D01*
X79004451Y-30183272D01*
X78901167Y-30432623D01*
X78677377Y-30767548D01*
X78392548Y-31052377D01*
X78057623Y-31276167D01*
X77903474Y-31340017D01*
X77685474Y-31430316D01*
X77290406Y-31508900D01*
X76887594Y-31508900D01*
X76492526Y-31430316D01*
X76274526Y-31340017D01*
X76120377Y-31276167D01*
X75785452Y-31052377D01*
X75500623Y-30767548D01*
X75276833Y-30432623D01*
X75173549Y-30183272D01*
X75122684Y-30060474D01*
X75044100Y-29665406D01*
X75044100Y-29262594D01*
X75122684Y-28867526D01*
X75244438Y-28573586D01*
X75276833Y-28495377D01*
X75500623Y-28160452D01*
X75785452Y-27875623D01*
X76120377Y-27651833D01*
X76274526Y-27587983D01*
X76492526Y-27497684D01*
X76887594Y-27419100D01*
X77290406Y-27419100D01*
X77685474Y-27497684D01*
X77685474Y-27497684D01*
G37*
G36*
X211035474Y-27497684D02*
G01*
X211253474Y-27587983D01*
X211407623Y-27651833D01*
X211742548Y-27875623D01*
X212027377Y-28160452D01*
X212251167Y-28495377D01*
X212283562Y-28573586D01*
X212405316Y-28867526D01*
X212483900Y-29262594D01*
X212483900Y-29665406D01*
X212405316Y-30060474D01*
X212354451Y-30183272D01*
X212251167Y-30432623D01*
X212027377Y-30767548D01*
X211742548Y-31052377D01*
X211407623Y-31276167D01*
X211253474Y-31340017D01*
X211035474Y-31430316D01*
X210640406Y-31508900D01*
X210237594Y-31508900D01*
X209842526Y-31430316D01*
X209624526Y-31340017D01*
X209470377Y-31276167D01*
X209135452Y-31052377D01*
X208850623Y-30767548D01*
X208626833Y-30432623D01*
X208523549Y-30183272D01*
X208472684Y-30060474D01*
X208394100Y-29665406D01*
X208394100Y-29262594D01*
X208472684Y-28867526D01*
X208594438Y-28573586D01*
X208626833Y-28495377D01*
X208850623Y-28160452D01*
X209135452Y-27875623D01*
X209470377Y-27651833D01*
X209624526Y-27587983D01*
X209842526Y-27497684D01*
X210237594Y-27419100D01*
X210640406Y-27419100D01*
X211035474Y-27497684D01*
X211035474Y-27497684D01*
G37*
G36*
X230085474Y-27497684D02*
G01*
X230303474Y-27587983D01*
X230457623Y-27651833D01*
X230792548Y-27875623D01*
X231077377Y-28160452D01*
X231301167Y-28495377D01*
X231333562Y-28573586D01*
X231455316Y-28867526D01*
X231533900Y-29262594D01*
X231533900Y-29665406D01*
X231455316Y-30060474D01*
X231404451Y-30183272D01*
X231301167Y-30432623D01*
X231077377Y-30767548D01*
X230792548Y-31052377D01*
X230457623Y-31276167D01*
X230303474Y-31340017D01*
X230085474Y-31430316D01*
X229690406Y-31508900D01*
X229287594Y-31508900D01*
X228892526Y-31430316D01*
X228674526Y-31340017D01*
X228520377Y-31276167D01*
X228185452Y-31052377D01*
X227900623Y-30767548D01*
X227676833Y-30432623D01*
X227573549Y-30183272D01*
X227522684Y-30060474D01*
X227444100Y-29665406D01*
X227444100Y-29262594D01*
X227522684Y-28867526D01*
X227644438Y-28573586D01*
X227676833Y-28495377D01*
X227900623Y-28160452D01*
X228185452Y-27875623D01*
X228520377Y-27651833D01*
X228674526Y-27587983D01*
X228892526Y-27497684D01*
X229287594Y-27419100D01*
X229690406Y-27419100D01*
X230085474Y-27497684D01*
X230085474Y-27497684D01*
G37*
G36*
X249135474Y-27497684D02*
G01*
X249353474Y-27587983D01*
X249507623Y-27651833D01*
X249842548Y-27875623D01*
X250127377Y-28160452D01*
X250351167Y-28495377D01*
X250383562Y-28573586D01*
X250505316Y-28867526D01*
X250583900Y-29262594D01*
X250583900Y-29665406D01*
X250505316Y-30060474D01*
X250454451Y-30183272D01*
X250351167Y-30432623D01*
X250127377Y-30767548D01*
X249842548Y-31052377D01*
X249507623Y-31276167D01*
X249353474Y-31340017D01*
X249135474Y-31430316D01*
X248740406Y-31508900D01*
X248337594Y-31508900D01*
X247942526Y-31430316D01*
X247724526Y-31340017D01*
X247570377Y-31276167D01*
X247235452Y-31052377D01*
X246950623Y-30767548D01*
X246726833Y-30432623D01*
X246623549Y-30183272D01*
X246572684Y-30060474D01*
X246494100Y-29665406D01*
X246494100Y-29262594D01*
X246572684Y-28867526D01*
X246694438Y-28573586D01*
X246726833Y-28495377D01*
X246950623Y-28160452D01*
X247235452Y-27875623D01*
X247570377Y-27651833D01*
X247724526Y-27587983D01*
X247942526Y-27497684D01*
X248337594Y-27419100D01*
X248740406Y-27419100D01*
X249135474Y-27497684D01*
X249135474Y-27497684D01*
G37*
G36*
X272947974Y-27497684D02*
G01*
X273165974Y-27587983D01*
X273320123Y-27651833D01*
X273655048Y-27875623D01*
X273939877Y-28160452D01*
X274163667Y-28495377D01*
X274196062Y-28573586D01*
X274317816Y-28867526D01*
X274396400Y-29262594D01*
X274396400Y-29665406D01*
X274317816Y-30060474D01*
X274266951Y-30183272D01*
X274163667Y-30432623D01*
X273939877Y-30767548D01*
X273655048Y-31052377D01*
X273320123Y-31276167D01*
X273165974Y-31340017D01*
X272947974Y-31430316D01*
X272552906Y-31508900D01*
X272150094Y-31508900D01*
X271755026Y-31430316D01*
X271537026Y-31340017D01*
X271382877Y-31276167D01*
X271047952Y-31052377D01*
X270763123Y-30767548D01*
X270539333Y-30432623D01*
X270436049Y-30183272D01*
X270385184Y-30060474D01*
X270306600Y-29665406D01*
X270306600Y-29262594D01*
X270385184Y-28867526D01*
X270506938Y-28573586D01*
X270539333Y-28495377D01*
X270763123Y-28160452D01*
X271047952Y-27875623D01*
X271382877Y-27651833D01*
X271537026Y-27587983D01*
X271755026Y-27497684D01*
X272150094Y-27419100D01*
X272552906Y-27419100D01*
X272947974Y-27497684D01*
X272947974Y-27497684D01*
G37*
G36*
X215789104Y-28573585D02*
G01*
X215957626Y-28643389D01*
X216109291Y-28744728D01*
X216238272Y-28873709D01*
X216339611Y-29025374D01*
X216409415Y-29193896D01*
X216445000Y-29372797D01*
X216445000Y-29555203D01*
X216409415Y-29734104D01*
X216339611Y-29902626D01*
X216238272Y-30054291D01*
X216109291Y-30183272D01*
X215957626Y-30284611D01*
X215789104Y-30354415D01*
X215610203Y-30390000D01*
X215427797Y-30390000D01*
X215248896Y-30354415D01*
X215080374Y-30284611D01*
X214928709Y-30183272D01*
X214799728Y-30054291D01*
X214698389Y-29902626D01*
X214628585Y-29734104D01*
X214593000Y-29555203D01*
X214593000Y-29372797D01*
X214628585Y-29193896D01*
X214698389Y-29025374D01*
X214799728Y-28873709D01*
X214928709Y-28744728D01*
X215080374Y-28643389D01*
X215248896Y-28573585D01*
X215427797Y-28538000D01*
X215610203Y-28538000D01*
X215789104Y-28573585D01*
X215789104Y-28573585D01*
G37*
G36*
X267541604Y-28573585D02*
G01*
X267710126Y-28643389D01*
X267861791Y-28744728D01*
X267990772Y-28873709D01*
X268092111Y-29025374D01*
X268161915Y-29193896D01*
X268197500Y-29372797D01*
X268197500Y-29555203D01*
X268161915Y-29734104D01*
X268092111Y-29902626D01*
X267990772Y-30054291D01*
X267861791Y-30183272D01*
X267710126Y-30284611D01*
X267541604Y-30354415D01*
X267362703Y-30390000D01*
X267180297Y-30390000D01*
X267001396Y-30354415D01*
X266832874Y-30284611D01*
X266681209Y-30183272D01*
X266552228Y-30054291D01*
X266450889Y-29902626D01*
X266381085Y-29734104D01*
X266345500Y-29555203D01*
X266345500Y-29372797D01*
X266381085Y-29193896D01*
X266450889Y-29025374D01*
X266552228Y-28873709D01*
X266681209Y-28744728D01*
X266832874Y-28643389D01*
X267001396Y-28573585D01*
X267180297Y-28538000D01*
X267362703Y-28538000D01*
X267541604Y-28573585D01*
X267541604Y-28573585D01*
G37*
G36*
X29416604Y-28573585D02*
G01*
X29585126Y-28643389D01*
X29736791Y-28744728D01*
X29865772Y-28873709D01*
X29967111Y-29025374D01*
X30036915Y-29193896D01*
X30072500Y-29372797D01*
X30072500Y-29555203D01*
X30036915Y-29734104D01*
X29967111Y-29902626D01*
X29865772Y-30054291D01*
X29736791Y-30183272D01*
X29585126Y-30284611D01*
X29416604Y-30354415D01*
X29237703Y-30390000D01*
X29055297Y-30390000D01*
X28876396Y-30354415D01*
X28707874Y-30284611D01*
X28556209Y-30183272D01*
X28427228Y-30054291D01*
X28325889Y-29902626D01*
X28256085Y-29734104D01*
X28220500Y-29555203D01*
X28220500Y-29372797D01*
X28256085Y-29193896D01*
X28325889Y-29025374D01*
X28427228Y-28873709D01*
X28556209Y-28744728D01*
X28707874Y-28643389D01*
X28876396Y-28573585D01*
X29055297Y-28538000D01*
X29237703Y-28538000D01*
X29416604Y-28573585D01*
X29416604Y-28573585D01*
G37*
G36*
X39576604Y-28573585D02*
G01*
X39745126Y-28643389D01*
X39896791Y-28744728D01*
X40025772Y-28873709D01*
X40127111Y-29025374D01*
X40196915Y-29193896D01*
X40232500Y-29372797D01*
X40232500Y-29555203D01*
X40196915Y-29734104D01*
X40127111Y-29902626D01*
X40025772Y-30054291D01*
X39896791Y-30183272D01*
X39745126Y-30284611D01*
X39576604Y-30354415D01*
X39397703Y-30390000D01*
X39215297Y-30390000D01*
X39036396Y-30354415D01*
X38867874Y-30284611D01*
X38716209Y-30183272D01*
X38587228Y-30054291D01*
X38485889Y-29902626D01*
X38416085Y-29734104D01*
X38380500Y-29555203D01*
X38380500Y-29372797D01*
X38416085Y-29193896D01*
X38485889Y-29025374D01*
X38587228Y-28873709D01*
X38716209Y-28744728D01*
X38867874Y-28643389D01*
X39036396Y-28573585D01*
X39215297Y-28538000D01*
X39397703Y-28538000D01*
X39576604Y-28573585D01*
X39576604Y-28573585D01*
G37*
G36*
X224679104Y-28573585D02*
G01*
X224847626Y-28643389D01*
X224999291Y-28744728D01*
X225128272Y-28873709D01*
X225229611Y-29025374D01*
X225299415Y-29193896D01*
X225335000Y-29372797D01*
X225335000Y-29555203D01*
X225299415Y-29734104D01*
X225229611Y-29902626D01*
X225128272Y-30054291D01*
X224999291Y-30183272D01*
X224847626Y-30284611D01*
X224679104Y-30354415D01*
X224500203Y-30390000D01*
X224317797Y-30390000D01*
X224138896Y-30354415D01*
X223970374Y-30284611D01*
X223818709Y-30183272D01*
X223689728Y-30054291D01*
X223588389Y-29902626D01*
X223518585Y-29734104D01*
X223483000Y-29555203D01*
X223483000Y-29372797D01*
X223518585Y-29193896D01*
X223588389Y-29025374D01*
X223689728Y-28873709D01*
X223818709Y-28744728D01*
X223970374Y-28643389D01*
X224138896Y-28573585D01*
X224317797Y-28538000D01*
X224500203Y-28538000D01*
X224679104Y-28573585D01*
X224679104Y-28573585D01*
G37*
G36*
X53229104Y-28573585D02*
G01*
X53397626Y-28643389D01*
X53549291Y-28744728D01*
X53678272Y-28873709D01*
X53779611Y-29025374D01*
X53849415Y-29193896D01*
X53885000Y-29372797D01*
X53885000Y-29555203D01*
X53849415Y-29734104D01*
X53779611Y-29902626D01*
X53678272Y-30054291D01*
X53549291Y-30183272D01*
X53397626Y-30284611D01*
X53229104Y-30354415D01*
X53050203Y-30390000D01*
X52867797Y-30390000D01*
X52688896Y-30354415D01*
X52520374Y-30284611D01*
X52368709Y-30183272D01*
X52239728Y-30054291D01*
X52138389Y-29902626D01*
X52068585Y-29734104D01*
X52033000Y-29555203D01*
X52033000Y-29372797D01*
X52068585Y-29193896D01*
X52138389Y-29025374D01*
X52239728Y-28873709D01*
X52368709Y-28744728D01*
X52520374Y-28643389D01*
X52688896Y-28573585D01*
X52867797Y-28538000D01*
X53050203Y-28538000D01*
X53229104Y-28573585D01*
X53229104Y-28573585D01*
G37*
G36*
X63389104Y-28573585D02*
G01*
X63557626Y-28643389D01*
X63709291Y-28744728D01*
X63838272Y-28873709D01*
X63939611Y-29025374D01*
X64009415Y-29193896D01*
X64045000Y-29372797D01*
X64045000Y-29555203D01*
X64009415Y-29734104D01*
X63939611Y-29902626D01*
X63838272Y-30054291D01*
X63709291Y-30183272D01*
X63557626Y-30284611D01*
X63389104Y-30354415D01*
X63210203Y-30390000D01*
X63027797Y-30390000D01*
X62848896Y-30354415D01*
X62680374Y-30284611D01*
X62528709Y-30183272D01*
X62399728Y-30054291D01*
X62298389Y-29902626D01*
X62228585Y-29734104D01*
X62193000Y-29555203D01*
X62193000Y-29372797D01*
X62228585Y-29193896D01*
X62298389Y-29025374D01*
X62399728Y-28873709D01*
X62528709Y-28744728D01*
X62680374Y-28643389D01*
X62848896Y-28573585D01*
X63027797Y-28538000D01*
X63210203Y-28538000D01*
X63389104Y-28573585D01*
X63389104Y-28573585D01*
G37*
G36*
X234839104Y-28573585D02*
G01*
X235007626Y-28643389D01*
X235159291Y-28744728D01*
X235288272Y-28873709D01*
X235389611Y-29025374D01*
X235459415Y-29193896D01*
X235495000Y-29372797D01*
X235495000Y-29555203D01*
X235459415Y-29734104D01*
X235389611Y-29902626D01*
X235288272Y-30054291D01*
X235159291Y-30183272D01*
X235007626Y-30284611D01*
X234839104Y-30354415D01*
X234660203Y-30390000D01*
X234477797Y-30390000D01*
X234298896Y-30354415D01*
X234130374Y-30284611D01*
X233978709Y-30183272D01*
X233849728Y-30054291D01*
X233748389Y-29902626D01*
X233678585Y-29734104D01*
X233643000Y-29555203D01*
X233643000Y-29372797D01*
X233678585Y-29193896D01*
X233748389Y-29025374D01*
X233849728Y-28873709D01*
X233978709Y-28744728D01*
X234130374Y-28643389D01*
X234298896Y-28573585D01*
X234477797Y-28538000D01*
X234660203Y-28538000D01*
X234839104Y-28573585D01*
X234839104Y-28573585D01*
G37*
G36*
X110379104Y-28573585D02*
G01*
X110547626Y-28643389D01*
X110699291Y-28744728D01*
X110828272Y-28873709D01*
X110929611Y-29025374D01*
X110999415Y-29193896D01*
X111035000Y-29372797D01*
X111035000Y-29555203D01*
X110999415Y-29734104D01*
X110929611Y-29902626D01*
X110828272Y-30054291D01*
X110699291Y-30183272D01*
X110547626Y-30284611D01*
X110379104Y-30354415D01*
X110200203Y-30390000D01*
X110017797Y-30390000D01*
X109838896Y-30354415D01*
X109670374Y-30284611D01*
X109518709Y-30183272D01*
X109389728Y-30054291D01*
X109288389Y-29902626D01*
X109218585Y-29734104D01*
X109183000Y-29555203D01*
X109183000Y-29372797D01*
X109218585Y-29193896D01*
X109288389Y-29025374D01*
X109389728Y-28873709D01*
X109518709Y-28744728D01*
X109670374Y-28643389D01*
X109838896Y-28573585D01*
X110017797Y-28538000D01*
X110200203Y-28538000D01*
X110379104Y-28573585D01*
X110379104Y-28573585D01*
G37*
G36*
X120539104Y-28573585D02*
G01*
X120707626Y-28643389D01*
X120859291Y-28744728D01*
X120988272Y-28873709D01*
X121089611Y-29025374D01*
X121159415Y-29193896D01*
X121195000Y-29372797D01*
X121195000Y-29555203D01*
X121159415Y-29734104D01*
X121089611Y-29902626D01*
X120988272Y-30054291D01*
X120859291Y-30183272D01*
X120707626Y-30284611D01*
X120539104Y-30354415D01*
X120360203Y-30390000D01*
X120177797Y-30390000D01*
X119998896Y-30354415D01*
X119830374Y-30284611D01*
X119678709Y-30183272D01*
X119549728Y-30054291D01*
X119448389Y-29902626D01*
X119378585Y-29734104D01*
X119343000Y-29555203D01*
X119343000Y-29372797D01*
X119378585Y-29193896D01*
X119448389Y-29025374D01*
X119549728Y-28873709D01*
X119678709Y-28744728D01*
X119830374Y-28643389D01*
X119998896Y-28573585D01*
X120177797Y-28538000D01*
X120360203Y-28538000D01*
X120539104Y-28573585D01*
X120539104Y-28573585D01*
G37*
G36*
X243729104Y-28573585D02*
G01*
X243897626Y-28643389D01*
X244049291Y-28744728D01*
X244178272Y-28873709D01*
X244279611Y-29025374D01*
X244349415Y-29193896D01*
X244385000Y-29372797D01*
X244385000Y-29555203D01*
X244349415Y-29734104D01*
X244279611Y-29902626D01*
X244178272Y-30054291D01*
X244049291Y-30183272D01*
X243897626Y-30284611D01*
X243729104Y-30354415D01*
X243550203Y-30390000D01*
X243367797Y-30390000D01*
X243188896Y-30354415D01*
X243020374Y-30284611D01*
X242868709Y-30183272D01*
X242739728Y-30054291D01*
X242638389Y-29902626D01*
X242568585Y-29734104D01*
X242533000Y-29555203D01*
X242533000Y-29372797D01*
X242568585Y-29193896D01*
X242638389Y-29025374D01*
X242739728Y-28873709D01*
X242868709Y-28744728D01*
X243020374Y-28643389D01*
X243188896Y-28573585D01*
X243367797Y-28538000D01*
X243550203Y-28538000D01*
X243729104Y-28573585D01*
X243729104Y-28573585D01*
G37*
G36*
X129429104Y-28573585D02*
G01*
X129597626Y-28643389D01*
X129749291Y-28744728D01*
X129878272Y-28873709D01*
X129979611Y-29025374D01*
X130049415Y-29193896D01*
X130085000Y-29372797D01*
X130085000Y-29555203D01*
X130049415Y-29734104D01*
X129979611Y-29902626D01*
X129878272Y-30054291D01*
X129749291Y-30183272D01*
X129597626Y-30284611D01*
X129429104Y-30354415D01*
X129250203Y-30390000D01*
X129067797Y-30390000D01*
X128888896Y-30354415D01*
X128720374Y-30284611D01*
X128568709Y-30183272D01*
X128439728Y-30054291D01*
X128338389Y-29902626D01*
X128268585Y-29734104D01*
X128233000Y-29555203D01*
X128233000Y-29372797D01*
X128268585Y-29193896D01*
X128338389Y-29025374D01*
X128439728Y-28873709D01*
X128568709Y-28744728D01*
X128720374Y-28643389D01*
X128888896Y-28573585D01*
X129067797Y-28538000D01*
X129250203Y-28538000D01*
X129429104Y-28573585D01*
X129429104Y-28573585D01*
G37*
G36*
X139589104Y-28573585D02*
G01*
X139757626Y-28643389D01*
X139909291Y-28744728D01*
X140038272Y-28873709D01*
X140139611Y-29025374D01*
X140209415Y-29193896D01*
X140245000Y-29372797D01*
X140245000Y-29555203D01*
X140209415Y-29734104D01*
X140139611Y-29902626D01*
X140038272Y-30054291D01*
X139909291Y-30183272D01*
X139757626Y-30284611D01*
X139589104Y-30354415D01*
X139410203Y-30390000D01*
X139227797Y-30390000D01*
X139048896Y-30354415D01*
X138880374Y-30284611D01*
X138728709Y-30183272D01*
X138599728Y-30054291D01*
X138498389Y-29902626D01*
X138428585Y-29734104D01*
X138393000Y-29555203D01*
X138393000Y-29372797D01*
X138428585Y-29193896D01*
X138498389Y-29025374D01*
X138599728Y-28873709D01*
X138728709Y-28744728D01*
X138880374Y-28643389D01*
X139048896Y-28573585D01*
X139227797Y-28538000D01*
X139410203Y-28538000D01*
X139589104Y-28573585D01*
X139589104Y-28573585D01*
G37*
G36*
X158639104Y-28573585D02*
G01*
X158807626Y-28643389D01*
X158959291Y-28744728D01*
X159088272Y-28873709D01*
X159189611Y-29025374D01*
X159259415Y-29193896D01*
X159295000Y-29372797D01*
X159295000Y-29555203D01*
X159259415Y-29734104D01*
X159189611Y-29902626D01*
X159088272Y-30054291D01*
X158959291Y-30183272D01*
X158807626Y-30284611D01*
X158639104Y-30354415D01*
X158460203Y-30390000D01*
X158277797Y-30390000D01*
X158098896Y-30354415D01*
X157930374Y-30284611D01*
X157778709Y-30183272D01*
X157649728Y-30054291D01*
X157548389Y-29902626D01*
X157478585Y-29734104D01*
X157443000Y-29555203D01*
X157443000Y-29372797D01*
X157478585Y-29193896D01*
X157548389Y-29025374D01*
X157649728Y-28873709D01*
X157778709Y-28744728D01*
X157930374Y-28643389D01*
X158098896Y-28573585D01*
X158277797Y-28538000D01*
X158460203Y-28538000D01*
X158639104Y-28573585D01*
X158639104Y-28573585D01*
G37*
G36*
X148479104Y-28573585D02*
G01*
X148647626Y-28643389D01*
X148799291Y-28744728D01*
X148928272Y-28873709D01*
X149029611Y-29025374D01*
X149099415Y-29193896D01*
X149135000Y-29372797D01*
X149135000Y-29555203D01*
X149099415Y-29734104D01*
X149029611Y-29902626D01*
X148928272Y-30054291D01*
X148799291Y-30183272D01*
X148647626Y-30284611D01*
X148479104Y-30354415D01*
X148300203Y-30390000D01*
X148117797Y-30390000D01*
X147938896Y-30354415D01*
X147770374Y-30284611D01*
X147618709Y-30183272D01*
X147489728Y-30054291D01*
X147388389Y-29902626D01*
X147318585Y-29734104D01*
X147283000Y-29555203D01*
X147283000Y-29372797D01*
X147318585Y-29193896D01*
X147388389Y-29025374D01*
X147489728Y-28873709D01*
X147618709Y-28744728D01*
X147770374Y-28643389D01*
X147938896Y-28573585D01*
X148117797Y-28538000D01*
X148300203Y-28538000D01*
X148479104Y-28573585D01*
X148479104Y-28573585D01*
G37*
G36*
X253889104Y-28573585D02*
G01*
X254057626Y-28643389D01*
X254209291Y-28744728D01*
X254338272Y-28873709D01*
X254439611Y-29025374D01*
X254509415Y-29193896D01*
X254545000Y-29372797D01*
X254545000Y-29555203D01*
X254509415Y-29734104D01*
X254439611Y-29902626D01*
X254338272Y-30054291D01*
X254209291Y-30183272D01*
X254057626Y-30284611D01*
X253889104Y-30354415D01*
X253710203Y-30390000D01*
X253527797Y-30390000D01*
X253348896Y-30354415D01*
X253180374Y-30284611D01*
X253028709Y-30183272D01*
X252899728Y-30054291D01*
X252798389Y-29902626D01*
X252728585Y-29734104D01*
X252693000Y-29555203D01*
X252693000Y-29372797D01*
X252728585Y-29193896D01*
X252798389Y-29025374D01*
X252899728Y-28873709D01*
X253028709Y-28744728D01*
X253180374Y-28643389D01*
X253348896Y-28573585D01*
X253527797Y-28538000D01*
X253710203Y-28538000D01*
X253889104Y-28573585D01*
X253889104Y-28573585D01*
G37*
G36*
X167529104Y-28573585D02*
G01*
X167697626Y-28643389D01*
X167849291Y-28744728D01*
X167978272Y-28873709D01*
X168079611Y-29025374D01*
X168149415Y-29193896D01*
X168185000Y-29372797D01*
X168185000Y-29555203D01*
X168149415Y-29734104D01*
X168079611Y-29902626D01*
X167978272Y-30054291D01*
X167849291Y-30183272D01*
X167697626Y-30284611D01*
X167529104Y-30354415D01*
X167350203Y-30390000D01*
X167167797Y-30390000D01*
X166988896Y-30354415D01*
X166820374Y-30284611D01*
X166668709Y-30183272D01*
X166539728Y-30054291D01*
X166438389Y-29902626D01*
X166368585Y-29734104D01*
X166333000Y-29555203D01*
X166333000Y-29372797D01*
X166368585Y-29193896D01*
X166438389Y-29025374D01*
X166539728Y-28873709D01*
X166668709Y-28744728D01*
X166820374Y-28643389D01*
X166988896Y-28573585D01*
X167167797Y-28538000D01*
X167350203Y-28538000D01*
X167529104Y-28573585D01*
X167529104Y-28573585D01*
G37*
G36*
X72279104Y-28573585D02*
G01*
X72447626Y-28643389D01*
X72599291Y-28744728D01*
X72728272Y-28873709D01*
X72829611Y-29025374D01*
X72899415Y-29193896D01*
X72935000Y-29372797D01*
X72935000Y-29555203D01*
X72899415Y-29734104D01*
X72829611Y-29902626D01*
X72728272Y-30054291D01*
X72599291Y-30183272D01*
X72447626Y-30284611D01*
X72279104Y-30354415D01*
X72100203Y-30390000D01*
X71917797Y-30390000D01*
X71738896Y-30354415D01*
X71570374Y-30284611D01*
X71418709Y-30183272D01*
X71289728Y-30054291D01*
X71188389Y-29902626D01*
X71118585Y-29734104D01*
X71083000Y-29555203D01*
X71083000Y-29372797D01*
X71118585Y-29193896D01*
X71188389Y-29025374D01*
X71289728Y-28873709D01*
X71418709Y-28744728D01*
X71570374Y-28643389D01*
X71738896Y-28573585D01*
X71917797Y-28538000D01*
X72100203Y-28538000D01*
X72279104Y-28573585D01*
X72279104Y-28573585D01*
G37*
G36*
X82439104Y-28573585D02*
G01*
X82607626Y-28643389D01*
X82759291Y-28744728D01*
X82888272Y-28873709D01*
X82989611Y-29025374D01*
X83059415Y-29193896D01*
X83095000Y-29372797D01*
X83095000Y-29555203D01*
X83059415Y-29734104D01*
X82989611Y-29902626D01*
X82888272Y-30054291D01*
X82759291Y-30183272D01*
X82607626Y-30284611D01*
X82439104Y-30354415D01*
X82260203Y-30390000D01*
X82077797Y-30390000D01*
X81898896Y-30354415D01*
X81730374Y-30284611D01*
X81578709Y-30183272D01*
X81449728Y-30054291D01*
X81348389Y-29902626D01*
X81278585Y-29734104D01*
X81243000Y-29555203D01*
X81243000Y-29372797D01*
X81278585Y-29193896D01*
X81348389Y-29025374D01*
X81449728Y-28873709D01*
X81578709Y-28744728D01*
X81730374Y-28643389D01*
X81898896Y-28573585D01*
X82077797Y-28538000D01*
X82260203Y-28538000D01*
X82439104Y-28573585D01*
X82439104Y-28573585D01*
G37*
G36*
X91329104Y-28573585D02*
G01*
X91497626Y-28643389D01*
X91649291Y-28744728D01*
X91778272Y-28873709D01*
X91879611Y-29025374D01*
X91949415Y-29193896D01*
X91985000Y-29372797D01*
X91985000Y-29555203D01*
X91949415Y-29734104D01*
X91879611Y-29902626D01*
X91778272Y-30054291D01*
X91649291Y-30183272D01*
X91497626Y-30284611D01*
X91329104Y-30354415D01*
X91150203Y-30390000D01*
X90967797Y-30390000D01*
X90788896Y-30354415D01*
X90620374Y-30284611D01*
X90468709Y-30183272D01*
X90339728Y-30054291D01*
X90238389Y-29902626D01*
X90168585Y-29734104D01*
X90133000Y-29555203D01*
X90133000Y-29372797D01*
X90168585Y-29193896D01*
X90238389Y-29025374D01*
X90339728Y-28873709D01*
X90468709Y-28744728D01*
X90620374Y-28643389D01*
X90788896Y-28573585D01*
X90967797Y-28538000D01*
X91150203Y-28538000D01*
X91329104Y-28573585D01*
X91329104Y-28573585D01*
G37*
G36*
X101489104Y-28573585D02*
G01*
X101657626Y-28643389D01*
X101809291Y-28744728D01*
X101938272Y-28873709D01*
X102039611Y-29025374D01*
X102109415Y-29193896D01*
X102145000Y-29372797D01*
X102145000Y-29555203D01*
X102109415Y-29734104D01*
X102039611Y-29902626D01*
X101938272Y-30054291D01*
X101809291Y-30183272D01*
X101657626Y-30284611D01*
X101489104Y-30354415D01*
X101310203Y-30390000D01*
X101127797Y-30390000D01*
X100948896Y-30354415D01*
X100780374Y-30284611D01*
X100628709Y-30183272D01*
X100499728Y-30054291D01*
X100398389Y-29902626D01*
X100328585Y-29734104D01*
X100293000Y-29555203D01*
X100293000Y-29372797D01*
X100328585Y-29193896D01*
X100398389Y-29025374D01*
X100499728Y-28873709D01*
X100628709Y-28744728D01*
X100780374Y-28643389D01*
X100948896Y-28573585D01*
X101127797Y-28538000D01*
X101310203Y-28538000D01*
X101489104Y-28573585D01*
X101489104Y-28573585D01*
G37*
G36*
X177689104Y-28573585D02*
G01*
X177857626Y-28643389D01*
X178009291Y-28744728D01*
X178138272Y-28873709D01*
X178239611Y-29025374D01*
X178309415Y-29193896D01*
X178345000Y-29372797D01*
X178345000Y-29555203D01*
X178309415Y-29734104D01*
X178239611Y-29902626D01*
X178138272Y-30054291D01*
X178009291Y-30183272D01*
X177857626Y-30284611D01*
X177689104Y-30354415D01*
X177510203Y-30390000D01*
X177327797Y-30390000D01*
X177148896Y-30354415D01*
X176980374Y-30284611D01*
X176828709Y-30183272D01*
X176699728Y-30054291D01*
X176598389Y-29902626D01*
X176528585Y-29734104D01*
X176493000Y-29555203D01*
X176493000Y-29372797D01*
X176528585Y-29193896D01*
X176598389Y-29025374D01*
X176699728Y-28873709D01*
X176828709Y-28744728D01*
X176980374Y-28643389D01*
X177148896Y-28573585D01*
X177327797Y-28538000D01*
X177510203Y-28538000D01*
X177689104Y-28573585D01*
X177689104Y-28573585D01*
G37*
G36*
X277701604Y-28573585D02*
G01*
X277870126Y-28643389D01*
X278021791Y-28744728D01*
X278150772Y-28873709D01*
X278252111Y-29025374D01*
X278321915Y-29193896D01*
X278357500Y-29372797D01*
X278357500Y-29555203D01*
X278321915Y-29734104D01*
X278252111Y-29902626D01*
X278150772Y-30054291D01*
X278021791Y-30183272D01*
X277870126Y-30284611D01*
X277701604Y-30354415D01*
X277522703Y-30390000D01*
X277340297Y-30390000D01*
X277161396Y-30354415D01*
X276992874Y-30284611D01*
X276841209Y-30183272D01*
X276712228Y-30054291D01*
X276610889Y-29902626D01*
X276541085Y-29734104D01*
X276505500Y-29555203D01*
X276505500Y-29372797D01*
X276541085Y-29193896D01*
X276610889Y-29025374D01*
X276712228Y-28873709D01*
X276841209Y-28744728D01*
X276992874Y-28643389D01*
X277161396Y-28573585D01*
X277340297Y-28538000D01*
X277522703Y-28538000D01*
X277701604Y-28573585D01*
X277701604Y-28573585D01*
G37*
G36*
X186579104Y-28573585D02*
G01*
X186747626Y-28643389D01*
X186899291Y-28744728D01*
X187028272Y-28873709D01*
X187129611Y-29025374D01*
X187199415Y-29193896D01*
X187235000Y-29372797D01*
X187235000Y-29555203D01*
X187199415Y-29734104D01*
X187129611Y-29902626D01*
X187028272Y-30054291D01*
X186899291Y-30183272D01*
X186747626Y-30284611D01*
X186579104Y-30354415D01*
X186400203Y-30390000D01*
X186217797Y-30390000D01*
X186038896Y-30354415D01*
X185870374Y-30284611D01*
X185718709Y-30183272D01*
X185589728Y-30054291D01*
X185488389Y-29902626D01*
X185418585Y-29734104D01*
X185383000Y-29555203D01*
X185383000Y-29372797D01*
X185418585Y-29193896D01*
X185488389Y-29025374D01*
X185589728Y-28873709D01*
X185718709Y-28744728D01*
X185870374Y-28643389D01*
X186038896Y-28573585D01*
X186217797Y-28538000D01*
X186400203Y-28538000D01*
X186579104Y-28573585D01*
X186579104Y-28573585D01*
G37*
G36*
X196739104Y-28573585D02*
G01*
X196907626Y-28643389D01*
X197059291Y-28744728D01*
X197188272Y-28873709D01*
X197289611Y-29025374D01*
X197359415Y-29193896D01*
X197395000Y-29372797D01*
X197395000Y-29555203D01*
X197359415Y-29734104D01*
X197289611Y-29902626D01*
X197188272Y-30054291D01*
X197059291Y-30183272D01*
X196907626Y-30284611D01*
X196739104Y-30354415D01*
X196560203Y-30390000D01*
X196377797Y-30390000D01*
X196198896Y-30354415D01*
X196030374Y-30284611D01*
X195878709Y-30183272D01*
X195749728Y-30054291D01*
X195648389Y-29902626D01*
X195578585Y-29734104D01*
X195543000Y-29555203D01*
X195543000Y-29372797D01*
X195578585Y-29193896D01*
X195648389Y-29025374D01*
X195749728Y-28873709D01*
X195878709Y-28744728D01*
X196030374Y-28643389D01*
X196198896Y-28573585D01*
X196377797Y-28538000D01*
X196560203Y-28538000D01*
X196739104Y-28573585D01*
X196739104Y-28573585D01*
G37*
G36*
X205629104Y-28573585D02*
G01*
X205797626Y-28643389D01*
X205949291Y-28744728D01*
X206078272Y-28873709D01*
X206179611Y-29025374D01*
X206249415Y-29193896D01*
X206285000Y-29372797D01*
X206285000Y-29555203D01*
X206249415Y-29734104D01*
X206179611Y-29902626D01*
X206078272Y-30054291D01*
X205949291Y-30183272D01*
X205797626Y-30284611D01*
X205629104Y-30354415D01*
X205450203Y-30390000D01*
X205267797Y-30390000D01*
X205088896Y-30354415D01*
X204920374Y-30284611D01*
X204768709Y-30183272D01*
X204639728Y-30054291D01*
X204538389Y-29902626D01*
X204468585Y-29734104D01*
X204433000Y-29555203D01*
X204433000Y-29372797D01*
X204468585Y-29193896D01*
X204538389Y-29025374D01*
X204639728Y-28873709D01*
X204768709Y-28744728D01*
X204920374Y-28643389D01*
X205088896Y-28573585D01*
X205267797Y-28538000D01*
X205450203Y-28538000D01*
X205629104Y-28573585D01*
X205629104Y-28573585D01*
G37*
G36*
X284848884Y-21001158D02*
G01*
X284945329Y-21020342D01*
X285077180Y-21074956D01*
X285195842Y-21154244D01*
X285296756Y-21255158D01*
X285376044Y-21373820D01*
X285430658Y-21505671D01*
X285458500Y-21645643D01*
X285458500Y-21788357D01*
X285430658Y-21928329D01*
X285376044Y-22060180D01*
X285296756Y-22178842D01*
X285195842Y-22279756D01*
X285077180Y-22359044D01*
X284945329Y-22413658D01*
X284875343Y-22427579D01*
X284805358Y-22441500D01*
X284662642Y-22441500D01*
X284592657Y-22427579D01*
X284522671Y-22413658D01*
X284390820Y-22359044D01*
X284272158Y-22279756D01*
X284171244Y-22178842D01*
X284091956Y-22060180D01*
X284037342Y-21928329D01*
X284009500Y-21788357D01*
X284009500Y-21645643D01*
X284037342Y-21505671D01*
X284091956Y-21373820D01*
X284171244Y-21255158D01*
X284272158Y-21154244D01*
X284390820Y-21074956D01*
X284522671Y-21020342D01*
X284619116Y-21001158D01*
X284662642Y-20992500D01*
X284805358Y-20992500D01*
X284848884Y-21001158D01*
X284848884Y-21001158D01*
G37*
G36*
X21604343Y-20752421D02*
G01*
X21674329Y-20766342D01*
X21806180Y-20820956D01*
X21924842Y-20900244D01*
X22025756Y-21001158D01*
X22105044Y-21119820D01*
X22159658Y-21251671D01*
X22187500Y-21391643D01*
X22187500Y-21534357D01*
X22159658Y-21674329D01*
X22105044Y-21806180D01*
X22025756Y-21924842D01*
X21924842Y-22025756D01*
X21806180Y-22105044D01*
X21674329Y-22159658D01*
X21604343Y-22173579D01*
X21534358Y-22187500D01*
X21391642Y-22187500D01*
X21321657Y-22173579D01*
X21251671Y-22159658D01*
X21119820Y-22105044D01*
X21001158Y-22025756D01*
X20900244Y-21924842D01*
X20820956Y-21806180D01*
X20766342Y-21674329D01*
X20738500Y-21534357D01*
X20738500Y-21391643D01*
X20766342Y-21251671D01*
X20820956Y-21119820D01*
X20900244Y-21001158D01*
X21001158Y-20900244D01*
X21119820Y-20820956D01*
X21251671Y-20766342D01*
X21321657Y-20752421D01*
X21391642Y-20738500D01*
X21534358Y-20738500D01*
X21604343Y-20752421D01*
X21604343Y-20752421D01*
G37*
G36*
X49708750Y-21472500D02*
G01*
X42556750Y-21472500D01*
X42556750Y-18920500D01*
X49708750Y-18920500D01*
X49708750Y-21472500D01*
X49708750Y-21472500D01*
G37*
G36*
X49132422Y-17889949D02*
G01*
X49132424Y-17889950D01*
X49132425Y-17889950D01*
X49200853Y-17918293D01*
X49262436Y-17959442D01*
X49314808Y-18011814D01*
X49355957Y-18073397D01*
X49384300Y-18141825D01*
X49398750Y-18214467D01*
X49398750Y-18288533D01*
X49384300Y-18361175D01*
X49355957Y-18429603D01*
X49314808Y-18491186D01*
X49262436Y-18543558D01*
X49200853Y-18584707D01*
X49132425Y-18613050D01*
X49132424Y-18613050D01*
X49132422Y-18613051D01*
X49059784Y-18627500D01*
X48985716Y-18627500D01*
X48913078Y-18613051D01*
X48913076Y-18613050D01*
X48913075Y-18613050D01*
X48844647Y-18584707D01*
X48783064Y-18543558D01*
X48730692Y-18491186D01*
X48689543Y-18429603D01*
X48661200Y-18361175D01*
X48646750Y-18288533D01*
X48646750Y-18214467D01*
X48661200Y-18141825D01*
X48689543Y-18073397D01*
X48730692Y-18011814D01*
X48783064Y-17959442D01*
X48844647Y-17918293D01*
X48913075Y-17889950D01*
X48913076Y-17889950D01*
X48913078Y-17889949D01*
X48985716Y-17875500D01*
X49059784Y-17875500D01*
X49132422Y-17889949D01*
X49132422Y-17889949D01*
G37*
G36*
X43352422Y-17889949D02*
G01*
X43352424Y-17889950D01*
X43352425Y-17889950D01*
X43420853Y-17918293D01*
X43482436Y-17959442D01*
X43534808Y-18011814D01*
X43575957Y-18073397D01*
X43604300Y-18141825D01*
X43618750Y-18214467D01*
X43618750Y-18288533D01*
X43604300Y-18361175D01*
X43575957Y-18429603D01*
X43534808Y-18491186D01*
X43482436Y-18543558D01*
X43420853Y-18584707D01*
X43352425Y-18613050D01*
X43352424Y-18613050D01*
X43352422Y-18613051D01*
X43279784Y-18627500D01*
X43205716Y-18627500D01*
X43133078Y-18613051D01*
X43133076Y-18613050D01*
X43133075Y-18613050D01*
X43064647Y-18584707D01*
X43003064Y-18543558D01*
X42950692Y-18491186D01*
X42909543Y-18429603D01*
X42881200Y-18361175D01*
X42866750Y-18288533D01*
X42866750Y-18214467D01*
X42881200Y-18141825D01*
X42909543Y-18073397D01*
X42950692Y-18011814D01*
X43003064Y-17959442D01*
X43064647Y-17918293D01*
X43133075Y-17889950D01*
X43133076Y-17889950D01*
X43133078Y-17889949D01*
X43205716Y-17875500D01*
X43279784Y-17875500D01*
X43352422Y-17889949D01*
X43352422Y-17889949D01*
G37*
M02*
