G04 #@! TF.GenerationSoftware,KiCad,Pcbnew,(5.1.4-0-10_14)*
G04 #@! TF.CreationDate,2020-05-16T01:02:51+09:00*
G04 #@! TF.ProjectId,chavdai40,63686176-6461-4693-9430-2e6b69636164,rev?*
G04 #@! TF.SameCoordinates,Original*
G04 #@! TF.FileFunction,Legend,Top*
G04 #@! TF.FilePolarity,Positive*
%FSLAX46Y46*%
G04 Gerber Fmt 4.6, Leading zero omitted, Abs format (unit mm)*
G04 Created by KiCad (PCBNEW (5.1.4-0-10_14)) date 2020-05-16 01:02:51*
%MOMM*%
%LPD*%
G04 APERTURE LIST*
%ADD10C,0.010000*%
%ADD11C,0.120000*%
%ADD12C,0.150000*%
%ADD13C,1.449000*%
%ADD14C,1.852000*%
%ADD15C,4.089800*%
%ADD16C,3.150000*%
%ADD17C,0.752000*%
%ADD18R,0.402000X2.552000*%
%ADD19R,0.702000X2.552000*%
%ADD20R,1.102000X1.102000*%
%ADD21O,1.102000X1.102000*%
G04 APERTURE END LIST*
D10*
G36*
X37196115Y-84523591D02*
G01*
X37341747Y-84560486D01*
X37402010Y-84586116D01*
X37558651Y-84694597D01*
X37669020Y-84834294D01*
X37732907Y-85003794D01*
X37750099Y-85201688D01*
X37720385Y-85426564D01*
X37643553Y-85677011D01*
X37586091Y-85814279D01*
X37471036Y-86019489D01*
X37335794Y-86174826D01*
X37182741Y-86279075D01*
X37014249Y-86331021D01*
X36832694Y-86329451D01*
X36667421Y-86284177D01*
X36496772Y-86191915D01*
X36371577Y-86066473D01*
X36292032Y-85908399D01*
X36263476Y-85747251D01*
X36680110Y-85747251D01*
X36682040Y-85815866D01*
X36695471Y-85858884D01*
X36723959Y-85891646D01*
X36749896Y-85912868D01*
X36833742Y-85962924D01*
X36909021Y-85965529D01*
X36991742Y-85919906D01*
X37016628Y-85899894D01*
X37107341Y-85800457D01*
X37186119Y-85670931D01*
X37249924Y-85522998D01*
X37295718Y-85368339D01*
X37320463Y-85218635D01*
X37321120Y-85085566D01*
X37294651Y-84980815D01*
X37266636Y-84938652D01*
X37184653Y-84883073D01*
X37096503Y-84877507D01*
X37006685Y-84916537D01*
X36919697Y-84994749D01*
X36840034Y-85106725D01*
X36772195Y-85247052D01*
X36720677Y-85410312D01*
X36689978Y-85591091D01*
X36686127Y-85637702D01*
X36680110Y-85747251D01*
X36263476Y-85747251D01*
X36258335Y-85718242D01*
X36270681Y-85496554D01*
X36313999Y-85296300D01*
X36388625Y-85080119D01*
X36483582Y-84888832D01*
X36593607Y-84729473D01*
X36713438Y-84609078D01*
X36837810Y-84534683D01*
X36896536Y-84517572D01*
X37038387Y-84508022D01*
X37196115Y-84523591D01*
X37196115Y-84523591D01*
G37*
X37196115Y-84523591D02*
X37341747Y-84560486D01*
X37402010Y-84586116D01*
X37558651Y-84694597D01*
X37669020Y-84834294D01*
X37732907Y-85003794D01*
X37750099Y-85201688D01*
X37720385Y-85426564D01*
X37643553Y-85677011D01*
X37586091Y-85814279D01*
X37471036Y-86019489D01*
X37335794Y-86174826D01*
X37182741Y-86279075D01*
X37014249Y-86331021D01*
X36832694Y-86329451D01*
X36667421Y-86284177D01*
X36496772Y-86191915D01*
X36371577Y-86066473D01*
X36292032Y-85908399D01*
X36263476Y-85747251D01*
X36680110Y-85747251D01*
X36682040Y-85815866D01*
X36695471Y-85858884D01*
X36723959Y-85891646D01*
X36749896Y-85912868D01*
X36833742Y-85962924D01*
X36909021Y-85965529D01*
X36991742Y-85919906D01*
X37016628Y-85899894D01*
X37107341Y-85800457D01*
X37186119Y-85670931D01*
X37249924Y-85522998D01*
X37295718Y-85368339D01*
X37320463Y-85218635D01*
X37321120Y-85085566D01*
X37294651Y-84980815D01*
X37266636Y-84938652D01*
X37184653Y-84883073D01*
X37096503Y-84877507D01*
X37006685Y-84916537D01*
X36919697Y-84994749D01*
X36840034Y-85106725D01*
X36772195Y-85247052D01*
X36720677Y-85410312D01*
X36689978Y-85591091D01*
X36686127Y-85637702D01*
X36680110Y-85747251D01*
X36263476Y-85747251D01*
X36258335Y-85718242D01*
X36270681Y-85496554D01*
X36313999Y-85296300D01*
X36388625Y-85080119D01*
X36483582Y-84888832D01*
X36593607Y-84729473D01*
X36713438Y-84609078D01*
X36837810Y-84534683D01*
X36896536Y-84517572D01*
X37038387Y-84508022D01*
X37196115Y-84523591D01*
G36*
X32400644Y-83565553D02*
G01*
X32409291Y-83565704D01*
X32521229Y-83588892D01*
X32612730Y-83650401D01*
X32673157Y-83738144D01*
X32691871Y-83840035D01*
X32685849Y-83879883D01*
X32662878Y-83914760D01*
X32604760Y-83984971D01*
X32515951Y-84085632D01*
X32400908Y-84211860D01*
X32264088Y-84358771D01*
X32109948Y-84521480D01*
X31942943Y-84695105D01*
X31925066Y-84713540D01*
X31712071Y-84933166D01*
X31535325Y-85115964D01*
X31391672Y-85265518D01*
X31277954Y-85385412D01*
X31191015Y-85479228D01*
X31127697Y-85550551D01*
X31084843Y-85602963D01*
X31059296Y-85640049D01*
X31047899Y-85665391D01*
X31047494Y-85682574D01*
X31054924Y-85695180D01*
X31057664Y-85698064D01*
X31098694Y-85714457D01*
X31182214Y-85731295D01*
X31296380Y-85747586D01*
X31429353Y-85762338D01*
X31569289Y-85774555D01*
X31704348Y-85783247D01*
X31822687Y-85787418D01*
X31912465Y-85786077D01*
X31961839Y-85778230D01*
X31967080Y-85774337D01*
X31977424Y-85734736D01*
X31990864Y-85650349D01*
X32005829Y-85532639D01*
X32020752Y-85393070D01*
X32024211Y-85356973D01*
X32039986Y-85198938D01*
X32054317Y-85086884D01*
X32069521Y-85010475D01*
X32087915Y-84959374D01*
X32111818Y-84923242D01*
X32124526Y-84909576D01*
X32206249Y-84860919D01*
X32305347Y-84845904D01*
X32396746Y-84866933D01*
X32419779Y-84881287D01*
X32465732Y-84922724D01*
X32496271Y-84970542D01*
X32512614Y-85034535D01*
X32515980Y-85124496D01*
X32507590Y-85250217D01*
X32488661Y-85421493D01*
X32487856Y-85428158D01*
X32471792Y-85568331D01*
X32459883Y-85687130D01*
X32453057Y-85773994D01*
X32452243Y-85818366D01*
X32453209Y-85821728D01*
X32484884Y-85830637D01*
X32557658Y-85843378D01*
X32656554Y-85857368D01*
X32669061Y-85858957D01*
X32813513Y-85885224D01*
X32909079Y-85924198D01*
X32962754Y-85980639D01*
X32981535Y-86059309D01*
X32981778Y-86071758D01*
X32973974Y-86156451D01*
X32944649Y-86214413D01*
X32884936Y-86251372D01*
X32785967Y-86273057D01*
X32652593Y-86284445D01*
X32403350Y-86298556D01*
X32380490Y-86463033D01*
X32371399Y-86582693D01*
X32387136Y-86657942D01*
X32431929Y-86696921D01*
X32507627Y-86707778D01*
X32586999Y-86729573D01*
X32666640Y-86784267D01*
X32728838Y-86855824D01*
X32755881Y-86928207D01*
X32756000Y-86932667D01*
X32736804Y-86993146D01*
X32690247Y-87058241D01*
X32686727Y-87061838D01*
X32654453Y-87090021D01*
X32617139Y-87110008D01*
X32566972Y-87122027D01*
X32496144Y-87126305D01*
X32396844Y-87123070D01*
X32261260Y-87112550D01*
X32081584Y-87094974D01*
X31965778Y-87082872D01*
X31781251Y-87060769D01*
X31645850Y-87037423D01*
X31552271Y-87010224D01*
X31493212Y-86976560D01*
X31461370Y-86933817D01*
X31451654Y-86898973D01*
X31457227Y-86785630D01*
X31507755Y-86697997D01*
X31594799Y-86643491D01*
X31709915Y-86629528D01*
X31752117Y-86634986D01*
X31823816Y-86641439D01*
X31863963Y-86621245D01*
X31879587Y-86597737D01*
X31894778Y-86545330D01*
X31904680Y-86465952D01*
X31908886Y-86377156D01*
X31906990Y-86296491D01*
X31898585Y-86241510D01*
X31888167Y-86227677D01*
X31807743Y-86223235D01*
X31689749Y-86212617D01*
X31545210Y-86197232D01*
X31385151Y-86178490D01*
X31220598Y-86157800D01*
X31062576Y-86136571D01*
X30922110Y-86116213D01*
X30810226Y-86098134D01*
X30737949Y-86083745D01*
X30720108Y-86078373D01*
X30598307Y-86002926D01*
X30526374Y-85902559D01*
X30505184Y-85780390D01*
X30535618Y-85639536D01*
X30573405Y-85557584D01*
X30611791Y-85500583D01*
X30683445Y-85407986D01*
X30783396Y-85285715D01*
X30906669Y-85139688D01*
X31048292Y-84975825D01*
X31203289Y-84800047D01*
X31308413Y-84682696D01*
X31529041Y-84437889D01*
X31715013Y-84231622D01*
X31869572Y-84060606D01*
X31995958Y-83921552D01*
X32097415Y-83811169D01*
X32177185Y-83726169D01*
X32238508Y-83663261D01*
X32284628Y-83619157D01*
X32318786Y-83590566D01*
X32344225Y-83574200D01*
X32364186Y-83566769D01*
X32381912Y-83564983D01*
X32400644Y-83565553D01*
X32400644Y-83565553D01*
G37*
X32400644Y-83565553D02*
X32409291Y-83565704D01*
X32521229Y-83588892D01*
X32612730Y-83650401D01*
X32673157Y-83738144D01*
X32691871Y-83840035D01*
X32685849Y-83879883D01*
X32662878Y-83914760D01*
X32604760Y-83984971D01*
X32515951Y-84085632D01*
X32400908Y-84211860D01*
X32264088Y-84358771D01*
X32109948Y-84521480D01*
X31942943Y-84695105D01*
X31925066Y-84713540D01*
X31712071Y-84933166D01*
X31535325Y-85115964D01*
X31391672Y-85265518D01*
X31277954Y-85385412D01*
X31191015Y-85479228D01*
X31127697Y-85550551D01*
X31084843Y-85602963D01*
X31059296Y-85640049D01*
X31047899Y-85665391D01*
X31047494Y-85682574D01*
X31054924Y-85695180D01*
X31057664Y-85698064D01*
X31098694Y-85714457D01*
X31182214Y-85731295D01*
X31296380Y-85747586D01*
X31429353Y-85762338D01*
X31569289Y-85774555D01*
X31704348Y-85783247D01*
X31822687Y-85787418D01*
X31912465Y-85786077D01*
X31961839Y-85778230D01*
X31967080Y-85774337D01*
X31977424Y-85734736D01*
X31990864Y-85650349D01*
X32005829Y-85532639D01*
X32020752Y-85393070D01*
X32024211Y-85356973D01*
X32039986Y-85198938D01*
X32054317Y-85086884D01*
X32069521Y-85010475D01*
X32087915Y-84959374D01*
X32111818Y-84923242D01*
X32124526Y-84909576D01*
X32206249Y-84860919D01*
X32305347Y-84845904D01*
X32396746Y-84866933D01*
X32419779Y-84881287D01*
X32465732Y-84922724D01*
X32496271Y-84970542D01*
X32512614Y-85034535D01*
X32515980Y-85124496D01*
X32507590Y-85250217D01*
X32488661Y-85421493D01*
X32487856Y-85428158D01*
X32471792Y-85568331D01*
X32459883Y-85687130D01*
X32453057Y-85773994D01*
X32452243Y-85818366D01*
X32453209Y-85821728D01*
X32484884Y-85830637D01*
X32557658Y-85843378D01*
X32656554Y-85857368D01*
X32669061Y-85858957D01*
X32813513Y-85885224D01*
X32909079Y-85924198D01*
X32962754Y-85980639D01*
X32981535Y-86059309D01*
X32981778Y-86071758D01*
X32973974Y-86156451D01*
X32944649Y-86214413D01*
X32884936Y-86251372D01*
X32785967Y-86273057D01*
X32652593Y-86284445D01*
X32403350Y-86298556D01*
X32380490Y-86463033D01*
X32371399Y-86582693D01*
X32387136Y-86657942D01*
X32431929Y-86696921D01*
X32507627Y-86707778D01*
X32586999Y-86729573D01*
X32666640Y-86784267D01*
X32728838Y-86855824D01*
X32755881Y-86928207D01*
X32756000Y-86932667D01*
X32736804Y-86993146D01*
X32690247Y-87058241D01*
X32686727Y-87061838D01*
X32654453Y-87090021D01*
X32617139Y-87110008D01*
X32566972Y-87122027D01*
X32496144Y-87126305D01*
X32396844Y-87123070D01*
X32261260Y-87112550D01*
X32081584Y-87094974D01*
X31965778Y-87082872D01*
X31781251Y-87060769D01*
X31645850Y-87037423D01*
X31552271Y-87010224D01*
X31493212Y-86976560D01*
X31461370Y-86933817D01*
X31451654Y-86898973D01*
X31457227Y-86785630D01*
X31507755Y-86697997D01*
X31594799Y-86643491D01*
X31709915Y-86629528D01*
X31752117Y-86634986D01*
X31823816Y-86641439D01*
X31863963Y-86621245D01*
X31879587Y-86597737D01*
X31894778Y-86545330D01*
X31904680Y-86465952D01*
X31908886Y-86377156D01*
X31906990Y-86296491D01*
X31898585Y-86241510D01*
X31888167Y-86227677D01*
X31807743Y-86223235D01*
X31689749Y-86212617D01*
X31545210Y-86197232D01*
X31385151Y-86178490D01*
X31220598Y-86157800D01*
X31062576Y-86136571D01*
X30922110Y-86116213D01*
X30810226Y-86098134D01*
X30737949Y-86083745D01*
X30720108Y-86078373D01*
X30598307Y-86002926D01*
X30526374Y-85902559D01*
X30505184Y-85780390D01*
X30535618Y-85639536D01*
X30573405Y-85557584D01*
X30611791Y-85500583D01*
X30683445Y-85407986D01*
X30783396Y-85285715D01*
X30906669Y-85139688D01*
X31048292Y-84975825D01*
X31203289Y-84800047D01*
X31308413Y-84682696D01*
X31529041Y-84437889D01*
X31715013Y-84231622D01*
X31869572Y-84060606D01*
X31995958Y-83921552D01*
X32097415Y-83811169D01*
X32177185Y-83726169D01*
X32238508Y-83663261D01*
X32284628Y-83619157D01*
X32318786Y-83590566D01*
X32344225Y-83574200D01*
X32364186Y-83566769D01*
X32381912Y-83564983D01*
X32400644Y-83565553D01*
G36*
X34804335Y-83957497D02*
G01*
X34907557Y-83963418D01*
X34986968Y-83976522D01*
X35058868Y-83999457D01*
X35136192Y-84033292D01*
X35339598Y-84150606D01*
X35502688Y-84294651D01*
X35626446Y-84468240D01*
X35711855Y-84674187D01*
X35759897Y-84915308D01*
X35771557Y-85194417D01*
X35747816Y-85514327D01*
X35720484Y-85705889D01*
X35641028Y-86104338D01*
X35540594Y-86456634D01*
X35419885Y-86761408D01*
X35279601Y-87017291D01*
X35120445Y-87222913D01*
X34943118Y-87376906D01*
X34830334Y-87442952D01*
X34689544Y-87490652D01*
X34515958Y-87517919D01*
X34329661Y-87524048D01*
X34150739Y-87508338D01*
X34004086Y-87471882D01*
X33777574Y-87364429D01*
X33595353Y-87223802D01*
X33454510Y-87046667D01*
X33352134Y-86829691D01*
X33306630Y-86673389D01*
X33283352Y-86549988D01*
X33267994Y-86421407D01*
X33264417Y-86348799D01*
X33267692Y-86284445D01*
X33796560Y-86284445D01*
X33812869Y-86517172D01*
X33864122Y-86709920D01*
X33948997Y-86860877D01*
X34066173Y-86968231D01*
X34214327Y-87030172D01*
X34352086Y-87045802D01*
X34465840Y-87035693D01*
X34566963Y-86997675D01*
X34626042Y-86963167D01*
X34737294Y-86876562D01*
X34834769Y-86763797D01*
X34921714Y-86618626D01*
X35001373Y-86434800D01*
X35076993Y-86206074D01*
X35139935Y-85974000D01*
X35212025Y-85650773D01*
X35253653Y-85371646D01*
X35264546Y-85133029D01*
X35244428Y-84931327D01*
X35193024Y-84762947D01*
X35110060Y-84624296D01*
X35030323Y-84540590D01*
X34934781Y-84475020D01*
X34821661Y-84423081D01*
X34716315Y-84395678D01*
X34689222Y-84393870D01*
X34559404Y-84419434D01*
X34423668Y-84490503D01*
X34292726Y-84598642D01*
X34177290Y-84735417D01*
X34107070Y-84852236D01*
X34036128Y-85019924D01*
X33968766Y-85229155D01*
X33908214Y-85465030D01*
X33857704Y-85712650D01*
X33820464Y-85957115D01*
X33799726Y-86183525D01*
X33796560Y-86284445D01*
X33267692Y-86284445D01*
X33273196Y-86176318D01*
X33298455Y-85966761D01*
X33337305Y-85733108D01*
X33386858Y-85488341D01*
X33444227Y-85245439D01*
X33506524Y-85017384D01*
X33570859Y-84817154D01*
X33634346Y-84657732D01*
X33646204Y-84632864D01*
X33790887Y-84392622D01*
X33963458Y-84200653D01*
X34163208Y-84057738D01*
X34171823Y-84053015D01*
X34253281Y-84010320D01*
X34319555Y-83982454D01*
X34386585Y-83966260D01*
X34470309Y-83958578D01*
X34586668Y-83956252D01*
X34661000Y-83956111D01*
X34804335Y-83957497D01*
X34804335Y-83957497D01*
G37*
X34804335Y-83957497D02*
X34907557Y-83963418D01*
X34986968Y-83976522D01*
X35058868Y-83999457D01*
X35136192Y-84033292D01*
X35339598Y-84150606D01*
X35502688Y-84294651D01*
X35626446Y-84468240D01*
X35711855Y-84674187D01*
X35759897Y-84915308D01*
X35771557Y-85194417D01*
X35747816Y-85514327D01*
X35720484Y-85705889D01*
X35641028Y-86104338D01*
X35540594Y-86456634D01*
X35419885Y-86761408D01*
X35279601Y-87017291D01*
X35120445Y-87222913D01*
X34943118Y-87376906D01*
X34830334Y-87442952D01*
X34689544Y-87490652D01*
X34515958Y-87517919D01*
X34329661Y-87524048D01*
X34150739Y-87508338D01*
X34004086Y-87471882D01*
X33777574Y-87364429D01*
X33595353Y-87223802D01*
X33454510Y-87046667D01*
X33352134Y-86829691D01*
X33306630Y-86673389D01*
X33283352Y-86549988D01*
X33267994Y-86421407D01*
X33264417Y-86348799D01*
X33267692Y-86284445D01*
X33796560Y-86284445D01*
X33812869Y-86517172D01*
X33864122Y-86709920D01*
X33948997Y-86860877D01*
X34066173Y-86968231D01*
X34214327Y-87030172D01*
X34352086Y-87045802D01*
X34465840Y-87035693D01*
X34566963Y-86997675D01*
X34626042Y-86963167D01*
X34737294Y-86876562D01*
X34834769Y-86763797D01*
X34921714Y-86618626D01*
X35001373Y-86434800D01*
X35076993Y-86206074D01*
X35139935Y-85974000D01*
X35212025Y-85650773D01*
X35253653Y-85371646D01*
X35264546Y-85133029D01*
X35244428Y-84931327D01*
X35193024Y-84762947D01*
X35110060Y-84624296D01*
X35030323Y-84540590D01*
X34934781Y-84475020D01*
X34821661Y-84423081D01*
X34716315Y-84395678D01*
X34689222Y-84393870D01*
X34559404Y-84419434D01*
X34423668Y-84490503D01*
X34292726Y-84598642D01*
X34177290Y-84735417D01*
X34107070Y-84852236D01*
X34036128Y-85019924D01*
X33968766Y-85229155D01*
X33908214Y-85465030D01*
X33857704Y-85712650D01*
X33820464Y-85957115D01*
X33799726Y-86183525D01*
X33796560Y-86284445D01*
X33267692Y-86284445D01*
X33273196Y-86176318D01*
X33298455Y-85966761D01*
X33337305Y-85733108D01*
X33386858Y-85488341D01*
X33444227Y-85245439D01*
X33506524Y-85017384D01*
X33570859Y-84817154D01*
X33634346Y-84657732D01*
X33646204Y-84632864D01*
X33790887Y-84392622D01*
X33963458Y-84200653D01*
X34163208Y-84057738D01*
X34171823Y-84053015D01*
X34253281Y-84010320D01*
X34319555Y-83982454D01*
X34386585Y-83966260D01*
X34470309Y-83958578D01*
X34586668Y-83956252D01*
X34661000Y-83956111D01*
X34804335Y-83957497D01*
G36*
X39065263Y-85175801D02*
G01*
X39099227Y-85189809D01*
X39174681Y-85248661D01*
X39222235Y-85329566D01*
X39231494Y-85412615D01*
X39226102Y-85432762D01*
X39199066Y-85462548D01*
X39131843Y-85521408D01*
X39029797Y-85605080D01*
X38898292Y-85709305D01*
X38742690Y-85829821D01*
X38568355Y-85962368D01*
X38414298Y-86077702D01*
X38112926Y-86302469D01*
X37788980Y-86545306D01*
X37453693Y-86797722D01*
X37118297Y-87051225D01*
X36794024Y-87297325D01*
X36492108Y-87527532D01*
X36223779Y-87733353D01*
X36208730Y-87744945D01*
X36101587Y-87820338D01*
X36021187Y-87856045D01*
X35955945Y-87853815D01*
X35894277Y-87815399D01*
X35873273Y-87795616D01*
X35815782Y-87706506D01*
X35810700Y-87613199D01*
X35853389Y-87532466D01*
X35884666Y-87505552D01*
X35957069Y-87448226D01*
X36066380Y-87363689D01*
X36208384Y-87255144D01*
X36378862Y-87125792D01*
X36573598Y-86978837D01*
X36788375Y-86817479D01*
X37018975Y-86644922D01*
X37201000Y-86509167D01*
X37446346Y-86326209D01*
X37683544Y-86148870D01*
X37907730Y-85980819D01*
X38114041Y-85825720D01*
X38297616Y-85687240D01*
X38453591Y-85569043D01*
X38577102Y-85474797D01*
X38663288Y-85408167D01*
X38696778Y-85381575D01*
X38818523Y-85284183D01*
X38906937Y-85219345D01*
X38971327Y-85182624D01*
X39021001Y-85169588D01*
X39065263Y-85175801D01*
X39065263Y-85175801D01*
G37*
X39065263Y-85175801D02*
X39099227Y-85189809D01*
X39174681Y-85248661D01*
X39222235Y-85329566D01*
X39231494Y-85412615D01*
X39226102Y-85432762D01*
X39199066Y-85462548D01*
X39131843Y-85521408D01*
X39029797Y-85605080D01*
X38898292Y-85709305D01*
X38742690Y-85829821D01*
X38568355Y-85962368D01*
X38414298Y-86077702D01*
X38112926Y-86302469D01*
X37788980Y-86545306D01*
X37453693Y-86797722D01*
X37118297Y-87051225D01*
X36794024Y-87297325D01*
X36492108Y-87527532D01*
X36223779Y-87733353D01*
X36208730Y-87744945D01*
X36101587Y-87820338D01*
X36021187Y-87856045D01*
X35955945Y-87853815D01*
X35894277Y-87815399D01*
X35873273Y-87795616D01*
X35815782Y-87706506D01*
X35810700Y-87613199D01*
X35853389Y-87532466D01*
X35884666Y-87505552D01*
X35957069Y-87448226D01*
X36066380Y-87363689D01*
X36208384Y-87255144D01*
X36378862Y-87125792D01*
X36573598Y-86978837D01*
X36788375Y-86817479D01*
X37018975Y-86644922D01*
X37201000Y-86509167D01*
X37446346Y-86326209D01*
X37683544Y-86148870D01*
X37907730Y-85980819D01*
X38114041Y-85825720D01*
X38297616Y-85687240D01*
X38453591Y-85569043D01*
X38577102Y-85474797D01*
X38663288Y-85408167D01*
X38696778Y-85381575D01*
X38818523Y-85284183D01*
X38906937Y-85219345D01*
X38971327Y-85182624D01*
X39021001Y-85169588D01*
X39065263Y-85175801D01*
G36*
X38320183Y-86747798D02*
G01*
X38478717Y-86818579D01*
X38611608Y-86921001D01*
X38706195Y-87050948D01*
X38708795Y-87056230D01*
X38757571Y-87214151D01*
X38769885Y-87398604D01*
X38749490Y-87598641D01*
X38700144Y-87803313D01*
X38625599Y-88001669D01*
X38529612Y-88182761D01*
X38415938Y-88335639D01*
X38288330Y-88449354D01*
X38217242Y-88489588D01*
X38073621Y-88529577D01*
X37907839Y-88536012D01*
X37743360Y-88508570D01*
X37705765Y-88496582D01*
X37533939Y-88410061D01*
X37405822Y-88288998D01*
X37322016Y-88135299D01*
X37283126Y-87950867D01*
X37284403Y-87909799D01*
X37695369Y-87909799D01*
X37714282Y-88027222D01*
X37764162Y-88106061D01*
X37852141Y-88165189D01*
X37942666Y-88168363D01*
X38036840Y-88115478D01*
X38077453Y-88076836D01*
X38149114Y-87977818D01*
X38219650Y-87841203D01*
X38281887Y-87685514D01*
X38328653Y-87529273D01*
X38352775Y-87391003D01*
X38354422Y-87361594D01*
X38352758Y-87268002D01*
X38336937Y-87208538D01*
X38299388Y-87161270D01*
X38278926Y-87142871D01*
X38182005Y-87086921D01*
X38087026Y-87086595D01*
X37994983Y-87141080D01*
X37906868Y-87249564D01*
X37823675Y-87411235D01*
X37766781Y-87561900D01*
X37712863Y-87755776D01*
X37695369Y-87909799D01*
X37284403Y-87909799D01*
X37289759Y-87737604D01*
X37342517Y-87497414D01*
X37365569Y-87425793D01*
X37454577Y-87197216D01*
X37548824Y-87019356D01*
X37652222Y-86886501D01*
X37768686Y-86792940D01*
X37817301Y-86766443D01*
X37976816Y-86717615D01*
X38148662Y-86712771D01*
X38320183Y-86747798D01*
X38320183Y-86747798D01*
G37*
X38320183Y-86747798D02*
X38478717Y-86818579D01*
X38611608Y-86921001D01*
X38706195Y-87050948D01*
X38708795Y-87056230D01*
X38757571Y-87214151D01*
X38769885Y-87398604D01*
X38749490Y-87598641D01*
X38700144Y-87803313D01*
X38625599Y-88001669D01*
X38529612Y-88182761D01*
X38415938Y-88335639D01*
X38288330Y-88449354D01*
X38217242Y-88489588D01*
X38073621Y-88529577D01*
X37907839Y-88536012D01*
X37743360Y-88508570D01*
X37705765Y-88496582D01*
X37533939Y-88410061D01*
X37405822Y-88288998D01*
X37322016Y-88135299D01*
X37283126Y-87950867D01*
X37284403Y-87909799D01*
X37695369Y-87909799D01*
X37714282Y-88027222D01*
X37764162Y-88106061D01*
X37852141Y-88165189D01*
X37942666Y-88168363D01*
X38036840Y-88115478D01*
X38077453Y-88076836D01*
X38149114Y-87977818D01*
X38219650Y-87841203D01*
X38281887Y-87685514D01*
X38328653Y-87529273D01*
X38352775Y-87391003D01*
X38354422Y-87361594D01*
X38352758Y-87268002D01*
X38336937Y-87208538D01*
X38299388Y-87161270D01*
X38278926Y-87142871D01*
X38182005Y-87086921D01*
X38087026Y-87086595D01*
X37994983Y-87141080D01*
X37906868Y-87249564D01*
X37823675Y-87411235D01*
X37766781Y-87561900D01*
X37712863Y-87755776D01*
X37695369Y-87909799D01*
X37284403Y-87909799D01*
X37289759Y-87737604D01*
X37342517Y-87497414D01*
X37365569Y-87425793D01*
X37454577Y-87197216D01*
X37548824Y-87019356D01*
X37652222Y-86886501D01*
X37768686Y-86792940D01*
X37817301Y-86766443D01*
X37976816Y-86717615D01*
X38148662Y-86712771D01*
X38320183Y-86747798D01*
G36*
X20643901Y-88390616D02*
G01*
X20815845Y-88450785D01*
X20969056Y-88553240D01*
X21094664Y-88696624D01*
X21144290Y-88783128D01*
X21207207Y-88970011D01*
X21219793Y-89159531D01*
X21185813Y-89342805D01*
X21109034Y-89510953D01*
X20993223Y-89655092D01*
X20842147Y-89766341D01*
X20702669Y-89824444D01*
X20551502Y-89858971D01*
X20419087Y-89861721D01*
X20277563Y-89832747D01*
X20252692Y-89825319D01*
X20083023Y-89745930D01*
X19945205Y-89627917D01*
X19841570Y-89480595D01*
X19774445Y-89313276D01*
X19746160Y-89135272D01*
X19759045Y-88955898D01*
X19815428Y-88784466D01*
X19917640Y-88630290D01*
X19946191Y-88599929D01*
X20104368Y-88477390D01*
X20279292Y-88402562D01*
X20462093Y-88374090D01*
X20643901Y-88390616D01*
X20643901Y-88390616D01*
G37*
X20643901Y-88390616D02*
X20815845Y-88450785D01*
X20969056Y-88553240D01*
X21094664Y-88696624D01*
X21144290Y-88783128D01*
X21207207Y-88970011D01*
X21219793Y-89159531D01*
X21185813Y-89342805D01*
X21109034Y-89510953D01*
X20993223Y-89655092D01*
X20842147Y-89766341D01*
X20702669Y-89824444D01*
X20551502Y-89858971D01*
X20419087Y-89861721D01*
X20277563Y-89832747D01*
X20252692Y-89825319D01*
X20083023Y-89745930D01*
X19945205Y-89627917D01*
X19841570Y-89480595D01*
X19774445Y-89313276D01*
X19746160Y-89135272D01*
X19759045Y-88955898D01*
X19815428Y-88784466D01*
X19917640Y-88630290D01*
X19946191Y-88599929D01*
X20104368Y-88477390D01*
X20279292Y-88402562D01*
X20462093Y-88374090D01*
X20643901Y-88390616D01*
G36*
X26739000Y-89771363D02*
G01*
X26902894Y-89850952D01*
X26995559Y-89925366D01*
X27102940Y-90045884D01*
X27170420Y-90167832D01*
X27207034Y-90311289D01*
X27218216Y-90420135D01*
X27221721Y-90545322D01*
X27210398Y-90641674D01*
X27180389Y-90735727D01*
X27167958Y-90765621D01*
X27067438Y-90931964D01*
X26929069Y-91063973D01*
X26762875Y-91156837D01*
X26578879Y-91205749D01*
X26387103Y-91205900D01*
X26291384Y-91186174D01*
X26109034Y-91108558D01*
X25961113Y-90992592D01*
X25850234Y-90846553D01*
X25779008Y-90678713D01*
X25750048Y-90497348D01*
X25765967Y-90310731D01*
X25829377Y-90127137D01*
X25913941Y-89990760D01*
X26041960Y-89866849D01*
X26199797Y-89782270D01*
X26376130Y-89737706D01*
X26559638Y-89733842D01*
X26739000Y-89771363D01*
X26739000Y-89771363D01*
G37*
X26739000Y-89771363D02*
X26902894Y-89850952D01*
X26995559Y-89925366D01*
X27102940Y-90045884D01*
X27170420Y-90167832D01*
X27207034Y-90311289D01*
X27218216Y-90420135D01*
X27221721Y-90545322D01*
X27210398Y-90641674D01*
X27180389Y-90735727D01*
X27167958Y-90765621D01*
X27067438Y-90931964D01*
X26929069Y-91063973D01*
X26762875Y-91156837D01*
X26578879Y-91205749D01*
X26387103Y-91205900D01*
X26291384Y-91186174D01*
X26109034Y-91108558D01*
X25961113Y-90992592D01*
X25850234Y-90846553D01*
X25779008Y-90678713D01*
X25750048Y-90497348D01*
X25765967Y-90310731D01*
X25829377Y-90127137D01*
X25913941Y-89990760D01*
X26041960Y-89866849D01*
X26199797Y-89782270D01*
X26376130Y-89737706D01*
X26559638Y-89733842D01*
X26739000Y-89771363D01*
G36*
X21371944Y-91570386D02*
G01*
X21508211Y-91809769D01*
X21667096Y-92033612D01*
X21839430Y-92231029D01*
X22016045Y-92391131D01*
X22130334Y-92470967D01*
X22378991Y-92589804D01*
X22649091Y-92656829D01*
X22940783Y-92672033D01*
X23254216Y-92635404D01*
X23589540Y-92546930D01*
X23946903Y-92406603D01*
X24117805Y-92325102D01*
X24233666Y-92268073D01*
X24331597Y-92221946D01*
X24400312Y-92191906D01*
X24427462Y-92182889D01*
X24454958Y-92206229D01*
X24498681Y-92267202D01*
X24551105Y-92352242D01*
X24604701Y-92447779D01*
X24651942Y-92540245D01*
X24685301Y-92616072D01*
X24697249Y-92661691D01*
X24695964Y-92666860D01*
X24660978Y-92693884D01*
X24583952Y-92737586D01*
X24475072Y-92793223D01*
X24344522Y-92856055D01*
X24202485Y-92921341D01*
X24059147Y-92984341D01*
X23924692Y-93040314D01*
X23809304Y-93084518D01*
X23768494Y-93098593D01*
X23415048Y-93192869D01*
X23067807Y-93242704D01*
X22735467Y-93247372D01*
X22440778Y-93209167D01*
X22324494Y-93177163D01*
X22182565Y-93127162D01*
X22039036Y-93067940D01*
X21984657Y-93042717D01*
X21728039Y-92890172D01*
X21481288Y-92687429D01*
X21250070Y-92440578D01*
X21040049Y-92155707D01*
X20856893Y-91838908D01*
X20847740Y-91820734D01*
X20804690Y-91728531D01*
X20775935Y-91655000D01*
X20767369Y-91615318D01*
X20767608Y-91614400D01*
X20795877Y-91591663D01*
X20864256Y-91553268D01*
X20960885Y-91505586D01*
X21023501Y-91476941D01*
X21270186Y-91367106D01*
X21371944Y-91570386D01*
X21371944Y-91570386D01*
G37*
X21371944Y-91570386D02*
X21508211Y-91809769D01*
X21667096Y-92033612D01*
X21839430Y-92231029D01*
X22016045Y-92391131D01*
X22130334Y-92470967D01*
X22378991Y-92589804D01*
X22649091Y-92656829D01*
X22940783Y-92672033D01*
X23254216Y-92635404D01*
X23589540Y-92546930D01*
X23946903Y-92406603D01*
X24117805Y-92325102D01*
X24233666Y-92268073D01*
X24331597Y-92221946D01*
X24400312Y-92191906D01*
X24427462Y-92182889D01*
X24454958Y-92206229D01*
X24498681Y-92267202D01*
X24551105Y-92352242D01*
X24604701Y-92447779D01*
X24651942Y-92540245D01*
X24685301Y-92616072D01*
X24697249Y-92661691D01*
X24695964Y-92666860D01*
X24660978Y-92693884D01*
X24583952Y-92737586D01*
X24475072Y-92793223D01*
X24344522Y-92856055D01*
X24202485Y-92921341D01*
X24059147Y-92984341D01*
X23924692Y-93040314D01*
X23809304Y-93084518D01*
X23768494Y-93098593D01*
X23415048Y-93192869D01*
X23067807Y-93242704D01*
X22735467Y-93247372D01*
X22440778Y-93209167D01*
X22324494Y-93177163D01*
X22182565Y-93127162D01*
X22039036Y-93067940D01*
X21984657Y-93042717D01*
X21728039Y-92890172D01*
X21481288Y-92687429D01*
X21250070Y-92440578D01*
X21040049Y-92155707D01*
X20856893Y-91838908D01*
X20847740Y-91820734D01*
X20804690Y-91728531D01*
X20775935Y-91655000D01*
X20767369Y-91615318D01*
X20767608Y-91614400D01*
X20795877Y-91591663D01*
X20864256Y-91553268D01*
X20960885Y-91505586D01*
X21023501Y-91476941D01*
X21270186Y-91367106D01*
X21371944Y-91570386D01*
G36*
X30054010Y-78371088D02*
G01*
X30214500Y-78421194D01*
X30332967Y-78502584D01*
X30406414Y-78613521D01*
X30426324Y-78685238D01*
X30430644Y-78748914D01*
X30431134Y-78856830D01*
X30428018Y-78996928D01*
X30421522Y-79157150D01*
X30415406Y-79269520D01*
X30406450Y-79427345D01*
X30399714Y-79564297D01*
X30395573Y-79670990D01*
X30394408Y-79738035D01*
X30395796Y-79756759D01*
X30424015Y-79750675D01*
X30488833Y-79725817D01*
X30570977Y-79689918D01*
X30765869Y-79626387D01*
X30982187Y-79598507D01*
X31196756Y-79607998D01*
X31321525Y-79634207D01*
X31501133Y-79714129D01*
X31651746Y-79837099D01*
X31763891Y-79994456D01*
X31797505Y-80069415D01*
X31817296Y-80125246D01*
X31832076Y-80179397D01*
X31842407Y-80240656D01*
X31848855Y-80317815D01*
X31851981Y-80419664D01*
X31852352Y-80554993D01*
X31850530Y-80732592D01*
X31848579Y-80865629D01*
X31838778Y-81500480D01*
X31951667Y-81536905D01*
X32057422Y-81585260D01*
X32115726Y-81651656D01*
X32135002Y-81746147D01*
X32135111Y-81755798D01*
X32128305Y-81825122D01*
X32103729Y-81877384D01*
X32055148Y-81914300D01*
X31976327Y-81937589D01*
X31861032Y-81948971D01*
X31703028Y-81950164D01*
X31496078Y-81942886D01*
X31462241Y-81941259D01*
X31315140Y-81933253D01*
X31213650Y-81924817D01*
X31146968Y-81913702D01*
X31104291Y-81897657D01*
X31074814Y-81874431D01*
X31060074Y-81857485D01*
X31015871Y-81765345D01*
X31018148Y-81670801D01*
X31060280Y-81588142D01*
X31135639Y-81531657D01*
X31218944Y-81514889D01*
X31306339Y-81497931D01*
X31342351Y-81463186D01*
X31351515Y-81419540D01*
X31360334Y-81329294D01*
X31368199Y-81202292D01*
X31374499Y-81048379D01*
X31378622Y-80877575D01*
X31381142Y-80686898D01*
X31381285Y-80543545D01*
X31378426Y-80438419D01*
X31371944Y-80362429D01*
X31361215Y-80306478D01*
X31345617Y-80261473D01*
X31334829Y-80238278D01*
X31249149Y-80123321D01*
X31132405Y-80047955D01*
X30994389Y-80012821D01*
X30844891Y-80018562D01*
X30693701Y-80065821D01*
X30550611Y-80155240D01*
X30516869Y-80184611D01*
X30459801Y-80242829D01*
X30415772Y-80303818D01*
X30382903Y-80375921D01*
X30359313Y-80467479D01*
X30343122Y-80586836D01*
X30332451Y-80742333D01*
X30325419Y-80942313D01*
X30323031Y-81044768D01*
X30314778Y-81435425D01*
X30455541Y-81482212D01*
X30566867Y-81536709D01*
X30626477Y-81610949D01*
X30636774Y-81708651D01*
X30628868Y-81750301D01*
X30607220Y-81805629D01*
X30569172Y-81845732D01*
X30507250Y-81872317D01*
X30413980Y-81887090D01*
X30281887Y-81891758D01*
X30103497Y-81888027D01*
X30037077Y-81885408D01*
X29874336Y-81878023D01*
X29758406Y-81870767D01*
X29679684Y-81861926D01*
X29628569Y-81849786D01*
X29595458Y-81832634D01*
X29570746Y-81808756D01*
X29564355Y-81801040D01*
X29516292Y-81705485D01*
X29516019Y-81610385D01*
X29557544Y-81528889D01*
X29634877Y-81474147D01*
X29720446Y-81458445D01*
X29790205Y-81451690D01*
X29831527Y-81435195D01*
X29833363Y-81432871D01*
X29841006Y-81394312D01*
X29850240Y-81303020D01*
X29860853Y-81162678D01*
X29872634Y-80976968D01*
X29885370Y-80749572D01*
X29898850Y-80484173D01*
X29912862Y-80184455D01*
X29927193Y-79854098D01*
X29934712Y-79671196D01*
X29944090Y-79417809D01*
X29949546Y-79217298D01*
X29951080Y-79066228D01*
X29948693Y-78961166D01*
X29942386Y-78898679D01*
X29934961Y-78877537D01*
X29888185Y-78848755D01*
X29813621Y-78826416D01*
X29802826Y-78824492D01*
X29689633Y-78788987D01*
X29622327Y-78723535D01*
X29595926Y-78622651D01*
X29595111Y-78595794D01*
X29606703Y-78479779D01*
X29646822Y-78405797D01*
X29723485Y-78366376D01*
X29844708Y-78354042D01*
X29854493Y-78354000D01*
X30054010Y-78371088D01*
X30054010Y-78371088D01*
G37*
X30054010Y-78371088D02*
X30214500Y-78421194D01*
X30332967Y-78502584D01*
X30406414Y-78613521D01*
X30426324Y-78685238D01*
X30430644Y-78748914D01*
X30431134Y-78856830D01*
X30428018Y-78996928D01*
X30421522Y-79157150D01*
X30415406Y-79269520D01*
X30406450Y-79427345D01*
X30399714Y-79564297D01*
X30395573Y-79670990D01*
X30394408Y-79738035D01*
X30395796Y-79756759D01*
X30424015Y-79750675D01*
X30488833Y-79725817D01*
X30570977Y-79689918D01*
X30765869Y-79626387D01*
X30982187Y-79598507D01*
X31196756Y-79607998D01*
X31321525Y-79634207D01*
X31501133Y-79714129D01*
X31651746Y-79837099D01*
X31763891Y-79994456D01*
X31797505Y-80069415D01*
X31817296Y-80125246D01*
X31832076Y-80179397D01*
X31842407Y-80240656D01*
X31848855Y-80317815D01*
X31851981Y-80419664D01*
X31852352Y-80554993D01*
X31850530Y-80732592D01*
X31848579Y-80865629D01*
X31838778Y-81500480D01*
X31951667Y-81536905D01*
X32057422Y-81585260D01*
X32115726Y-81651656D01*
X32135002Y-81746147D01*
X32135111Y-81755798D01*
X32128305Y-81825122D01*
X32103729Y-81877384D01*
X32055148Y-81914300D01*
X31976327Y-81937589D01*
X31861032Y-81948971D01*
X31703028Y-81950164D01*
X31496078Y-81942886D01*
X31462241Y-81941259D01*
X31315140Y-81933253D01*
X31213650Y-81924817D01*
X31146968Y-81913702D01*
X31104291Y-81897657D01*
X31074814Y-81874431D01*
X31060074Y-81857485D01*
X31015871Y-81765345D01*
X31018148Y-81670801D01*
X31060280Y-81588142D01*
X31135639Y-81531657D01*
X31218944Y-81514889D01*
X31306339Y-81497931D01*
X31342351Y-81463186D01*
X31351515Y-81419540D01*
X31360334Y-81329294D01*
X31368199Y-81202292D01*
X31374499Y-81048379D01*
X31378622Y-80877575D01*
X31381142Y-80686898D01*
X31381285Y-80543545D01*
X31378426Y-80438419D01*
X31371944Y-80362429D01*
X31361215Y-80306478D01*
X31345617Y-80261473D01*
X31334829Y-80238278D01*
X31249149Y-80123321D01*
X31132405Y-80047955D01*
X30994389Y-80012821D01*
X30844891Y-80018562D01*
X30693701Y-80065821D01*
X30550611Y-80155240D01*
X30516869Y-80184611D01*
X30459801Y-80242829D01*
X30415772Y-80303818D01*
X30382903Y-80375921D01*
X30359313Y-80467479D01*
X30343122Y-80586836D01*
X30332451Y-80742333D01*
X30325419Y-80942313D01*
X30323031Y-81044768D01*
X30314778Y-81435425D01*
X30455541Y-81482212D01*
X30566867Y-81536709D01*
X30626477Y-81610949D01*
X30636774Y-81708651D01*
X30628868Y-81750301D01*
X30607220Y-81805629D01*
X30569172Y-81845732D01*
X30507250Y-81872317D01*
X30413980Y-81887090D01*
X30281887Y-81891758D01*
X30103497Y-81888027D01*
X30037077Y-81885408D01*
X29874336Y-81878023D01*
X29758406Y-81870767D01*
X29679684Y-81861926D01*
X29628569Y-81849786D01*
X29595458Y-81832634D01*
X29570746Y-81808756D01*
X29564355Y-81801040D01*
X29516292Y-81705485D01*
X29516019Y-81610385D01*
X29557544Y-81528889D01*
X29634877Y-81474147D01*
X29720446Y-81458445D01*
X29790205Y-81451690D01*
X29831527Y-81435195D01*
X29833363Y-81432871D01*
X29841006Y-81394312D01*
X29850240Y-81303020D01*
X29860853Y-81162678D01*
X29872634Y-80976968D01*
X29885370Y-80749572D01*
X29898850Y-80484173D01*
X29912862Y-80184455D01*
X29927193Y-79854098D01*
X29934712Y-79671196D01*
X29944090Y-79417809D01*
X29949546Y-79217298D01*
X29951080Y-79066228D01*
X29948693Y-78961166D01*
X29942386Y-78898679D01*
X29934961Y-78877537D01*
X29888185Y-78848755D01*
X29813621Y-78826416D01*
X29802826Y-78824492D01*
X29689633Y-78788987D01*
X29622327Y-78723535D01*
X29595926Y-78622651D01*
X29595111Y-78595794D01*
X29606703Y-78479779D01*
X29646822Y-78405797D01*
X29723485Y-78366376D01*
X29844708Y-78354042D01*
X29854493Y-78354000D01*
X30054010Y-78371088D01*
G36*
X28938903Y-78348350D02*
G01*
X29011524Y-78379148D01*
X29056665Y-78440405D01*
X29080012Y-78540243D01*
X29087255Y-78686784D01*
X29087312Y-78702849D01*
X29089799Y-78843667D01*
X29096128Y-78992395D01*
X29104932Y-79116929D01*
X29104972Y-79117356D01*
X29112557Y-79220368D01*
X29108605Y-79286625D01*
X29089272Y-79335292D01*
X29051322Y-79384826D01*
X28962470Y-79451393D01*
X28861049Y-79472576D01*
X28761429Y-79451858D01*
X28677981Y-79392726D01*
X28625076Y-79298664D01*
X28620341Y-79280311D01*
X28573169Y-79175219D01*
X28483144Y-79067475D01*
X28361836Y-78969396D01*
X28285319Y-78923688D01*
X28217870Y-78890512D01*
X28156074Y-78868697D01*
X28085378Y-78855897D01*
X27991233Y-78849762D01*
X27859087Y-78847944D01*
X27815606Y-78847889D01*
X27673909Y-78848595D01*
X27572453Y-78852833D01*
X27495038Y-78863787D01*
X27425463Y-78884639D01*
X27347526Y-78918570D01*
X27274541Y-78954171D01*
X27061823Y-79087544D01*
X26888444Y-79253463D01*
X26753839Y-79445530D01*
X26657443Y-79657349D01*
X26598689Y-79882521D01*
X26577013Y-80114649D01*
X26591847Y-80347336D01*
X26642628Y-80574184D01*
X26728789Y-80788795D01*
X26849764Y-80984772D01*
X27004989Y-81155718D01*
X27193897Y-81295234D01*
X27415922Y-81396924D01*
X27492556Y-81420081D01*
X27710872Y-81454606D01*
X27945280Y-81450736D01*
X28177170Y-81410831D01*
X28387931Y-81337251D01*
X28466222Y-81296553D01*
X28549741Y-81238253D01*
X28649733Y-81154919D01*
X28745434Y-81063931D01*
X28751045Y-81058132D01*
X28836053Y-80973515D01*
X28898435Y-80923671D01*
X28951716Y-80900025D01*
X29009422Y-80894000D01*
X29009935Y-80894000D01*
X29117775Y-80918447D01*
X29214561Y-80982313D01*
X29282006Y-81071384D01*
X29298443Y-81118254D01*
X29294872Y-81228392D01*
X29242015Y-81346319D01*
X29145548Y-81466984D01*
X29011150Y-81585336D01*
X28844498Y-81696323D01*
X28651271Y-81794895D01*
X28452111Y-81871187D01*
X28261351Y-81917794D01*
X28038080Y-81947769D01*
X27803078Y-81960097D01*
X27577125Y-81953758D01*
X27381000Y-81927735D01*
X27365556Y-81924401D01*
X27087808Y-81833860D01*
X26830837Y-81694336D01*
X26602060Y-81511689D01*
X26408895Y-81291777D01*
X26266405Y-81056287D01*
X26164742Y-80822604D01*
X26099935Y-80603750D01*
X26066655Y-80377050D01*
X26059150Y-80174333D01*
X26071791Y-79917958D01*
X26113361Y-79688550D01*
X26189333Y-79462653D01*
X26263257Y-79299445D01*
X26423135Y-79034391D01*
X26621560Y-78810203D01*
X26857223Y-78627779D01*
X27128814Y-78488017D01*
X27435025Y-78391814D01*
X27641289Y-78354492D01*
X27913343Y-78340343D01*
X28193231Y-78366447D01*
X28445604Y-78427405D01*
X28526368Y-78452302D01*
X28573097Y-78456761D01*
X28605178Y-78438560D01*
X28633610Y-78405839D01*
X28678690Y-78364571D01*
X28739579Y-78344826D01*
X28833111Y-78339889D01*
X28938903Y-78348350D01*
X28938903Y-78348350D01*
G37*
X28938903Y-78348350D02*
X29011524Y-78379148D01*
X29056665Y-78440405D01*
X29080012Y-78540243D01*
X29087255Y-78686784D01*
X29087312Y-78702849D01*
X29089799Y-78843667D01*
X29096128Y-78992395D01*
X29104932Y-79116929D01*
X29104972Y-79117356D01*
X29112557Y-79220368D01*
X29108605Y-79286625D01*
X29089272Y-79335292D01*
X29051322Y-79384826D01*
X28962470Y-79451393D01*
X28861049Y-79472576D01*
X28761429Y-79451858D01*
X28677981Y-79392726D01*
X28625076Y-79298664D01*
X28620341Y-79280311D01*
X28573169Y-79175219D01*
X28483144Y-79067475D01*
X28361836Y-78969396D01*
X28285319Y-78923688D01*
X28217870Y-78890512D01*
X28156074Y-78868697D01*
X28085378Y-78855897D01*
X27991233Y-78849762D01*
X27859087Y-78847944D01*
X27815606Y-78847889D01*
X27673909Y-78848595D01*
X27572453Y-78852833D01*
X27495038Y-78863787D01*
X27425463Y-78884639D01*
X27347526Y-78918570D01*
X27274541Y-78954171D01*
X27061823Y-79087544D01*
X26888444Y-79253463D01*
X26753839Y-79445530D01*
X26657443Y-79657349D01*
X26598689Y-79882521D01*
X26577013Y-80114649D01*
X26591847Y-80347336D01*
X26642628Y-80574184D01*
X26728789Y-80788795D01*
X26849764Y-80984772D01*
X27004989Y-81155718D01*
X27193897Y-81295234D01*
X27415922Y-81396924D01*
X27492556Y-81420081D01*
X27710872Y-81454606D01*
X27945280Y-81450736D01*
X28177170Y-81410831D01*
X28387931Y-81337251D01*
X28466222Y-81296553D01*
X28549741Y-81238253D01*
X28649733Y-81154919D01*
X28745434Y-81063931D01*
X28751045Y-81058132D01*
X28836053Y-80973515D01*
X28898435Y-80923671D01*
X28951716Y-80900025D01*
X29009422Y-80894000D01*
X29009935Y-80894000D01*
X29117775Y-80918447D01*
X29214561Y-80982313D01*
X29282006Y-81071384D01*
X29298443Y-81118254D01*
X29294872Y-81228392D01*
X29242015Y-81346319D01*
X29145548Y-81466984D01*
X29011150Y-81585336D01*
X28844498Y-81696323D01*
X28651271Y-81794895D01*
X28452111Y-81871187D01*
X28261351Y-81917794D01*
X28038080Y-81947769D01*
X27803078Y-81960097D01*
X27577125Y-81953758D01*
X27381000Y-81927735D01*
X27365556Y-81924401D01*
X27087808Y-81833860D01*
X26830837Y-81694336D01*
X26602060Y-81511689D01*
X26408895Y-81291777D01*
X26266405Y-81056287D01*
X26164742Y-80822604D01*
X26099935Y-80603750D01*
X26066655Y-80377050D01*
X26059150Y-80174333D01*
X26071791Y-79917958D01*
X26113361Y-79688550D01*
X26189333Y-79462653D01*
X26263257Y-79299445D01*
X26423135Y-79034391D01*
X26621560Y-78810203D01*
X26857223Y-78627779D01*
X27128814Y-78488017D01*
X27435025Y-78391814D01*
X27641289Y-78354492D01*
X27913343Y-78340343D01*
X28193231Y-78366447D01*
X28445604Y-78427405D01*
X28526368Y-78452302D01*
X28573097Y-78456761D01*
X28605178Y-78438560D01*
X28633610Y-78405839D01*
X28678690Y-78364571D01*
X28739579Y-78344826D01*
X28833111Y-78339889D01*
X28938903Y-78348350D01*
G36*
X33641073Y-79812944D02*
G01*
X33833250Y-79863741D01*
X33982321Y-79936473D01*
X34094884Y-80028803D01*
X34176051Y-80146003D01*
X34226922Y-80293116D01*
X34248598Y-80475181D01*
X34242179Y-80697237D01*
X34208766Y-80964326D01*
X34207903Y-80969708D01*
X34186809Y-81124424D01*
X34169743Y-81293243D01*
X34159662Y-81445577D01*
X34158514Y-81480227D01*
X34153000Y-81718089D01*
X34251447Y-81750545D01*
X34342116Y-81805843D01*
X34394931Y-81889872D01*
X34407476Y-81987428D01*
X34377334Y-82083305D01*
X34315403Y-82152844D01*
X34243802Y-82180563D01*
X34141910Y-82189784D01*
X34032682Y-82180728D01*
X33939077Y-82153617D01*
X33929895Y-82149115D01*
X33861375Y-82104906D01*
X33814623Y-82060846D01*
X33791503Y-82037847D01*
X33758728Y-82032939D01*
X33701882Y-82047488D01*
X33614395Y-82079827D01*
X33431821Y-82129197D01*
X33231362Y-82148335D01*
X33033152Y-82137225D01*
X32857326Y-82095848D01*
X32818670Y-82080529D01*
X32686949Y-82002592D01*
X32563047Y-81893736D01*
X32461793Y-81769554D01*
X32398015Y-81645638D01*
X32394440Y-81634433D01*
X32366765Y-81488474D01*
X32364893Y-81367273D01*
X32801446Y-81367273D01*
X32806629Y-81473075D01*
X32825738Y-81523290D01*
X32906110Y-81630418D01*
X33024614Y-81698983D01*
X33176276Y-81726866D01*
X33291851Y-81721986D01*
X33389208Y-81703604D01*
X33475706Y-81676305D01*
X33493970Y-81667943D01*
X33599920Y-81583833D01*
X33681149Y-81461791D01*
X33729895Y-81317722D01*
X33738397Y-81167529D01*
X33738359Y-81167130D01*
X33729667Y-81077445D01*
X33491641Y-81084007D01*
X33267191Y-81101911D01*
X33083225Y-81140985D01*
X32942465Y-81199433D01*
X32847632Y-81275460D01*
X32801446Y-81367273D01*
X32364893Y-81367273D01*
X32364421Y-81336729D01*
X32387125Y-81203520D01*
X32399857Y-81168260D01*
X32469869Y-81057921D01*
X32575361Y-80952598D01*
X32696941Y-80870555D01*
X32734879Y-80852699D01*
X32858467Y-80811478D01*
X33029080Y-80770036D01*
X33237343Y-80730391D01*
X33461428Y-80696245D01*
X33575092Y-80678044D01*
X33668939Y-80657980D01*
X33727473Y-80639543D01*
X33736595Y-80634250D01*
X33758757Y-80589393D01*
X33771092Y-80513040D01*
X33772000Y-80485443D01*
X33748919Y-80364134D01*
X33684610Y-80273216D01*
X33586480Y-80214429D01*
X33461933Y-80189510D01*
X33318375Y-80200201D01*
X33163209Y-80248239D01*
X33038280Y-80313127D01*
X32920596Y-80378781D01*
X32832924Y-80407746D01*
X32763322Y-80401093D01*
X32699849Y-80359897D01*
X32684162Y-80344950D01*
X32625817Y-80259686D01*
X32621186Y-80171344D01*
X32670724Y-80075945D01*
X32721333Y-80018915D01*
X32857541Y-79919157D01*
X33030295Y-79847852D01*
X33226919Y-79805829D01*
X33434737Y-79793917D01*
X33641073Y-79812944D01*
X33641073Y-79812944D01*
G37*
X33641073Y-79812944D02*
X33833250Y-79863741D01*
X33982321Y-79936473D01*
X34094884Y-80028803D01*
X34176051Y-80146003D01*
X34226922Y-80293116D01*
X34248598Y-80475181D01*
X34242179Y-80697237D01*
X34208766Y-80964326D01*
X34207903Y-80969708D01*
X34186809Y-81124424D01*
X34169743Y-81293243D01*
X34159662Y-81445577D01*
X34158514Y-81480227D01*
X34153000Y-81718089D01*
X34251447Y-81750545D01*
X34342116Y-81805843D01*
X34394931Y-81889872D01*
X34407476Y-81987428D01*
X34377334Y-82083305D01*
X34315403Y-82152844D01*
X34243802Y-82180563D01*
X34141910Y-82189784D01*
X34032682Y-82180728D01*
X33939077Y-82153617D01*
X33929895Y-82149115D01*
X33861375Y-82104906D01*
X33814623Y-82060846D01*
X33791503Y-82037847D01*
X33758728Y-82032939D01*
X33701882Y-82047488D01*
X33614395Y-82079827D01*
X33431821Y-82129197D01*
X33231362Y-82148335D01*
X33033152Y-82137225D01*
X32857326Y-82095848D01*
X32818670Y-82080529D01*
X32686949Y-82002592D01*
X32563047Y-81893736D01*
X32461793Y-81769554D01*
X32398015Y-81645638D01*
X32394440Y-81634433D01*
X32366765Y-81488474D01*
X32364893Y-81367273D01*
X32801446Y-81367273D01*
X32806629Y-81473075D01*
X32825738Y-81523290D01*
X32906110Y-81630418D01*
X33024614Y-81698983D01*
X33176276Y-81726866D01*
X33291851Y-81721986D01*
X33389208Y-81703604D01*
X33475706Y-81676305D01*
X33493970Y-81667943D01*
X33599920Y-81583833D01*
X33681149Y-81461791D01*
X33729895Y-81317722D01*
X33738397Y-81167529D01*
X33738359Y-81167130D01*
X33729667Y-81077445D01*
X33491641Y-81084007D01*
X33267191Y-81101911D01*
X33083225Y-81140985D01*
X32942465Y-81199433D01*
X32847632Y-81275460D01*
X32801446Y-81367273D01*
X32364893Y-81367273D01*
X32364421Y-81336729D01*
X32387125Y-81203520D01*
X32399857Y-81168260D01*
X32469869Y-81057921D01*
X32575361Y-80952598D01*
X32696941Y-80870555D01*
X32734879Y-80852699D01*
X32858467Y-80811478D01*
X33029080Y-80770036D01*
X33237343Y-80730391D01*
X33461428Y-80696245D01*
X33575092Y-80678044D01*
X33668939Y-80657980D01*
X33727473Y-80639543D01*
X33736595Y-80634250D01*
X33758757Y-80589393D01*
X33771092Y-80513040D01*
X33772000Y-80485443D01*
X33748919Y-80364134D01*
X33684610Y-80273216D01*
X33586480Y-80214429D01*
X33461933Y-80189510D01*
X33318375Y-80200201D01*
X33163209Y-80248239D01*
X33038280Y-80313127D01*
X32920596Y-80378781D01*
X32832924Y-80407746D01*
X32763322Y-80401093D01*
X32699849Y-80359897D01*
X32684162Y-80344950D01*
X32625817Y-80259686D01*
X32621186Y-80171344D01*
X32670724Y-80075945D01*
X32721333Y-80018915D01*
X32857541Y-79919157D01*
X33030295Y-79847852D01*
X33226919Y-79805829D01*
X33434737Y-79793917D01*
X33641073Y-79812944D01*
G36*
X43399064Y-81650405D02*
G01*
X43498221Y-81719702D01*
X43551161Y-81797423D01*
X43592133Y-81921845D01*
X43578328Y-82034712D01*
X43509048Y-82140649D01*
X43497378Y-82152711D01*
X43426373Y-82214321D01*
X43359004Y-82242227D01*
X43268778Y-82248667D01*
X43176814Y-82241870D01*
X43109692Y-82213323D01*
X43040178Y-82152711D01*
X42964411Y-82047278D01*
X42944202Y-81935453D01*
X42978850Y-81812610D01*
X42986395Y-81797423D01*
X43065801Y-81694075D01*
X43173852Y-81638889D01*
X43268778Y-81627778D01*
X43399064Y-81650405D01*
X43399064Y-81650405D01*
G37*
X43399064Y-81650405D02*
X43498221Y-81719702D01*
X43551161Y-81797423D01*
X43592133Y-81921845D01*
X43578328Y-82034712D01*
X43509048Y-82140649D01*
X43497378Y-82152711D01*
X43426373Y-82214321D01*
X43359004Y-82242227D01*
X43268778Y-82248667D01*
X43176814Y-82241870D01*
X43109692Y-82213323D01*
X43040178Y-82152711D01*
X42964411Y-82047278D01*
X42944202Y-81935453D01*
X42978850Y-81812610D01*
X42986395Y-81797423D01*
X43065801Y-81694075D01*
X43173852Y-81638889D01*
X43268778Y-81627778D01*
X43399064Y-81650405D01*
G36*
X34871219Y-80116173D02*
G01*
X35055590Y-80144565D01*
X35072253Y-80147597D01*
X35240042Y-80182033D01*
X35367270Y-80215873D01*
X35447523Y-80247290D01*
X35466346Y-80259917D01*
X35513513Y-80333749D01*
X35520677Y-80419442D01*
X35493286Y-80500581D01*
X35436788Y-80560752D01*
X35358944Y-80583556D01*
X35303512Y-80594651D01*
X35283083Y-80609846D01*
X35281657Y-80645307D01*
X35288085Y-80726613D01*
X35301290Y-80843875D01*
X35320196Y-80987204D01*
X35336084Y-81096679D01*
X35373392Y-81343095D01*
X35403785Y-81539056D01*
X35428316Y-81689986D01*
X35448041Y-81801310D01*
X35464013Y-81878452D01*
X35477287Y-81926836D01*
X35488916Y-81951885D01*
X35499957Y-81959025D01*
X35503583Y-81958398D01*
X35525488Y-81932089D01*
X35570915Y-81863603D01*
X35635581Y-81759888D01*
X35715207Y-81627892D01*
X35805512Y-81474560D01*
X35864561Y-81372566D01*
X36195867Y-80796625D01*
X36110509Y-80725364D01*
X36052483Y-80665555D01*
X36032992Y-80604192D01*
X36034519Y-80558120D01*
X36069683Y-80456723D01*
X36116177Y-80408421D01*
X36148486Y-80386227D01*
X36180905Y-80373282D01*
X36224653Y-80369805D01*
X36290945Y-80376015D01*
X36390998Y-80392132D01*
X36525399Y-80416428D01*
X36697554Y-80449804D01*
X36821475Y-80479831D01*
X36904877Y-80510633D01*
X36955474Y-80546335D01*
X36980980Y-80591062D01*
X36989110Y-80648939D01*
X36989334Y-80664499D01*
X36969992Y-80769878D01*
X36910038Y-80837116D01*
X36806576Y-80869270D01*
X36794208Y-80870627D01*
X36766470Y-80874854D01*
X36740068Y-80885150D01*
X36711319Y-80906485D01*
X36676539Y-80943828D01*
X36632046Y-81002147D01*
X36574156Y-81086413D01*
X36499187Y-81201595D01*
X36403454Y-81352662D01*
X36283274Y-81544582D01*
X36222551Y-81641889D01*
X36102617Y-81832346D01*
X35988376Y-82010348D01*
X35884182Y-82169366D01*
X35794392Y-82302872D01*
X35723363Y-82404338D01*
X35675451Y-82467236D01*
X35662287Y-82481500D01*
X35555557Y-82545538D01*
X35437981Y-82554895D01*
X35313681Y-82509313D01*
X35304589Y-82503909D01*
X35230152Y-82447156D01*
X35172036Y-82384138D01*
X35169438Y-82380295D01*
X35140357Y-82313129D01*
X35104831Y-82190507D01*
X35062833Y-82012308D01*
X35014338Y-81778408D01*
X34959316Y-81488687D01*
X34901060Y-81162111D01*
X34871938Y-80995329D01*
X34845369Y-80844250D01*
X34823170Y-80719119D01*
X34807156Y-80630182D01*
X34799555Y-80589651D01*
X34764949Y-80531397D01*
X34709610Y-80492472D01*
X34598416Y-80429234D01*
X34542038Y-80357136D01*
X34534000Y-80313379D01*
X34543490Y-80222556D01*
X34575957Y-80159272D01*
X34637402Y-80121679D01*
X34733823Y-80107928D01*
X34871219Y-80116173D01*
X34871219Y-80116173D01*
G37*
X34871219Y-80116173D02*
X35055590Y-80144565D01*
X35072253Y-80147597D01*
X35240042Y-80182033D01*
X35367270Y-80215873D01*
X35447523Y-80247290D01*
X35466346Y-80259917D01*
X35513513Y-80333749D01*
X35520677Y-80419442D01*
X35493286Y-80500581D01*
X35436788Y-80560752D01*
X35358944Y-80583556D01*
X35303512Y-80594651D01*
X35283083Y-80609846D01*
X35281657Y-80645307D01*
X35288085Y-80726613D01*
X35301290Y-80843875D01*
X35320196Y-80987204D01*
X35336084Y-81096679D01*
X35373392Y-81343095D01*
X35403785Y-81539056D01*
X35428316Y-81689986D01*
X35448041Y-81801310D01*
X35464013Y-81878452D01*
X35477287Y-81926836D01*
X35488916Y-81951885D01*
X35499957Y-81959025D01*
X35503583Y-81958398D01*
X35525488Y-81932089D01*
X35570915Y-81863603D01*
X35635581Y-81759888D01*
X35715207Y-81627892D01*
X35805512Y-81474560D01*
X35864561Y-81372566D01*
X36195867Y-80796625D01*
X36110509Y-80725364D01*
X36052483Y-80665555D01*
X36032992Y-80604192D01*
X36034519Y-80558120D01*
X36069683Y-80456723D01*
X36116177Y-80408421D01*
X36148486Y-80386227D01*
X36180905Y-80373282D01*
X36224653Y-80369805D01*
X36290945Y-80376015D01*
X36390998Y-80392132D01*
X36525399Y-80416428D01*
X36697554Y-80449804D01*
X36821475Y-80479831D01*
X36904877Y-80510633D01*
X36955474Y-80546335D01*
X36980980Y-80591062D01*
X36989110Y-80648939D01*
X36989334Y-80664499D01*
X36969992Y-80769878D01*
X36910038Y-80837116D01*
X36806576Y-80869270D01*
X36794208Y-80870627D01*
X36766470Y-80874854D01*
X36740068Y-80885150D01*
X36711319Y-80906485D01*
X36676539Y-80943828D01*
X36632046Y-81002147D01*
X36574156Y-81086413D01*
X36499187Y-81201595D01*
X36403454Y-81352662D01*
X36283274Y-81544582D01*
X36222551Y-81641889D01*
X36102617Y-81832346D01*
X35988376Y-82010348D01*
X35884182Y-82169366D01*
X35794392Y-82302872D01*
X35723363Y-82404338D01*
X35675451Y-82467236D01*
X35662287Y-82481500D01*
X35555557Y-82545538D01*
X35437981Y-82554895D01*
X35313681Y-82509313D01*
X35304589Y-82503909D01*
X35230152Y-82447156D01*
X35172036Y-82384138D01*
X35169438Y-82380295D01*
X35140357Y-82313129D01*
X35104831Y-82190507D01*
X35062833Y-82012308D01*
X35014338Y-81778408D01*
X34959316Y-81488687D01*
X34901060Y-81162111D01*
X34871938Y-80995329D01*
X34845369Y-80844250D01*
X34823170Y-80719119D01*
X34807156Y-80630182D01*
X34799555Y-80589651D01*
X34764949Y-80531397D01*
X34709610Y-80492472D01*
X34598416Y-80429234D01*
X34542038Y-80357136D01*
X34534000Y-80313379D01*
X34543490Y-80222556D01*
X34575957Y-80159272D01*
X34637402Y-80121679D01*
X34733823Y-80107928D01*
X34871219Y-80116173D01*
G36*
X39141142Y-79749439D02*
G01*
X39228375Y-79774418D01*
X39273848Y-79788927D01*
X39385508Y-79832186D01*
X39487048Y-79883967D01*
X39553475Y-79930632D01*
X39591154Y-79966985D01*
X39621066Y-80002230D01*
X39642306Y-80041274D01*
X39653969Y-80089025D01*
X39655149Y-80150390D01*
X39644940Y-80230278D01*
X39622437Y-80333595D01*
X39586735Y-80465250D01*
X39536928Y-80630150D01*
X39472110Y-80833203D01*
X39391376Y-81079316D01*
X39293821Y-81373398D01*
X39279109Y-81417654D01*
X39195651Y-81669965D01*
X39117339Y-81909153D01*
X39046090Y-82129185D01*
X38983821Y-82324031D01*
X38932449Y-82487658D01*
X38893891Y-82614034D01*
X38870066Y-82697127D01*
X38863200Y-82726180D01*
X38855459Y-82795097D01*
X38868430Y-82836719D01*
X38913643Y-82870788D01*
X38962776Y-82896700D01*
X39067134Y-82972406D01*
X39118375Y-83062865D01*
X39115460Y-83162927D01*
X39057345Y-83267437D01*
X39041392Y-83285833D01*
X38956430Y-83338085D01*
X38840345Y-83344926D01*
X38695495Y-83306391D01*
X38633800Y-83280042D01*
X38508774Y-83201381D01*
X38419867Y-83103005D01*
X38375656Y-82995468D01*
X38372328Y-82958258D01*
X38363584Y-82911172D01*
X38330544Y-82908932D01*
X38322834Y-82911855D01*
X38175673Y-82966506D01*
X38052673Y-82997116D01*
X37929322Y-83008226D01*
X37813965Y-83006128D01*
X37572188Y-82967556D01*
X37349623Y-82878775D01*
X37153308Y-82744395D01*
X36990280Y-82569024D01*
X36886915Y-82398973D01*
X36832616Y-82243768D01*
X36800399Y-82056381D01*
X36796077Y-81952270D01*
X37242288Y-81952270D01*
X37267694Y-82127862D01*
X37296952Y-82206333D01*
X37396299Y-82359222D01*
X37530856Y-82478258D01*
X37689876Y-82559367D01*
X37862614Y-82598473D01*
X38038323Y-82591501D01*
X38187082Y-82543913D01*
X38334122Y-82444662D01*
X38456490Y-82304777D01*
X38549385Y-82136459D01*
X38608001Y-81951906D01*
X38627535Y-81763319D01*
X38603184Y-81582896D01*
X38586039Y-81530702D01*
X38516625Y-81409262D01*
X38409841Y-81291656D01*
X38283138Y-81195155D01*
X38206828Y-81155416D01*
X38069245Y-81120187D01*
X37912048Y-81115047D01*
X37760976Y-81139232D01*
X37676556Y-81171177D01*
X37529310Y-81275084D01*
X37407926Y-81416965D01*
X37316738Y-81585003D01*
X37260080Y-81767378D01*
X37242288Y-81952270D01*
X36796077Y-81952270D01*
X36792134Y-81857332D01*
X36809692Y-81667140D01*
X36816838Y-81630230D01*
X36894454Y-81387105D01*
X37013474Y-81172955D01*
X37167967Y-80992138D01*
X37352000Y-80849011D01*
X37559640Y-80747934D01*
X37784958Y-80693262D01*
X38022019Y-80689354D01*
X38086585Y-80697461D01*
X38318250Y-80756252D01*
X38516898Y-80857419D01*
X38691624Y-81005752D01*
X38710807Y-81026284D01*
X38782855Y-81099035D01*
X38841118Y-81146615D01*
X38875252Y-81160812D01*
X38878127Y-81159091D01*
X38900127Y-81117600D01*
X38932775Y-81034983D01*
X38972358Y-80923075D01*
X39015164Y-80793706D01*
X39057482Y-80658711D01*
X39095597Y-80529922D01*
X39125799Y-80419171D01*
X39144375Y-80338292D01*
X39147779Y-80299585D01*
X39113215Y-80258665D01*
X39046070Y-80216802D01*
X39021354Y-80205857D01*
X38911048Y-80144383D01*
X38853222Y-80066831D01*
X38845067Y-79968476D01*
X38854311Y-79925007D01*
X38895421Y-79835988D01*
X38969709Y-79778173D01*
X38981084Y-79772545D01*
X39035220Y-79749495D01*
X39082665Y-79741462D01*
X39141142Y-79749439D01*
X39141142Y-79749439D01*
G37*
X39141142Y-79749439D02*
X39228375Y-79774418D01*
X39273848Y-79788927D01*
X39385508Y-79832186D01*
X39487048Y-79883967D01*
X39553475Y-79930632D01*
X39591154Y-79966985D01*
X39621066Y-80002230D01*
X39642306Y-80041274D01*
X39653969Y-80089025D01*
X39655149Y-80150390D01*
X39644940Y-80230278D01*
X39622437Y-80333595D01*
X39586735Y-80465250D01*
X39536928Y-80630150D01*
X39472110Y-80833203D01*
X39391376Y-81079316D01*
X39293821Y-81373398D01*
X39279109Y-81417654D01*
X39195651Y-81669965D01*
X39117339Y-81909153D01*
X39046090Y-82129185D01*
X38983821Y-82324031D01*
X38932449Y-82487658D01*
X38893891Y-82614034D01*
X38870066Y-82697127D01*
X38863200Y-82726180D01*
X38855459Y-82795097D01*
X38868430Y-82836719D01*
X38913643Y-82870788D01*
X38962776Y-82896700D01*
X39067134Y-82972406D01*
X39118375Y-83062865D01*
X39115460Y-83162927D01*
X39057345Y-83267437D01*
X39041392Y-83285833D01*
X38956430Y-83338085D01*
X38840345Y-83344926D01*
X38695495Y-83306391D01*
X38633800Y-83280042D01*
X38508774Y-83201381D01*
X38419867Y-83103005D01*
X38375656Y-82995468D01*
X38372328Y-82958258D01*
X38363584Y-82911172D01*
X38330544Y-82908932D01*
X38322834Y-82911855D01*
X38175673Y-82966506D01*
X38052673Y-82997116D01*
X37929322Y-83008226D01*
X37813965Y-83006128D01*
X37572188Y-82967556D01*
X37349623Y-82878775D01*
X37153308Y-82744395D01*
X36990280Y-82569024D01*
X36886915Y-82398973D01*
X36832616Y-82243768D01*
X36800399Y-82056381D01*
X36796077Y-81952270D01*
X37242288Y-81952270D01*
X37267694Y-82127862D01*
X37296952Y-82206333D01*
X37396299Y-82359222D01*
X37530856Y-82478258D01*
X37689876Y-82559367D01*
X37862614Y-82598473D01*
X38038323Y-82591501D01*
X38187082Y-82543913D01*
X38334122Y-82444662D01*
X38456490Y-82304777D01*
X38549385Y-82136459D01*
X38608001Y-81951906D01*
X38627535Y-81763319D01*
X38603184Y-81582896D01*
X38586039Y-81530702D01*
X38516625Y-81409262D01*
X38409841Y-81291656D01*
X38283138Y-81195155D01*
X38206828Y-81155416D01*
X38069245Y-81120187D01*
X37912048Y-81115047D01*
X37760976Y-81139232D01*
X37676556Y-81171177D01*
X37529310Y-81275084D01*
X37407926Y-81416965D01*
X37316738Y-81585003D01*
X37260080Y-81767378D01*
X37242288Y-81952270D01*
X36796077Y-81952270D01*
X36792134Y-81857332D01*
X36809692Y-81667140D01*
X36816838Y-81630230D01*
X36894454Y-81387105D01*
X37013474Y-81172955D01*
X37167967Y-80992138D01*
X37352000Y-80849011D01*
X37559640Y-80747934D01*
X37784958Y-80693262D01*
X38022019Y-80689354D01*
X38086585Y-80697461D01*
X38318250Y-80756252D01*
X38516898Y-80857419D01*
X38691624Y-81005752D01*
X38710807Y-81026284D01*
X38782855Y-81099035D01*
X38841118Y-81146615D01*
X38875252Y-81160812D01*
X38878127Y-81159091D01*
X38900127Y-81117600D01*
X38932775Y-81034983D01*
X38972358Y-80923075D01*
X39015164Y-80793706D01*
X39057482Y-80658711D01*
X39095597Y-80529922D01*
X39125799Y-80419171D01*
X39144375Y-80338292D01*
X39147779Y-80299585D01*
X39113215Y-80258665D01*
X39046070Y-80216802D01*
X39021354Y-80205857D01*
X38911048Y-80144383D01*
X38853222Y-80066831D01*
X38845067Y-79968476D01*
X38854311Y-79925007D01*
X38895421Y-79835988D01*
X38969709Y-79778173D01*
X38981084Y-79772545D01*
X39035220Y-79749495D01*
X39082665Y-79741462D01*
X39141142Y-79749439D01*
G36*
X40635722Y-81623957D02*
G01*
X40844610Y-81682148D01*
X41033291Y-81769629D01*
X41191976Y-81882358D01*
X41310873Y-82016296D01*
X41351539Y-82088222D01*
X41393695Y-82196259D01*
X41414802Y-82302073D01*
X41413247Y-82414202D01*
X41387418Y-82541179D01*
X41335702Y-82691540D01*
X41256486Y-82873821D01*
X41168859Y-83055142D01*
X41099657Y-83196708D01*
X41033976Y-83335463D01*
X40979104Y-83455739D01*
X40942327Y-83541868D01*
X40941555Y-83543822D01*
X40881679Y-83695978D01*
X40981618Y-83787517D01*
X41057619Y-83878564D01*
X41078709Y-83966624D01*
X41045493Y-84058919D01*
X41008491Y-84109168D01*
X40923353Y-84177199D01*
X40822554Y-84194399D01*
X40701904Y-84161027D01*
X40644111Y-84131885D01*
X40555215Y-84064462D01*
X40492846Y-83984044D01*
X40488889Y-83975935D01*
X40458056Y-83917998D01*
X40422910Y-83894572D01*
X40361889Y-83895473D01*
X40328082Y-83899983D01*
X40149048Y-83902472D01*
X39955305Y-83866888D01*
X39763603Y-83799365D01*
X39590692Y-83706036D01*
X39453321Y-83593036D01*
X39435348Y-83573060D01*
X39333782Y-83419284D01*
X39272966Y-83250260D01*
X39259198Y-83134354D01*
X39692791Y-83134354D01*
X39720263Y-83222073D01*
X39789396Y-83311563D01*
X39887307Y-83390063D01*
X40001116Y-83444815D01*
X40008619Y-83447205D01*
X40134349Y-83479393D01*
X40231523Y-83485452D01*
X40321454Y-83465695D01*
X40356181Y-83452315D01*
X40440319Y-83400932D01*
X40522052Y-83323788D01*
X40593826Y-83232578D01*
X40648086Y-83138993D01*
X40677276Y-83054729D01*
X40673842Y-82991477D01*
X40663583Y-82976517D01*
X40616173Y-82951820D01*
X40527721Y-82923683D01*
X40413231Y-82895369D01*
X40287707Y-82870139D01*
X40166151Y-82851258D01*
X40063567Y-82841987D01*
X40042988Y-82841554D01*
X39889830Y-82856276D01*
X39782252Y-82902482D01*
X39717534Y-82982444D01*
X39692955Y-83098437D01*
X39692791Y-83134354D01*
X39259198Y-83134354D01*
X39252310Y-83076374D01*
X39271224Y-82908012D01*
X39329119Y-82755561D01*
X39425405Y-82629407D01*
X39491916Y-82576684D01*
X39604828Y-82516656D01*
X39732186Y-82478088D01*
X39881269Y-82460798D01*
X40059354Y-82464601D01*
X40273719Y-82489316D01*
X40531642Y-82534759D01*
X40601117Y-82548787D01*
X40812122Y-82592259D01*
X40876283Y-82517667D01*
X40932959Y-82416078D01*
X40938832Y-82310891D01*
X40898353Y-82210042D01*
X40815973Y-82121464D01*
X40696144Y-82053093D01*
X40598747Y-82022902D01*
X40493203Y-82004248D01*
X40406655Y-82005371D01*
X40306560Y-82027378D01*
X40284771Y-82033591D01*
X40169651Y-82064499D01*
X40092418Y-82075546D01*
X40037708Y-82065599D01*
X39990162Y-82033526D01*
X39965495Y-82010061D01*
X39907910Y-81921549D01*
X39900973Y-81830481D01*
X39939923Y-81745066D01*
X40020000Y-81673515D01*
X40136445Y-81624040D01*
X40196492Y-81611601D01*
X40416419Y-81599095D01*
X40635722Y-81623957D01*
X40635722Y-81623957D01*
G37*
X40635722Y-81623957D02*
X40844610Y-81682148D01*
X41033291Y-81769629D01*
X41191976Y-81882358D01*
X41310873Y-82016296D01*
X41351539Y-82088222D01*
X41393695Y-82196259D01*
X41414802Y-82302073D01*
X41413247Y-82414202D01*
X41387418Y-82541179D01*
X41335702Y-82691540D01*
X41256486Y-82873821D01*
X41168859Y-83055142D01*
X41099657Y-83196708D01*
X41033976Y-83335463D01*
X40979104Y-83455739D01*
X40942327Y-83541868D01*
X40941555Y-83543822D01*
X40881679Y-83695978D01*
X40981618Y-83787517D01*
X41057619Y-83878564D01*
X41078709Y-83966624D01*
X41045493Y-84058919D01*
X41008491Y-84109168D01*
X40923353Y-84177199D01*
X40822554Y-84194399D01*
X40701904Y-84161027D01*
X40644111Y-84131885D01*
X40555215Y-84064462D01*
X40492846Y-83984044D01*
X40488889Y-83975935D01*
X40458056Y-83917998D01*
X40422910Y-83894572D01*
X40361889Y-83895473D01*
X40328082Y-83899983D01*
X40149048Y-83902472D01*
X39955305Y-83866888D01*
X39763603Y-83799365D01*
X39590692Y-83706036D01*
X39453321Y-83593036D01*
X39435348Y-83573060D01*
X39333782Y-83419284D01*
X39272966Y-83250260D01*
X39259198Y-83134354D01*
X39692791Y-83134354D01*
X39720263Y-83222073D01*
X39789396Y-83311563D01*
X39887307Y-83390063D01*
X40001116Y-83444815D01*
X40008619Y-83447205D01*
X40134349Y-83479393D01*
X40231523Y-83485452D01*
X40321454Y-83465695D01*
X40356181Y-83452315D01*
X40440319Y-83400932D01*
X40522052Y-83323788D01*
X40593826Y-83232578D01*
X40648086Y-83138993D01*
X40677276Y-83054729D01*
X40673842Y-82991477D01*
X40663583Y-82976517D01*
X40616173Y-82951820D01*
X40527721Y-82923683D01*
X40413231Y-82895369D01*
X40287707Y-82870139D01*
X40166151Y-82851258D01*
X40063567Y-82841987D01*
X40042988Y-82841554D01*
X39889830Y-82856276D01*
X39782252Y-82902482D01*
X39717534Y-82982444D01*
X39692955Y-83098437D01*
X39692791Y-83134354D01*
X39259198Y-83134354D01*
X39252310Y-83076374D01*
X39271224Y-82908012D01*
X39329119Y-82755561D01*
X39425405Y-82629407D01*
X39491916Y-82576684D01*
X39604828Y-82516656D01*
X39732186Y-82478088D01*
X39881269Y-82460798D01*
X40059354Y-82464601D01*
X40273719Y-82489316D01*
X40531642Y-82534759D01*
X40601117Y-82548787D01*
X40812122Y-82592259D01*
X40876283Y-82517667D01*
X40932959Y-82416078D01*
X40938832Y-82310891D01*
X40898353Y-82210042D01*
X40815973Y-82121464D01*
X40696144Y-82053093D01*
X40598747Y-82022902D01*
X40493203Y-82004248D01*
X40406655Y-82005371D01*
X40306560Y-82027378D01*
X40284771Y-82033591D01*
X40169651Y-82064499D01*
X40092418Y-82075546D01*
X40037708Y-82065599D01*
X39990162Y-82033526D01*
X39965495Y-82010061D01*
X39907910Y-81921549D01*
X39900973Y-81830481D01*
X39939923Y-81745066D01*
X40020000Y-81673515D01*
X40136445Y-81624040D01*
X40196492Y-81611601D01*
X40416419Y-81599095D01*
X40635722Y-81623957D01*
G36*
X42465815Y-82576600D02*
G01*
X42555879Y-82620919D01*
X42654925Y-82682052D01*
X42746295Y-82749717D01*
X42813326Y-82813627D01*
X42863171Y-82879339D01*
X42895845Y-82943210D01*
X42909528Y-83011505D01*
X42902399Y-83090489D01*
X42872639Y-83186425D01*
X42818426Y-83305577D01*
X42737941Y-83454210D01*
X42629364Y-83638588D01*
X42522934Y-83812980D01*
X42402588Y-84007914D01*
X42308630Y-84160318D01*
X42238692Y-84276233D01*
X42190407Y-84361699D01*
X42161405Y-84422757D01*
X42149318Y-84465446D01*
X42151778Y-84495808D01*
X42166417Y-84519881D01*
X42190866Y-84543708D01*
X42222758Y-84573327D01*
X42224237Y-84574800D01*
X42295673Y-84664421D01*
X42323226Y-84743114D01*
X42323334Y-84747564D01*
X42302183Y-84817745D01*
X42249680Y-84892798D01*
X42182249Y-84954693D01*
X42116316Y-84985399D01*
X42105928Y-84986222D01*
X42063969Y-84972518D01*
X41983633Y-84934797D01*
X41874905Y-84878149D01*
X41747771Y-84807664D01*
X41687480Y-84772940D01*
X41554620Y-84693624D01*
X41436312Y-84619459D01*
X41342686Y-84557060D01*
X41283871Y-84513038D01*
X41272056Y-84501703D01*
X41228720Y-84411421D01*
X41233185Y-84312341D01*
X41279892Y-84229886D01*
X41370239Y-84163698D01*
X41471068Y-84151228D01*
X41584950Y-84190297D01*
X41658001Y-84221180D01*
X41712276Y-84231398D01*
X41723620Y-84228566D01*
X41747554Y-84199086D01*
X41794380Y-84129720D01*
X41858845Y-84029156D01*
X41935702Y-83906081D01*
X42019700Y-83769182D01*
X42105589Y-83627146D01*
X42188119Y-83488660D01*
X42262041Y-83362413D01*
X42322105Y-83257089D01*
X42363061Y-83181378D01*
X42379658Y-83143966D01*
X42379778Y-83142781D01*
X42360362Y-83107338D01*
X42310346Y-83049959D01*
X42263355Y-83004259D01*
X42196236Y-82938377D01*
X42164600Y-82889365D01*
X42159497Y-82839282D01*
X42164507Y-82806086D01*
X42197333Y-82727382D01*
X42257138Y-82649106D01*
X42328111Y-82587728D01*
X42394441Y-82559713D01*
X42401390Y-82559376D01*
X42465815Y-82576600D01*
X42465815Y-82576600D01*
G37*
X42465815Y-82576600D02*
X42555879Y-82620919D01*
X42654925Y-82682052D01*
X42746295Y-82749717D01*
X42813326Y-82813627D01*
X42863171Y-82879339D01*
X42895845Y-82943210D01*
X42909528Y-83011505D01*
X42902399Y-83090489D01*
X42872639Y-83186425D01*
X42818426Y-83305577D01*
X42737941Y-83454210D01*
X42629364Y-83638588D01*
X42522934Y-83812980D01*
X42402588Y-84007914D01*
X42308630Y-84160318D01*
X42238692Y-84276233D01*
X42190407Y-84361699D01*
X42161405Y-84422757D01*
X42149318Y-84465446D01*
X42151778Y-84495808D01*
X42166417Y-84519881D01*
X42190866Y-84543708D01*
X42222758Y-84573327D01*
X42224237Y-84574800D01*
X42295673Y-84664421D01*
X42323226Y-84743114D01*
X42323334Y-84747564D01*
X42302183Y-84817745D01*
X42249680Y-84892798D01*
X42182249Y-84954693D01*
X42116316Y-84985399D01*
X42105928Y-84986222D01*
X42063969Y-84972518D01*
X41983633Y-84934797D01*
X41874905Y-84878149D01*
X41747771Y-84807664D01*
X41687480Y-84772940D01*
X41554620Y-84693624D01*
X41436312Y-84619459D01*
X41342686Y-84557060D01*
X41283871Y-84513038D01*
X41272056Y-84501703D01*
X41228720Y-84411421D01*
X41233185Y-84312341D01*
X41279892Y-84229886D01*
X41370239Y-84163698D01*
X41471068Y-84151228D01*
X41584950Y-84190297D01*
X41658001Y-84221180D01*
X41712276Y-84231398D01*
X41723620Y-84228566D01*
X41747554Y-84199086D01*
X41794380Y-84129720D01*
X41858845Y-84029156D01*
X41935702Y-83906081D01*
X42019700Y-83769182D01*
X42105589Y-83627146D01*
X42188119Y-83488660D01*
X42262041Y-83362413D01*
X42322105Y-83257089D01*
X42363061Y-83181378D01*
X42379658Y-83143966D01*
X42379778Y-83142781D01*
X42360362Y-83107338D01*
X42310346Y-83049959D01*
X42263355Y-83004259D01*
X42196236Y-82938377D01*
X42164600Y-82889365D01*
X42159497Y-82839282D01*
X42164507Y-82806086D01*
X42197333Y-82727382D01*
X42257138Y-82649106D01*
X42328111Y-82587728D01*
X42394441Y-82559713D01*
X42401390Y-82559376D01*
X42465815Y-82576600D01*
G36*
X29436003Y-82547188D02*
G01*
X29773429Y-82549192D01*
X30095451Y-82552597D01*
X30394087Y-82557403D01*
X30661356Y-82563610D01*
X30889276Y-82571218D01*
X31069866Y-82580228D01*
X31090889Y-82581599D01*
X32028539Y-82654332D01*
X32918211Y-82742840D01*
X33766410Y-82848159D01*
X34579645Y-82971323D01*
X35364422Y-83113369D01*
X36127248Y-83275331D01*
X36874630Y-83458244D01*
X37266945Y-83564103D01*
X37936130Y-83760867D01*
X38561735Y-83967093D01*
X39156425Y-84187531D01*
X39732867Y-84426930D01*
X40303727Y-84690040D01*
X40418334Y-84745920D01*
X40875127Y-84978670D01*
X41284703Y-85205318D01*
X41655084Y-85431357D01*
X41994294Y-85662275D01*
X42310358Y-85903563D01*
X42611298Y-86160712D01*
X42905138Y-86439212D01*
X42931723Y-86465725D01*
X43117405Y-86655630D01*
X43268340Y-86819644D01*
X43393237Y-86967897D01*
X43500805Y-87110518D01*
X43559379Y-87195689D01*
X43791192Y-87581023D01*
X43971382Y-87962409D01*
X44098641Y-88336791D01*
X44154274Y-88585802D01*
X44158702Y-88639764D01*
X44162966Y-88749474D01*
X44167060Y-88914235D01*
X44170976Y-89133351D01*
X44174708Y-89406127D01*
X44178251Y-89731865D01*
X44181597Y-90109870D01*
X44184741Y-90539445D01*
X44187676Y-91019894D01*
X44190396Y-91550520D01*
X44192894Y-92130627D01*
X44195163Y-92759520D01*
X44196553Y-93207812D01*
X44198355Y-93805033D01*
X44200054Y-94348453D01*
X44201550Y-94840715D01*
X44202741Y-95284464D01*
X44203527Y-95682342D01*
X44203808Y-96036994D01*
X44203482Y-96351063D01*
X44202449Y-96627192D01*
X44200609Y-96868024D01*
X44197861Y-97076205D01*
X44194104Y-97254376D01*
X44189237Y-97405182D01*
X44183160Y-97531266D01*
X44175773Y-97635272D01*
X44166974Y-97719843D01*
X44156663Y-97787622D01*
X44144739Y-97841254D01*
X44131102Y-97883382D01*
X44115651Y-97916649D01*
X44098285Y-97943699D01*
X44078904Y-97967176D01*
X44057407Y-97989722D01*
X44033694Y-98013982D01*
X44012704Y-98036804D01*
X43895637Y-98141303D01*
X43737434Y-98241603D01*
X43553268Y-98329561D01*
X43358307Y-98397030D01*
X43325222Y-98405866D01*
X43065277Y-98455194D01*
X42772925Y-98482164D01*
X42467098Y-98486800D01*
X42166728Y-98469129D01*
X41890746Y-98429174D01*
X41779094Y-98403812D01*
X41543899Y-98321765D01*
X41337135Y-98207344D01*
X41166675Y-98066284D01*
X41040390Y-97904316D01*
X41007000Y-97841445D01*
X40940996Y-97700333D01*
X40940720Y-96142122D01*
X40940445Y-94583910D01*
X40399499Y-94850766D01*
X39719140Y-95163870D01*
X38990427Y-95456591D01*
X38218052Y-95727834D01*
X37406705Y-95976506D01*
X36561079Y-96201513D01*
X35685865Y-96401760D01*
X34785756Y-96576154D01*
X33865442Y-96723601D01*
X32929615Y-96843007D01*
X31982967Y-96933279D01*
X31260222Y-96981669D01*
X31079156Y-96991949D01*
X30911994Y-97002174D01*
X30768917Y-97011661D01*
X30660108Y-97019732D01*
X30595750Y-97025705D01*
X30589945Y-97026465D01*
X30498222Y-97039669D01*
X30498222Y-99311185D01*
X30498301Y-99731840D01*
X30498344Y-100099872D01*
X30498062Y-100419104D01*
X30497168Y-100693358D01*
X30495373Y-100926455D01*
X30492388Y-101122217D01*
X30487924Y-101284467D01*
X30481694Y-101417025D01*
X30473408Y-101523714D01*
X30462778Y-101608355D01*
X30449516Y-101674771D01*
X30433333Y-101726782D01*
X30413940Y-101768212D01*
X30391049Y-101802881D01*
X30364371Y-101834612D01*
X30333618Y-101867226D01*
X30302777Y-101899887D01*
X30149617Y-102028765D01*
X29950308Y-102137207D01*
X29711893Y-102223660D01*
X29441413Y-102286569D01*
X29145913Y-102324382D01*
X28832434Y-102335544D01*
X28508020Y-102318502D01*
X28438591Y-102311128D01*
X28140259Y-102257982D01*
X27879301Y-102172883D01*
X27658848Y-102057592D01*
X27482034Y-101913873D01*
X27351992Y-101743486D01*
X27319993Y-101681960D01*
X27253218Y-101538556D01*
X27253210Y-101466036D01*
X27704222Y-101466036D01*
X27793273Y-101567458D01*
X27903566Y-101668645D01*
X28039385Y-101746427D01*
X28207085Y-101802621D01*
X28413024Y-101839043D01*
X28663557Y-101857511D01*
X28819000Y-101860654D01*
X28977121Y-101859132D01*
X29133337Y-101853477D01*
X29269218Y-101844595D01*
X29363311Y-101833893D01*
X29565311Y-101788948D01*
X29743922Y-101725483D01*
X29886779Y-101648526D01*
X29954945Y-101593312D01*
X30046667Y-101501867D01*
X30046664Y-99276544D01*
X30046662Y-97051222D01*
X27704222Y-97040950D01*
X27704222Y-101466036D01*
X27253210Y-101466036D01*
X27252943Y-99275969D01*
X27252667Y-97013382D01*
X27076278Y-96997384D01*
X26981774Y-96989358D01*
X26847417Y-96978665D01*
X26689662Y-96966583D01*
X26524963Y-96954388D01*
X26490667Y-96951906D01*
X25518483Y-96866177D01*
X24559348Y-96750502D01*
X23617617Y-96605939D01*
X22697649Y-96433546D01*
X21803799Y-96234384D01*
X20940426Y-96009511D01*
X20111886Y-95759986D01*
X19322536Y-95486867D01*
X18576732Y-95191214D01*
X17878833Y-94874085D01*
X17817434Y-94843991D01*
X17658733Y-94765969D01*
X17517789Y-94697189D01*
X17402209Y-94641320D01*
X17319600Y-94602032D01*
X17277567Y-94582994D01*
X17273950Y-94581778D01*
X17271736Y-94609160D01*
X17269646Y-94687949D01*
X17267719Y-94813107D01*
X17265993Y-94979595D01*
X17264507Y-95182377D01*
X17263300Y-95416413D01*
X17262410Y-95676666D01*
X17261877Y-95958099D01*
X17261735Y-96169278D01*
X17261470Y-97756778D01*
X17178499Y-97901440D01*
X17059176Y-98061880D01*
X16899383Y-98195534D01*
X16696638Y-98303525D01*
X16448455Y-98386977D01*
X16152351Y-98447015D01*
X15907711Y-98476410D01*
X15590556Y-98490710D01*
X15276815Y-98476939D01*
X14985428Y-98436349D01*
X14855861Y-98406869D01*
X14628715Y-98328159D01*
X14425470Y-98220376D01*
X14255017Y-98089875D01*
X14126249Y-97943010D01*
X14071010Y-97846002D01*
X14063845Y-97828757D01*
X14057350Y-97808300D01*
X14051493Y-97781913D01*
X14046240Y-97746875D01*
X14041558Y-97700468D01*
X14037414Y-97639972D01*
X14033774Y-97562669D01*
X14030604Y-97465839D01*
X14027872Y-97346763D01*
X14025544Y-97202721D01*
X14023586Y-97030996D01*
X14021966Y-96828867D01*
X14020650Y-96593615D01*
X14019604Y-96322521D01*
X14019484Y-96276348D01*
X14472424Y-96276348D01*
X14472700Y-96580115D01*
X14473262Y-96852741D01*
X14474101Y-97090272D01*
X14475206Y-97288755D01*
X14476570Y-97444237D01*
X14478183Y-97552766D01*
X14480035Y-97610387D01*
X14480842Y-97618302D01*
X14531646Y-97715112D01*
X14632272Y-97806163D01*
X14776121Y-97887352D01*
X14956595Y-97954580D01*
X15069618Y-97984241D01*
X15182085Y-98000839D01*
X15335206Y-98011059D01*
X15514738Y-98015191D01*
X15706439Y-98013525D01*
X15896067Y-98006351D01*
X16069380Y-97993958D01*
X16212135Y-97976637D01*
X16295222Y-97959297D01*
X16475905Y-97897213D01*
X16622452Y-97824993D01*
X16725653Y-97747549D01*
X16753803Y-97714721D01*
X16765659Y-97696586D01*
X16775735Y-97675149D01*
X16784174Y-97645958D01*
X16791123Y-97604559D01*
X16796725Y-97546501D01*
X16801125Y-97467330D01*
X16804469Y-97362593D01*
X16806901Y-97227839D01*
X16808565Y-97058615D01*
X16809607Y-96850467D01*
X16810171Y-96598943D01*
X16810402Y-96299591D01*
X16810445Y-95972492D01*
X16810445Y-94309809D01*
X16450611Y-94066578D01*
X15999772Y-93743816D01*
X15601708Y-93420035D01*
X15252801Y-93091795D01*
X14949432Y-92755656D01*
X14687984Y-92408178D01*
X14655216Y-92359478D01*
X14482111Y-92098623D01*
X14474358Y-94828923D01*
X14473400Y-95217726D01*
X14472765Y-95591200D01*
X14472442Y-95945392D01*
X14472424Y-96276348D01*
X14019484Y-96276348D01*
X14018795Y-96012866D01*
X14018190Y-95661931D01*
X14017756Y-95266997D01*
X14017458Y-94825344D01*
X14017264Y-94334253D01*
X14017140Y-93791006D01*
X14017088Y-93452889D01*
X14017199Y-92847587D01*
X14017697Y-92277973D01*
X14018572Y-91745805D01*
X14019813Y-91252840D01*
X14021023Y-90910192D01*
X14528401Y-90910192D01*
X14545370Y-90996703D01*
X14582441Y-91134627D01*
X14593416Y-91172804D01*
X14733073Y-91557422D01*
X14926633Y-91932890D01*
X15174463Y-92299646D01*
X15476927Y-92658126D01*
X15834391Y-93008767D01*
X16247219Y-93352006D01*
X16669334Y-93656943D01*
X17232445Y-94012043D01*
X17846244Y-94347758D01*
X18508129Y-94663314D01*
X19215500Y-94957937D01*
X19965756Y-95230850D01*
X20756295Y-95481281D01*
X21584517Y-95708453D01*
X22447821Y-95911592D01*
X23343605Y-96089924D01*
X24269269Y-96242672D01*
X25222212Y-96369063D01*
X26067334Y-96456609D01*
X26207104Y-96468937D01*
X26345438Y-96480396D01*
X26490132Y-96491514D01*
X26648982Y-96502818D01*
X26829786Y-96514837D01*
X27040338Y-96528099D01*
X27288435Y-96543132D01*
X27581873Y-96560464D01*
X27718334Y-96568429D01*
X27839543Y-96573099D01*
X28009921Y-96576205D01*
X28222213Y-96577847D01*
X28469169Y-96578125D01*
X28743535Y-96577138D01*
X29038059Y-96574986D01*
X29345489Y-96571769D01*
X29658573Y-96567585D01*
X29970058Y-96562535D01*
X30272691Y-96556718D01*
X30559221Y-96550234D01*
X30822396Y-96543182D01*
X31054962Y-96535662D01*
X31249667Y-96527773D01*
X31399259Y-96519614D01*
X31429556Y-96517485D01*
X32234575Y-96449825D01*
X32995989Y-96370122D01*
X33725661Y-96276777D01*
X34435454Y-96168191D01*
X35137232Y-96042765D01*
X35528016Y-95965218D01*
X36361002Y-95779373D01*
X37164200Y-95570343D01*
X37934773Y-95339297D01*
X38669887Y-95087404D01*
X39366707Y-94815832D01*
X40022396Y-94525751D01*
X40402751Y-94334603D01*
X41385451Y-94334603D01*
X41426027Y-97672111D01*
X41499029Y-97749794D01*
X41623792Y-97847087D01*
X41796137Y-97926852D01*
X41989062Y-97981542D01*
X42127590Y-98002252D01*
X42305141Y-98015145D01*
X42504833Y-98020193D01*
X42709784Y-98017367D01*
X42903113Y-98006638D01*
X43067939Y-97987980D01*
X43095429Y-97983396D01*
X43275602Y-97940355D01*
X43439634Y-97880635D01*
X43574715Y-97809967D01*
X43668033Y-97734084D01*
X43677325Y-97723004D01*
X43686766Y-97710124D01*
X43695104Y-97694692D01*
X43702406Y-97673322D01*
X43708739Y-97642628D01*
X43714170Y-97599223D01*
X43718767Y-97539722D01*
X43722598Y-97460737D01*
X43725728Y-97358884D01*
X43728227Y-97230775D01*
X43730160Y-97073025D01*
X43731596Y-96882247D01*
X43732602Y-96655056D01*
X43733245Y-96388064D01*
X43733592Y-96077886D01*
X43733711Y-95721135D01*
X43733669Y-95314426D01*
X43733547Y-94895472D01*
X43733259Y-94423499D01*
X43732699Y-94005291D01*
X43731830Y-93638167D01*
X43730619Y-93319448D01*
X43729030Y-93046455D01*
X43727028Y-92816507D01*
X43724579Y-92626926D01*
X43721647Y-92475030D01*
X43718198Y-92358142D01*
X43714197Y-92273580D01*
X43709608Y-92218666D01*
X43704398Y-92190719D01*
X43698531Y-92187061D01*
X43698269Y-92187399D01*
X43668716Y-92228788D01*
X43615022Y-92304990D01*
X43545282Y-92404486D01*
X43480445Y-92497320D01*
X43365450Y-92648236D01*
X43216299Y-92822942D01*
X43043451Y-93010651D01*
X42857363Y-93200575D01*
X42668492Y-93381925D01*
X42487296Y-93543914D01*
X42379778Y-93632769D01*
X42267016Y-93719316D01*
X42123333Y-93825183D01*
X41964944Y-93938647D01*
X41808067Y-94047983D01*
X41762670Y-94078939D01*
X41385451Y-94334603D01*
X40402751Y-94334603D01*
X40634121Y-94218328D01*
X41199045Y-93894732D01*
X41714333Y-93556133D01*
X42125522Y-93245836D01*
X42284470Y-93109790D01*
X42458454Y-92948178D01*
X42635476Y-92773195D01*
X42803537Y-92597033D01*
X42950637Y-92431887D01*
X43060435Y-92295778D01*
X43243015Y-92028990D01*
X43403028Y-91749574D01*
X43535025Y-91469170D01*
X43633559Y-91199417D01*
X43693179Y-90951956D01*
X43695112Y-90939920D01*
X43714767Y-90814111D01*
X43579406Y-91011667D01*
X43275314Y-91409762D01*
X42917407Y-91795879D01*
X42507207Y-92169167D01*
X42046234Y-92528775D01*
X41536010Y-92873855D01*
X40978056Y-93203556D01*
X40373894Y-93517028D01*
X39725045Y-93813421D01*
X39033030Y-94091885D01*
X38299370Y-94351569D01*
X37525588Y-94591625D01*
X36834111Y-94780465D01*
X35944210Y-94993628D01*
X35049798Y-95176315D01*
X34139770Y-95330358D01*
X33203020Y-95457592D01*
X32228444Y-95559847D01*
X31979889Y-95581530D01*
X30992991Y-95648201D01*
X29974228Y-95686243D01*
X28940382Y-95695655D01*
X27908234Y-95676435D01*
X26894566Y-95628584D01*
X26250778Y-95581896D01*
X25328405Y-95492041D01*
X24427630Y-95378119D01*
X23550475Y-95240923D01*
X22698965Y-95081246D01*
X21875125Y-94899881D01*
X21080978Y-94697622D01*
X20318549Y-94475261D01*
X19589862Y-94233593D01*
X18896942Y-93973409D01*
X18241811Y-93695504D01*
X17626496Y-93400671D01*
X17053019Y-93089702D01*
X16523406Y-92763392D01*
X16039680Y-92422533D01*
X15603865Y-92067919D01*
X15217986Y-91700342D01*
X14884067Y-91320597D01*
X14682836Y-91048707D01*
X14608749Y-90944351D01*
X14559025Y-90885494D01*
X14532597Y-90873615D01*
X14528401Y-90910192D01*
X14021023Y-90910192D01*
X14021410Y-90800835D01*
X14023352Y-90391547D01*
X14025628Y-90026734D01*
X14028228Y-89708153D01*
X14031140Y-89437560D01*
X14034355Y-89216715D01*
X14035387Y-89166830D01*
X14500030Y-89166830D01*
X14511377Y-89408389D01*
X14536507Y-89584709D01*
X14645313Y-89979852D01*
X14809725Y-90366213D01*
X15029562Y-90743611D01*
X15304645Y-91111867D01*
X15634793Y-91470801D01*
X16019827Y-91820233D01*
X16459567Y-92159982D01*
X16953833Y-92489870D01*
X17502445Y-92809716D01*
X18038111Y-93086688D01*
X18783100Y-93426125D01*
X19575474Y-93738466D01*
X20412810Y-94023164D01*
X21292682Y-94279673D01*
X22212666Y-94507444D01*
X23170337Y-94705931D01*
X24163270Y-94874588D01*
X25189039Y-95012866D01*
X26245222Y-95120220D01*
X27329391Y-95196102D01*
X27407889Y-95200306D01*
X27585139Y-95207597D01*
X27809788Y-95213669D01*
X28072802Y-95218516D01*
X28365151Y-95222131D01*
X28677801Y-95224509D01*
X29001719Y-95225643D01*
X29327874Y-95225527D01*
X29647232Y-95224155D01*
X29950761Y-95221522D01*
X30229428Y-95217619D01*
X30474201Y-95212443D01*
X30676047Y-95205986D01*
X30752222Y-95202573D01*
X31859160Y-95129676D01*
X32936082Y-95024483D01*
X33980863Y-94887467D01*
X34991383Y-94719102D01*
X35965518Y-94519862D01*
X36901145Y-94290220D01*
X37796142Y-94030650D01*
X38648387Y-93741625D01*
X39455755Y-93423620D01*
X40164334Y-93102350D01*
X40756817Y-92796654D01*
X41297227Y-92479561D01*
X41785133Y-92151499D01*
X42220107Y-91812895D01*
X42601719Y-91464178D01*
X42929540Y-91105775D01*
X43203141Y-90738115D01*
X43422093Y-90361625D01*
X43585966Y-89976732D01*
X43694331Y-89583866D01*
X43694448Y-89583287D01*
X43721959Y-89376330D01*
X43730439Y-89137231D01*
X43720647Y-88886712D01*
X43693342Y-88645491D01*
X43652868Y-88447560D01*
X43535255Y-88101199D01*
X43366126Y-87757298D01*
X43144243Y-87413896D01*
X42868369Y-87069031D01*
X42606737Y-86789534D01*
X42276700Y-86478293D01*
X41924312Y-86186654D01*
X41542675Y-85909910D01*
X41124894Y-85643351D01*
X40664072Y-85382268D01*
X40192556Y-85141090D01*
X39451210Y-84803939D01*
X38664541Y-84494679D01*
X37836437Y-84213555D01*
X36970787Y-83960815D01*
X36071480Y-83736704D01*
X35142403Y-83541470D01*
X34187447Y-83375359D01*
X33210498Y-83238618D01*
X32215447Y-83131492D01*
X31206181Y-83054229D01*
X30186588Y-83007074D01*
X29160559Y-82990276D01*
X28131980Y-83004080D01*
X27104742Y-83048732D01*
X26082731Y-83124479D01*
X25069837Y-83231569D01*
X24069949Y-83370246D01*
X23086955Y-83540758D01*
X22124744Y-83743352D01*
X21314014Y-83944178D01*
X20580963Y-84153582D01*
X19872613Y-84384851D01*
X19193383Y-84636024D01*
X18547691Y-84905141D01*
X17939957Y-85190242D01*
X17374599Y-85489367D01*
X16856037Y-85800556D01*
X16388690Y-86121849D01*
X16365306Y-86139217D01*
X16155601Y-86305025D01*
X15936798Y-86494836D01*
X15718536Y-86699041D01*
X15510454Y-86908030D01*
X15322191Y-87112195D01*
X15163385Y-87301927D01*
X15064862Y-87435635D01*
X14900269Y-87700717D01*
X14757067Y-87976834D01*
X14643320Y-88247218D01*
X14580207Y-88443445D01*
X14535249Y-88663353D01*
X14508256Y-88911483D01*
X14500030Y-89166830D01*
X14035387Y-89166830D01*
X14037861Y-89047372D01*
X14041647Y-88931291D01*
X14044919Y-88877455D01*
X14105088Y-88478804D01*
X14209804Y-88097228D01*
X14361892Y-87725689D01*
X14564175Y-87357149D01*
X14786370Y-87029149D01*
X14889829Y-86900438D01*
X15028255Y-86745823D01*
X15192319Y-86574380D01*
X15372692Y-86395190D01*
X15560044Y-86217329D01*
X15745049Y-86049878D01*
X15918376Y-85901914D01*
X16056683Y-85792907D01*
X16504576Y-85480765D01*
X17002387Y-85174884D01*
X17543674Y-84878456D01*
X18121995Y-84594669D01*
X18730908Y-84326714D01*
X19363969Y-84077780D01*
X19905389Y-83887145D01*
X20686500Y-83642237D01*
X21487041Y-83422811D01*
X22311693Y-83228022D01*
X23165135Y-83057025D01*
X24052049Y-82908976D01*
X24977116Y-82783030D01*
X25945015Y-82678343D01*
X26960427Y-82594069D01*
X27139778Y-82581599D01*
X27313115Y-82572394D01*
X27534898Y-82564590D01*
X27797145Y-82558186D01*
X28091876Y-82553185D01*
X28411108Y-82549584D01*
X28746861Y-82547384D01*
X29091153Y-82546586D01*
X29436003Y-82547188D01*
X29436003Y-82547188D01*
G37*
X29436003Y-82547188D02*
X29773429Y-82549192D01*
X30095451Y-82552597D01*
X30394087Y-82557403D01*
X30661356Y-82563610D01*
X30889276Y-82571218D01*
X31069866Y-82580228D01*
X31090889Y-82581599D01*
X32028539Y-82654332D01*
X32918211Y-82742840D01*
X33766410Y-82848159D01*
X34579645Y-82971323D01*
X35364422Y-83113369D01*
X36127248Y-83275331D01*
X36874630Y-83458244D01*
X37266945Y-83564103D01*
X37936130Y-83760867D01*
X38561735Y-83967093D01*
X39156425Y-84187531D01*
X39732867Y-84426930D01*
X40303727Y-84690040D01*
X40418334Y-84745920D01*
X40875127Y-84978670D01*
X41284703Y-85205318D01*
X41655084Y-85431357D01*
X41994294Y-85662275D01*
X42310358Y-85903563D01*
X42611298Y-86160712D01*
X42905138Y-86439212D01*
X42931723Y-86465725D01*
X43117405Y-86655630D01*
X43268340Y-86819644D01*
X43393237Y-86967897D01*
X43500805Y-87110518D01*
X43559379Y-87195689D01*
X43791192Y-87581023D01*
X43971382Y-87962409D01*
X44098641Y-88336791D01*
X44154274Y-88585802D01*
X44158702Y-88639764D01*
X44162966Y-88749474D01*
X44167060Y-88914235D01*
X44170976Y-89133351D01*
X44174708Y-89406127D01*
X44178251Y-89731865D01*
X44181597Y-90109870D01*
X44184741Y-90539445D01*
X44187676Y-91019894D01*
X44190396Y-91550520D01*
X44192894Y-92130627D01*
X44195163Y-92759520D01*
X44196553Y-93207812D01*
X44198355Y-93805033D01*
X44200054Y-94348453D01*
X44201550Y-94840715D01*
X44202741Y-95284464D01*
X44203527Y-95682342D01*
X44203808Y-96036994D01*
X44203482Y-96351063D01*
X44202449Y-96627192D01*
X44200609Y-96868024D01*
X44197861Y-97076205D01*
X44194104Y-97254376D01*
X44189237Y-97405182D01*
X44183160Y-97531266D01*
X44175773Y-97635272D01*
X44166974Y-97719843D01*
X44156663Y-97787622D01*
X44144739Y-97841254D01*
X44131102Y-97883382D01*
X44115651Y-97916649D01*
X44098285Y-97943699D01*
X44078904Y-97967176D01*
X44057407Y-97989722D01*
X44033694Y-98013982D01*
X44012704Y-98036804D01*
X43895637Y-98141303D01*
X43737434Y-98241603D01*
X43553268Y-98329561D01*
X43358307Y-98397030D01*
X43325222Y-98405866D01*
X43065277Y-98455194D01*
X42772925Y-98482164D01*
X42467098Y-98486800D01*
X42166728Y-98469129D01*
X41890746Y-98429174D01*
X41779094Y-98403812D01*
X41543899Y-98321765D01*
X41337135Y-98207344D01*
X41166675Y-98066284D01*
X41040390Y-97904316D01*
X41007000Y-97841445D01*
X40940996Y-97700333D01*
X40940720Y-96142122D01*
X40940445Y-94583910D01*
X40399499Y-94850766D01*
X39719140Y-95163870D01*
X38990427Y-95456591D01*
X38218052Y-95727834D01*
X37406705Y-95976506D01*
X36561079Y-96201513D01*
X35685865Y-96401760D01*
X34785756Y-96576154D01*
X33865442Y-96723601D01*
X32929615Y-96843007D01*
X31982967Y-96933279D01*
X31260222Y-96981669D01*
X31079156Y-96991949D01*
X30911994Y-97002174D01*
X30768917Y-97011661D01*
X30660108Y-97019732D01*
X30595750Y-97025705D01*
X30589945Y-97026465D01*
X30498222Y-97039669D01*
X30498222Y-99311185D01*
X30498301Y-99731840D01*
X30498344Y-100099872D01*
X30498062Y-100419104D01*
X30497168Y-100693358D01*
X30495373Y-100926455D01*
X30492388Y-101122217D01*
X30487924Y-101284467D01*
X30481694Y-101417025D01*
X30473408Y-101523714D01*
X30462778Y-101608355D01*
X30449516Y-101674771D01*
X30433333Y-101726782D01*
X30413940Y-101768212D01*
X30391049Y-101802881D01*
X30364371Y-101834612D01*
X30333618Y-101867226D01*
X30302777Y-101899887D01*
X30149617Y-102028765D01*
X29950308Y-102137207D01*
X29711893Y-102223660D01*
X29441413Y-102286569D01*
X29145913Y-102324382D01*
X28832434Y-102335544D01*
X28508020Y-102318502D01*
X28438591Y-102311128D01*
X28140259Y-102257982D01*
X27879301Y-102172883D01*
X27658848Y-102057592D01*
X27482034Y-101913873D01*
X27351992Y-101743486D01*
X27319993Y-101681960D01*
X27253218Y-101538556D01*
X27253210Y-101466036D01*
X27704222Y-101466036D01*
X27793273Y-101567458D01*
X27903566Y-101668645D01*
X28039385Y-101746427D01*
X28207085Y-101802621D01*
X28413024Y-101839043D01*
X28663557Y-101857511D01*
X28819000Y-101860654D01*
X28977121Y-101859132D01*
X29133337Y-101853477D01*
X29269218Y-101844595D01*
X29363311Y-101833893D01*
X29565311Y-101788948D01*
X29743922Y-101725483D01*
X29886779Y-101648526D01*
X29954945Y-101593312D01*
X30046667Y-101501867D01*
X30046664Y-99276544D01*
X30046662Y-97051222D01*
X27704222Y-97040950D01*
X27704222Y-101466036D01*
X27253210Y-101466036D01*
X27252943Y-99275969D01*
X27252667Y-97013382D01*
X27076278Y-96997384D01*
X26981774Y-96989358D01*
X26847417Y-96978665D01*
X26689662Y-96966583D01*
X26524963Y-96954388D01*
X26490667Y-96951906D01*
X25518483Y-96866177D01*
X24559348Y-96750502D01*
X23617617Y-96605939D01*
X22697649Y-96433546D01*
X21803799Y-96234384D01*
X20940426Y-96009511D01*
X20111886Y-95759986D01*
X19322536Y-95486867D01*
X18576732Y-95191214D01*
X17878833Y-94874085D01*
X17817434Y-94843991D01*
X17658733Y-94765969D01*
X17517789Y-94697189D01*
X17402209Y-94641320D01*
X17319600Y-94602032D01*
X17277567Y-94582994D01*
X17273950Y-94581778D01*
X17271736Y-94609160D01*
X17269646Y-94687949D01*
X17267719Y-94813107D01*
X17265993Y-94979595D01*
X17264507Y-95182377D01*
X17263300Y-95416413D01*
X17262410Y-95676666D01*
X17261877Y-95958099D01*
X17261735Y-96169278D01*
X17261470Y-97756778D01*
X17178499Y-97901440D01*
X17059176Y-98061880D01*
X16899383Y-98195534D01*
X16696638Y-98303525D01*
X16448455Y-98386977D01*
X16152351Y-98447015D01*
X15907711Y-98476410D01*
X15590556Y-98490710D01*
X15276815Y-98476939D01*
X14985428Y-98436349D01*
X14855861Y-98406869D01*
X14628715Y-98328159D01*
X14425470Y-98220376D01*
X14255017Y-98089875D01*
X14126249Y-97943010D01*
X14071010Y-97846002D01*
X14063845Y-97828757D01*
X14057350Y-97808300D01*
X14051493Y-97781913D01*
X14046240Y-97746875D01*
X14041558Y-97700468D01*
X14037414Y-97639972D01*
X14033774Y-97562669D01*
X14030604Y-97465839D01*
X14027872Y-97346763D01*
X14025544Y-97202721D01*
X14023586Y-97030996D01*
X14021966Y-96828867D01*
X14020650Y-96593615D01*
X14019604Y-96322521D01*
X14019484Y-96276348D01*
X14472424Y-96276348D01*
X14472700Y-96580115D01*
X14473262Y-96852741D01*
X14474101Y-97090272D01*
X14475206Y-97288755D01*
X14476570Y-97444237D01*
X14478183Y-97552766D01*
X14480035Y-97610387D01*
X14480842Y-97618302D01*
X14531646Y-97715112D01*
X14632272Y-97806163D01*
X14776121Y-97887352D01*
X14956595Y-97954580D01*
X15069618Y-97984241D01*
X15182085Y-98000839D01*
X15335206Y-98011059D01*
X15514738Y-98015191D01*
X15706439Y-98013525D01*
X15896067Y-98006351D01*
X16069380Y-97993958D01*
X16212135Y-97976637D01*
X16295222Y-97959297D01*
X16475905Y-97897213D01*
X16622452Y-97824993D01*
X16725653Y-97747549D01*
X16753803Y-97714721D01*
X16765659Y-97696586D01*
X16775735Y-97675149D01*
X16784174Y-97645958D01*
X16791123Y-97604559D01*
X16796725Y-97546501D01*
X16801125Y-97467330D01*
X16804469Y-97362593D01*
X16806901Y-97227839D01*
X16808565Y-97058615D01*
X16809607Y-96850467D01*
X16810171Y-96598943D01*
X16810402Y-96299591D01*
X16810445Y-95972492D01*
X16810445Y-94309809D01*
X16450611Y-94066578D01*
X15999772Y-93743816D01*
X15601708Y-93420035D01*
X15252801Y-93091795D01*
X14949432Y-92755656D01*
X14687984Y-92408178D01*
X14655216Y-92359478D01*
X14482111Y-92098623D01*
X14474358Y-94828923D01*
X14473400Y-95217726D01*
X14472765Y-95591200D01*
X14472442Y-95945392D01*
X14472424Y-96276348D01*
X14019484Y-96276348D01*
X14018795Y-96012866D01*
X14018190Y-95661931D01*
X14017756Y-95266997D01*
X14017458Y-94825344D01*
X14017264Y-94334253D01*
X14017140Y-93791006D01*
X14017088Y-93452889D01*
X14017199Y-92847587D01*
X14017697Y-92277973D01*
X14018572Y-91745805D01*
X14019813Y-91252840D01*
X14021023Y-90910192D01*
X14528401Y-90910192D01*
X14545370Y-90996703D01*
X14582441Y-91134627D01*
X14593416Y-91172804D01*
X14733073Y-91557422D01*
X14926633Y-91932890D01*
X15174463Y-92299646D01*
X15476927Y-92658126D01*
X15834391Y-93008767D01*
X16247219Y-93352006D01*
X16669334Y-93656943D01*
X17232445Y-94012043D01*
X17846244Y-94347758D01*
X18508129Y-94663314D01*
X19215500Y-94957937D01*
X19965756Y-95230850D01*
X20756295Y-95481281D01*
X21584517Y-95708453D01*
X22447821Y-95911592D01*
X23343605Y-96089924D01*
X24269269Y-96242672D01*
X25222212Y-96369063D01*
X26067334Y-96456609D01*
X26207104Y-96468937D01*
X26345438Y-96480396D01*
X26490132Y-96491514D01*
X26648982Y-96502818D01*
X26829786Y-96514837D01*
X27040338Y-96528099D01*
X27288435Y-96543132D01*
X27581873Y-96560464D01*
X27718334Y-96568429D01*
X27839543Y-96573099D01*
X28009921Y-96576205D01*
X28222213Y-96577847D01*
X28469169Y-96578125D01*
X28743535Y-96577138D01*
X29038059Y-96574986D01*
X29345489Y-96571769D01*
X29658573Y-96567585D01*
X29970058Y-96562535D01*
X30272691Y-96556718D01*
X30559221Y-96550234D01*
X30822396Y-96543182D01*
X31054962Y-96535662D01*
X31249667Y-96527773D01*
X31399259Y-96519614D01*
X31429556Y-96517485D01*
X32234575Y-96449825D01*
X32995989Y-96370122D01*
X33725661Y-96276777D01*
X34435454Y-96168191D01*
X35137232Y-96042765D01*
X35528016Y-95965218D01*
X36361002Y-95779373D01*
X37164200Y-95570343D01*
X37934773Y-95339297D01*
X38669887Y-95087404D01*
X39366707Y-94815832D01*
X40022396Y-94525751D01*
X40402751Y-94334603D01*
X41385451Y-94334603D01*
X41426027Y-97672111D01*
X41499029Y-97749794D01*
X41623792Y-97847087D01*
X41796137Y-97926852D01*
X41989062Y-97981542D01*
X42127590Y-98002252D01*
X42305141Y-98015145D01*
X42504833Y-98020193D01*
X42709784Y-98017367D01*
X42903113Y-98006638D01*
X43067939Y-97987980D01*
X43095429Y-97983396D01*
X43275602Y-97940355D01*
X43439634Y-97880635D01*
X43574715Y-97809967D01*
X43668033Y-97734084D01*
X43677325Y-97723004D01*
X43686766Y-97710124D01*
X43695104Y-97694692D01*
X43702406Y-97673322D01*
X43708739Y-97642628D01*
X43714170Y-97599223D01*
X43718767Y-97539722D01*
X43722598Y-97460737D01*
X43725728Y-97358884D01*
X43728227Y-97230775D01*
X43730160Y-97073025D01*
X43731596Y-96882247D01*
X43732602Y-96655056D01*
X43733245Y-96388064D01*
X43733592Y-96077886D01*
X43733711Y-95721135D01*
X43733669Y-95314426D01*
X43733547Y-94895472D01*
X43733259Y-94423499D01*
X43732699Y-94005291D01*
X43731830Y-93638167D01*
X43730619Y-93319448D01*
X43729030Y-93046455D01*
X43727028Y-92816507D01*
X43724579Y-92626926D01*
X43721647Y-92475030D01*
X43718198Y-92358142D01*
X43714197Y-92273580D01*
X43709608Y-92218666D01*
X43704398Y-92190719D01*
X43698531Y-92187061D01*
X43698269Y-92187399D01*
X43668716Y-92228788D01*
X43615022Y-92304990D01*
X43545282Y-92404486D01*
X43480445Y-92497320D01*
X43365450Y-92648236D01*
X43216299Y-92822942D01*
X43043451Y-93010651D01*
X42857363Y-93200575D01*
X42668492Y-93381925D01*
X42487296Y-93543914D01*
X42379778Y-93632769D01*
X42267016Y-93719316D01*
X42123333Y-93825183D01*
X41964944Y-93938647D01*
X41808067Y-94047983D01*
X41762670Y-94078939D01*
X41385451Y-94334603D01*
X40402751Y-94334603D01*
X40634121Y-94218328D01*
X41199045Y-93894732D01*
X41714333Y-93556133D01*
X42125522Y-93245836D01*
X42284470Y-93109790D01*
X42458454Y-92948178D01*
X42635476Y-92773195D01*
X42803537Y-92597033D01*
X42950637Y-92431887D01*
X43060435Y-92295778D01*
X43243015Y-92028990D01*
X43403028Y-91749574D01*
X43535025Y-91469170D01*
X43633559Y-91199417D01*
X43693179Y-90951956D01*
X43695112Y-90939920D01*
X43714767Y-90814111D01*
X43579406Y-91011667D01*
X43275314Y-91409762D01*
X42917407Y-91795879D01*
X42507207Y-92169167D01*
X42046234Y-92528775D01*
X41536010Y-92873855D01*
X40978056Y-93203556D01*
X40373894Y-93517028D01*
X39725045Y-93813421D01*
X39033030Y-94091885D01*
X38299370Y-94351569D01*
X37525588Y-94591625D01*
X36834111Y-94780465D01*
X35944210Y-94993628D01*
X35049798Y-95176315D01*
X34139770Y-95330358D01*
X33203020Y-95457592D01*
X32228444Y-95559847D01*
X31979889Y-95581530D01*
X30992991Y-95648201D01*
X29974228Y-95686243D01*
X28940382Y-95695655D01*
X27908234Y-95676435D01*
X26894566Y-95628584D01*
X26250778Y-95581896D01*
X25328405Y-95492041D01*
X24427630Y-95378119D01*
X23550475Y-95240923D01*
X22698965Y-95081246D01*
X21875125Y-94899881D01*
X21080978Y-94697622D01*
X20318549Y-94475261D01*
X19589862Y-94233593D01*
X18896942Y-93973409D01*
X18241811Y-93695504D01*
X17626496Y-93400671D01*
X17053019Y-93089702D01*
X16523406Y-92763392D01*
X16039680Y-92422533D01*
X15603865Y-92067919D01*
X15217986Y-91700342D01*
X14884067Y-91320597D01*
X14682836Y-91048707D01*
X14608749Y-90944351D01*
X14559025Y-90885494D01*
X14532597Y-90873615D01*
X14528401Y-90910192D01*
X14021023Y-90910192D01*
X14021410Y-90800835D01*
X14023352Y-90391547D01*
X14025628Y-90026734D01*
X14028228Y-89708153D01*
X14031140Y-89437560D01*
X14034355Y-89216715D01*
X14035387Y-89166830D01*
X14500030Y-89166830D01*
X14511377Y-89408389D01*
X14536507Y-89584709D01*
X14645313Y-89979852D01*
X14809725Y-90366213D01*
X15029562Y-90743611D01*
X15304645Y-91111867D01*
X15634793Y-91470801D01*
X16019827Y-91820233D01*
X16459567Y-92159982D01*
X16953833Y-92489870D01*
X17502445Y-92809716D01*
X18038111Y-93086688D01*
X18783100Y-93426125D01*
X19575474Y-93738466D01*
X20412810Y-94023164D01*
X21292682Y-94279673D01*
X22212666Y-94507444D01*
X23170337Y-94705931D01*
X24163270Y-94874588D01*
X25189039Y-95012866D01*
X26245222Y-95120220D01*
X27329391Y-95196102D01*
X27407889Y-95200306D01*
X27585139Y-95207597D01*
X27809788Y-95213669D01*
X28072802Y-95218516D01*
X28365151Y-95222131D01*
X28677801Y-95224509D01*
X29001719Y-95225643D01*
X29327874Y-95225527D01*
X29647232Y-95224155D01*
X29950761Y-95221522D01*
X30229428Y-95217619D01*
X30474201Y-95212443D01*
X30676047Y-95205986D01*
X30752222Y-95202573D01*
X31859160Y-95129676D01*
X32936082Y-95024483D01*
X33980863Y-94887467D01*
X34991383Y-94719102D01*
X35965518Y-94519862D01*
X36901145Y-94290220D01*
X37796142Y-94030650D01*
X38648387Y-93741625D01*
X39455755Y-93423620D01*
X40164334Y-93102350D01*
X40756817Y-92796654D01*
X41297227Y-92479561D01*
X41785133Y-92151499D01*
X42220107Y-91812895D01*
X42601719Y-91464178D01*
X42929540Y-91105775D01*
X43203141Y-90738115D01*
X43422093Y-90361625D01*
X43585966Y-89976732D01*
X43694331Y-89583866D01*
X43694448Y-89583287D01*
X43721959Y-89376330D01*
X43730439Y-89137231D01*
X43720647Y-88886712D01*
X43693342Y-88645491D01*
X43652868Y-88447560D01*
X43535255Y-88101199D01*
X43366126Y-87757298D01*
X43144243Y-87413896D01*
X42868369Y-87069031D01*
X42606737Y-86789534D01*
X42276700Y-86478293D01*
X41924312Y-86186654D01*
X41542675Y-85909910D01*
X41124894Y-85643351D01*
X40664072Y-85382268D01*
X40192556Y-85141090D01*
X39451210Y-84803939D01*
X38664541Y-84494679D01*
X37836437Y-84213555D01*
X36970787Y-83960815D01*
X36071480Y-83736704D01*
X35142403Y-83541470D01*
X34187447Y-83375359D01*
X33210498Y-83238618D01*
X32215447Y-83131492D01*
X31206181Y-83054229D01*
X30186588Y-83007074D01*
X29160559Y-82990276D01*
X28131980Y-83004080D01*
X27104742Y-83048732D01*
X26082731Y-83124479D01*
X25069837Y-83231569D01*
X24069949Y-83370246D01*
X23086955Y-83540758D01*
X22124744Y-83743352D01*
X21314014Y-83944178D01*
X20580963Y-84153582D01*
X19872613Y-84384851D01*
X19193383Y-84636024D01*
X18547691Y-84905141D01*
X17939957Y-85190242D01*
X17374599Y-85489367D01*
X16856037Y-85800556D01*
X16388690Y-86121849D01*
X16365306Y-86139217D01*
X16155601Y-86305025D01*
X15936798Y-86494836D01*
X15718536Y-86699041D01*
X15510454Y-86908030D01*
X15322191Y-87112195D01*
X15163385Y-87301927D01*
X15064862Y-87435635D01*
X14900269Y-87700717D01*
X14757067Y-87976834D01*
X14643320Y-88247218D01*
X14580207Y-88443445D01*
X14535249Y-88663353D01*
X14508256Y-88911483D01*
X14500030Y-89166830D01*
X14035387Y-89166830D01*
X14037861Y-89047372D01*
X14041647Y-88931291D01*
X14044919Y-88877455D01*
X14105088Y-88478804D01*
X14209804Y-88097228D01*
X14361892Y-87725689D01*
X14564175Y-87357149D01*
X14786370Y-87029149D01*
X14889829Y-86900438D01*
X15028255Y-86745823D01*
X15192319Y-86574380D01*
X15372692Y-86395190D01*
X15560044Y-86217329D01*
X15745049Y-86049878D01*
X15918376Y-85901914D01*
X16056683Y-85792907D01*
X16504576Y-85480765D01*
X17002387Y-85174884D01*
X17543674Y-84878456D01*
X18121995Y-84594669D01*
X18730908Y-84326714D01*
X19363969Y-84077780D01*
X19905389Y-83887145D01*
X20686500Y-83642237D01*
X21487041Y-83422811D01*
X22311693Y-83228022D01*
X23165135Y-83057025D01*
X24052049Y-82908976D01*
X24977116Y-82783030D01*
X25945015Y-82678343D01*
X26960427Y-82594069D01*
X27139778Y-82581599D01*
X27313115Y-82572394D01*
X27534898Y-82564590D01*
X27797145Y-82558186D01*
X28091876Y-82553185D01*
X28411108Y-82549584D01*
X28746861Y-82547384D01*
X29091153Y-82546586D01*
X29436003Y-82547188D01*
D11*
X39557000Y-62598000D02*
X39557000Y-61775530D01*
X39557000Y-59890470D02*
X39557000Y-59068000D01*
X39557000Y-61160470D02*
X39557000Y-60505530D01*
X34542000Y-62598000D02*
X39557000Y-62598000D01*
X33087000Y-59068000D02*
X39557000Y-59068000D01*
X34542000Y-62598000D02*
X34542000Y-62031471D01*
X34542000Y-60904529D02*
X34542000Y-60761471D01*
X34488529Y-60708000D02*
X34345471Y-60708000D01*
X33218529Y-60708000D02*
X33087000Y-60708000D01*
X33087000Y-60708000D02*
X33087000Y-60505530D01*
X33087000Y-59890470D02*
X33087000Y-59068000D01*
X33782000Y-62598000D02*
X33022000Y-62598000D01*
X33022000Y-62598000D02*
X33022000Y-61468000D01*
D12*
X38461904Y-20652380D02*
X38461904Y-21461904D01*
X38509523Y-21557142D01*
X38557142Y-21604761D01*
X38652380Y-21652380D01*
X38842857Y-21652380D01*
X38938095Y-21604761D01*
X38985714Y-21557142D01*
X39033333Y-21461904D01*
X39033333Y-20652380D01*
X39461904Y-21604761D02*
X39604761Y-21652380D01*
X39842857Y-21652380D01*
X39938095Y-21604761D01*
X39985714Y-21557142D01*
X40033333Y-21461904D01*
X40033333Y-21366666D01*
X39985714Y-21271428D01*
X39938095Y-21223809D01*
X39842857Y-21176190D01*
X39652380Y-21128571D01*
X39557142Y-21080952D01*
X39509523Y-21033333D01*
X39461904Y-20938095D01*
X39461904Y-20842857D01*
X39509523Y-20747619D01*
X39557142Y-20700000D01*
X39652380Y-20652380D01*
X39890476Y-20652380D01*
X40033333Y-20700000D01*
X40795238Y-21128571D02*
X40938095Y-21176190D01*
X40985714Y-21223809D01*
X41033333Y-21319047D01*
X41033333Y-21461904D01*
X40985714Y-21557142D01*
X40938095Y-21604761D01*
X40842857Y-21652380D01*
X40461904Y-21652380D01*
X40461904Y-20652380D01*
X40795238Y-20652380D01*
X40890476Y-20700000D01*
X40938095Y-20747619D01*
X40985714Y-20842857D01*
X40985714Y-20938095D01*
X40938095Y-21033333D01*
X40890476Y-21080952D01*
X40795238Y-21128571D01*
X40461904Y-21128571D01*
X41985714Y-21652380D02*
X41414285Y-21652380D01*
X41700000Y-21652380D02*
X41700000Y-20652380D01*
X41604761Y-20795238D01*
X41509523Y-20890476D01*
X41414285Y-20938095D01*
X35988666Y-57745380D02*
X35988666Y-58459666D01*
X35941047Y-58602523D01*
X35845809Y-58697761D01*
X35702952Y-58745380D01*
X35607714Y-58745380D01*
X36988666Y-58745380D02*
X36417238Y-58745380D01*
X36702952Y-58745380D02*
X36702952Y-57745380D01*
X36607714Y-57888238D01*
X36512476Y-57983476D01*
X36417238Y-58031095D01*
%LPC*%
D13*
X48006000Y-94488000D03*
X284734000Y-21717000D03*
X21463000Y-21463000D03*
D14*
X96456500Y-67564000D03*
X86296500Y-67564000D03*
D15*
X91376500Y-67564000D03*
X153289000Y-86614000D03*
D14*
X148209000Y-86614000D03*
X158369000Y-86614000D03*
D16*
X103289100Y-93599000D03*
X203288900Y-93599000D03*
D15*
X103289100Y-78359000D03*
X203288900Y-78359000D03*
X162814000Y-86614000D03*
D14*
X157734000Y-86614000D03*
X167894000Y-86614000D03*
D16*
X150907750Y-93599000D03*
X174720250Y-93599000D03*
D15*
X150907750Y-78359000D03*
X174720250Y-78359000D03*
X115189000Y-86614000D03*
D14*
X110109000Y-86614000D03*
X120269000Y-86614000D03*
D16*
X103282750Y-93599000D03*
X127095250Y-93599000D03*
D15*
X103282750Y-78359000D03*
X127095250Y-78359000D03*
X41370250Y-67564000D03*
D14*
X36290250Y-67564000D03*
X46450250Y-67564000D03*
D16*
X29464000Y-74549000D03*
X53276500Y-74549000D03*
D15*
X29464000Y-59309000D03*
X53276500Y-59309000D03*
D14*
X41687750Y-48514000D03*
X31527750Y-48514000D03*
D15*
X36607750Y-48514000D03*
D14*
X39306500Y-29464000D03*
X29146500Y-29464000D03*
D15*
X34226500Y-29464000D03*
D14*
X67881500Y-48514000D03*
X57721500Y-48514000D03*
D15*
X62801500Y-48514000D03*
X277114000Y-56769000D03*
X253301500Y-56769000D03*
D16*
X277114000Y-41529000D03*
X253301500Y-41529000D03*
D14*
X270287750Y-48514000D03*
X260127750Y-48514000D03*
D15*
X265207750Y-48514000D03*
D14*
X125031500Y-48514000D03*
X114871500Y-48514000D03*
D15*
X119951500Y-48514000D03*
D14*
X101219000Y-29464000D03*
X91059000Y-29464000D03*
D15*
X96139000Y-29464000D03*
D14*
X82169000Y-29464000D03*
X72009000Y-29464000D03*
D15*
X77089000Y-29464000D03*
D14*
X253619000Y-29464000D03*
X243459000Y-29464000D03*
D15*
X248539000Y-29464000D03*
D14*
X205994000Y-86614000D03*
X195834000Y-86614000D03*
D15*
X200914000Y-86614000D03*
D17*
X49022750Y-18251500D03*
X43242750Y-18251500D03*
D18*
X46382750Y-20196500D03*
X45882750Y-20196500D03*
X45382750Y-20196500D03*
X46882750Y-20196500D03*
X44882750Y-20196500D03*
X47382750Y-20196500D03*
X44382750Y-20196500D03*
X47882750Y-20196500D03*
D19*
X48582750Y-20196500D03*
X43682750Y-20196500D03*
X49357750Y-20196500D03*
X42907750Y-20196500D03*
D14*
X253619000Y-86614000D03*
X243459000Y-86614000D03*
D15*
X248539000Y-86614000D03*
D14*
X229806500Y-86614000D03*
X219646500Y-86614000D03*
D15*
X224726500Y-86614000D03*
D14*
X86931500Y-86614000D03*
X76771500Y-86614000D03*
D15*
X81851500Y-86614000D03*
D14*
X63119000Y-86614000D03*
X52959000Y-86614000D03*
D15*
X58039000Y-86614000D03*
D14*
X275050250Y-67564000D03*
X264890250Y-67564000D03*
D15*
X269970250Y-67564000D03*
D14*
X251237750Y-67564000D03*
X241077750Y-67564000D03*
D15*
X246157750Y-67564000D03*
D14*
X229806500Y-67564000D03*
X219646500Y-67564000D03*
D15*
X224726500Y-67564000D03*
D14*
X210756500Y-67564000D03*
X200596500Y-67564000D03*
D15*
X205676500Y-67564000D03*
D14*
X191706500Y-67564000D03*
X181546500Y-67564000D03*
D15*
X186626500Y-67564000D03*
D14*
X172656500Y-67564000D03*
X162496500Y-67564000D03*
D15*
X167576500Y-67564000D03*
D14*
X153606500Y-67564000D03*
X143446500Y-67564000D03*
D15*
X148526500Y-67564000D03*
D14*
X134556500Y-67564000D03*
X124396500Y-67564000D03*
D15*
X129476500Y-67564000D03*
D14*
X115506500Y-67564000D03*
X105346500Y-67564000D03*
D15*
X110426500Y-67564000D03*
D14*
X77406500Y-67564000D03*
X67246500Y-67564000D03*
D15*
X72326500Y-67564000D03*
D14*
X239331500Y-48514000D03*
X229171500Y-48514000D03*
D15*
X234251500Y-48514000D03*
D14*
X220281500Y-48514000D03*
X210121500Y-48514000D03*
D15*
X215201500Y-48514000D03*
D14*
X201231500Y-48514000D03*
X191071500Y-48514000D03*
D15*
X196151500Y-48514000D03*
D14*
X182181500Y-48514000D03*
X172021500Y-48514000D03*
D15*
X177101500Y-48514000D03*
D14*
X163131500Y-48514000D03*
X152971500Y-48514000D03*
D15*
X158051500Y-48514000D03*
D14*
X144081500Y-48514000D03*
X133921500Y-48514000D03*
D15*
X139001500Y-48514000D03*
D14*
X105981500Y-48514000D03*
X95821500Y-48514000D03*
D15*
X100901500Y-48514000D03*
D14*
X86931500Y-48514000D03*
X76771500Y-48514000D03*
D15*
X81851500Y-48514000D03*
D14*
X277431500Y-29464000D03*
X267271500Y-29464000D03*
D15*
X272351500Y-29464000D03*
D14*
X234569000Y-29464000D03*
X224409000Y-29464000D03*
D15*
X229489000Y-29464000D03*
D14*
X215519000Y-29464000D03*
X205359000Y-29464000D03*
D15*
X210439000Y-29464000D03*
D14*
X196469000Y-29464000D03*
X186309000Y-29464000D03*
D15*
X191389000Y-29464000D03*
D14*
X177419000Y-29464000D03*
X167259000Y-29464000D03*
D15*
X172339000Y-29464000D03*
D14*
X158369000Y-29464000D03*
X148209000Y-29464000D03*
D15*
X153289000Y-29464000D03*
D14*
X139319000Y-29464000D03*
X129159000Y-29464000D03*
D15*
X134239000Y-29464000D03*
D14*
X120269000Y-29464000D03*
X110109000Y-29464000D03*
D15*
X115189000Y-29464000D03*
D14*
X63119000Y-29464000D03*
X52959000Y-29464000D03*
D15*
X58039000Y-29464000D03*
D20*
X33782000Y-61468000D03*
D21*
X33782000Y-60198000D03*
X35052000Y-61468000D03*
X35052000Y-60198000D03*
X36322000Y-61468000D03*
X36322000Y-60198000D03*
X37592000Y-61468000D03*
X37592000Y-60198000D03*
X38862000Y-61468000D03*
X38862000Y-60198000D03*
M02*
