M48
; DRILL file {KiCad (5.1.4-0-10_14)} date 2020 May 16, Saturday 01:03:25
; FORMAT={-:-/ absolute / inch / decimal}
; #@! TF.CreationDate,2020-05-16T01:03:25+09:00
; #@! TF.GenerationSoftware,Kicad,Pcbnew,(5.1.4-0-10_14)
; #@! TF.FileFunction,Plated,1,2,PTH
FMAT,2
INCH
T1C0.0157
T2C0.0236
T3C0.0256
T4C0.0579
%
G90
G05
T1
X1.255Y-2.47
X1.33Y-2.755
X1.505Y-1.255
X1.55Y-1.97
X1.585Y-0.89
X1.64Y-2.07
X1.655Y-0.885
X1.67Y-1.66
X1.6715Y-1.9815
X1.7Y-1.13
X1.7Y-1.745
X1.75Y-0.925
X1.7867Y-0.8892
X1.7867Y-0.8892
X1.793Y-1.205
X1.795Y-1.86
X1.7975Y-0.955
X1.81Y-1.99
X1.84Y-2.03
X1.843Y-1.205
X1.88Y-1.415
X1.885Y-0.925
X1.92Y-1.815
X1.92Y-1.865
X1.945Y-1.13
X1.955Y-2.54
X1.97Y-0.925
X1.97Y-1.815
X1.97Y-1.865
X2.0925Y-2.6025
X2.11Y-1.66
X2.12Y-1.9
X2.12Y-1.955
X2.155Y-1.69
X2.175Y-1.815
X2.22Y-1.6875
X2.27Y-1.6875
X2.635Y-2.76
T3
X1.33Y-2.37
X1.33Y-2.42
X1.38Y-2.37
X1.38Y-2.42
X1.43Y-2.37
X1.43Y-2.42
X1.48Y-2.37
X1.48Y-2.42
X1.53Y-2.37
X1.53Y-2.42
T4
X1.1975Y-1.06
X7.76Y-3.31
X8.01Y-3.21
X5.6975Y-2.56
X6.26Y-3.31
X6.51Y-3.21
X8.6975Y-2.56
X8.9475Y-2.46
X9.635Y-3.31
X10.5725Y-1.06
X10.8225Y-0.96
X5.885Y-3.31
X6.135Y-3.21
X4.385Y-1.06
X4.635Y-0.96
X7.5725Y-1.81
X7.8225Y-1.71
X8.885Y-1.06
X9.135Y-0.96
X2.385Y-0.96
X8.135Y-1.06
X8.385Y-0.96
X4.385Y-3.31
X2.135Y-1.06
X10.4787Y-2.56
X10.7287Y-2.46
X5.9475Y-2.46
X6.8225Y-1.81
X7.0725Y-1.71
X9.5412Y-2.56
X9.7912Y-2.46
X4.635Y-3.21
X4.9475Y-2.56
X5.1975Y-2.46
X4.5725Y-1.81
X4.8225Y-1.71
X4.1975Y-2.56
X4.4475Y-2.46
X9.885Y-3.21
X5.5725Y-1.71
X7.385Y-1.06
X7.635Y-0.96
X2.3225Y-1.81
X2.5725Y-1.71
X10.5412Y-1.71
X6.0725Y-1.81
X6.3225Y-1.71
X10.2912Y-1.81
X3.635Y-1.06
X3.885Y-0.96
X7.9475Y-2.56
X8.1975Y-2.46
X2.6975Y-2.56
X2.9475Y-2.46
X8.6975Y-3.31
X8.9475Y-3.21
X5.3225Y-1.81
X1.4788Y-2.56
X3.8225Y-1.81
X4.0725Y-1.71
X1.7288Y-2.46
X7.1975Y-2.56
X9.0725Y-1.81
X9.3225Y-1.71
X6.635Y-1.06
X6.885Y-0.96
X7.4475Y-2.46
X1.2913Y-1.81
X1.5413Y-1.71
X3.0725Y-3.31
X3.3225Y-3.21
X3.4475Y-2.56
X3.6975Y-2.46
X2.885Y-1.06
X3.135Y-0.96
X5.385Y-0.96
X9.635Y-1.06
X9.885Y-0.96
X5.885Y-1.06
X6.135Y-0.96
X5.135Y-1.06
X6.4475Y-2.56
X3.0725Y-1.81
X3.3225Y-1.71
X2.135Y-3.31
X2.385Y-3.21
X8.3225Y-1.81
X8.5725Y-1.71
X6.6975Y-2.46
X1.4475Y-0.96
T2
G00X1.6462Y-0.5867
M15
G01X1.6462Y-0.5631
M16
G05
G00X1.6462Y-0.7611
M15
G01X1.6462Y-0.7178
M16
G05
G00X1.9863Y-0.5867
M15
G01X1.9863Y-0.5631
M16
G05
G00X1.9863Y-0.7611
M15
G01X1.9863Y-0.7178
M16
G05
T0
M30
