G04 #@! TF.GenerationSoftware,KiCad,Pcbnew,(5.1.4-0-10_14)*
G04 #@! TF.CreationDate,2020-05-16T01:02:51+09:00*
G04 #@! TF.ProjectId,chavdai40,63686176-6461-4693-9430-2e6b69636164,rev?*
G04 #@! TF.SameCoordinates,Original*
G04 #@! TF.FileFunction,Legend,Bot*
G04 #@! TF.FilePolarity,Positive*
%FSLAX46Y46*%
G04 Gerber Fmt 4.6, Leading zero omitted, Abs format (unit mm)*
G04 Created by KiCad (PCBNEW (5.1.4-0-10_14)) date 2020-05-16 01:02:51*
%MOMM*%
%LPD*%
G04 APERTURE LIST*
%ADD10C,0.150000*%
%ADD11C,0.120000*%
%ADD12C,0.100000*%
%ADD13C,0.692000*%
%ADD14C,0.977000*%
%ADD15C,1.449000*%
%ADD16C,1.852000*%
%ADD17C,2.352000*%
%ADD18C,4.089800*%
%ADD19C,3.150000*%
%ADD20R,1.902000X1.202000*%
%ADD21R,0.602000X0.602000*%
%ADD22C,3.552000*%
%ADD23C,0.352000*%
%ADD24R,0.752000X1.322000*%
%ADD25O,1.102000X1.702000*%
%ADD26O,1.102000X2.202000*%
%ADD27C,0.752000*%
%ADD28R,1.102000X1.102000*%
%ADD29O,1.102000X1.102000*%
%ADD30C,1.352000*%
G04 APERTURE END LIST*
D10*
X104519047Y-86152380D02*
X104519047Y-86866666D01*
X104566666Y-87009523D01*
X104661904Y-87104761D01*
X104804761Y-87152380D01*
X104900000Y-87152380D01*
X103566666Y-87152380D02*
X104042857Y-87152380D01*
X104042857Y-86152380D01*
X102661904Y-87057142D02*
X102709523Y-87104761D01*
X102852380Y-87152380D01*
X102947619Y-87152380D01*
X103090476Y-87104761D01*
X103185714Y-87009523D01*
X103233333Y-86914285D01*
X103280952Y-86723809D01*
X103280952Y-86580952D01*
X103233333Y-86390476D01*
X103185714Y-86295238D01*
X103090476Y-86200000D01*
X102947619Y-86152380D01*
X102852380Y-86152380D01*
X102709523Y-86200000D01*
X102661904Y-86247619D01*
X101947619Y-86152380D02*
X101947619Y-86866666D01*
X101995238Y-87009523D01*
X102090476Y-87104761D01*
X102233333Y-87152380D01*
X102328571Y-87152380D01*
X100995238Y-87152380D02*
X101471428Y-87152380D01*
X101471428Y-86152380D01*
X100090476Y-87057142D02*
X100138095Y-87104761D01*
X100280952Y-87152380D01*
X100376190Y-87152380D01*
X100519047Y-87104761D01*
X100614285Y-87009523D01*
X100661904Y-86914285D01*
X100709523Y-86723809D01*
X100709523Y-86580952D01*
X100661904Y-86390476D01*
X100614285Y-86295238D01*
X100519047Y-86200000D01*
X100376190Y-86152380D01*
X100280952Y-86152380D01*
X100138095Y-86200000D01*
X100090476Y-86247619D01*
X99376190Y-86152380D02*
X99376190Y-86866666D01*
X99423809Y-87009523D01*
X99519047Y-87104761D01*
X99661904Y-87152380D01*
X99757142Y-87152380D01*
X98423809Y-87152380D02*
X98900000Y-87152380D01*
X98900000Y-86152380D01*
X97519047Y-87057142D02*
X97566666Y-87104761D01*
X97709523Y-87152380D01*
X97804761Y-87152380D01*
X97947619Y-87104761D01*
X98042857Y-87009523D01*
X98090476Y-86914285D01*
X98138095Y-86723809D01*
X98138095Y-86580952D01*
X98090476Y-86390476D01*
X98042857Y-86295238D01*
X97947619Y-86200000D01*
X97804761Y-86152380D01*
X97709523Y-86152380D01*
X97566666Y-86200000D01*
X97519047Y-86247619D01*
X96804761Y-86152380D02*
X96804761Y-86866666D01*
X96852380Y-87009523D01*
X96947619Y-87104761D01*
X97090476Y-87152380D01*
X97185714Y-87152380D01*
X95852380Y-87152380D02*
X96328571Y-87152380D01*
X96328571Y-86152380D01*
X94947619Y-87057142D02*
X94995238Y-87104761D01*
X95138095Y-87152380D01*
X95233333Y-87152380D01*
X95376190Y-87104761D01*
X95471428Y-87009523D01*
X95519047Y-86914285D01*
X95566666Y-86723809D01*
X95566666Y-86580952D01*
X95519047Y-86390476D01*
X95471428Y-86295238D01*
X95376190Y-86200000D01*
X95233333Y-86152380D01*
X95138095Y-86152380D01*
X94995238Y-86200000D01*
X94947619Y-86247619D01*
X179047619Y-85947619D02*
X179000000Y-85900000D01*
X178904761Y-85852380D01*
X178666666Y-85852380D01*
X178571428Y-85900000D01*
X178523809Y-85947619D01*
X178476190Y-86042857D01*
X178476190Y-86138095D01*
X178523809Y-86280952D01*
X179095238Y-86852380D01*
X178476190Y-86852380D01*
X178047619Y-86757142D02*
X178000000Y-86804761D01*
X178047619Y-86852380D01*
X178095238Y-86804761D01*
X178047619Y-86757142D01*
X178047619Y-86852380D01*
X177666666Y-85852380D02*
X177000000Y-85852380D01*
X177428571Y-86852380D01*
X176142857Y-85852380D02*
X176619047Y-85852380D01*
X176666666Y-86328571D01*
X176619047Y-86280952D01*
X176523809Y-86233333D01*
X176285714Y-86233333D01*
X176190476Y-86280952D01*
X176142857Y-86328571D01*
X176095238Y-86423809D01*
X176095238Y-86661904D01*
X176142857Y-86757142D01*
X176190476Y-86804761D01*
X176285714Y-86852380D01*
X176523809Y-86852380D01*
X176619047Y-86804761D01*
X176666666Y-86757142D01*
X175666666Y-85852380D02*
X175666666Y-86661904D01*
X175619047Y-86757142D01*
X175571428Y-86804761D01*
X175476190Y-86852380D01*
X175285714Y-86852380D01*
X175190476Y-86804761D01*
X175142857Y-86757142D01*
X175095238Y-86661904D01*
X175095238Y-85852380D01*
X173904761Y-86804761D02*
X173809523Y-86852380D01*
X173619047Y-86852380D01*
X173523809Y-86804761D01*
X173476190Y-86709523D01*
X173476190Y-86661904D01*
X173523809Y-86566666D01*
X173619047Y-86519047D01*
X173761904Y-86519047D01*
X173857142Y-86471428D01*
X173904761Y-86376190D01*
X173904761Y-86328571D01*
X173857142Y-86233333D01*
X173761904Y-86185714D01*
X173619047Y-86185714D01*
X173523809Y-86233333D01*
X173047619Y-86185714D02*
X173047619Y-87185714D01*
X173047619Y-86233333D02*
X172952380Y-86185714D01*
X172761904Y-86185714D01*
X172666666Y-86233333D01*
X172619047Y-86280952D01*
X172571428Y-86376190D01*
X172571428Y-86661904D01*
X172619047Y-86757142D01*
X172666666Y-86804761D01*
X172761904Y-86852380D01*
X172952380Y-86852380D01*
X173047619Y-86804761D01*
X171714285Y-86852380D02*
X171714285Y-86328571D01*
X171761904Y-86233333D01*
X171857142Y-86185714D01*
X172047619Y-86185714D01*
X172142857Y-86233333D01*
X171714285Y-86804761D02*
X171809523Y-86852380D01*
X172047619Y-86852380D01*
X172142857Y-86804761D01*
X172190476Y-86709523D01*
X172190476Y-86614285D01*
X172142857Y-86519047D01*
X172047619Y-86471428D01*
X171809523Y-86471428D01*
X171714285Y-86423809D01*
X170809523Y-86804761D02*
X170904761Y-86852380D01*
X171095238Y-86852380D01*
X171190476Y-86804761D01*
X171238095Y-86757142D01*
X171285714Y-86661904D01*
X171285714Y-86376190D01*
X171238095Y-86280952D01*
X171190476Y-86233333D01*
X171095238Y-86185714D01*
X170904761Y-86185714D01*
X170809523Y-86233333D01*
X170000000Y-86804761D02*
X170095238Y-86852380D01*
X170285714Y-86852380D01*
X170380952Y-86804761D01*
X170428571Y-86709523D01*
X170428571Y-86328571D01*
X170380952Y-86233333D01*
X170285714Y-86185714D01*
X170095238Y-86185714D01*
X170000000Y-86233333D01*
X169952380Y-86328571D01*
X169952380Y-86423809D01*
X170428571Y-86519047D01*
X145871428Y-86152380D02*
X146061904Y-86152380D01*
X146157142Y-86200000D01*
X146204761Y-86247619D01*
X146300000Y-86390476D01*
X146347619Y-86580952D01*
X146347619Y-86961904D01*
X146300000Y-87057142D01*
X146252380Y-87104761D01*
X146157142Y-87152380D01*
X145966666Y-87152380D01*
X145871428Y-87104761D01*
X145823809Y-87057142D01*
X145776190Y-86961904D01*
X145776190Y-86723809D01*
X145823809Y-86628571D01*
X145871428Y-86580952D01*
X145966666Y-86533333D01*
X146157142Y-86533333D01*
X146252380Y-86580952D01*
X146300000Y-86628571D01*
X146347619Y-86723809D01*
X145347619Y-87057142D02*
X145300000Y-87104761D01*
X145347619Y-87152380D01*
X145395238Y-87104761D01*
X145347619Y-87057142D01*
X145347619Y-87152380D01*
X144919047Y-86247619D02*
X144871428Y-86200000D01*
X144776190Y-86152380D01*
X144538095Y-86152380D01*
X144442857Y-86200000D01*
X144395238Y-86247619D01*
X144347619Y-86342857D01*
X144347619Y-86438095D01*
X144395238Y-86580952D01*
X144966666Y-87152380D01*
X144347619Y-87152380D01*
X143442857Y-86152380D02*
X143919047Y-86152380D01*
X143966666Y-86628571D01*
X143919047Y-86580952D01*
X143823809Y-86533333D01*
X143585714Y-86533333D01*
X143490476Y-86580952D01*
X143442857Y-86628571D01*
X143395238Y-86723809D01*
X143395238Y-86961904D01*
X143442857Y-87057142D01*
X143490476Y-87104761D01*
X143585714Y-87152380D01*
X143823809Y-87152380D01*
X143919047Y-87104761D01*
X143966666Y-87057142D01*
X142966666Y-86152380D02*
X142966666Y-86961904D01*
X142919047Y-87057142D01*
X142871428Y-87104761D01*
X142776190Y-87152380D01*
X142585714Y-87152380D01*
X142490476Y-87104761D01*
X142442857Y-87057142D01*
X142395238Y-86961904D01*
X142395238Y-86152380D01*
X141204761Y-87104761D02*
X141109523Y-87152380D01*
X140919047Y-87152380D01*
X140823809Y-87104761D01*
X140776190Y-87009523D01*
X140776190Y-86961904D01*
X140823809Y-86866666D01*
X140919047Y-86819047D01*
X141061904Y-86819047D01*
X141157142Y-86771428D01*
X141204761Y-86676190D01*
X141204761Y-86628571D01*
X141157142Y-86533333D01*
X141061904Y-86485714D01*
X140919047Y-86485714D01*
X140823809Y-86533333D01*
X140347619Y-86485714D02*
X140347619Y-87485714D01*
X140347619Y-86533333D02*
X140252380Y-86485714D01*
X140061904Y-86485714D01*
X139966666Y-86533333D01*
X139919047Y-86580952D01*
X139871428Y-86676190D01*
X139871428Y-86961904D01*
X139919047Y-87057142D01*
X139966666Y-87104761D01*
X140061904Y-87152380D01*
X140252380Y-87152380D01*
X140347619Y-87104761D01*
X139014285Y-87152380D02*
X139014285Y-86628571D01*
X139061904Y-86533333D01*
X139157142Y-86485714D01*
X139347619Y-86485714D01*
X139442857Y-86533333D01*
X139014285Y-87104761D02*
X139109523Y-87152380D01*
X139347619Y-87152380D01*
X139442857Y-87104761D01*
X139490476Y-87009523D01*
X139490476Y-86914285D01*
X139442857Y-86819047D01*
X139347619Y-86771428D01*
X139109523Y-86771428D01*
X139014285Y-86723809D01*
X138109523Y-87104761D02*
X138204761Y-87152380D01*
X138395238Y-87152380D01*
X138490476Y-87104761D01*
X138538095Y-87057142D01*
X138585714Y-86961904D01*
X138585714Y-86676190D01*
X138538095Y-86580952D01*
X138490476Y-86533333D01*
X138395238Y-86485714D01*
X138204761Y-86485714D01*
X138109523Y-86533333D01*
X137300000Y-87104761D02*
X137395238Y-87152380D01*
X137585714Y-87152380D01*
X137680952Y-87104761D01*
X137728571Y-87009523D01*
X137728571Y-86628571D01*
X137680952Y-86533333D01*
X137585714Y-86485714D01*
X137395238Y-86485714D01*
X137300000Y-86533333D01*
X137252380Y-86628571D01*
X137252380Y-86723809D01*
X137728571Y-86819047D01*
D11*
X28285221Y-48004000D02*
X28610779Y-48004000D01*
X28285221Y-49024000D02*
X28610779Y-49024000D01*
X31460221Y-42797000D02*
X31785779Y-42797000D01*
X31460221Y-43817000D02*
X31785779Y-43817000D01*
D10*
X31301000Y-66476000D02*
G75*
G03X31301000Y-66476000I-1000000J0D01*
G01*
X32901000Y-69076000D02*
X32901000Y-63876000D01*
X27701000Y-69076000D02*
X32901000Y-69076000D01*
X27701000Y-63876000D02*
X27701000Y-69076000D01*
X32901000Y-63876000D02*
X27701000Y-63876000D01*
D11*
X183507750Y-46532750D02*
X181807750Y-46532750D01*
X181807750Y-46532750D02*
X181807750Y-43982750D01*
X183507750Y-46532750D02*
X183507750Y-43982750D01*
X51538000Y-49321500D02*
X52013000Y-49321500D01*
X52013000Y-49321500D02*
X52013000Y-48846500D01*
X47268000Y-44101500D02*
X46793000Y-44101500D01*
X46793000Y-44101500D02*
X46793000Y-44576500D01*
X51538000Y-44101500D02*
X52013000Y-44101500D01*
X52013000Y-44101500D02*
X52013000Y-44576500D01*
X47268000Y-49321500D02*
X46793000Y-49321500D01*
X29831000Y-44449000D02*
X29831000Y-46879000D01*
X29821000Y-44429000D02*
X28821000Y-44429000D01*
X26771000Y-44429000D02*
X26771000Y-46279000D01*
X27821000Y-44429000D02*
X26771000Y-44429000D01*
D10*
X59166000Y-66421000D02*
G75*
G03X59166000Y-66421000I-1000000J0D01*
G01*
X60766000Y-69021000D02*
X60766000Y-63821000D01*
X55566000Y-69021000D02*
X60766000Y-69021000D01*
X55566000Y-63821000D02*
X55566000Y-69021000D01*
X60766000Y-63821000D02*
X55566000Y-63821000D01*
D11*
X43977779Y-26287000D02*
X43652221Y-26287000D01*
X43977779Y-27307000D02*
X43652221Y-27307000D01*
X49020000Y-67553721D02*
X49020000Y-67879279D01*
X50040000Y-67553721D02*
X50040000Y-67879279D01*
X48351221Y-27307000D02*
X48676779Y-27307000D01*
X48351221Y-26287000D02*
X48676779Y-26287000D01*
X41169000Y-26132064D02*
X41169000Y-24927936D01*
X39349000Y-26132064D02*
X39349000Y-24927936D01*
D12*
X48511000Y-28702000D02*
G75*
G03X48511000Y-28702000I-50000J0D01*
G01*
X46098000Y-28702000D02*
G75*
G03X46098000Y-28702000I-50000J0D01*
G01*
D11*
X254945250Y-84632750D02*
X253245250Y-84632750D01*
X253245250Y-84632750D02*
X253245250Y-82082750D01*
X254945250Y-84632750D02*
X254945250Y-82082750D01*
X231132750Y-84632750D02*
X229432750Y-84632750D01*
X229432750Y-84632750D02*
X229432750Y-82082750D01*
X231132750Y-84632750D02*
X231132750Y-82082750D01*
X207320250Y-84632750D02*
X205620250Y-84632750D01*
X205620250Y-84632750D02*
X205620250Y-82082750D01*
X207320250Y-84632750D02*
X207320250Y-82082750D01*
X162870250Y-83827750D02*
X161170250Y-83827750D01*
X161170250Y-83827750D02*
X161170250Y-81277750D01*
X162870250Y-83827750D02*
X162870250Y-81277750D01*
X121595250Y-84632750D02*
X119895250Y-84632750D01*
X119895250Y-84632750D02*
X119895250Y-82082750D01*
X121595250Y-84632750D02*
X121595250Y-82082750D01*
X88257750Y-84632750D02*
X86557750Y-84632750D01*
X86557750Y-84632750D02*
X86557750Y-82082750D01*
X88257750Y-84632750D02*
X88257750Y-82082750D01*
X64445250Y-84632750D02*
X62745250Y-84632750D01*
X62745250Y-84632750D02*
X62745250Y-82082750D01*
X64445250Y-84632750D02*
X64445250Y-82082750D01*
X276376500Y-65582750D02*
X274676500Y-65582750D01*
X274676500Y-65582750D02*
X274676500Y-63032750D01*
X276376500Y-65582750D02*
X276376500Y-63032750D01*
X252564000Y-65582750D02*
X250864000Y-65582750D01*
X250864000Y-65582750D02*
X250864000Y-63032750D01*
X252564000Y-65582750D02*
X252564000Y-63032750D01*
X231132750Y-65582750D02*
X229432750Y-65582750D01*
X229432750Y-65582750D02*
X229432750Y-63032750D01*
X231132750Y-65582750D02*
X231132750Y-63032750D01*
X212082750Y-65582750D02*
X210382750Y-65582750D01*
X210382750Y-65582750D02*
X210382750Y-63032750D01*
X212082750Y-65582750D02*
X212082750Y-63032750D01*
X193032750Y-65582750D02*
X191332750Y-65582750D01*
X191332750Y-65582750D02*
X191332750Y-63032750D01*
X193032750Y-65582750D02*
X193032750Y-63032750D01*
X173982750Y-65582750D02*
X172282750Y-65582750D01*
X172282750Y-65582750D02*
X172282750Y-63032750D01*
X173982750Y-65582750D02*
X173982750Y-63032750D01*
X154932750Y-65582750D02*
X153232750Y-65582750D01*
X153232750Y-65582750D02*
X153232750Y-63032750D01*
X154932750Y-65582750D02*
X154932750Y-63032750D01*
X135882750Y-65582750D02*
X134182750Y-65582750D01*
X134182750Y-65582750D02*
X134182750Y-63032750D01*
X135882750Y-65582750D02*
X135882750Y-63032750D01*
X116832750Y-65582750D02*
X115132750Y-65582750D01*
X115132750Y-65582750D02*
X115132750Y-63032750D01*
X116832750Y-65582750D02*
X116832750Y-63032750D01*
X97782750Y-65582750D02*
X96082750Y-65582750D01*
X96082750Y-65582750D02*
X96082750Y-63032750D01*
X97782750Y-65582750D02*
X97782750Y-63032750D01*
X78732750Y-65582750D02*
X77032750Y-65582750D01*
X77032750Y-65582750D02*
X77032750Y-63032750D01*
X78732750Y-65582750D02*
X78732750Y-63032750D01*
X47776500Y-65582750D02*
X46076500Y-65582750D01*
X46076500Y-65582750D02*
X46076500Y-63032750D01*
X47776500Y-65582750D02*
X47776500Y-63032750D01*
X271614000Y-46532750D02*
X269914000Y-46532750D01*
X269914000Y-46532750D02*
X269914000Y-43982750D01*
X271614000Y-46532750D02*
X271614000Y-43982750D01*
X240657750Y-46532750D02*
X238957750Y-46532750D01*
X238957750Y-46532750D02*
X238957750Y-43982750D01*
X240657750Y-46532750D02*
X240657750Y-43982750D01*
X221607750Y-46532750D02*
X219907750Y-46532750D01*
X219907750Y-46532750D02*
X219907750Y-43982750D01*
X221607750Y-46532750D02*
X221607750Y-43982750D01*
X202557750Y-46532750D02*
X200857750Y-46532750D01*
X200857750Y-46532750D02*
X200857750Y-43982750D01*
X202557750Y-46532750D02*
X202557750Y-43982750D01*
X164457750Y-46532750D02*
X162757750Y-46532750D01*
X162757750Y-46532750D02*
X162757750Y-43982750D01*
X164457750Y-46532750D02*
X164457750Y-43982750D01*
X145407750Y-46532750D02*
X143707750Y-46532750D01*
X143707750Y-46532750D02*
X143707750Y-43982750D01*
X145407750Y-46532750D02*
X145407750Y-43982750D01*
X126357750Y-46532750D02*
X124657750Y-46532750D01*
X124657750Y-46532750D02*
X124657750Y-43982750D01*
X126357750Y-46532750D02*
X126357750Y-43982750D01*
X107307750Y-46532750D02*
X105607750Y-46532750D01*
X105607750Y-46532750D02*
X105607750Y-43982750D01*
X107307750Y-46532750D02*
X107307750Y-43982750D01*
X88257750Y-46532750D02*
X86557750Y-46532750D01*
X86557750Y-46532750D02*
X86557750Y-43982750D01*
X88257750Y-46532750D02*
X88257750Y-43982750D01*
X69207750Y-46532750D02*
X67507750Y-46532750D01*
X67507750Y-46532750D02*
X67507750Y-43982750D01*
X69207750Y-46532750D02*
X69207750Y-43982750D01*
X36664000Y-45612000D02*
X34964000Y-45612000D01*
X34964000Y-45612000D02*
X34964000Y-43062000D01*
X36664000Y-45612000D02*
X36664000Y-43062000D01*
X278757750Y-27482750D02*
X277057750Y-27482750D01*
X277057750Y-27482750D02*
X277057750Y-24932750D01*
X278757750Y-27482750D02*
X278757750Y-24932750D01*
X254945250Y-27482750D02*
X253245250Y-27482750D01*
X253245250Y-27482750D02*
X253245250Y-24932750D01*
X254945250Y-27482750D02*
X254945250Y-24932750D01*
X235895250Y-27482750D02*
X234195250Y-27482750D01*
X234195250Y-27482750D02*
X234195250Y-24932750D01*
X235895250Y-27482750D02*
X235895250Y-24932750D01*
X216845250Y-27482750D02*
X215145250Y-27482750D01*
X215145250Y-27482750D02*
X215145250Y-24932750D01*
X216845250Y-27482750D02*
X216845250Y-24932750D01*
X197827000Y-27482750D02*
X196127000Y-27482750D01*
X196127000Y-27482750D02*
X196127000Y-24932750D01*
X197827000Y-27482750D02*
X197827000Y-24932750D01*
X178745250Y-27482750D02*
X177045250Y-27482750D01*
X177045250Y-27482750D02*
X177045250Y-24932750D01*
X178745250Y-27482750D02*
X178745250Y-24932750D01*
X159695250Y-27482750D02*
X157995250Y-27482750D01*
X157995250Y-27482750D02*
X157995250Y-24932750D01*
X159695250Y-27482750D02*
X159695250Y-24932750D01*
X140645250Y-27482750D02*
X138945250Y-27482750D01*
X138945250Y-27482750D02*
X138945250Y-24932750D01*
X140645250Y-27482750D02*
X140645250Y-24932750D01*
X121595250Y-27482750D02*
X119895250Y-27482750D01*
X119895250Y-27482750D02*
X119895250Y-24932750D01*
X121595250Y-27482750D02*
X121595250Y-24932750D01*
X102545250Y-27482750D02*
X100845250Y-27482750D01*
X100845250Y-27482750D02*
X100845250Y-24932750D01*
X102545250Y-27482750D02*
X102545250Y-24932750D01*
X83495250Y-27482750D02*
X81795250Y-27482750D01*
X81795250Y-27482750D02*
X81795250Y-24932750D01*
X83495250Y-27482750D02*
X83495250Y-24932750D01*
X64445250Y-27482750D02*
X62745250Y-27482750D01*
X62745250Y-27482750D02*
X62745250Y-24932750D01*
X64445250Y-27482750D02*
X64445250Y-24932750D01*
X34632000Y-26435000D02*
X32932000Y-26435000D01*
X32932000Y-26435000D02*
X32932000Y-23885000D01*
X34632000Y-26435000D02*
X34632000Y-23885000D01*
D10*
X38393666Y-46204142D02*
X38441285Y-46251761D01*
X38584142Y-46299380D01*
X38679380Y-46299380D01*
X38822238Y-46251761D01*
X38917476Y-46156523D01*
X38965095Y-46061285D01*
X39012714Y-45870809D01*
X39012714Y-45727952D01*
X38965095Y-45537476D01*
X38917476Y-45442238D01*
X38822238Y-45347000D01*
X38679380Y-45299380D01*
X38584142Y-45299380D01*
X38441285Y-45347000D01*
X38393666Y-45394619D01*
X37536523Y-45632714D02*
X37536523Y-46299380D01*
X37774619Y-45251761D02*
X38012714Y-45966047D01*
X37393666Y-45966047D01*
X54014666Y-46204142D02*
X54062285Y-46251761D01*
X54205142Y-46299380D01*
X54300380Y-46299380D01*
X54443238Y-46251761D01*
X54538476Y-46156523D01*
X54586095Y-46061285D01*
X54633714Y-45870809D01*
X54633714Y-45727952D01*
X54586095Y-45537476D01*
X54538476Y-45442238D01*
X54443238Y-45347000D01*
X54300380Y-45299380D01*
X54205142Y-45299380D01*
X54062285Y-45347000D01*
X54014666Y-45394619D01*
X53681333Y-45299380D02*
X53062285Y-45299380D01*
X53395619Y-45680333D01*
X53252761Y-45680333D01*
X53157523Y-45727952D01*
X53109904Y-45775571D01*
X53062285Y-45870809D01*
X53062285Y-46108904D01*
X53109904Y-46204142D01*
X53157523Y-46251761D01*
X53252761Y-46299380D01*
X53538476Y-46299380D01*
X53633714Y-46251761D01*
X53681333Y-46204142D01*
X44743666Y-45188142D02*
X44791285Y-45235761D01*
X44934142Y-45283380D01*
X45029380Y-45283380D01*
X45172238Y-45235761D01*
X45267476Y-45140523D01*
X45315095Y-45045285D01*
X45362714Y-44854809D01*
X45362714Y-44711952D01*
X45315095Y-44521476D01*
X45267476Y-44426238D01*
X45172238Y-44331000D01*
X45029380Y-44283380D01*
X44934142Y-44283380D01*
X44791285Y-44331000D01*
X44743666Y-44378619D01*
X44362714Y-44378619D02*
X44315095Y-44331000D01*
X44219857Y-44283380D01*
X43981761Y-44283380D01*
X43886523Y-44331000D01*
X43838904Y-44378619D01*
X43791285Y-44473857D01*
X43791285Y-44569095D01*
X43838904Y-44711952D01*
X44410333Y-45283380D01*
X43791285Y-45283380D01*
X44642166Y-48236142D02*
X44689785Y-48283761D01*
X44832642Y-48331380D01*
X44927880Y-48331380D01*
X45070738Y-48283761D01*
X45165976Y-48188523D01*
X45213595Y-48093285D01*
X45261214Y-47902809D01*
X45261214Y-47759952D01*
X45213595Y-47569476D01*
X45165976Y-47474238D01*
X45070738Y-47379000D01*
X44927880Y-47331380D01*
X44832642Y-47331380D01*
X44689785Y-47379000D01*
X44642166Y-47426619D01*
X43689785Y-48331380D02*
X44261214Y-48331380D01*
X43975500Y-48331380D02*
X43975500Y-47331380D01*
X44070738Y-47474238D01*
X44165976Y-47569476D01*
X44261214Y-47617095D01*
X28614666Y-50301142D02*
X28662285Y-50348761D01*
X28805142Y-50396380D01*
X28900380Y-50396380D01*
X29043238Y-50348761D01*
X29138476Y-50253523D01*
X29186095Y-50158285D01*
X29233714Y-49967809D01*
X29233714Y-49824952D01*
X29186095Y-49634476D01*
X29138476Y-49539238D01*
X29043238Y-49444000D01*
X28900380Y-49396380D01*
X28805142Y-49396380D01*
X28662285Y-49444000D01*
X28614666Y-49491619D01*
X27757523Y-49396380D02*
X27948000Y-49396380D01*
X28043238Y-49444000D01*
X28090857Y-49491619D01*
X28186095Y-49634476D01*
X28233714Y-49824952D01*
X28233714Y-50205904D01*
X28186095Y-50301142D01*
X28138476Y-50348761D01*
X28043238Y-50396380D01*
X27852761Y-50396380D01*
X27757523Y-50348761D01*
X27709904Y-50301142D01*
X27662285Y-50205904D01*
X27662285Y-49967809D01*
X27709904Y-49872571D01*
X27757523Y-49824952D01*
X27852761Y-49777333D01*
X28043238Y-49777333D01*
X28138476Y-49824952D01*
X28186095Y-49872571D01*
X28233714Y-49967809D01*
X32424666Y-42267142D02*
X32472285Y-42314761D01*
X32615142Y-42362380D01*
X32710380Y-42362380D01*
X32853238Y-42314761D01*
X32948476Y-42219523D01*
X32996095Y-42124285D01*
X33043714Y-41933809D01*
X33043714Y-41790952D01*
X32996095Y-41600476D01*
X32948476Y-41505238D01*
X32853238Y-41410000D01*
X32710380Y-41362380D01*
X32615142Y-41362380D01*
X32472285Y-41410000D01*
X32424666Y-41457619D01*
X31519904Y-41362380D02*
X31996095Y-41362380D01*
X32043714Y-41838571D01*
X31996095Y-41790952D01*
X31900857Y-41743333D01*
X31662761Y-41743333D01*
X31567523Y-41790952D01*
X31519904Y-41838571D01*
X31472285Y-41933809D01*
X31472285Y-42171904D01*
X31519904Y-42267142D01*
X31567523Y-42314761D01*
X31662761Y-42362380D01*
X31900857Y-42362380D01*
X31996095Y-42314761D01*
X32043714Y-42267142D01*
X50614285Y-92804761D02*
X50471428Y-92852380D01*
X50233333Y-92852380D01*
X50138095Y-92804761D01*
X50090476Y-92757142D01*
X50042857Y-92661904D01*
X50042857Y-92566666D01*
X50090476Y-92471428D01*
X50138095Y-92423809D01*
X50233333Y-92376190D01*
X50423809Y-92328571D01*
X50519047Y-92280952D01*
X50566666Y-92233333D01*
X50614285Y-92138095D01*
X50614285Y-92042857D01*
X50566666Y-91947619D01*
X50519047Y-91900000D01*
X50423809Y-91852380D01*
X50185714Y-91852380D01*
X50042857Y-91900000D01*
X49614285Y-92852380D02*
X49614285Y-91852380D01*
X49280952Y-92566666D01*
X48947619Y-91852380D01*
X48947619Y-92852380D01*
X48614285Y-91852380D02*
X48042857Y-91852380D01*
X48328571Y-92852380D02*
X48328571Y-91852380D01*
X47804761Y-91852380D02*
X47185714Y-91852380D01*
X47519047Y-92233333D01*
X47376190Y-92233333D01*
X47280952Y-92280952D01*
X47233333Y-92328571D01*
X47185714Y-92423809D01*
X47185714Y-92661904D01*
X47233333Y-92757142D01*
X47280952Y-92804761D01*
X47376190Y-92852380D01*
X47661904Y-92852380D01*
X47757142Y-92804761D01*
X47804761Y-92757142D01*
X285914285Y-24004761D02*
X285771428Y-24052380D01*
X285533333Y-24052380D01*
X285438095Y-24004761D01*
X285390476Y-23957142D01*
X285342857Y-23861904D01*
X285342857Y-23766666D01*
X285390476Y-23671428D01*
X285438095Y-23623809D01*
X285533333Y-23576190D01*
X285723809Y-23528571D01*
X285819047Y-23480952D01*
X285866666Y-23433333D01*
X285914285Y-23338095D01*
X285914285Y-23242857D01*
X285866666Y-23147619D01*
X285819047Y-23100000D01*
X285723809Y-23052380D01*
X285485714Y-23052380D01*
X285342857Y-23100000D01*
X284914285Y-24052380D02*
X284914285Y-23052380D01*
X284580952Y-23766666D01*
X284247619Y-23052380D01*
X284247619Y-24052380D01*
X283914285Y-23052380D02*
X283342857Y-23052380D01*
X283628571Y-24052380D02*
X283628571Y-23052380D01*
X283057142Y-23147619D02*
X283009523Y-23100000D01*
X282914285Y-23052380D01*
X282676190Y-23052380D01*
X282580952Y-23100000D01*
X282533333Y-23147619D01*
X282485714Y-23242857D01*
X282485714Y-23338095D01*
X282533333Y-23480952D01*
X283104761Y-24052380D01*
X282485714Y-24052380D01*
X24014285Y-23604761D02*
X23871428Y-23652380D01*
X23633333Y-23652380D01*
X23538095Y-23604761D01*
X23490476Y-23557142D01*
X23442857Y-23461904D01*
X23442857Y-23366666D01*
X23490476Y-23271428D01*
X23538095Y-23223809D01*
X23633333Y-23176190D01*
X23823809Y-23128571D01*
X23919047Y-23080952D01*
X23966666Y-23033333D01*
X24014285Y-22938095D01*
X24014285Y-22842857D01*
X23966666Y-22747619D01*
X23919047Y-22700000D01*
X23823809Y-22652380D01*
X23585714Y-22652380D01*
X23442857Y-22700000D01*
X23014285Y-23652380D02*
X23014285Y-22652380D01*
X22680952Y-23366666D01*
X22347619Y-22652380D01*
X22347619Y-23652380D01*
X22014285Y-22652380D02*
X21442857Y-22652380D01*
X21728571Y-23652380D02*
X21728571Y-22652380D01*
X20585714Y-23652380D02*
X21157142Y-23652380D01*
X20871428Y-23652380D02*
X20871428Y-22652380D01*
X20966666Y-22795238D01*
X21061904Y-22890476D01*
X21157142Y-22938095D01*
X34075190Y-70364761D02*
X33932333Y-70412380D01*
X33694238Y-70412380D01*
X33599000Y-70364761D01*
X33551380Y-70317142D01*
X33503761Y-70221904D01*
X33503761Y-70126666D01*
X33551380Y-70031428D01*
X33599000Y-69983809D01*
X33694238Y-69936190D01*
X33884714Y-69888571D01*
X33979952Y-69840952D01*
X34027571Y-69793333D01*
X34075190Y-69698095D01*
X34075190Y-69602857D01*
X34027571Y-69507619D01*
X33979952Y-69460000D01*
X33884714Y-69412380D01*
X33646619Y-69412380D01*
X33503761Y-69460000D01*
X33170428Y-69412380D02*
X32932333Y-70412380D01*
X32741857Y-69698095D01*
X32551380Y-70412380D01*
X32313285Y-69412380D01*
X32170428Y-70507619D02*
X31408523Y-70507619D01*
X30599000Y-70412380D02*
X30932333Y-69936190D01*
X31170428Y-70412380D02*
X31170428Y-69412380D01*
X30789476Y-69412380D01*
X30694238Y-69460000D01*
X30646619Y-69507619D01*
X30599000Y-69602857D01*
X30599000Y-69745714D01*
X30646619Y-69840952D01*
X30694238Y-69888571D01*
X30789476Y-69936190D01*
X31170428Y-69936190D01*
X30170428Y-69888571D02*
X29837095Y-69888571D01*
X29694238Y-70412380D02*
X30170428Y-70412380D01*
X30170428Y-69412380D01*
X29694238Y-69412380D01*
X29313285Y-70364761D02*
X29170428Y-70412380D01*
X28932333Y-70412380D01*
X28837095Y-70364761D01*
X28789476Y-70317142D01*
X28741857Y-70221904D01*
X28741857Y-70126666D01*
X28789476Y-70031428D01*
X28837095Y-69983809D01*
X28932333Y-69936190D01*
X29122809Y-69888571D01*
X29218047Y-69840952D01*
X29265666Y-69793333D01*
X29313285Y-69698095D01*
X29313285Y-69602857D01*
X29265666Y-69507619D01*
X29218047Y-69460000D01*
X29122809Y-69412380D01*
X28884714Y-69412380D01*
X28741857Y-69460000D01*
X28313285Y-69888571D02*
X27979952Y-69888571D01*
X27837095Y-70412380D02*
X28313285Y-70412380D01*
X28313285Y-69412380D01*
X27837095Y-69412380D01*
X27551380Y-69412380D02*
X26979952Y-69412380D01*
X27265666Y-70412380D02*
X27265666Y-69412380D01*
X26122809Y-70412380D02*
X26694238Y-70412380D01*
X26408523Y-70412380D02*
X26408523Y-69412380D01*
X26503761Y-69555238D01*
X26599000Y-69650476D01*
X26694238Y-69698095D01*
X184960130Y-43818464D02*
X183960130Y-43818464D01*
X183960130Y-44056559D01*
X184007750Y-44199416D01*
X184102988Y-44294654D01*
X184198226Y-44342273D01*
X184388702Y-44389892D01*
X184531559Y-44389892D01*
X184722035Y-44342273D01*
X184817273Y-44294654D01*
X184912511Y-44199416D01*
X184960130Y-44056559D01*
X184960130Y-43818464D01*
X184055369Y-44770845D02*
X184007750Y-44818464D01*
X183960130Y-44913702D01*
X183960130Y-45151797D01*
X184007750Y-45247035D01*
X184055369Y-45294654D01*
X184150607Y-45342273D01*
X184245845Y-45342273D01*
X184388702Y-45294654D01*
X184960130Y-44723226D01*
X184960130Y-45342273D01*
X184960130Y-46294654D02*
X184960130Y-45723226D01*
X184960130Y-46008940D02*
X183960130Y-46008940D01*
X184102988Y-45913702D01*
X184198226Y-45818464D01*
X184245845Y-45723226D01*
X50164904Y-49983880D02*
X50164904Y-50793404D01*
X50117285Y-50888642D01*
X50069666Y-50936261D01*
X49974428Y-50983880D01*
X49783952Y-50983880D01*
X49688714Y-50936261D01*
X49641095Y-50888642D01*
X49593476Y-50793404D01*
X49593476Y-49983880D01*
X48593476Y-50983880D02*
X49164904Y-50983880D01*
X48879190Y-50983880D02*
X48879190Y-49983880D01*
X48974428Y-50126738D01*
X49069666Y-50221976D01*
X49164904Y-50269595D01*
X28193904Y-41997380D02*
X28193904Y-42806904D01*
X28146285Y-42902142D01*
X28098666Y-42949761D01*
X28003428Y-42997380D01*
X27812952Y-42997380D01*
X27717714Y-42949761D01*
X27670095Y-42902142D01*
X27622476Y-42806904D01*
X27622476Y-41997380D01*
X27193904Y-42092619D02*
X27146285Y-42045000D01*
X27051047Y-41997380D01*
X26812952Y-41997380D01*
X26717714Y-42045000D01*
X26670095Y-42092619D01*
X26622476Y-42187857D01*
X26622476Y-42283095D01*
X26670095Y-42425952D01*
X27241523Y-42997380D01*
X26622476Y-42997380D01*
X61681857Y-70381761D02*
X61539000Y-70429380D01*
X61300904Y-70429380D01*
X61205666Y-70381761D01*
X61158047Y-70334142D01*
X61110428Y-70238904D01*
X61110428Y-70143666D01*
X61158047Y-70048428D01*
X61205666Y-70000809D01*
X61300904Y-69953190D01*
X61491380Y-69905571D01*
X61586619Y-69857952D01*
X61634238Y-69810333D01*
X61681857Y-69715095D01*
X61681857Y-69619857D01*
X61634238Y-69524619D01*
X61586619Y-69477000D01*
X61491380Y-69429380D01*
X61253285Y-69429380D01*
X61110428Y-69477000D01*
X60777095Y-69429380D02*
X60539000Y-70429380D01*
X60348523Y-69715095D01*
X60158047Y-70429380D01*
X59919952Y-69429380D01*
X59777095Y-70524619D02*
X59015190Y-70524619D01*
X58443761Y-69905571D02*
X58300904Y-69953190D01*
X58253285Y-70000809D01*
X58205666Y-70096047D01*
X58205666Y-70238904D01*
X58253285Y-70334142D01*
X58300904Y-70381761D01*
X58396142Y-70429380D01*
X58777095Y-70429380D01*
X58777095Y-69429380D01*
X58443761Y-69429380D01*
X58348523Y-69477000D01*
X58300904Y-69524619D01*
X58253285Y-69619857D01*
X58253285Y-69715095D01*
X58300904Y-69810333D01*
X58348523Y-69857952D01*
X58443761Y-69905571D01*
X58777095Y-69905571D01*
X57586619Y-69429380D02*
X57396142Y-69429380D01*
X57300904Y-69477000D01*
X57205666Y-69572238D01*
X57158047Y-69762714D01*
X57158047Y-70096047D01*
X57205666Y-70286523D01*
X57300904Y-70381761D01*
X57396142Y-70429380D01*
X57586619Y-70429380D01*
X57681857Y-70381761D01*
X57777095Y-70286523D01*
X57824714Y-70096047D01*
X57824714Y-69762714D01*
X57777095Y-69572238D01*
X57681857Y-69477000D01*
X57586619Y-69429380D01*
X56539000Y-69429380D02*
X56348523Y-69429380D01*
X56253285Y-69477000D01*
X56158047Y-69572238D01*
X56110428Y-69762714D01*
X56110428Y-70096047D01*
X56158047Y-70286523D01*
X56253285Y-70381761D01*
X56348523Y-70429380D01*
X56539000Y-70429380D01*
X56634238Y-70381761D01*
X56729476Y-70286523D01*
X56777095Y-70096047D01*
X56777095Y-69762714D01*
X56729476Y-69572238D01*
X56634238Y-69477000D01*
X56539000Y-69429380D01*
X55824714Y-69429380D02*
X55253285Y-69429380D01*
X55539000Y-70429380D02*
X55539000Y-69429380D01*
X54396142Y-70429380D02*
X54967571Y-70429380D01*
X54681857Y-70429380D02*
X54681857Y-69429380D01*
X54777095Y-69572238D01*
X54872333Y-69667476D01*
X54967571Y-69715095D01*
X43981666Y-25852380D02*
X44315000Y-25376190D01*
X44553095Y-25852380D02*
X44553095Y-24852380D01*
X44172142Y-24852380D01*
X44076904Y-24900000D01*
X44029285Y-24947619D01*
X43981666Y-25042857D01*
X43981666Y-25185714D01*
X44029285Y-25280952D01*
X44076904Y-25328571D01*
X44172142Y-25376190D01*
X44553095Y-25376190D01*
X43648333Y-24852380D02*
X43029285Y-24852380D01*
X43362619Y-25233333D01*
X43219761Y-25233333D01*
X43124523Y-25280952D01*
X43076904Y-25328571D01*
X43029285Y-25423809D01*
X43029285Y-25661904D01*
X43076904Y-25757142D01*
X43124523Y-25804761D01*
X43219761Y-25852380D01*
X43505476Y-25852380D01*
X43600714Y-25804761D01*
X43648333Y-25757142D01*
X49696666Y-70429380D02*
X50030000Y-69953190D01*
X50268095Y-70429380D02*
X50268095Y-69429380D01*
X49887142Y-69429380D01*
X49791904Y-69477000D01*
X49744285Y-69524619D01*
X49696666Y-69619857D01*
X49696666Y-69762714D01*
X49744285Y-69857952D01*
X49791904Y-69905571D01*
X49887142Y-69953190D01*
X50268095Y-69953190D01*
X48744285Y-70429380D02*
X49315714Y-70429380D01*
X49030000Y-70429380D02*
X49030000Y-69429380D01*
X49125238Y-69572238D01*
X49220476Y-69667476D01*
X49315714Y-69715095D01*
X48680666Y-25852380D02*
X49014000Y-25376190D01*
X49252095Y-25852380D02*
X49252095Y-24852380D01*
X48871142Y-24852380D01*
X48775904Y-24900000D01*
X48728285Y-24947619D01*
X48680666Y-25042857D01*
X48680666Y-25185714D01*
X48728285Y-25280952D01*
X48775904Y-25328571D01*
X48871142Y-25376190D01*
X49252095Y-25376190D01*
X48299714Y-24947619D02*
X48252095Y-24900000D01*
X48156857Y-24852380D01*
X47918761Y-24852380D01*
X47823523Y-24900000D01*
X47775904Y-24947619D01*
X47728285Y-25042857D01*
X47728285Y-25138095D01*
X47775904Y-25280952D01*
X48347333Y-25852380D01*
X47728285Y-25852380D01*
X38560333Y-26852571D02*
X38893666Y-26852571D01*
X38893666Y-27376380D02*
X38893666Y-26376380D01*
X38417476Y-26376380D01*
X37512714Y-27376380D02*
X38084142Y-27376380D01*
X37798428Y-27376380D02*
X37798428Y-26376380D01*
X37893666Y-26519238D01*
X37988904Y-26614476D01*
X38084142Y-26662095D01*
X50815666Y-29900571D02*
X50482333Y-29900571D01*
X50339476Y-30424380D02*
X50815666Y-30424380D01*
X50815666Y-29424380D01*
X50339476Y-29424380D01*
X49958523Y-30376761D02*
X49815666Y-30424380D01*
X49577571Y-30424380D01*
X49482333Y-30376761D01*
X49434714Y-30329142D01*
X49387095Y-30233904D01*
X49387095Y-30138666D01*
X49434714Y-30043428D01*
X49482333Y-29995809D01*
X49577571Y-29948190D01*
X49768047Y-29900571D01*
X49863285Y-29852952D01*
X49910904Y-29805333D01*
X49958523Y-29710095D01*
X49958523Y-29614857D01*
X49910904Y-29519619D01*
X49863285Y-29472000D01*
X49768047Y-29424380D01*
X49529952Y-29424380D01*
X49387095Y-29472000D01*
X48958523Y-30424380D02*
X48958523Y-29424380D01*
X48720428Y-29424380D01*
X48577571Y-29472000D01*
X48482333Y-29567238D01*
X48434714Y-29662476D01*
X48387095Y-29852952D01*
X48387095Y-29995809D01*
X48434714Y-30186285D01*
X48482333Y-30281523D01*
X48577571Y-30376761D01*
X48720428Y-30424380D01*
X48958523Y-30424380D01*
X48006142Y-29519619D02*
X47958523Y-29472000D01*
X47863285Y-29424380D01*
X47625190Y-29424380D01*
X47529952Y-29472000D01*
X47482333Y-29519619D01*
X47434714Y-29614857D01*
X47434714Y-29710095D01*
X47482333Y-29852952D01*
X48053761Y-30424380D01*
X47434714Y-30424380D01*
X44973666Y-29900571D02*
X44640333Y-29900571D01*
X44497476Y-30424380D02*
X44973666Y-30424380D01*
X44973666Y-29424380D01*
X44497476Y-29424380D01*
X44116523Y-30376761D02*
X43973666Y-30424380D01*
X43735571Y-30424380D01*
X43640333Y-30376761D01*
X43592714Y-30329142D01*
X43545095Y-30233904D01*
X43545095Y-30138666D01*
X43592714Y-30043428D01*
X43640333Y-29995809D01*
X43735571Y-29948190D01*
X43926047Y-29900571D01*
X44021285Y-29852952D01*
X44068904Y-29805333D01*
X44116523Y-29710095D01*
X44116523Y-29614857D01*
X44068904Y-29519619D01*
X44021285Y-29472000D01*
X43926047Y-29424380D01*
X43687952Y-29424380D01*
X43545095Y-29472000D01*
X43116523Y-30424380D02*
X43116523Y-29424380D01*
X42878428Y-29424380D01*
X42735571Y-29472000D01*
X42640333Y-29567238D01*
X42592714Y-29662476D01*
X42545095Y-29852952D01*
X42545095Y-29995809D01*
X42592714Y-30186285D01*
X42640333Y-30281523D01*
X42735571Y-30376761D01*
X42878428Y-30424380D01*
X43116523Y-30424380D01*
X41592714Y-30424380D02*
X42164142Y-30424380D01*
X41878428Y-30424380D02*
X41878428Y-29424380D01*
X41973666Y-29567238D01*
X42068904Y-29662476D01*
X42164142Y-29710095D01*
X256397630Y-81918464D02*
X255397630Y-81918464D01*
X255397630Y-82156559D01*
X255445250Y-82299416D01*
X255540488Y-82394654D01*
X255635726Y-82442273D01*
X255826202Y-82489892D01*
X255969059Y-82489892D01*
X256159535Y-82442273D01*
X256254773Y-82394654D01*
X256350011Y-82299416D01*
X256397630Y-82156559D01*
X256397630Y-81918464D01*
X255730964Y-83347035D02*
X256397630Y-83347035D01*
X255350011Y-83108940D02*
X256064297Y-82870845D01*
X256064297Y-83489892D01*
X255730964Y-84299416D02*
X256397630Y-84299416D01*
X255350011Y-84061321D02*
X256064297Y-83823226D01*
X256064297Y-84442273D01*
X232585130Y-81918464D02*
X231585130Y-81918464D01*
X231585130Y-82156559D01*
X231632750Y-82299416D01*
X231727988Y-82394654D01*
X231823226Y-82442273D01*
X232013702Y-82489892D01*
X232156559Y-82489892D01*
X232347035Y-82442273D01*
X232442273Y-82394654D01*
X232537511Y-82299416D01*
X232585130Y-82156559D01*
X232585130Y-81918464D01*
X231918464Y-83347035D02*
X232585130Y-83347035D01*
X231537511Y-83108940D02*
X232251797Y-82870845D01*
X232251797Y-83489892D01*
X231585130Y-83775607D02*
X231585130Y-84394654D01*
X231966083Y-84061321D01*
X231966083Y-84204178D01*
X232013702Y-84299416D01*
X232061321Y-84347035D01*
X232156559Y-84394654D01*
X232394654Y-84394654D01*
X232489892Y-84347035D01*
X232537511Y-84299416D01*
X232585130Y-84204178D01*
X232585130Y-83918464D01*
X232537511Y-83823226D01*
X232489892Y-83775607D01*
X208772630Y-81918464D02*
X207772630Y-81918464D01*
X207772630Y-82156559D01*
X207820250Y-82299416D01*
X207915488Y-82394654D01*
X208010726Y-82442273D01*
X208201202Y-82489892D01*
X208344059Y-82489892D01*
X208534535Y-82442273D01*
X208629773Y-82394654D01*
X208725011Y-82299416D01*
X208772630Y-82156559D01*
X208772630Y-81918464D01*
X208105964Y-83347035D02*
X208772630Y-83347035D01*
X207725011Y-83108940D02*
X208439297Y-82870845D01*
X208439297Y-83489892D01*
X207867869Y-83823226D02*
X207820250Y-83870845D01*
X207772630Y-83966083D01*
X207772630Y-84204178D01*
X207820250Y-84299416D01*
X207867869Y-84347035D01*
X207963107Y-84394654D01*
X208058345Y-84394654D01*
X208201202Y-84347035D01*
X208772630Y-83775607D01*
X208772630Y-84394654D01*
X163012380Y-77779714D02*
X162012380Y-77779714D01*
X162012380Y-78017809D01*
X162060000Y-78160666D01*
X162155238Y-78255904D01*
X162250476Y-78303523D01*
X162440952Y-78351142D01*
X162583809Y-78351142D01*
X162774285Y-78303523D01*
X162869523Y-78255904D01*
X162964761Y-78160666D01*
X163012380Y-78017809D01*
X163012380Y-77779714D01*
X162345714Y-79208285D02*
X163012380Y-79208285D01*
X161964761Y-78970190D02*
X162679047Y-78732095D01*
X162679047Y-79351142D01*
X163012380Y-80255904D02*
X163012380Y-79684476D01*
X163012380Y-79970190D02*
X162012380Y-79970190D01*
X162155238Y-79874952D01*
X162250476Y-79779714D01*
X162298095Y-79684476D01*
X123047630Y-81918464D02*
X122047630Y-81918464D01*
X122047630Y-82156559D01*
X122095250Y-82299416D01*
X122190488Y-82394654D01*
X122285726Y-82442273D01*
X122476202Y-82489892D01*
X122619059Y-82489892D01*
X122809535Y-82442273D01*
X122904773Y-82394654D01*
X123000011Y-82299416D01*
X123047630Y-82156559D01*
X123047630Y-81918464D01*
X122380964Y-83347035D02*
X123047630Y-83347035D01*
X122000011Y-83108940D02*
X122714297Y-82870845D01*
X122714297Y-83489892D01*
X122047630Y-84061321D02*
X122047630Y-84156559D01*
X122095250Y-84251797D01*
X122142869Y-84299416D01*
X122238107Y-84347035D01*
X122428583Y-84394654D01*
X122666678Y-84394654D01*
X122857154Y-84347035D01*
X122952392Y-84299416D01*
X123000011Y-84251797D01*
X123047630Y-84156559D01*
X123047630Y-84061321D01*
X123000011Y-83966083D01*
X122952392Y-83918464D01*
X122857154Y-83870845D01*
X122666678Y-83823226D01*
X122428583Y-83823226D01*
X122238107Y-83870845D01*
X122142869Y-83918464D01*
X122095250Y-83966083D01*
X122047630Y-84061321D01*
X89710130Y-81918464D02*
X88710130Y-81918464D01*
X88710130Y-82156559D01*
X88757750Y-82299416D01*
X88852988Y-82394654D01*
X88948226Y-82442273D01*
X89138702Y-82489892D01*
X89281559Y-82489892D01*
X89472035Y-82442273D01*
X89567273Y-82394654D01*
X89662511Y-82299416D01*
X89710130Y-82156559D01*
X89710130Y-81918464D01*
X88710130Y-82823226D02*
X88710130Y-83442273D01*
X89091083Y-83108940D01*
X89091083Y-83251797D01*
X89138702Y-83347035D01*
X89186321Y-83394654D01*
X89281559Y-83442273D01*
X89519654Y-83442273D01*
X89614892Y-83394654D01*
X89662511Y-83347035D01*
X89710130Y-83251797D01*
X89710130Y-82966083D01*
X89662511Y-82870845D01*
X89614892Y-82823226D01*
X89710130Y-83918464D02*
X89710130Y-84108940D01*
X89662511Y-84204178D01*
X89614892Y-84251797D01*
X89472035Y-84347035D01*
X89281559Y-84394654D01*
X88900607Y-84394654D01*
X88805369Y-84347035D01*
X88757750Y-84299416D01*
X88710130Y-84204178D01*
X88710130Y-84013702D01*
X88757750Y-83918464D01*
X88805369Y-83870845D01*
X88900607Y-83823226D01*
X89138702Y-83823226D01*
X89233940Y-83870845D01*
X89281559Y-83918464D01*
X89329178Y-84013702D01*
X89329178Y-84204178D01*
X89281559Y-84299416D01*
X89233940Y-84347035D01*
X89138702Y-84394654D01*
X65897630Y-81918464D02*
X64897630Y-81918464D01*
X64897630Y-82156559D01*
X64945250Y-82299416D01*
X65040488Y-82394654D01*
X65135726Y-82442273D01*
X65326202Y-82489892D01*
X65469059Y-82489892D01*
X65659535Y-82442273D01*
X65754773Y-82394654D01*
X65850011Y-82299416D01*
X65897630Y-82156559D01*
X65897630Y-81918464D01*
X64897630Y-82823226D02*
X64897630Y-83442273D01*
X65278583Y-83108940D01*
X65278583Y-83251797D01*
X65326202Y-83347035D01*
X65373821Y-83394654D01*
X65469059Y-83442273D01*
X65707154Y-83442273D01*
X65802392Y-83394654D01*
X65850011Y-83347035D01*
X65897630Y-83251797D01*
X65897630Y-82966083D01*
X65850011Y-82870845D01*
X65802392Y-82823226D01*
X65326202Y-84013702D02*
X65278583Y-83918464D01*
X65230964Y-83870845D01*
X65135726Y-83823226D01*
X65088107Y-83823226D01*
X64992869Y-83870845D01*
X64945250Y-83918464D01*
X64897630Y-84013702D01*
X64897630Y-84204178D01*
X64945250Y-84299416D01*
X64992869Y-84347035D01*
X65088107Y-84394654D01*
X65135726Y-84394654D01*
X65230964Y-84347035D01*
X65278583Y-84299416D01*
X65326202Y-84204178D01*
X65326202Y-84013702D01*
X65373821Y-83918464D01*
X65421440Y-83870845D01*
X65516678Y-83823226D01*
X65707154Y-83823226D01*
X65802392Y-83870845D01*
X65850011Y-83918464D01*
X65897630Y-84013702D01*
X65897630Y-84204178D01*
X65850011Y-84299416D01*
X65802392Y-84347035D01*
X65707154Y-84394654D01*
X65516678Y-84394654D01*
X65421440Y-84347035D01*
X65373821Y-84299416D01*
X65326202Y-84204178D01*
X277828880Y-62868464D02*
X276828880Y-62868464D01*
X276828880Y-63106559D01*
X276876500Y-63249416D01*
X276971738Y-63344654D01*
X277066976Y-63392273D01*
X277257452Y-63439892D01*
X277400309Y-63439892D01*
X277590785Y-63392273D01*
X277686023Y-63344654D01*
X277781261Y-63249416D01*
X277828880Y-63106559D01*
X277828880Y-62868464D01*
X276828880Y-63773226D02*
X276828880Y-64392273D01*
X277209833Y-64058940D01*
X277209833Y-64201797D01*
X277257452Y-64297035D01*
X277305071Y-64344654D01*
X277400309Y-64392273D01*
X277638404Y-64392273D01*
X277733642Y-64344654D01*
X277781261Y-64297035D01*
X277828880Y-64201797D01*
X277828880Y-63916083D01*
X277781261Y-63820845D01*
X277733642Y-63773226D01*
X276828880Y-64725607D02*
X276828880Y-65392273D01*
X277828880Y-64963702D01*
X254016380Y-62868464D02*
X253016380Y-62868464D01*
X253016380Y-63106559D01*
X253064000Y-63249416D01*
X253159238Y-63344654D01*
X253254476Y-63392273D01*
X253444952Y-63439892D01*
X253587809Y-63439892D01*
X253778285Y-63392273D01*
X253873523Y-63344654D01*
X253968761Y-63249416D01*
X254016380Y-63106559D01*
X254016380Y-62868464D01*
X253016380Y-63773226D02*
X253016380Y-64392273D01*
X253397333Y-64058940D01*
X253397333Y-64201797D01*
X253444952Y-64297035D01*
X253492571Y-64344654D01*
X253587809Y-64392273D01*
X253825904Y-64392273D01*
X253921142Y-64344654D01*
X253968761Y-64297035D01*
X254016380Y-64201797D01*
X254016380Y-63916083D01*
X253968761Y-63820845D01*
X253921142Y-63773226D01*
X253016380Y-65249416D02*
X253016380Y-65058940D01*
X253064000Y-64963702D01*
X253111619Y-64916083D01*
X253254476Y-64820845D01*
X253444952Y-64773226D01*
X253825904Y-64773226D01*
X253921142Y-64820845D01*
X253968761Y-64868464D01*
X254016380Y-64963702D01*
X254016380Y-65154178D01*
X253968761Y-65249416D01*
X253921142Y-65297035D01*
X253825904Y-65344654D01*
X253587809Y-65344654D01*
X253492571Y-65297035D01*
X253444952Y-65249416D01*
X253397333Y-65154178D01*
X253397333Y-64963702D01*
X253444952Y-64868464D01*
X253492571Y-64820845D01*
X253587809Y-64773226D01*
X232585130Y-62868464D02*
X231585130Y-62868464D01*
X231585130Y-63106559D01*
X231632750Y-63249416D01*
X231727988Y-63344654D01*
X231823226Y-63392273D01*
X232013702Y-63439892D01*
X232156559Y-63439892D01*
X232347035Y-63392273D01*
X232442273Y-63344654D01*
X232537511Y-63249416D01*
X232585130Y-63106559D01*
X232585130Y-62868464D01*
X231585130Y-63773226D02*
X231585130Y-64392273D01*
X231966083Y-64058940D01*
X231966083Y-64201797D01*
X232013702Y-64297035D01*
X232061321Y-64344654D01*
X232156559Y-64392273D01*
X232394654Y-64392273D01*
X232489892Y-64344654D01*
X232537511Y-64297035D01*
X232585130Y-64201797D01*
X232585130Y-63916083D01*
X232537511Y-63820845D01*
X232489892Y-63773226D01*
X231585130Y-65297035D02*
X231585130Y-64820845D01*
X232061321Y-64773226D01*
X232013702Y-64820845D01*
X231966083Y-64916083D01*
X231966083Y-65154178D01*
X232013702Y-65249416D01*
X232061321Y-65297035D01*
X232156559Y-65344654D01*
X232394654Y-65344654D01*
X232489892Y-65297035D01*
X232537511Y-65249416D01*
X232585130Y-65154178D01*
X232585130Y-64916083D01*
X232537511Y-64820845D01*
X232489892Y-64773226D01*
X213535130Y-62868464D02*
X212535130Y-62868464D01*
X212535130Y-63106559D01*
X212582750Y-63249416D01*
X212677988Y-63344654D01*
X212773226Y-63392273D01*
X212963702Y-63439892D01*
X213106559Y-63439892D01*
X213297035Y-63392273D01*
X213392273Y-63344654D01*
X213487511Y-63249416D01*
X213535130Y-63106559D01*
X213535130Y-62868464D01*
X212535130Y-63773226D02*
X212535130Y-64392273D01*
X212916083Y-64058940D01*
X212916083Y-64201797D01*
X212963702Y-64297035D01*
X213011321Y-64344654D01*
X213106559Y-64392273D01*
X213344654Y-64392273D01*
X213439892Y-64344654D01*
X213487511Y-64297035D01*
X213535130Y-64201797D01*
X213535130Y-63916083D01*
X213487511Y-63820845D01*
X213439892Y-63773226D01*
X212868464Y-65249416D02*
X213535130Y-65249416D01*
X212487511Y-65011321D02*
X213201797Y-64773226D01*
X213201797Y-65392273D01*
X194485130Y-62868464D02*
X193485130Y-62868464D01*
X193485130Y-63106559D01*
X193532750Y-63249416D01*
X193627988Y-63344654D01*
X193723226Y-63392273D01*
X193913702Y-63439892D01*
X194056559Y-63439892D01*
X194247035Y-63392273D01*
X194342273Y-63344654D01*
X194437511Y-63249416D01*
X194485130Y-63106559D01*
X194485130Y-62868464D01*
X193485130Y-63773226D02*
X193485130Y-64392273D01*
X193866083Y-64058940D01*
X193866083Y-64201797D01*
X193913702Y-64297035D01*
X193961321Y-64344654D01*
X194056559Y-64392273D01*
X194294654Y-64392273D01*
X194389892Y-64344654D01*
X194437511Y-64297035D01*
X194485130Y-64201797D01*
X194485130Y-63916083D01*
X194437511Y-63820845D01*
X194389892Y-63773226D01*
X193485130Y-64725607D02*
X193485130Y-65344654D01*
X193866083Y-65011321D01*
X193866083Y-65154178D01*
X193913702Y-65249416D01*
X193961321Y-65297035D01*
X194056559Y-65344654D01*
X194294654Y-65344654D01*
X194389892Y-65297035D01*
X194437511Y-65249416D01*
X194485130Y-65154178D01*
X194485130Y-64868464D01*
X194437511Y-64773226D01*
X194389892Y-64725607D01*
X175435130Y-62868464D02*
X174435130Y-62868464D01*
X174435130Y-63106559D01*
X174482750Y-63249416D01*
X174577988Y-63344654D01*
X174673226Y-63392273D01*
X174863702Y-63439892D01*
X175006559Y-63439892D01*
X175197035Y-63392273D01*
X175292273Y-63344654D01*
X175387511Y-63249416D01*
X175435130Y-63106559D01*
X175435130Y-62868464D01*
X174435130Y-63773226D02*
X174435130Y-64392273D01*
X174816083Y-64058940D01*
X174816083Y-64201797D01*
X174863702Y-64297035D01*
X174911321Y-64344654D01*
X175006559Y-64392273D01*
X175244654Y-64392273D01*
X175339892Y-64344654D01*
X175387511Y-64297035D01*
X175435130Y-64201797D01*
X175435130Y-63916083D01*
X175387511Y-63820845D01*
X175339892Y-63773226D01*
X174530369Y-64773226D02*
X174482750Y-64820845D01*
X174435130Y-64916083D01*
X174435130Y-65154178D01*
X174482750Y-65249416D01*
X174530369Y-65297035D01*
X174625607Y-65344654D01*
X174720845Y-65344654D01*
X174863702Y-65297035D01*
X175435130Y-64725607D01*
X175435130Y-65344654D01*
X156385130Y-62868464D02*
X155385130Y-62868464D01*
X155385130Y-63106559D01*
X155432750Y-63249416D01*
X155527988Y-63344654D01*
X155623226Y-63392273D01*
X155813702Y-63439892D01*
X155956559Y-63439892D01*
X156147035Y-63392273D01*
X156242273Y-63344654D01*
X156337511Y-63249416D01*
X156385130Y-63106559D01*
X156385130Y-62868464D01*
X155385130Y-63773226D02*
X155385130Y-64392273D01*
X155766083Y-64058940D01*
X155766083Y-64201797D01*
X155813702Y-64297035D01*
X155861321Y-64344654D01*
X155956559Y-64392273D01*
X156194654Y-64392273D01*
X156289892Y-64344654D01*
X156337511Y-64297035D01*
X156385130Y-64201797D01*
X156385130Y-63916083D01*
X156337511Y-63820845D01*
X156289892Y-63773226D01*
X156385130Y-65344654D02*
X156385130Y-64773226D01*
X156385130Y-65058940D02*
X155385130Y-65058940D01*
X155527988Y-64963702D01*
X155623226Y-64868464D01*
X155670845Y-64773226D01*
X137335130Y-62868464D02*
X136335130Y-62868464D01*
X136335130Y-63106559D01*
X136382750Y-63249416D01*
X136477988Y-63344654D01*
X136573226Y-63392273D01*
X136763702Y-63439892D01*
X136906559Y-63439892D01*
X137097035Y-63392273D01*
X137192273Y-63344654D01*
X137287511Y-63249416D01*
X137335130Y-63106559D01*
X137335130Y-62868464D01*
X136335130Y-63773226D02*
X136335130Y-64392273D01*
X136716083Y-64058940D01*
X136716083Y-64201797D01*
X136763702Y-64297035D01*
X136811321Y-64344654D01*
X136906559Y-64392273D01*
X137144654Y-64392273D01*
X137239892Y-64344654D01*
X137287511Y-64297035D01*
X137335130Y-64201797D01*
X137335130Y-63916083D01*
X137287511Y-63820845D01*
X137239892Y-63773226D01*
X136335130Y-65011321D02*
X136335130Y-65106559D01*
X136382750Y-65201797D01*
X136430369Y-65249416D01*
X136525607Y-65297035D01*
X136716083Y-65344654D01*
X136954178Y-65344654D01*
X137144654Y-65297035D01*
X137239892Y-65249416D01*
X137287511Y-65201797D01*
X137335130Y-65106559D01*
X137335130Y-65011321D01*
X137287511Y-64916083D01*
X137239892Y-64868464D01*
X137144654Y-64820845D01*
X136954178Y-64773226D01*
X136716083Y-64773226D01*
X136525607Y-64820845D01*
X136430369Y-64868464D01*
X136382750Y-64916083D01*
X136335130Y-65011321D01*
X118285130Y-62868464D02*
X117285130Y-62868464D01*
X117285130Y-63106559D01*
X117332750Y-63249416D01*
X117427988Y-63344654D01*
X117523226Y-63392273D01*
X117713702Y-63439892D01*
X117856559Y-63439892D01*
X118047035Y-63392273D01*
X118142273Y-63344654D01*
X118237511Y-63249416D01*
X118285130Y-63106559D01*
X118285130Y-62868464D01*
X117380369Y-63820845D02*
X117332750Y-63868464D01*
X117285130Y-63963702D01*
X117285130Y-64201797D01*
X117332750Y-64297035D01*
X117380369Y-64344654D01*
X117475607Y-64392273D01*
X117570845Y-64392273D01*
X117713702Y-64344654D01*
X118285130Y-63773226D01*
X118285130Y-64392273D01*
X118285130Y-64868464D02*
X118285130Y-65058940D01*
X118237511Y-65154178D01*
X118189892Y-65201797D01*
X118047035Y-65297035D01*
X117856559Y-65344654D01*
X117475607Y-65344654D01*
X117380369Y-65297035D01*
X117332750Y-65249416D01*
X117285130Y-65154178D01*
X117285130Y-64963702D01*
X117332750Y-64868464D01*
X117380369Y-64820845D01*
X117475607Y-64773226D01*
X117713702Y-64773226D01*
X117808940Y-64820845D01*
X117856559Y-64868464D01*
X117904178Y-64963702D01*
X117904178Y-65154178D01*
X117856559Y-65249416D01*
X117808940Y-65297035D01*
X117713702Y-65344654D01*
X99235130Y-62868464D02*
X98235130Y-62868464D01*
X98235130Y-63106559D01*
X98282750Y-63249416D01*
X98377988Y-63344654D01*
X98473226Y-63392273D01*
X98663702Y-63439892D01*
X98806559Y-63439892D01*
X98997035Y-63392273D01*
X99092273Y-63344654D01*
X99187511Y-63249416D01*
X99235130Y-63106559D01*
X99235130Y-62868464D01*
X98330369Y-63820845D02*
X98282750Y-63868464D01*
X98235130Y-63963702D01*
X98235130Y-64201797D01*
X98282750Y-64297035D01*
X98330369Y-64344654D01*
X98425607Y-64392273D01*
X98520845Y-64392273D01*
X98663702Y-64344654D01*
X99235130Y-63773226D01*
X99235130Y-64392273D01*
X98663702Y-64963702D02*
X98616083Y-64868464D01*
X98568464Y-64820845D01*
X98473226Y-64773226D01*
X98425607Y-64773226D01*
X98330369Y-64820845D01*
X98282750Y-64868464D01*
X98235130Y-64963702D01*
X98235130Y-65154178D01*
X98282750Y-65249416D01*
X98330369Y-65297035D01*
X98425607Y-65344654D01*
X98473226Y-65344654D01*
X98568464Y-65297035D01*
X98616083Y-65249416D01*
X98663702Y-65154178D01*
X98663702Y-64963702D01*
X98711321Y-64868464D01*
X98758940Y-64820845D01*
X98854178Y-64773226D01*
X99044654Y-64773226D01*
X99139892Y-64820845D01*
X99187511Y-64868464D01*
X99235130Y-64963702D01*
X99235130Y-65154178D01*
X99187511Y-65249416D01*
X99139892Y-65297035D01*
X99044654Y-65344654D01*
X98854178Y-65344654D01*
X98758940Y-65297035D01*
X98711321Y-65249416D01*
X98663702Y-65154178D01*
X80185130Y-62868464D02*
X79185130Y-62868464D01*
X79185130Y-63106559D01*
X79232750Y-63249416D01*
X79327988Y-63344654D01*
X79423226Y-63392273D01*
X79613702Y-63439892D01*
X79756559Y-63439892D01*
X79947035Y-63392273D01*
X80042273Y-63344654D01*
X80137511Y-63249416D01*
X80185130Y-63106559D01*
X80185130Y-62868464D01*
X79280369Y-63820845D02*
X79232750Y-63868464D01*
X79185130Y-63963702D01*
X79185130Y-64201797D01*
X79232750Y-64297035D01*
X79280369Y-64344654D01*
X79375607Y-64392273D01*
X79470845Y-64392273D01*
X79613702Y-64344654D01*
X80185130Y-63773226D01*
X80185130Y-64392273D01*
X79185130Y-64725607D02*
X79185130Y-65392273D01*
X80185130Y-64963702D01*
X49228880Y-62868464D02*
X48228880Y-62868464D01*
X48228880Y-63106559D01*
X48276500Y-63249416D01*
X48371738Y-63344654D01*
X48466976Y-63392273D01*
X48657452Y-63439892D01*
X48800309Y-63439892D01*
X48990785Y-63392273D01*
X49086023Y-63344654D01*
X49181261Y-63249416D01*
X49228880Y-63106559D01*
X49228880Y-62868464D01*
X48324119Y-63820845D02*
X48276500Y-63868464D01*
X48228880Y-63963702D01*
X48228880Y-64201797D01*
X48276500Y-64297035D01*
X48324119Y-64344654D01*
X48419357Y-64392273D01*
X48514595Y-64392273D01*
X48657452Y-64344654D01*
X49228880Y-63773226D01*
X49228880Y-64392273D01*
X48228880Y-65249416D02*
X48228880Y-65058940D01*
X48276500Y-64963702D01*
X48324119Y-64916083D01*
X48466976Y-64820845D01*
X48657452Y-64773226D01*
X49038404Y-64773226D01*
X49133642Y-64820845D01*
X49181261Y-64868464D01*
X49228880Y-64963702D01*
X49228880Y-65154178D01*
X49181261Y-65249416D01*
X49133642Y-65297035D01*
X49038404Y-65344654D01*
X48800309Y-65344654D01*
X48705071Y-65297035D01*
X48657452Y-65249416D01*
X48609833Y-65154178D01*
X48609833Y-64963702D01*
X48657452Y-64868464D01*
X48705071Y-64820845D01*
X48800309Y-64773226D01*
X273066380Y-43818464D02*
X272066380Y-43818464D01*
X272066380Y-44056559D01*
X272114000Y-44199416D01*
X272209238Y-44294654D01*
X272304476Y-44342273D01*
X272494952Y-44389892D01*
X272637809Y-44389892D01*
X272828285Y-44342273D01*
X272923523Y-44294654D01*
X273018761Y-44199416D01*
X273066380Y-44056559D01*
X273066380Y-43818464D01*
X272161619Y-44770845D02*
X272114000Y-44818464D01*
X272066380Y-44913702D01*
X272066380Y-45151797D01*
X272114000Y-45247035D01*
X272161619Y-45294654D01*
X272256857Y-45342273D01*
X272352095Y-45342273D01*
X272494952Y-45294654D01*
X273066380Y-44723226D01*
X273066380Y-45342273D01*
X272066380Y-46247035D02*
X272066380Y-45770845D01*
X272542571Y-45723226D01*
X272494952Y-45770845D01*
X272447333Y-45866083D01*
X272447333Y-46104178D01*
X272494952Y-46199416D01*
X272542571Y-46247035D01*
X272637809Y-46294654D01*
X272875904Y-46294654D01*
X272971142Y-46247035D01*
X273018761Y-46199416D01*
X273066380Y-46104178D01*
X273066380Y-45866083D01*
X273018761Y-45770845D01*
X272971142Y-45723226D01*
X242110130Y-43818464D02*
X241110130Y-43818464D01*
X241110130Y-44056559D01*
X241157750Y-44199416D01*
X241252988Y-44294654D01*
X241348226Y-44342273D01*
X241538702Y-44389892D01*
X241681559Y-44389892D01*
X241872035Y-44342273D01*
X241967273Y-44294654D01*
X242062511Y-44199416D01*
X242110130Y-44056559D01*
X242110130Y-43818464D01*
X241205369Y-44770845D02*
X241157750Y-44818464D01*
X241110130Y-44913702D01*
X241110130Y-45151797D01*
X241157750Y-45247035D01*
X241205369Y-45294654D01*
X241300607Y-45342273D01*
X241395845Y-45342273D01*
X241538702Y-45294654D01*
X242110130Y-44723226D01*
X242110130Y-45342273D01*
X241443464Y-46199416D02*
X242110130Y-46199416D01*
X241062511Y-45961321D02*
X241776797Y-45723226D01*
X241776797Y-46342273D01*
X223060130Y-43818464D02*
X222060130Y-43818464D01*
X222060130Y-44056559D01*
X222107750Y-44199416D01*
X222202988Y-44294654D01*
X222298226Y-44342273D01*
X222488702Y-44389892D01*
X222631559Y-44389892D01*
X222822035Y-44342273D01*
X222917273Y-44294654D01*
X223012511Y-44199416D01*
X223060130Y-44056559D01*
X223060130Y-43818464D01*
X222155369Y-44770845D02*
X222107750Y-44818464D01*
X222060130Y-44913702D01*
X222060130Y-45151797D01*
X222107750Y-45247035D01*
X222155369Y-45294654D01*
X222250607Y-45342273D01*
X222345845Y-45342273D01*
X222488702Y-45294654D01*
X223060130Y-44723226D01*
X223060130Y-45342273D01*
X222060130Y-45675607D02*
X222060130Y-46294654D01*
X222441083Y-45961321D01*
X222441083Y-46104178D01*
X222488702Y-46199416D01*
X222536321Y-46247035D01*
X222631559Y-46294654D01*
X222869654Y-46294654D01*
X222964892Y-46247035D01*
X223012511Y-46199416D01*
X223060130Y-46104178D01*
X223060130Y-45818464D01*
X223012511Y-45723226D01*
X222964892Y-45675607D01*
X204010130Y-43818464D02*
X203010130Y-43818464D01*
X203010130Y-44056559D01*
X203057750Y-44199416D01*
X203152988Y-44294654D01*
X203248226Y-44342273D01*
X203438702Y-44389892D01*
X203581559Y-44389892D01*
X203772035Y-44342273D01*
X203867273Y-44294654D01*
X203962511Y-44199416D01*
X204010130Y-44056559D01*
X204010130Y-43818464D01*
X203105369Y-44770845D02*
X203057750Y-44818464D01*
X203010130Y-44913702D01*
X203010130Y-45151797D01*
X203057750Y-45247035D01*
X203105369Y-45294654D01*
X203200607Y-45342273D01*
X203295845Y-45342273D01*
X203438702Y-45294654D01*
X204010130Y-44723226D01*
X204010130Y-45342273D01*
X203105369Y-45723226D02*
X203057750Y-45770845D01*
X203010130Y-45866083D01*
X203010130Y-46104178D01*
X203057750Y-46199416D01*
X203105369Y-46247035D01*
X203200607Y-46294654D01*
X203295845Y-46294654D01*
X203438702Y-46247035D01*
X204010130Y-45675607D01*
X204010130Y-46294654D01*
X165910130Y-43818464D02*
X164910130Y-43818464D01*
X164910130Y-44056559D01*
X164957750Y-44199416D01*
X165052988Y-44294654D01*
X165148226Y-44342273D01*
X165338702Y-44389892D01*
X165481559Y-44389892D01*
X165672035Y-44342273D01*
X165767273Y-44294654D01*
X165862511Y-44199416D01*
X165910130Y-44056559D01*
X165910130Y-43818464D01*
X165005369Y-44770845D02*
X164957750Y-44818464D01*
X164910130Y-44913702D01*
X164910130Y-45151797D01*
X164957750Y-45247035D01*
X165005369Y-45294654D01*
X165100607Y-45342273D01*
X165195845Y-45342273D01*
X165338702Y-45294654D01*
X165910130Y-44723226D01*
X165910130Y-45342273D01*
X164910130Y-45961321D02*
X164910130Y-46056559D01*
X164957750Y-46151797D01*
X165005369Y-46199416D01*
X165100607Y-46247035D01*
X165291083Y-46294654D01*
X165529178Y-46294654D01*
X165719654Y-46247035D01*
X165814892Y-46199416D01*
X165862511Y-46151797D01*
X165910130Y-46056559D01*
X165910130Y-45961321D01*
X165862511Y-45866083D01*
X165814892Y-45818464D01*
X165719654Y-45770845D01*
X165529178Y-45723226D01*
X165291083Y-45723226D01*
X165100607Y-45770845D01*
X165005369Y-45818464D01*
X164957750Y-45866083D01*
X164910130Y-45961321D01*
X146860130Y-43818464D02*
X145860130Y-43818464D01*
X145860130Y-44056559D01*
X145907750Y-44199416D01*
X146002988Y-44294654D01*
X146098226Y-44342273D01*
X146288702Y-44389892D01*
X146431559Y-44389892D01*
X146622035Y-44342273D01*
X146717273Y-44294654D01*
X146812511Y-44199416D01*
X146860130Y-44056559D01*
X146860130Y-43818464D01*
X146860130Y-45342273D02*
X146860130Y-44770845D01*
X146860130Y-45056559D02*
X145860130Y-45056559D01*
X146002988Y-44961321D01*
X146098226Y-44866083D01*
X146145845Y-44770845D01*
X146860130Y-45818464D02*
X146860130Y-46008940D01*
X146812511Y-46104178D01*
X146764892Y-46151797D01*
X146622035Y-46247035D01*
X146431559Y-46294654D01*
X146050607Y-46294654D01*
X145955369Y-46247035D01*
X145907750Y-46199416D01*
X145860130Y-46104178D01*
X145860130Y-45913702D01*
X145907750Y-45818464D01*
X145955369Y-45770845D01*
X146050607Y-45723226D01*
X146288702Y-45723226D01*
X146383940Y-45770845D01*
X146431559Y-45818464D01*
X146479178Y-45913702D01*
X146479178Y-46104178D01*
X146431559Y-46199416D01*
X146383940Y-46247035D01*
X146288702Y-46294654D01*
X127810130Y-43818464D02*
X126810130Y-43818464D01*
X126810130Y-44056559D01*
X126857750Y-44199416D01*
X126952988Y-44294654D01*
X127048226Y-44342273D01*
X127238702Y-44389892D01*
X127381559Y-44389892D01*
X127572035Y-44342273D01*
X127667273Y-44294654D01*
X127762511Y-44199416D01*
X127810130Y-44056559D01*
X127810130Y-43818464D01*
X127810130Y-45342273D02*
X127810130Y-44770845D01*
X127810130Y-45056559D02*
X126810130Y-45056559D01*
X126952988Y-44961321D01*
X127048226Y-44866083D01*
X127095845Y-44770845D01*
X127238702Y-45913702D02*
X127191083Y-45818464D01*
X127143464Y-45770845D01*
X127048226Y-45723226D01*
X127000607Y-45723226D01*
X126905369Y-45770845D01*
X126857750Y-45818464D01*
X126810130Y-45913702D01*
X126810130Y-46104178D01*
X126857750Y-46199416D01*
X126905369Y-46247035D01*
X127000607Y-46294654D01*
X127048226Y-46294654D01*
X127143464Y-46247035D01*
X127191083Y-46199416D01*
X127238702Y-46104178D01*
X127238702Y-45913702D01*
X127286321Y-45818464D01*
X127333940Y-45770845D01*
X127429178Y-45723226D01*
X127619654Y-45723226D01*
X127714892Y-45770845D01*
X127762511Y-45818464D01*
X127810130Y-45913702D01*
X127810130Y-46104178D01*
X127762511Y-46199416D01*
X127714892Y-46247035D01*
X127619654Y-46294654D01*
X127429178Y-46294654D01*
X127333940Y-46247035D01*
X127286321Y-46199416D01*
X127238702Y-46104178D01*
X108760130Y-43818464D02*
X107760130Y-43818464D01*
X107760130Y-44056559D01*
X107807750Y-44199416D01*
X107902988Y-44294654D01*
X107998226Y-44342273D01*
X108188702Y-44389892D01*
X108331559Y-44389892D01*
X108522035Y-44342273D01*
X108617273Y-44294654D01*
X108712511Y-44199416D01*
X108760130Y-44056559D01*
X108760130Y-43818464D01*
X108760130Y-45342273D02*
X108760130Y-44770845D01*
X108760130Y-45056559D02*
X107760130Y-45056559D01*
X107902988Y-44961321D01*
X107998226Y-44866083D01*
X108045845Y-44770845D01*
X107760130Y-45675607D02*
X107760130Y-46342273D01*
X108760130Y-45913702D01*
X89710130Y-43818464D02*
X88710130Y-43818464D01*
X88710130Y-44056559D01*
X88757750Y-44199416D01*
X88852988Y-44294654D01*
X88948226Y-44342273D01*
X89138702Y-44389892D01*
X89281559Y-44389892D01*
X89472035Y-44342273D01*
X89567273Y-44294654D01*
X89662511Y-44199416D01*
X89710130Y-44056559D01*
X89710130Y-43818464D01*
X89710130Y-45342273D02*
X89710130Y-44770845D01*
X89710130Y-45056559D02*
X88710130Y-45056559D01*
X88852988Y-44961321D01*
X88948226Y-44866083D01*
X88995845Y-44770845D01*
X88710130Y-46199416D02*
X88710130Y-46008940D01*
X88757750Y-45913702D01*
X88805369Y-45866083D01*
X88948226Y-45770845D01*
X89138702Y-45723226D01*
X89519654Y-45723226D01*
X89614892Y-45770845D01*
X89662511Y-45818464D01*
X89710130Y-45913702D01*
X89710130Y-46104178D01*
X89662511Y-46199416D01*
X89614892Y-46247035D01*
X89519654Y-46294654D01*
X89281559Y-46294654D01*
X89186321Y-46247035D01*
X89138702Y-46199416D01*
X89091083Y-46104178D01*
X89091083Y-45913702D01*
X89138702Y-45818464D01*
X89186321Y-45770845D01*
X89281559Y-45723226D01*
X70660130Y-43818464D02*
X69660130Y-43818464D01*
X69660130Y-44056559D01*
X69707750Y-44199416D01*
X69802988Y-44294654D01*
X69898226Y-44342273D01*
X70088702Y-44389892D01*
X70231559Y-44389892D01*
X70422035Y-44342273D01*
X70517273Y-44294654D01*
X70612511Y-44199416D01*
X70660130Y-44056559D01*
X70660130Y-43818464D01*
X70660130Y-45342273D02*
X70660130Y-44770845D01*
X70660130Y-45056559D02*
X69660130Y-45056559D01*
X69802988Y-44961321D01*
X69898226Y-44866083D01*
X69945845Y-44770845D01*
X69660130Y-46247035D02*
X69660130Y-45770845D01*
X70136321Y-45723226D01*
X70088702Y-45770845D01*
X70041083Y-45866083D01*
X70041083Y-46104178D01*
X70088702Y-46199416D01*
X70136321Y-46247035D01*
X70231559Y-46294654D01*
X70469654Y-46294654D01*
X70564892Y-46247035D01*
X70612511Y-46199416D01*
X70660130Y-46104178D01*
X70660130Y-45866083D01*
X70612511Y-45770845D01*
X70564892Y-45723226D01*
X36266380Y-39806714D02*
X35266380Y-39806714D01*
X35266380Y-40044809D01*
X35314000Y-40187666D01*
X35409238Y-40282904D01*
X35504476Y-40330523D01*
X35694952Y-40378142D01*
X35837809Y-40378142D01*
X36028285Y-40330523D01*
X36123523Y-40282904D01*
X36218761Y-40187666D01*
X36266380Y-40044809D01*
X36266380Y-39806714D01*
X36266380Y-41330523D02*
X36266380Y-40759095D01*
X36266380Y-41044809D02*
X35266380Y-41044809D01*
X35409238Y-40949571D01*
X35504476Y-40854333D01*
X35552095Y-40759095D01*
X35599714Y-42187666D02*
X36266380Y-42187666D01*
X35218761Y-41949571D02*
X35933047Y-41711476D01*
X35933047Y-42330523D01*
X280210130Y-24768464D02*
X279210130Y-24768464D01*
X279210130Y-25006559D01*
X279257750Y-25149416D01*
X279352988Y-25244654D01*
X279448226Y-25292273D01*
X279638702Y-25339892D01*
X279781559Y-25339892D01*
X279972035Y-25292273D01*
X280067273Y-25244654D01*
X280162511Y-25149416D01*
X280210130Y-25006559D01*
X280210130Y-24768464D01*
X280210130Y-26292273D02*
X280210130Y-25720845D01*
X280210130Y-26006559D02*
X279210130Y-26006559D01*
X279352988Y-25911321D01*
X279448226Y-25816083D01*
X279495845Y-25720845D01*
X279210130Y-26625607D02*
X279210130Y-27244654D01*
X279591083Y-26911321D01*
X279591083Y-27054178D01*
X279638702Y-27149416D01*
X279686321Y-27197035D01*
X279781559Y-27244654D01*
X280019654Y-27244654D01*
X280114892Y-27197035D01*
X280162511Y-27149416D01*
X280210130Y-27054178D01*
X280210130Y-26768464D01*
X280162511Y-26673226D01*
X280114892Y-26625607D01*
X256397630Y-24768464D02*
X255397630Y-24768464D01*
X255397630Y-25006559D01*
X255445250Y-25149416D01*
X255540488Y-25244654D01*
X255635726Y-25292273D01*
X255826202Y-25339892D01*
X255969059Y-25339892D01*
X256159535Y-25292273D01*
X256254773Y-25244654D01*
X256350011Y-25149416D01*
X256397630Y-25006559D01*
X256397630Y-24768464D01*
X256397630Y-26292273D02*
X256397630Y-25720845D01*
X256397630Y-26006559D02*
X255397630Y-26006559D01*
X255540488Y-25911321D01*
X255635726Y-25816083D01*
X255683345Y-25720845D01*
X255492869Y-26673226D02*
X255445250Y-26720845D01*
X255397630Y-26816083D01*
X255397630Y-27054178D01*
X255445250Y-27149416D01*
X255492869Y-27197035D01*
X255588107Y-27244654D01*
X255683345Y-27244654D01*
X255826202Y-27197035D01*
X256397630Y-26625607D01*
X256397630Y-27244654D01*
X237347630Y-24768464D02*
X236347630Y-24768464D01*
X236347630Y-25006559D01*
X236395250Y-25149416D01*
X236490488Y-25244654D01*
X236585726Y-25292273D01*
X236776202Y-25339892D01*
X236919059Y-25339892D01*
X237109535Y-25292273D01*
X237204773Y-25244654D01*
X237300011Y-25149416D01*
X237347630Y-25006559D01*
X237347630Y-24768464D01*
X237347630Y-26292273D02*
X237347630Y-25720845D01*
X237347630Y-26006559D02*
X236347630Y-26006559D01*
X236490488Y-25911321D01*
X236585726Y-25816083D01*
X236633345Y-25720845D01*
X237347630Y-27244654D02*
X237347630Y-26673226D01*
X237347630Y-26958940D02*
X236347630Y-26958940D01*
X236490488Y-26863702D01*
X236585726Y-26768464D01*
X236633345Y-26673226D01*
X218297630Y-24768464D02*
X217297630Y-24768464D01*
X217297630Y-25006559D01*
X217345250Y-25149416D01*
X217440488Y-25244654D01*
X217535726Y-25292273D01*
X217726202Y-25339892D01*
X217869059Y-25339892D01*
X218059535Y-25292273D01*
X218154773Y-25244654D01*
X218250011Y-25149416D01*
X218297630Y-25006559D01*
X218297630Y-24768464D01*
X218297630Y-26292273D02*
X218297630Y-25720845D01*
X218297630Y-26006559D02*
X217297630Y-26006559D01*
X217440488Y-25911321D01*
X217535726Y-25816083D01*
X217583345Y-25720845D01*
X217297630Y-26911321D02*
X217297630Y-27006559D01*
X217345250Y-27101797D01*
X217392869Y-27149416D01*
X217488107Y-27197035D01*
X217678583Y-27244654D01*
X217916678Y-27244654D01*
X218107154Y-27197035D01*
X218202392Y-27149416D01*
X218250011Y-27101797D01*
X218297630Y-27006559D01*
X218297630Y-26911321D01*
X218250011Y-26816083D01*
X218202392Y-26768464D01*
X218107154Y-26720845D01*
X217916678Y-26673226D01*
X217678583Y-26673226D01*
X217488107Y-26720845D01*
X217392869Y-26768464D01*
X217345250Y-26816083D01*
X217297630Y-26911321D01*
X199279380Y-25244654D02*
X198279380Y-25244654D01*
X198279380Y-25482750D01*
X198327000Y-25625607D01*
X198422238Y-25720845D01*
X198517476Y-25768464D01*
X198707952Y-25816083D01*
X198850809Y-25816083D01*
X199041285Y-25768464D01*
X199136523Y-25720845D01*
X199231761Y-25625607D01*
X199279380Y-25482750D01*
X199279380Y-25244654D01*
X199279380Y-26292273D02*
X199279380Y-26482750D01*
X199231761Y-26577988D01*
X199184142Y-26625607D01*
X199041285Y-26720845D01*
X198850809Y-26768464D01*
X198469857Y-26768464D01*
X198374619Y-26720845D01*
X198327000Y-26673226D01*
X198279380Y-26577988D01*
X198279380Y-26387511D01*
X198327000Y-26292273D01*
X198374619Y-26244654D01*
X198469857Y-26197035D01*
X198707952Y-26197035D01*
X198803190Y-26244654D01*
X198850809Y-26292273D01*
X198898428Y-26387511D01*
X198898428Y-26577988D01*
X198850809Y-26673226D01*
X198803190Y-26720845D01*
X198707952Y-26768464D01*
X180197630Y-25244654D02*
X179197630Y-25244654D01*
X179197630Y-25482750D01*
X179245250Y-25625607D01*
X179340488Y-25720845D01*
X179435726Y-25768464D01*
X179626202Y-25816083D01*
X179769059Y-25816083D01*
X179959535Y-25768464D01*
X180054773Y-25720845D01*
X180150011Y-25625607D01*
X180197630Y-25482750D01*
X180197630Y-25244654D01*
X179626202Y-26387511D02*
X179578583Y-26292273D01*
X179530964Y-26244654D01*
X179435726Y-26197035D01*
X179388107Y-26197035D01*
X179292869Y-26244654D01*
X179245250Y-26292273D01*
X179197630Y-26387511D01*
X179197630Y-26577988D01*
X179245250Y-26673226D01*
X179292869Y-26720845D01*
X179388107Y-26768464D01*
X179435726Y-26768464D01*
X179530964Y-26720845D01*
X179578583Y-26673226D01*
X179626202Y-26577988D01*
X179626202Y-26387511D01*
X179673821Y-26292273D01*
X179721440Y-26244654D01*
X179816678Y-26197035D01*
X180007154Y-26197035D01*
X180102392Y-26244654D01*
X180150011Y-26292273D01*
X180197630Y-26387511D01*
X180197630Y-26577988D01*
X180150011Y-26673226D01*
X180102392Y-26720845D01*
X180007154Y-26768464D01*
X179816678Y-26768464D01*
X179721440Y-26720845D01*
X179673821Y-26673226D01*
X179626202Y-26577988D01*
X161147630Y-25244654D02*
X160147630Y-25244654D01*
X160147630Y-25482750D01*
X160195250Y-25625607D01*
X160290488Y-25720845D01*
X160385726Y-25768464D01*
X160576202Y-25816083D01*
X160719059Y-25816083D01*
X160909535Y-25768464D01*
X161004773Y-25720845D01*
X161100011Y-25625607D01*
X161147630Y-25482750D01*
X161147630Y-25244654D01*
X160147630Y-26149416D02*
X160147630Y-26816083D01*
X161147630Y-26387511D01*
X142097630Y-25244654D02*
X141097630Y-25244654D01*
X141097630Y-25482750D01*
X141145250Y-25625607D01*
X141240488Y-25720845D01*
X141335726Y-25768464D01*
X141526202Y-25816083D01*
X141669059Y-25816083D01*
X141859535Y-25768464D01*
X141954773Y-25720845D01*
X142050011Y-25625607D01*
X142097630Y-25482750D01*
X142097630Y-25244654D01*
X141097630Y-26673226D02*
X141097630Y-26482750D01*
X141145250Y-26387511D01*
X141192869Y-26339892D01*
X141335726Y-26244654D01*
X141526202Y-26197035D01*
X141907154Y-26197035D01*
X142002392Y-26244654D01*
X142050011Y-26292273D01*
X142097630Y-26387511D01*
X142097630Y-26577988D01*
X142050011Y-26673226D01*
X142002392Y-26720845D01*
X141907154Y-26768464D01*
X141669059Y-26768464D01*
X141573821Y-26720845D01*
X141526202Y-26673226D01*
X141478583Y-26577988D01*
X141478583Y-26387511D01*
X141526202Y-26292273D01*
X141573821Y-26244654D01*
X141669059Y-26197035D01*
X123047630Y-25244654D02*
X122047630Y-25244654D01*
X122047630Y-25482750D01*
X122095250Y-25625607D01*
X122190488Y-25720845D01*
X122285726Y-25768464D01*
X122476202Y-25816083D01*
X122619059Y-25816083D01*
X122809535Y-25768464D01*
X122904773Y-25720845D01*
X123000011Y-25625607D01*
X123047630Y-25482750D01*
X123047630Y-25244654D01*
X122047630Y-26720845D02*
X122047630Y-26244654D01*
X122523821Y-26197035D01*
X122476202Y-26244654D01*
X122428583Y-26339892D01*
X122428583Y-26577988D01*
X122476202Y-26673226D01*
X122523821Y-26720845D01*
X122619059Y-26768464D01*
X122857154Y-26768464D01*
X122952392Y-26720845D01*
X123000011Y-26673226D01*
X123047630Y-26577988D01*
X123047630Y-26339892D01*
X123000011Y-26244654D01*
X122952392Y-26197035D01*
X103997630Y-25244654D02*
X102997630Y-25244654D01*
X102997630Y-25482750D01*
X103045250Y-25625607D01*
X103140488Y-25720845D01*
X103235726Y-25768464D01*
X103426202Y-25816083D01*
X103569059Y-25816083D01*
X103759535Y-25768464D01*
X103854773Y-25720845D01*
X103950011Y-25625607D01*
X103997630Y-25482750D01*
X103997630Y-25244654D01*
X103330964Y-26673226D02*
X103997630Y-26673226D01*
X102950011Y-26435130D02*
X103664297Y-26197035D01*
X103664297Y-26816083D01*
X84947630Y-25244654D02*
X83947630Y-25244654D01*
X83947630Y-25482750D01*
X83995250Y-25625607D01*
X84090488Y-25720845D01*
X84185726Y-25768464D01*
X84376202Y-25816083D01*
X84519059Y-25816083D01*
X84709535Y-25768464D01*
X84804773Y-25720845D01*
X84900011Y-25625607D01*
X84947630Y-25482750D01*
X84947630Y-25244654D01*
X83947630Y-26149416D02*
X83947630Y-26768464D01*
X84328583Y-26435130D01*
X84328583Y-26577988D01*
X84376202Y-26673226D01*
X84423821Y-26720845D01*
X84519059Y-26768464D01*
X84757154Y-26768464D01*
X84852392Y-26720845D01*
X84900011Y-26673226D01*
X84947630Y-26577988D01*
X84947630Y-26292273D01*
X84900011Y-26197035D01*
X84852392Y-26149416D01*
X65897630Y-25244654D02*
X64897630Y-25244654D01*
X64897630Y-25482750D01*
X64945250Y-25625607D01*
X65040488Y-25720845D01*
X65135726Y-25768464D01*
X65326202Y-25816083D01*
X65469059Y-25816083D01*
X65659535Y-25768464D01*
X65754773Y-25720845D01*
X65850011Y-25625607D01*
X65897630Y-25482750D01*
X65897630Y-25244654D01*
X64992869Y-26197035D02*
X64945250Y-26244654D01*
X64897630Y-26339892D01*
X64897630Y-26577988D01*
X64945250Y-26673226D01*
X64992869Y-26720845D01*
X65088107Y-26768464D01*
X65183345Y-26768464D01*
X65326202Y-26720845D01*
X65897630Y-26149416D01*
X65897630Y-26768464D01*
X32583380Y-23264904D02*
X31583380Y-23264904D01*
X31583380Y-23503000D01*
X31631000Y-23645857D01*
X31726238Y-23741095D01*
X31821476Y-23788714D01*
X32011952Y-23836333D01*
X32154809Y-23836333D01*
X32345285Y-23788714D01*
X32440523Y-23741095D01*
X32535761Y-23645857D01*
X32583380Y-23503000D01*
X32583380Y-23264904D01*
X32583380Y-24788714D02*
X32583380Y-24217285D01*
X32583380Y-24503000D02*
X31583380Y-24503000D01*
X31726238Y-24407761D01*
X31821476Y-24312523D01*
X31869095Y-24217285D01*
%LPC*%
D12*
G36*
X39965957Y-46850333D02*
G01*
X39982751Y-46852824D01*
X39999219Y-46856949D01*
X40015204Y-46862669D01*
X40030552Y-46869928D01*
X40045114Y-46878656D01*
X40058750Y-46888769D01*
X40071329Y-46900171D01*
X40082731Y-46912750D01*
X40092844Y-46926386D01*
X40101572Y-46940948D01*
X40108831Y-46956296D01*
X40114551Y-46972281D01*
X40118676Y-46988749D01*
X40121167Y-47005543D01*
X40122000Y-47022500D01*
X40122000Y-47368500D01*
X40121167Y-47385457D01*
X40118676Y-47402251D01*
X40114551Y-47418719D01*
X40108831Y-47434704D01*
X40101572Y-47450052D01*
X40092844Y-47464614D01*
X40082731Y-47478250D01*
X40071329Y-47490829D01*
X40058750Y-47502231D01*
X40045114Y-47512344D01*
X40030552Y-47521072D01*
X40015204Y-47528331D01*
X39999219Y-47534051D01*
X39982751Y-47538176D01*
X39965957Y-47540667D01*
X39949000Y-47541500D01*
X39553000Y-47541500D01*
X39536043Y-47540667D01*
X39519249Y-47538176D01*
X39502781Y-47534051D01*
X39486796Y-47528331D01*
X39471448Y-47521072D01*
X39456886Y-47512344D01*
X39443250Y-47502231D01*
X39430671Y-47490829D01*
X39419269Y-47478250D01*
X39409156Y-47464614D01*
X39400428Y-47450052D01*
X39393169Y-47434704D01*
X39387449Y-47418719D01*
X39383324Y-47402251D01*
X39380833Y-47385457D01*
X39380000Y-47368500D01*
X39380000Y-47022500D01*
X39380833Y-47005543D01*
X39383324Y-46988749D01*
X39387449Y-46972281D01*
X39393169Y-46956296D01*
X39400428Y-46940948D01*
X39409156Y-46926386D01*
X39419269Y-46912750D01*
X39430671Y-46900171D01*
X39443250Y-46888769D01*
X39456886Y-46878656D01*
X39471448Y-46869928D01*
X39486796Y-46862669D01*
X39502781Y-46856949D01*
X39519249Y-46852824D01*
X39536043Y-46850333D01*
X39553000Y-46849500D01*
X39949000Y-46849500D01*
X39965957Y-46850333D01*
X39965957Y-46850333D01*
G37*
D13*
X39751000Y-47195500D03*
D12*
G36*
X39965957Y-45880333D02*
G01*
X39982751Y-45882824D01*
X39999219Y-45886949D01*
X40015204Y-45892669D01*
X40030552Y-45899928D01*
X40045114Y-45908656D01*
X40058750Y-45918769D01*
X40071329Y-45930171D01*
X40082731Y-45942750D01*
X40092844Y-45956386D01*
X40101572Y-45970948D01*
X40108831Y-45986296D01*
X40114551Y-46002281D01*
X40118676Y-46018749D01*
X40121167Y-46035543D01*
X40122000Y-46052500D01*
X40122000Y-46398500D01*
X40121167Y-46415457D01*
X40118676Y-46432251D01*
X40114551Y-46448719D01*
X40108831Y-46464704D01*
X40101572Y-46480052D01*
X40092844Y-46494614D01*
X40082731Y-46508250D01*
X40071329Y-46520829D01*
X40058750Y-46532231D01*
X40045114Y-46542344D01*
X40030552Y-46551072D01*
X40015204Y-46558331D01*
X39999219Y-46564051D01*
X39982751Y-46568176D01*
X39965957Y-46570667D01*
X39949000Y-46571500D01*
X39553000Y-46571500D01*
X39536043Y-46570667D01*
X39519249Y-46568176D01*
X39502781Y-46564051D01*
X39486796Y-46558331D01*
X39471448Y-46551072D01*
X39456886Y-46542344D01*
X39443250Y-46532231D01*
X39430671Y-46520829D01*
X39419269Y-46508250D01*
X39409156Y-46494614D01*
X39400428Y-46480052D01*
X39393169Y-46464704D01*
X39387449Y-46448719D01*
X39383324Y-46432251D01*
X39380833Y-46415457D01*
X39380000Y-46398500D01*
X39380000Y-46052500D01*
X39380833Y-46035543D01*
X39383324Y-46018749D01*
X39387449Y-46002281D01*
X39393169Y-45986296D01*
X39400428Y-45970948D01*
X39409156Y-45956386D01*
X39419269Y-45942750D01*
X39430671Y-45930171D01*
X39443250Y-45918769D01*
X39456886Y-45908656D01*
X39471448Y-45899928D01*
X39486796Y-45892669D01*
X39502781Y-45886949D01*
X39519249Y-45882824D01*
X39536043Y-45880333D01*
X39553000Y-45879500D01*
X39949000Y-45879500D01*
X39965957Y-45880333D01*
X39965957Y-45880333D01*
G37*
D13*
X39751000Y-46225500D03*
D12*
G36*
X54880957Y-44206833D02*
G01*
X54897751Y-44209324D01*
X54914219Y-44213449D01*
X54930204Y-44219169D01*
X54945552Y-44226428D01*
X54960114Y-44235156D01*
X54973750Y-44245269D01*
X54986329Y-44256671D01*
X54997731Y-44269250D01*
X55007844Y-44282886D01*
X55016572Y-44297448D01*
X55023831Y-44312796D01*
X55029551Y-44328781D01*
X55033676Y-44345249D01*
X55036167Y-44362043D01*
X55037000Y-44379000D01*
X55037000Y-44775000D01*
X55036167Y-44791957D01*
X55033676Y-44808751D01*
X55029551Y-44825219D01*
X55023831Y-44841204D01*
X55016572Y-44856552D01*
X55007844Y-44871114D01*
X54997731Y-44884750D01*
X54986329Y-44897329D01*
X54973750Y-44908731D01*
X54960114Y-44918844D01*
X54945552Y-44927572D01*
X54930204Y-44934831D01*
X54914219Y-44940551D01*
X54897751Y-44944676D01*
X54880957Y-44947167D01*
X54864000Y-44948000D01*
X54518000Y-44948000D01*
X54501043Y-44947167D01*
X54484249Y-44944676D01*
X54467781Y-44940551D01*
X54451796Y-44934831D01*
X54436448Y-44927572D01*
X54421886Y-44918844D01*
X54408250Y-44908731D01*
X54395671Y-44897329D01*
X54384269Y-44884750D01*
X54374156Y-44871114D01*
X54365428Y-44856552D01*
X54358169Y-44841204D01*
X54352449Y-44825219D01*
X54348324Y-44808751D01*
X54345833Y-44791957D01*
X54345000Y-44775000D01*
X54345000Y-44379000D01*
X54345833Y-44362043D01*
X54348324Y-44345249D01*
X54352449Y-44328781D01*
X54358169Y-44312796D01*
X54365428Y-44297448D01*
X54374156Y-44282886D01*
X54384269Y-44269250D01*
X54395671Y-44256671D01*
X54408250Y-44245269D01*
X54421886Y-44235156D01*
X54436448Y-44226428D01*
X54451796Y-44219169D01*
X54467781Y-44213449D01*
X54484249Y-44209324D01*
X54501043Y-44206833D01*
X54518000Y-44206000D01*
X54864000Y-44206000D01*
X54880957Y-44206833D01*
X54880957Y-44206833D01*
G37*
D13*
X54691000Y-44577000D03*
D12*
G36*
X53910957Y-44206833D02*
G01*
X53927751Y-44209324D01*
X53944219Y-44213449D01*
X53960204Y-44219169D01*
X53975552Y-44226428D01*
X53990114Y-44235156D01*
X54003750Y-44245269D01*
X54016329Y-44256671D01*
X54027731Y-44269250D01*
X54037844Y-44282886D01*
X54046572Y-44297448D01*
X54053831Y-44312796D01*
X54059551Y-44328781D01*
X54063676Y-44345249D01*
X54066167Y-44362043D01*
X54067000Y-44379000D01*
X54067000Y-44775000D01*
X54066167Y-44791957D01*
X54063676Y-44808751D01*
X54059551Y-44825219D01*
X54053831Y-44841204D01*
X54046572Y-44856552D01*
X54037844Y-44871114D01*
X54027731Y-44884750D01*
X54016329Y-44897329D01*
X54003750Y-44908731D01*
X53990114Y-44918844D01*
X53975552Y-44927572D01*
X53960204Y-44934831D01*
X53944219Y-44940551D01*
X53927751Y-44944676D01*
X53910957Y-44947167D01*
X53894000Y-44948000D01*
X53548000Y-44948000D01*
X53531043Y-44947167D01*
X53514249Y-44944676D01*
X53497781Y-44940551D01*
X53481796Y-44934831D01*
X53466448Y-44927572D01*
X53451886Y-44918844D01*
X53438250Y-44908731D01*
X53425671Y-44897329D01*
X53414269Y-44884750D01*
X53404156Y-44871114D01*
X53395428Y-44856552D01*
X53388169Y-44841204D01*
X53382449Y-44825219D01*
X53378324Y-44808751D01*
X53375833Y-44791957D01*
X53375000Y-44775000D01*
X53375000Y-44379000D01*
X53375833Y-44362043D01*
X53378324Y-44345249D01*
X53382449Y-44328781D01*
X53388169Y-44312796D01*
X53395428Y-44297448D01*
X53404156Y-44282886D01*
X53414269Y-44269250D01*
X53425671Y-44256671D01*
X53438250Y-44245269D01*
X53451886Y-44235156D01*
X53466448Y-44226428D01*
X53481796Y-44219169D01*
X53497781Y-44213449D01*
X53514249Y-44209324D01*
X53531043Y-44206833D01*
X53548000Y-44206000D01*
X53894000Y-44206000D01*
X53910957Y-44206833D01*
X53910957Y-44206833D01*
G37*
D13*
X53721000Y-44577000D03*
D12*
G36*
X43138957Y-45603833D02*
G01*
X43155751Y-45606324D01*
X43172219Y-45610449D01*
X43188204Y-45616169D01*
X43203552Y-45623428D01*
X43218114Y-45632156D01*
X43231750Y-45642269D01*
X43244329Y-45653671D01*
X43255731Y-45666250D01*
X43265844Y-45679886D01*
X43274572Y-45694448D01*
X43281831Y-45709796D01*
X43287551Y-45725781D01*
X43291676Y-45742249D01*
X43294167Y-45759043D01*
X43295000Y-45776000D01*
X43295000Y-46172000D01*
X43294167Y-46188957D01*
X43291676Y-46205751D01*
X43287551Y-46222219D01*
X43281831Y-46238204D01*
X43274572Y-46253552D01*
X43265844Y-46268114D01*
X43255731Y-46281750D01*
X43244329Y-46294329D01*
X43231750Y-46305731D01*
X43218114Y-46315844D01*
X43203552Y-46324572D01*
X43188204Y-46331831D01*
X43172219Y-46337551D01*
X43155751Y-46341676D01*
X43138957Y-46344167D01*
X43122000Y-46345000D01*
X42776000Y-46345000D01*
X42759043Y-46344167D01*
X42742249Y-46341676D01*
X42725781Y-46337551D01*
X42709796Y-46331831D01*
X42694448Y-46324572D01*
X42679886Y-46315844D01*
X42666250Y-46305731D01*
X42653671Y-46294329D01*
X42642269Y-46281750D01*
X42632156Y-46268114D01*
X42623428Y-46253552D01*
X42616169Y-46238204D01*
X42610449Y-46222219D01*
X42606324Y-46205751D01*
X42603833Y-46188957D01*
X42603000Y-46172000D01*
X42603000Y-45776000D01*
X42603833Y-45759043D01*
X42606324Y-45742249D01*
X42610449Y-45725781D01*
X42616169Y-45709796D01*
X42623428Y-45694448D01*
X42632156Y-45679886D01*
X42642269Y-45666250D01*
X42653671Y-45653671D01*
X42666250Y-45642269D01*
X42679886Y-45632156D01*
X42694448Y-45623428D01*
X42709796Y-45616169D01*
X42725781Y-45610449D01*
X42742249Y-45606324D01*
X42759043Y-45603833D01*
X42776000Y-45603000D01*
X43122000Y-45603000D01*
X43138957Y-45603833D01*
X43138957Y-45603833D01*
G37*
D13*
X42949000Y-45974000D03*
D12*
G36*
X44108957Y-45603833D02*
G01*
X44125751Y-45606324D01*
X44142219Y-45610449D01*
X44158204Y-45616169D01*
X44173552Y-45623428D01*
X44188114Y-45632156D01*
X44201750Y-45642269D01*
X44214329Y-45653671D01*
X44225731Y-45666250D01*
X44235844Y-45679886D01*
X44244572Y-45694448D01*
X44251831Y-45709796D01*
X44257551Y-45725781D01*
X44261676Y-45742249D01*
X44264167Y-45759043D01*
X44265000Y-45776000D01*
X44265000Y-46172000D01*
X44264167Y-46188957D01*
X44261676Y-46205751D01*
X44257551Y-46222219D01*
X44251831Y-46238204D01*
X44244572Y-46253552D01*
X44235844Y-46268114D01*
X44225731Y-46281750D01*
X44214329Y-46294329D01*
X44201750Y-46305731D01*
X44188114Y-46315844D01*
X44173552Y-46324572D01*
X44158204Y-46331831D01*
X44142219Y-46337551D01*
X44125751Y-46341676D01*
X44108957Y-46344167D01*
X44092000Y-46345000D01*
X43746000Y-46345000D01*
X43729043Y-46344167D01*
X43712249Y-46341676D01*
X43695781Y-46337551D01*
X43679796Y-46331831D01*
X43664448Y-46324572D01*
X43649886Y-46315844D01*
X43636250Y-46305731D01*
X43623671Y-46294329D01*
X43612269Y-46281750D01*
X43602156Y-46268114D01*
X43593428Y-46253552D01*
X43586169Y-46238204D01*
X43580449Y-46222219D01*
X43576324Y-46205751D01*
X43573833Y-46188957D01*
X43573000Y-46172000D01*
X43573000Y-45776000D01*
X43573833Y-45759043D01*
X43576324Y-45742249D01*
X43580449Y-45725781D01*
X43586169Y-45709796D01*
X43593428Y-45694448D01*
X43602156Y-45679886D01*
X43612269Y-45666250D01*
X43623671Y-45653671D01*
X43636250Y-45642269D01*
X43649886Y-45632156D01*
X43664448Y-45623428D01*
X43679796Y-45616169D01*
X43695781Y-45610449D01*
X43712249Y-45606324D01*
X43729043Y-45603833D01*
X43746000Y-45603000D01*
X44092000Y-45603000D01*
X44108957Y-45603833D01*
X44108957Y-45603833D01*
G37*
D13*
X43919000Y-45974000D03*
D12*
G36*
X44535957Y-48651833D02*
G01*
X44552751Y-48654324D01*
X44569219Y-48658449D01*
X44585204Y-48664169D01*
X44600552Y-48671428D01*
X44615114Y-48680156D01*
X44628750Y-48690269D01*
X44641329Y-48701671D01*
X44652731Y-48714250D01*
X44662844Y-48727886D01*
X44671572Y-48742448D01*
X44678831Y-48757796D01*
X44684551Y-48773781D01*
X44688676Y-48790249D01*
X44691167Y-48807043D01*
X44692000Y-48824000D01*
X44692000Y-49220000D01*
X44691167Y-49236957D01*
X44688676Y-49253751D01*
X44684551Y-49270219D01*
X44678831Y-49286204D01*
X44671572Y-49301552D01*
X44662844Y-49316114D01*
X44652731Y-49329750D01*
X44641329Y-49342329D01*
X44628750Y-49353731D01*
X44615114Y-49363844D01*
X44600552Y-49372572D01*
X44585204Y-49379831D01*
X44569219Y-49385551D01*
X44552751Y-49389676D01*
X44535957Y-49392167D01*
X44519000Y-49393000D01*
X44173000Y-49393000D01*
X44156043Y-49392167D01*
X44139249Y-49389676D01*
X44122781Y-49385551D01*
X44106796Y-49379831D01*
X44091448Y-49372572D01*
X44076886Y-49363844D01*
X44063250Y-49353731D01*
X44050671Y-49342329D01*
X44039269Y-49329750D01*
X44029156Y-49316114D01*
X44020428Y-49301552D01*
X44013169Y-49286204D01*
X44007449Y-49270219D01*
X44003324Y-49253751D01*
X44000833Y-49236957D01*
X44000000Y-49220000D01*
X44000000Y-48824000D01*
X44000833Y-48807043D01*
X44003324Y-48790249D01*
X44007449Y-48773781D01*
X44013169Y-48757796D01*
X44020428Y-48742448D01*
X44029156Y-48727886D01*
X44039269Y-48714250D01*
X44050671Y-48701671D01*
X44063250Y-48690269D01*
X44076886Y-48680156D01*
X44091448Y-48671428D01*
X44106796Y-48664169D01*
X44122781Y-48658449D01*
X44139249Y-48654324D01*
X44156043Y-48651833D01*
X44173000Y-48651000D01*
X44519000Y-48651000D01*
X44535957Y-48651833D01*
X44535957Y-48651833D01*
G37*
D13*
X44346000Y-49022000D03*
D12*
G36*
X45505957Y-48651833D02*
G01*
X45522751Y-48654324D01*
X45539219Y-48658449D01*
X45555204Y-48664169D01*
X45570552Y-48671428D01*
X45585114Y-48680156D01*
X45598750Y-48690269D01*
X45611329Y-48701671D01*
X45622731Y-48714250D01*
X45632844Y-48727886D01*
X45641572Y-48742448D01*
X45648831Y-48757796D01*
X45654551Y-48773781D01*
X45658676Y-48790249D01*
X45661167Y-48807043D01*
X45662000Y-48824000D01*
X45662000Y-49220000D01*
X45661167Y-49236957D01*
X45658676Y-49253751D01*
X45654551Y-49270219D01*
X45648831Y-49286204D01*
X45641572Y-49301552D01*
X45632844Y-49316114D01*
X45622731Y-49329750D01*
X45611329Y-49342329D01*
X45598750Y-49353731D01*
X45585114Y-49363844D01*
X45570552Y-49372572D01*
X45555204Y-49379831D01*
X45539219Y-49385551D01*
X45522751Y-49389676D01*
X45505957Y-49392167D01*
X45489000Y-49393000D01*
X45143000Y-49393000D01*
X45126043Y-49392167D01*
X45109249Y-49389676D01*
X45092781Y-49385551D01*
X45076796Y-49379831D01*
X45061448Y-49372572D01*
X45046886Y-49363844D01*
X45033250Y-49353731D01*
X45020671Y-49342329D01*
X45009269Y-49329750D01*
X44999156Y-49316114D01*
X44990428Y-49301552D01*
X44983169Y-49286204D01*
X44977449Y-49270219D01*
X44973324Y-49253751D01*
X44970833Y-49236957D01*
X44970000Y-49220000D01*
X44970000Y-48824000D01*
X44970833Y-48807043D01*
X44973324Y-48790249D01*
X44977449Y-48773781D01*
X44983169Y-48757796D01*
X44990428Y-48742448D01*
X44999156Y-48727886D01*
X45009269Y-48714250D01*
X45020671Y-48701671D01*
X45033250Y-48690269D01*
X45046886Y-48680156D01*
X45061448Y-48671428D01*
X45076796Y-48664169D01*
X45092781Y-48658449D01*
X45109249Y-48654324D01*
X45126043Y-48651833D01*
X45143000Y-48651000D01*
X45489000Y-48651000D01*
X45505957Y-48651833D01*
X45505957Y-48651833D01*
G37*
D13*
X45316000Y-49022000D03*
D12*
G36*
X29503691Y-47989176D02*
G01*
X29527401Y-47992693D01*
X29550652Y-47998517D01*
X29573220Y-48006592D01*
X29594889Y-48016841D01*
X29615448Y-48029164D01*
X29634701Y-48043442D01*
X29652461Y-48059539D01*
X29668558Y-48077299D01*
X29682836Y-48096552D01*
X29695159Y-48117111D01*
X29705408Y-48138780D01*
X29713483Y-48161348D01*
X29719307Y-48184599D01*
X29722824Y-48208309D01*
X29724000Y-48232250D01*
X29724000Y-48795750D01*
X29722824Y-48819691D01*
X29719307Y-48843401D01*
X29713483Y-48866652D01*
X29705408Y-48889220D01*
X29695159Y-48910889D01*
X29682836Y-48931448D01*
X29668558Y-48950701D01*
X29652461Y-48968461D01*
X29634701Y-48984558D01*
X29615448Y-48998836D01*
X29594889Y-49011159D01*
X29573220Y-49021408D01*
X29550652Y-49029483D01*
X29527401Y-49035307D01*
X29503691Y-49038824D01*
X29479750Y-49040000D01*
X28991250Y-49040000D01*
X28967309Y-49038824D01*
X28943599Y-49035307D01*
X28920348Y-49029483D01*
X28897780Y-49021408D01*
X28876111Y-49011159D01*
X28855552Y-48998836D01*
X28836299Y-48984558D01*
X28818539Y-48968461D01*
X28802442Y-48950701D01*
X28788164Y-48931448D01*
X28775841Y-48910889D01*
X28765592Y-48889220D01*
X28757517Y-48866652D01*
X28751693Y-48843401D01*
X28748176Y-48819691D01*
X28747000Y-48795750D01*
X28747000Y-48232250D01*
X28748176Y-48208309D01*
X28751693Y-48184599D01*
X28757517Y-48161348D01*
X28765592Y-48138780D01*
X28775841Y-48117111D01*
X28788164Y-48096552D01*
X28802442Y-48077299D01*
X28818539Y-48059539D01*
X28836299Y-48043442D01*
X28855552Y-48029164D01*
X28876111Y-48016841D01*
X28897780Y-48006592D01*
X28920348Y-47998517D01*
X28943599Y-47992693D01*
X28967309Y-47989176D01*
X28991250Y-47988000D01*
X29479750Y-47988000D01*
X29503691Y-47989176D01*
X29503691Y-47989176D01*
G37*
D14*
X29235500Y-48514000D03*
D12*
G36*
X27928691Y-47989176D02*
G01*
X27952401Y-47992693D01*
X27975652Y-47998517D01*
X27998220Y-48006592D01*
X28019889Y-48016841D01*
X28040448Y-48029164D01*
X28059701Y-48043442D01*
X28077461Y-48059539D01*
X28093558Y-48077299D01*
X28107836Y-48096552D01*
X28120159Y-48117111D01*
X28130408Y-48138780D01*
X28138483Y-48161348D01*
X28144307Y-48184599D01*
X28147824Y-48208309D01*
X28149000Y-48232250D01*
X28149000Y-48795750D01*
X28147824Y-48819691D01*
X28144307Y-48843401D01*
X28138483Y-48866652D01*
X28130408Y-48889220D01*
X28120159Y-48910889D01*
X28107836Y-48931448D01*
X28093558Y-48950701D01*
X28077461Y-48968461D01*
X28059701Y-48984558D01*
X28040448Y-48998836D01*
X28019889Y-49011159D01*
X27998220Y-49021408D01*
X27975652Y-49029483D01*
X27952401Y-49035307D01*
X27928691Y-49038824D01*
X27904750Y-49040000D01*
X27416250Y-49040000D01*
X27392309Y-49038824D01*
X27368599Y-49035307D01*
X27345348Y-49029483D01*
X27322780Y-49021408D01*
X27301111Y-49011159D01*
X27280552Y-48998836D01*
X27261299Y-48984558D01*
X27243539Y-48968461D01*
X27227442Y-48950701D01*
X27213164Y-48931448D01*
X27200841Y-48910889D01*
X27190592Y-48889220D01*
X27182517Y-48866652D01*
X27176693Y-48843401D01*
X27173176Y-48819691D01*
X27172000Y-48795750D01*
X27172000Y-48232250D01*
X27173176Y-48208309D01*
X27176693Y-48184599D01*
X27182517Y-48161348D01*
X27190592Y-48138780D01*
X27200841Y-48117111D01*
X27213164Y-48096552D01*
X27227442Y-48077299D01*
X27243539Y-48059539D01*
X27261299Y-48043442D01*
X27280552Y-48029164D01*
X27301111Y-48016841D01*
X27322780Y-48006592D01*
X27345348Y-47998517D01*
X27368599Y-47992693D01*
X27392309Y-47989176D01*
X27416250Y-47988000D01*
X27904750Y-47988000D01*
X27928691Y-47989176D01*
X27928691Y-47989176D01*
G37*
D14*
X27660500Y-48514000D03*
D12*
G36*
X32678691Y-42782176D02*
G01*
X32702401Y-42785693D01*
X32725652Y-42791517D01*
X32748220Y-42799592D01*
X32769889Y-42809841D01*
X32790448Y-42822164D01*
X32809701Y-42836442D01*
X32827461Y-42852539D01*
X32843558Y-42870299D01*
X32857836Y-42889552D01*
X32870159Y-42910111D01*
X32880408Y-42931780D01*
X32888483Y-42954348D01*
X32894307Y-42977599D01*
X32897824Y-43001309D01*
X32899000Y-43025250D01*
X32899000Y-43588750D01*
X32897824Y-43612691D01*
X32894307Y-43636401D01*
X32888483Y-43659652D01*
X32880408Y-43682220D01*
X32870159Y-43703889D01*
X32857836Y-43724448D01*
X32843558Y-43743701D01*
X32827461Y-43761461D01*
X32809701Y-43777558D01*
X32790448Y-43791836D01*
X32769889Y-43804159D01*
X32748220Y-43814408D01*
X32725652Y-43822483D01*
X32702401Y-43828307D01*
X32678691Y-43831824D01*
X32654750Y-43833000D01*
X32166250Y-43833000D01*
X32142309Y-43831824D01*
X32118599Y-43828307D01*
X32095348Y-43822483D01*
X32072780Y-43814408D01*
X32051111Y-43804159D01*
X32030552Y-43791836D01*
X32011299Y-43777558D01*
X31993539Y-43761461D01*
X31977442Y-43743701D01*
X31963164Y-43724448D01*
X31950841Y-43703889D01*
X31940592Y-43682220D01*
X31932517Y-43659652D01*
X31926693Y-43636401D01*
X31923176Y-43612691D01*
X31922000Y-43588750D01*
X31922000Y-43025250D01*
X31923176Y-43001309D01*
X31926693Y-42977599D01*
X31932517Y-42954348D01*
X31940592Y-42931780D01*
X31950841Y-42910111D01*
X31963164Y-42889552D01*
X31977442Y-42870299D01*
X31993539Y-42852539D01*
X32011299Y-42836442D01*
X32030552Y-42822164D01*
X32051111Y-42809841D01*
X32072780Y-42799592D01*
X32095348Y-42791517D01*
X32118599Y-42785693D01*
X32142309Y-42782176D01*
X32166250Y-42781000D01*
X32654750Y-42781000D01*
X32678691Y-42782176D01*
X32678691Y-42782176D01*
G37*
D14*
X32410500Y-43307000D03*
D12*
G36*
X31103691Y-42782176D02*
G01*
X31127401Y-42785693D01*
X31150652Y-42791517D01*
X31173220Y-42799592D01*
X31194889Y-42809841D01*
X31215448Y-42822164D01*
X31234701Y-42836442D01*
X31252461Y-42852539D01*
X31268558Y-42870299D01*
X31282836Y-42889552D01*
X31295159Y-42910111D01*
X31305408Y-42931780D01*
X31313483Y-42954348D01*
X31319307Y-42977599D01*
X31322824Y-43001309D01*
X31324000Y-43025250D01*
X31324000Y-43588750D01*
X31322824Y-43612691D01*
X31319307Y-43636401D01*
X31313483Y-43659652D01*
X31305408Y-43682220D01*
X31295159Y-43703889D01*
X31282836Y-43724448D01*
X31268558Y-43743701D01*
X31252461Y-43761461D01*
X31234701Y-43777558D01*
X31215448Y-43791836D01*
X31194889Y-43804159D01*
X31173220Y-43814408D01*
X31150652Y-43822483D01*
X31127401Y-43828307D01*
X31103691Y-43831824D01*
X31079750Y-43833000D01*
X30591250Y-43833000D01*
X30567309Y-43831824D01*
X30543599Y-43828307D01*
X30520348Y-43822483D01*
X30497780Y-43814408D01*
X30476111Y-43804159D01*
X30455552Y-43791836D01*
X30436299Y-43777558D01*
X30418539Y-43761461D01*
X30402442Y-43743701D01*
X30388164Y-43724448D01*
X30375841Y-43703889D01*
X30365592Y-43682220D01*
X30357517Y-43659652D01*
X30351693Y-43636401D01*
X30348176Y-43612691D01*
X30347000Y-43588750D01*
X30347000Y-43025250D01*
X30348176Y-43001309D01*
X30351693Y-42977599D01*
X30357517Y-42954348D01*
X30365592Y-42931780D01*
X30375841Y-42910111D01*
X30388164Y-42889552D01*
X30402442Y-42870299D01*
X30418539Y-42852539D01*
X30436299Y-42836442D01*
X30455552Y-42822164D01*
X30476111Y-42809841D01*
X30497780Y-42799592D01*
X30520348Y-42791517D01*
X30543599Y-42785693D01*
X30567309Y-42782176D01*
X30591250Y-42781000D01*
X31079750Y-42781000D01*
X31103691Y-42782176D01*
X31103691Y-42782176D01*
G37*
D14*
X30835500Y-43307000D03*
D15*
X48006000Y-94488000D03*
X284734000Y-21717000D03*
X21463000Y-21463000D03*
D16*
X96456500Y-67564000D03*
X86296500Y-67564000D03*
D17*
X87566500Y-65024000D03*
D18*
X91376500Y-67564000D03*
D17*
X93916500Y-62484000D03*
X155829000Y-81534000D03*
D18*
X153289000Y-86614000D03*
D17*
X149479000Y-84074000D03*
D16*
X148209000Y-86614000D03*
X158369000Y-86614000D03*
D19*
X103289100Y-93599000D03*
X203288900Y-93599000D03*
D18*
X103289100Y-78359000D03*
X203288900Y-78359000D03*
D17*
X165354000Y-81534000D03*
D18*
X162814000Y-86614000D03*
D17*
X159004000Y-84074000D03*
D16*
X157734000Y-86614000D03*
X167894000Y-86614000D03*
D19*
X150907750Y-93599000D03*
X174720250Y-93599000D03*
D18*
X150907750Y-78359000D03*
X174720250Y-78359000D03*
D17*
X117729000Y-81534000D03*
D18*
X115189000Y-86614000D03*
D17*
X111379000Y-84074000D03*
D16*
X110109000Y-86614000D03*
X120269000Y-86614000D03*
D19*
X103282750Y-93599000D03*
X127095250Y-93599000D03*
D18*
X103282750Y-78359000D03*
X127095250Y-78359000D03*
D17*
X43910250Y-62484000D03*
D18*
X41370250Y-67564000D03*
D17*
X37560250Y-65024000D03*
D16*
X36290250Y-67564000D03*
X46450250Y-67564000D03*
D19*
X29464000Y-74549000D03*
X53276500Y-74549000D03*
D18*
X29464000Y-59309000D03*
X53276500Y-59309000D03*
D20*
X27201000Y-68326000D03*
X33401000Y-64626000D03*
X27201000Y-64626000D03*
X33401000Y-68326000D03*
D16*
X41687750Y-48514000D03*
X31527750Y-48514000D03*
D17*
X32797750Y-45974000D03*
D18*
X36607750Y-48514000D03*
D17*
X39147750Y-43434000D03*
D16*
X39306500Y-29464000D03*
X29146500Y-29464000D03*
D17*
X30416500Y-26924000D03*
D18*
X34226500Y-29464000D03*
D17*
X36766500Y-24384000D03*
D16*
X67881500Y-48514000D03*
X57721500Y-48514000D03*
D17*
X58991500Y-45974000D03*
D18*
X62801500Y-48514000D03*
D17*
X65341500Y-43434000D03*
D21*
X182657750Y-46132750D03*
X182657750Y-43932750D03*
D18*
X277114000Y-56769000D03*
X253301500Y-56769000D03*
D19*
X277114000Y-41529000D03*
X253301500Y-41529000D03*
D16*
X270287750Y-48514000D03*
X260127750Y-48514000D03*
D17*
X261397750Y-45974000D03*
D18*
X265207750Y-48514000D03*
D17*
X267747750Y-43434000D03*
D12*
G36*
X50946837Y-44936739D02*
G01*
X50971823Y-44940446D01*
X50996325Y-44946583D01*
X51020108Y-44955093D01*
X51042942Y-44965893D01*
X51064607Y-44978878D01*
X51084896Y-44993925D01*
X51103612Y-45010888D01*
X51120575Y-45029604D01*
X51135622Y-45049893D01*
X51148607Y-45071558D01*
X51159407Y-45094392D01*
X51167917Y-45118175D01*
X51174054Y-45142677D01*
X51177761Y-45167663D01*
X51179000Y-45192892D01*
X51179000Y-48230108D01*
X51177761Y-48255337D01*
X51174054Y-48280323D01*
X51167917Y-48304825D01*
X51159407Y-48328608D01*
X51148607Y-48351442D01*
X51135622Y-48373107D01*
X51120575Y-48393396D01*
X51103612Y-48412112D01*
X51084896Y-48429075D01*
X51064607Y-48444122D01*
X51042942Y-48457107D01*
X51020108Y-48467907D01*
X50996325Y-48476417D01*
X50971823Y-48482554D01*
X50946837Y-48486261D01*
X50921608Y-48487500D01*
X47884392Y-48487500D01*
X47859163Y-48486261D01*
X47834177Y-48482554D01*
X47809675Y-48476417D01*
X47785892Y-48467907D01*
X47763058Y-48457107D01*
X47741393Y-48444122D01*
X47721104Y-48429075D01*
X47702388Y-48412112D01*
X47685425Y-48393396D01*
X47670378Y-48373107D01*
X47657393Y-48351442D01*
X47646593Y-48328608D01*
X47638083Y-48304825D01*
X47631946Y-48280323D01*
X47628239Y-48255337D01*
X47627000Y-48230108D01*
X47627000Y-45192892D01*
X47628239Y-45167663D01*
X47631946Y-45142677D01*
X47638083Y-45118175D01*
X47646593Y-45094392D01*
X47657393Y-45071558D01*
X47670378Y-45049893D01*
X47685425Y-45029604D01*
X47702388Y-45010888D01*
X47721104Y-44993925D01*
X47741393Y-44978878D01*
X47763058Y-44965893D01*
X47785892Y-44955093D01*
X47809675Y-44946583D01*
X47834177Y-44940446D01*
X47859163Y-44936739D01*
X47884392Y-44935500D01*
X50921608Y-44935500D01*
X50946837Y-44936739D01*
X50946837Y-44936739D01*
G37*
D22*
X49403000Y-46711500D03*
D12*
G36*
X47374626Y-48285924D02*
G01*
X47383168Y-48287191D01*
X47391545Y-48289289D01*
X47399676Y-48292199D01*
X47407483Y-48295891D01*
X47414890Y-48300331D01*
X47421827Y-48305475D01*
X47428225Y-48311275D01*
X47434025Y-48317673D01*
X47439169Y-48324610D01*
X47443609Y-48332017D01*
X47447301Y-48339824D01*
X47450211Y-48347955D01*
X47452309Y-48356332D01*
X47453576Y-48364874D01*
X47454000Y-48373500D01*
X47454000Y-48549500D01*
X47453576Y-48558126D01*
X47452309Y-48566668D01*
X47450211Y-48575045D01*
X47447301Y-48583176D01*
X47443609Y-48590983D01*
X47439169Y-48598390D01*
X47434025Y-48605327D01*
X47428225Y-48611725D01*
X47421827Y-48617525D01*
X47414890Y-48622669D01*
X47407483Y-48627109D01*
X47399676Y-48630801D01*
X47391545Y-48633711D01*
X47383168Y-48635809D01*
X47374626Y-48637076D01*
X47366000Y-48637500D01*
X46565000Y-48637500D01*
X46556374Y-48637076D01*
X46547832Y-48635809D01*
X46539455Y-48633711D01*
X46531324Y-48630801D01*
X46523517Y-48627109D01*
X46516110Y-48622669D01*
X46509173Y-48617525D01*
X46502775Y-48611725D01*
X46496975Y-48605327D01*
X46491831Y-48598390D01*
X46487391Y-48590983D01*
X46483699Y-48583176D01*
X46480789Y-48575045D01*
X46478691Y-48566668D01*
X46477424Y-48558126D01*
X46477000Y-48549500D01*
X46477000Y-48373500D01*
X46477424Y-48364874D01*
X46478691Y-48356332D01*
X46480789Y-48347955D01*
X46483699Y-48339824D01*
X46487391Y-48332017D01*
X46491831Y-48324610D01*
X46496975Y-48317673D01*
X46502775Y-48311275D01*
X46509173Y-48305475D01*
X46516110Y-48300331D01*
X46523517Y-48295891D01*
X46531324Y-48292199D01*
X46539455Y-48289289D01*
X46547832Y-48287191D01*
X46556374Y-48285924D01*
X46565000Y-48285500D01*
X47366000Y-48285500D01*
X47374626Y-48285924D01*
X47374626Y-48285924D01*
G37*
D23*
X46965500Y-48461500D03*
D12*
G36*
X47374626Y-47785924D02*
G01*
X47383168Y-47787191D01*
X47391545Y-47789289D01*
X47399676Y-47792199D01*
X47407483Y-47795891D01*
X47414890Y-47800331D01*
X47421827Y-47805475D01*
X47428225Y-47811275D01*
X47434025Y-47817673D01*
X47439169Y-47824610D01*
X47443609Y-47832017D01*
X47447301Y-47839824D01*
X47450211Y-47847955D01*
X47452309Y-47856332D01*
X47453576Y-47864874D01*
X47454000Y-47873500D01*
X47454000Y-48049500D01*
X47453576Y-48058126D01*
X47452309Y-48066668D01*
X47450211Y-48075045D01*
X47447301Y-48083176D01*
X47443609Y-48090983D01*
X47439169Y-48098390D01*
X47434025Y-48105327D01*
X47428225Y-48111725D01*
X47421827Y-48117525D01*
X47414890Y-48122669D01*
X47407483Y-48127109D01*
X47399676Y-48130801D01*
X47391545Y-48133711D01*
X47383168Y-48135809D01*
X47374626Y-48137076D01*
X47366000Y-48137500D01*
X46565000Y-48137500D01*
X46556374Y-48137076D01*
X46547832Y-48135809D01*
X46539455Y-48133711D01*
X46531324Y-48130801D01*
X46523517Y-48127109D01*
X46516110Y-48122669D01*
X46509173Y-48117525D01*
X46502775Y-48111725D01*
X46496975Y-48105327D01*
X46491831Y-48098390D01*
X46487391Y-48090983D01*
X46483699Y-48083176D01*
X46480789Y-48075045D01*
X46478691Y-48066668D01*
X46477424Y-48058126D01*
X46477000Y-48049500D01*
X46477000Y-47873500D01*
X46477424Y-47864874D01*
X46478691Y-47856332D01*
X46480789Y-47847955D01*
X46483699Y-47839824D01*
X46487391Y-47832017D01*
X46491831Y-47824610D01*
X46496975Y-47817673D01*
X46502775Y-47811275D01*
X46509173Y-47805475D01*
X46516110Y-47800331D01*
X46523517Y-47795891D01*
X46531324Y-47792199D01*
X46539455Y-47789289D01*
X46547832Y-47787191D01*
X46556374Y-47785924D01*
X46565000Y-47785500D01*
X47366000Y-47785500D01*
X47374626Y-47785924D01*
X47374626Y-47785924D01*
G37*
D23*
X46965500Y-47961500D03*
D12*
G36*
X47374626Y-47285924D02*
G01*
X47383168Y-47287191D01*
X47391545Y-47289289D01*
X47399676Y-47292199D01*
X47407483Y-47295891D01*
X47414890Y-47300331D01*
X47421827Y-47305475D01*
X47428225Y-47311275D01*
X47434025Y-47317673D01*
X47439169Y-47324610D01*
X47443609Y-47332017D01*
X47447301Y-47339824D01*
X47450211Y-47347955D01*
X47452309Y-47356332D01*
X47453576Y-47364874D01*
X47454000Y-47373500D01*
X47454000Y-47549500D01*
X47453576Y-47558126D01*
X47452309Y-47566668D01*
X47450211Y-47575045D01*
X47447301Y-47583176D01*
X47443609Y-47590983D01*
X47439169Y-47598390D01*
X47434025Y-47605327D01*
X47428225Y-47611725D01*
X47421827Y-47617525D01*
X47414890Y-47622669D01*
X47407483Y-47627109D01*
X47399676Y-47630801D01*
X47391545Y-47633711D01*
X47383168Y-47635809D01*
X47374626Y-47637076D01*
X47366000Y-47637500D01*
X46565000Y-47637500D01*
X46556374Y-47637076D01*
X46547832Y-47635809D01*
X46539455Y-47633711D01*
X46531324Y-47630801D01*
X46523517Y-47627109D01*
X46516110Y-47622669D01*
X46509173Y-47617525D01*
X46502775Y-47611725D01*
X46496975Y-47605327D01*
X46491831Y-47598390D01*
X46487391Y-47590983D01*
X46483699Y-47583176D01*
X46480789Y-47575045D01*
X46478691Y-47566668D01*
X46477424Y-47558126D01*
X46477000Y-47549500D01*
X46477000Y-47373500D01*
X46477424Y-47364874D01*
X46478691Y-47356332D01*
X46480789Y-47347955D01*
X46483699Y-47339824D01*
X46487391Y-47332017D01*
X46491831Y-47324610D01*
X46496975Y-47317673D01*
X46502775Y-47311275D01*
X46509173Y-47305475D01*
X46516110Y-47300331D01*
X46523517Y-47295891D01*
X46531324Y-47292199D01*
X46539455Y-47289289D01*
X46547832Y-47287191D01*
X46556374Y-47285924D01*
X46565000Y-47285500D01*
X47366000Y-47285500D01*
X47374626Y-47285924D01*
X47374626Y-47285924D01*
G37*
D23*
X46965500Y-47461500D03*
D12*
G36*
X47374626Y-46785924D02*
G01*
X47383168Y-46787191D01*
X47391545Y-46789289D01*
X47399676Y-46792199D01*
X47407483Y-46795891D01*
X47414890Y-46800331D01*
X47421827Y-46805475D01*
X47428225Y-46811275D01*
X47434025Y-46817673D01*
X47439169Y-46824610D01*
X47443609Y-46832017D01*
X47447301Y-46839824D01*
X47450211Y-46847955D01*
X47452309Y-46856332D01*
X47453576Y-46864874D01*
X47454000Y-46873500D01*
X47454000Y-47049500D01*
X47453576Y-47058126D01*
X47452309Y-47066668D01*
X47450211Y-47075045D01*
X47447301Y-47083176D01*
X47443609Y-47090983D01*
X47439169Y-47098390D01*
X47434025Y-47105327D01*
X47428225Y-47111725D01*
X47421827Y-47117525D01*
X47414890Y-47122669D01*
X47407483Y-47127109D01*
X47399676Y-47130801D01*
X47391545Y-47133711D01*
X47383168Y-47135809D01*
X47374626Y-47137076D01*
X47366000Y-47137500D01*
X46565000Y-47137500D01*
X46556374Y-47137076D01*
X46547832Y-47135809D01*
X46539455Y-47133711D01*
X46531324Y-47130801D01*
X46523517Y-47127109D01*
X46516110Y-47122669D01*
X46509173Y-47117525D01*
X46502775Y-47111725D01*
X46496975Y-47105327D01*
X46491831Y-47098390D01*
X46487391Y-47090983D01*
X46483699Y-47083176D01*
X46480789Y-47075045D01*
X46478691Y-47066668D01*
X46477424Y-47058126D01*
X46477000Y-47049500D01*
X46477000Y-46873500D01*
X46477424Y-46864874D01*
X46478691Y-46856332D01*
X46480789Y-46847955D01*
X46483699Y-46839824D01*
X46487391Y-46832017D01*
X46491831Y-46824610D01*
X46496975Y-46817673D01*
X46502775Y-46811275D01*
X46509173Y-46805475D01*
X46516110Y-46800331D01*
X46523517Y-46795891D01*
X46531324Y-46792199D01*
X46539455Y-46789289D01*
X46547832Y-46787191D01*
X46556374Y-46785924D01*
X46565000Y-46785500D01*
X47366000Y-46785500D01*
X47374626Y-46785924D01*
X47374626Y-46785924D01*
G37*
D23*
X46965500Y-46961500D03*
D12*
G36*
X47374626Y-46285924D02*
G01*
X47383168Y-46287191D01*
X47391545Y-46289289D01*
X47399676Y-46292199D01*
X47407483Y-46295891D01*
X47414890Y-46300331D01*
X47421827Y-46305475D01*
X47428225Y-46311275D01*
X47434025Y-46317673D01*
X47439169Y-46324610D01*
X47443609Y-46332017D01*
X47447301Y-46339824D01*
X47450211Y-46347955D01*
X47452309Y-46356332D01*
X47453576Y-46364874D01*
X47454000Y-46373500D01*
X47454000Y-46549500D01*
X47453576Y-46558126D01*
X47452309Y-46566668D01*
X47450211Y-46575045D01*
X47447301Y-46583176D01*
X47443609Y-46590983D01*
X47439169Y-46598390D01*
X47434025Y-46605327D01*
X47428225Y-46611725D01*
X47421827Y-46617525D01*
X47414890Y-46622669D01*
X47407483Y-46627109D01*
X47399676Y-46630801D01*
X47391545Y-46633711D01*
X47383168Y-46635809D01*
X47374626Y-46637076D01*
X47366000Y-46637500D01*
X46565000Y-46637500D01*
X46556374Y-46637076D01*
X46547832Y-46635809D01*
X46539455Y-46633711D01*
X46531324Y-46630801D01*
X46523517Y-46627109D01*
X46516110Y-46622669D01*
X46509173Y-46617525D01*
X46502775Y-46611725D01*
X46496975Y-46605327D01*
X46491831Y-46598390D01*
X46487391Y-46590983D01*
X46483699Y-46583176D01*
X46480789Y-46575045D01*
X46478691Y-46566668D01*
X46477424Y-46558126D01*
X46477000Y-46549500D01*
X46477000Y-46373500D01*
X46477424Y-46364874D01*
X46478691Y-46356332D01*
X46480789Y-46347955D01*
X46483699Y-46339824D01*
X46487391Y-46332017D01*
X46491831Y-46324610D01*
X46496975Y-46317673D01*
X46502775Y-46311275D01*
X46509173Y-46305475D01*
X46516110Y-46300331D01*
X46523517Y-46295891D01*
X46531324Y-46292199D01*
X46539455Y-46289289D01*
X46547832Y-46287191D01*
X46556374Y-46285924D01*
X46565000Y-46285500D01*
X47366000Y-46285500D01*
X47374626Y-46285924D01*
X47374626Y-46285924D01*
G37*
D23*
X46965500Y-46461500D03*
D12*
G36*
X47374626Y-45785924D02*
G01*
X47383168Y-45787191D01*
X47391545Y-45789289D01*
X47399676Y-45792199D01*
X47407483Y-45795891D01*
X47414890Y-45800331D01*
X47421827Y-45805475D01*
X47428225Y-45811275D01*
X47434025Y-45817673D01*
X47439169Y-45824610D01*
X47443609Y-45832017D01*
X47447301Y-45839824D01*
X47450211Y-45847955D01*
X47452309Y-45856332D01*
X47453576Y-45864874D01*
X47454000Y-45873500D01*
X47454000Y-46049500D01*
X47453576Y-46058126D01*
X47452309Y-46066668D01*
X47450211Y-46075045D01*
X47447301Y-46083176D01*
X47443609Y-46090983D01*
X47439169Y-46098390D01*
X47434025Y-46105327D01*
X47428225Y-46111725D01*
X47421827Y-46117525D01*
X47414890Y-46122669D01*
X47407483Y-46127109D01*
X47399676Y-46130801D01*
X47391545Y-46133711D01*
X47383168Y-46135809D01*
X47374626Y-46137076D01*
X47366000Y-46137500D01*
X46565000Y-46137500D01*
X46556374Y-46137076D01*
X46547832Y-46135809D01*
X46539455Y-46133711D01*
X46531324Y-46130801D01*
X46523517Y-46127109D01*
X46516110Y-46122669D01*
X46509173Y-46117525D01*
X46502775Y-46111725D01*
X46496975Y-46105327D01*
X46491831Y-46098390D01*
X46487391Y-46090983D01*
X46483699Y-46083176D01*
X46480789Y-46075045D01*
X46478691Y-46066668D01*
X46477424Y-46058126D01*
X46477000Y-46049500D01*
X46477000Y-45873500D01*
X46477424Y-45864874D01*
X46478691Y-45856332D01*
X46480789Y-45847955D01*
X46483699Y-45839824D01*
X46487391Y-45832017D01*
X46491831Y-45824610D01*
X46496975Y-45817673D01*
X46502775Y-45811275D01*
X46509173Y-45805475D01*
X46516110Y-45800331D01*
X46523517Y-45795891D01*
X46531324Y-45792199D01*
X46539455Y-45789289D01*
X46547832Y-45787191D01*
X46556374Y-45785924D01*
X46565000Y-45785500D01*
X47366000Y-45785500D01*
X47374626Y-45785924D01*
X47374626Y-45785924D01*
G37*
D23*
X46965500Y-45961500D03*
D12*
G36*
X47374626Y-45285924D02*
G01*
X47383168Y-45287191D01*
X47391545Y-45289289D01*
X47399676Y-45292199D01*
X47407483Y-45295891D01*
X47414890Y-45300331D01*
X47421827Y-45305475D01*
X47428225Y-45311275D01*
X47434025Y-45317673D01*
X47439169Y-45324610D01*
X47443609Y-45332017D01*
X47447301Y-45339824D01*
X47450211Y-45347955D01*
X47452309Y-45356332D01*
X47453576Y-45364874D01*
X47454000Y-45373500D01*
X47454000Y-45549500D01*
X47453576Y-45558126D01*
X47452309Y-45566668D01*
X47450211Y-45575045D01*
X47447301Y-45583176D01*
X47443609Y-45590983D01*
X47439169Y-45598390D01*
X47434025Y-45605327D01*
X47428225Y-45611725D01*
X47421827Y-45617525D01*
X47414890Y-45622669D01*
X47407483Y-45627109D01*
X47399676Y-45630801D01*
X47391545Y-45633711D01*
X47383168Y-45635809D01*
X47374626Y-45637076D01*
X47366000Y-45637500D01*
X46565000Y-45637500D01*
X46556374Y-45637076D01*
X46547832Y-45635809D01*
X46539455Y-45633711D01*
X46531324Y-45630801D01*
X46523517Y-45627109D01*
X46516110Y-45622669D01*
X46509173Y-45617525D01*
X46502775Y-45611725D01*
X46496975Y-45605327D01*
X46491831Y-45598390D01*
X46487391Y-45590983D01*
X46483699Y-45583176D01*
X46480789Y-45575045D01*
X46478691Y-45566668D01*
X46477424Y-45558126D01*
X46477000Y-45549500D01*
X46477000Y-45373500D01*
X46477424Y-45364874D01*
X46478691Y-45356332D01*
X46480789Y-45347955D01*
X46483699Y-45339824D01*
X46487391Y-45332017D01*
X46491831Y-45324610D01*
X46496975Y-45317673D01*
X46502775Y-45311275D01*
X46509173Y-45305475D01*
X46516110Y-45300331D01*
X46523517Y-45295891D01*
X46531324Y-45292199D01*
X46539455Y-45289289D01*
X46547832Y-45287191D01*
X46556374Y-45285924D01*
X46565000Y-45285500D01*
X47366000Y-45285500D01*
X47374626Y-45285924D01*
X47374626Y-45285924D01*
G37*
D23*
X46965500Y-45461500D03*
D12*
G36*
X47374626Y-44785924D02*
G01*
X47383168Y-44787191D01*
X47391545Y-44789289D01*
X47399676Y-44792199D01*
X47407483Y-44795891D01*
X47414890Y-44800331D01*
X47421827Y-44805475D01*
X47428225Y-44811275D01*
X47434025Y-44817673D01*
X47439169Y-44824610D01*
X47443609Y-44832017D01*
X47447301Y-44839824D01*
X47450211Y-44847955D01*
X47452309Y-44856332D01*
X47453576Y-44864874D01*
X47454000Y-44873500D01*
X47454000Y-45049500D01*
X47453576Y-45058126D01*
X47452309Y-45066668D01*
X47450211Y-45075045D01*
X47447301Y-45083176D01*
X47443609Y-45090983D01*
X47439169Y-45098390D01*
X47434025Y-45105327D01*
X47428225Y-45111725D01*
X47421827Y-45117525D01*
X47414890Y-45122669D01*
X47407483Y-45127109D01*
X47399676Y-45130801D01*
X47391545Y-45133711D01*
X47383168Y-45135809D01*
X47374626Y-45137076D01*
X47366000Y-45137500D01*
X46565000Y-45137500D01*
X46556374Y-45137076D01*
X46547832Y-45135809D01*
X46539455Y-45133711D01*
X46531324Y-45130801D01*
X46523517Y-45127109D01*
X46516110Y-45122669D01*
X46509173Y-45117525D01*
X46502775Y-45111725D01*
X46496975Y-45105327D01*
X46491831Y-45098390D01*
X46487391Y-45090983D01*
X46483699Y-45083176D01*
X46480789Y-45075045D01*
X46478691Y-45066668D01*
X46477424Y-45058126D01*
X46477000Y-45049500D01*
X46477000Y-44873500D01*
X46477424Y-44864874D01*
X46478691Y-44856332D01*
X46480789Y-44847955D01*
X46483699Y-44839824D01*
X46487391Y-44832017D01*
X46491831Y-44824610D01*
X46496975Y-44817673D01*
X46502775Y-44811275D01*
X46509173Y-44805475D01*
X46516110Y-44800331D01*
X46523517Y-44795891D01*
X46531324Y-44792199D01*
X46539455Y-44789289D01*
X46547832Y-44787191D01*
X46556374Y-44785924D01*
X46565000Y-44785500D01*
X47366000Y-44785500D01*
X47374626Y-44785924D01*
X47374626Y-44785924D01*
G37*
D23*
X46965500Y-44961500D03*
D12*
G36*
X47749626Y-43785924D02*
G01*
X47758168Y-43787191D01*
X47766545Y-43789289D01*
X47774676Y-43792199D01*
X47782483Y-43795891D01*
X47789890Y-43800331D01*
X47796827Y-43805475D01*
X47803225Y-43811275D01*
X47809025Y-43817673D01*
X47814169Y-43824610D01*
X47818609Y-43832017D01*
X47822301Y-43839824D01*
X47825211Y-43847955D01*
X47827309Y-43856332D01*
X47828576Y-43864874D01*
X47829000Y-43873500D01*
X47829000Y-44674500D01*
X47828576Y-44683126D01*
X47827309Y-44691668D01*
X47825211Y-44700045D01*
X47822301Y-44708176D01*
X47818609Y-44715983D01*
X47814169Y-44723390D01*
X47809025Y-44730327D01*
X47803225Y-44736725D01*
X47796827Y-44742525D01*
X47789890Y-44747669D01*
X47782483Y-44752109D01*
X47774676Y-44755801D01*
X47766545Y-44758711D01*
X47758168Y-44760809D01*
X47749626Y-44762076D01*
X47741000Y-44762500D01*
X47565000Y-44762500D01*
X47556374Y-44762076D01*
X47547832Y-44760809D01*
X47539455Y-44758711D01*
X47531324Y-44755801D01*
X47523517Y-44752109D01*
X47516110Y-44747669D01*
X47509173Y-44742525D01*
X47502775Y-44736725D01*
X47496975Y-44730327D01*
X47491831Y-44723390D01*
X47487391Y-44715983D01*
X47483699Y-44708176D01*
X47480789Y-44700045D01*
X47478691Y-44691668D01*
X47477424Y-44683126D01*
X47477000Y-44674500D01*
X47477000Y-43873500D01*
X47477424Y-43864874D01*
X47478691Y-43856332D01*
X47480789Y-43847955D01*
X47483699Y-43839824D01*
X47487391Y-43832017D01*
X47491831Y-43824610D01*
X47496975Y-43817673D01*
X47502775Y-43811275D01*
X47509173Y-43805475D01*
X47516110Y-43800331D01*
X47523517Y-43795891D01*
X47531324Y-43792199D01*
X47539455Y-43789289D01*
X47547832Y-43787191D01*
X47556374Y-43785924D01*
X47565000Y-43785500D01*
X47741000Y-43785500D01*
X47749626Y-43785924D01*
X47749626Y-43785924D01*
G37*
D23*
X47653000Y-44274000D03*
D12*
G36*
X48249626Y-43785924D02*
G01*
X48258168Y-43787191D01*
X48266545Y-43789289D01*
X48274676Y-43792199D01*
X48282483Y-43795891D01*
X48289890Y-43800331D01*
X48296827Y-43805475D01*
X48303225Y-43811275D01*
X48309025Y-43817673D01*
X48314169Y-43824610D01*
X48318609Y-43832017D01*
X48322301Y-43839824D01*
X48325211Y-43847955D01*
X48327309Y-43856332D01*
X48328576Y-43864874D01*
X48329000Y-43873500D01*
X48329000Y-44674500D01*
X48328576Y-44683126D01*
X48327309Y-44691668D01*
X48325211Y-44700045D01*
X48322301Y-44708176D01*
X48318609Y-44715983D01*
X48314169Y-44723390D01*
X48309025Y-44730327D01*
X48303225Y-44736725D01*
X48296827Y-44742525D01*
X48289890Y-44747669D01*
X48282483Y-44752109D01*
X48274676Y-44755801D01*
X48266545Y-44758711D01*
X48258168Y-44760809D01*
X48249626Y-44762076D01*
X48241000Y-44762500D01*
X48065000Y-44762500D01*
X48056374Y-44762076D01*
X48047832Y-44760809D01*
X48039455Y-44758711D01*
X48031324Y-44755801D01*
X48023517Y-44752109D01*
X48016110Y-44747669D01*
X48009173Y-44742525D01*
X48002775Y-44736725D01*
X47996975Y-44730327D01*
X47991831Y-44723390D01*
X47987391Y-44715983D01*
X47983699Y-44708176D01*
X47980789Y-44700045D01*
X47978691Y-44691668D01*
X47977424Y-44683126D01*
X47977000Y-44674500D01*
X47977000Y-43873500D01*
X47977424Y-43864874D01*
X47978691Y-43856332D01*
X47980789Y-43847955D01*
X47983699Y-43839824D01*
X47987391Y-43832017D01*
X47991831Y-43824610D01*
X47996975Y-43817673D01*
X48002775Y-43811275D01*
X48009173Y-43805475D01*
X48016110Y-43800331D01*
X48023517Y-43795891D01*
X48031324Y-43792199D01*
X48039455Y-43789289D01*
X48047832Y-43787191D01*
X48056374Y-43785924D01*
X48065000Y-43785500D01*
X48241000Y-43785500D01*
X48249626Y-43785924D01*
X48249626Y-43785924D01*
G37*
D23*
X48153000Y-44274000D03*
D12*
G36*
X48749626Y-43785924D02*
G01*
X48758168Y-43787191D01*
X48766545Y-43789289D01*
X48774676Y-43792199D01*
X48782483Y-43795891D01*
X48789890Y-43800331D01*
X48796827Y-43805475D01*
X48803225Y-43811275D01*
X48809025Y-43817673D01*
X48814169Y-43824610D01*
X48818609Y-43832017D01*
X48822301Y-43839824D01*
X48825211Y-43847955D01*
X48827309Y-43856332D01*
X48828576Y-43864874D01*
X48829000Y-43873500D01*
X48829000Y-44674500D01*
X48828576Y-44683126D01*
X48827309Y-44691668D01*
X48825211Y-44700045D01*
X48822301Y-44708176D01*
X48818609Y-44715983D01*
X48814169Y-44723390D01*
X48809025Y-44730327D01*
X48803225Y-44736725D01*
X48796827Y-44742525D01*
X48789890Y-44747669D01*
X48782483Y-44752109D01*
X48774676Y-44755801D01*
X48766545Y-44758711D01*
X48758168Y-44760809D01*
X48749626Y-44762076D01*
X48741000Y-44762500D01*
X48565000Y-44762500D01*
X48556374Y-44762076D01*
X48547832Y-44760809D01*
X48539455Y-44758711D01*
X48531324Y-44755801D01*
X48523517Y-44752109D01*
X48516110Y-44747669D01*
X48509173Y-44742525D01*
X48502775Y-44736725D01*
X48496975Y-44730327D01*
X48491831Y-44723390D01*
X48487391Y-44715983D01*
X48483699Y-44708176D01*
X48480789Y-44700045D01*
X48478691Y-44691668D01*
X48477424Y-44683126D01*
X48477000Y-44674500D01*
X48477000Y-43873500D01*
X48477424Y-43864874D01*
X48478691Y-43856332D01*
X48480789Y-43847955D01*
X48483699Y-43839824D01*
X48487391Y-43832017D01*
X48491831Y-43824610D01*
X48496975Y-43817673D01*
X48502775Y-43811275D01*
X48509173Y-43805475D01*
X48516110Y-43800331D01*
X48523517Y-43795891D01*
X48531324Y-43792199D01*
X48539455Y-43789289D01*
X48547832Y-43787191D01*
X48556374Y-43785924D01*
X48565000Y-43785500D01*
X48741000Y-43785500D01*
X48749626Y-43785924D01*
X48749626Y-43785924D01*
G37*
D23*
X48653000Y-44274000D03*
D12*
G36*
X49249626Y-43785924D02*
G01*
X49258168Y-43787191D01*
X49266545Y-43789289D01*
X49274676Y-43792199D01*
X49282483Y-43795891D01*
X49289890Y-43800331D01*
X49296827Y-43805475D01*
X49303225Y-43811275D01*
X49309025Y-43817673D01*
X49314169Y-43824610D01*
X49318609Y-43832017D01*
X49322301Y-43839824D01*
X49325211Y-43847955D01*
X49327309Y-43856332D01*
X49328576Y-43864874D01*
X49329000Y-43873500D01*
X49329000Y-44674500D01*
X49328576Y-44683126D01*
X49327309Y-44691668D01*
X49325211Y-44700045D01*
X49322301Y-44708176D01*
X49318609Y-44715983D01*
X49314169Y-44723390D01*
X49309025Y-44730327D01*
X49303225Y-44736725D01*
X49296827Y-44742525D01*
X49289890Y-44747669D01*
X49282483Y-44752109D01*
X49274676Y-44755801D01*
X49266545Y-44758711D01*
X49258168Y-44760809D01*
X49249626Y-44762076D01*
X49241000Y-44762500D01*
X49065000Y-44762500D01*
X49056374Y-44762076D01*
X49047832Y-44760809D01*
X49039455Y-44758711D01*
X49031324Y-44755801D01*
X49023517Y-44752109D01*
X49016110Y-44747669D01*
X49009173Y-44742525D01*
X49002775Y-44736725D01*
X48996975Y-44730327D01*
X48991831Y-44723390D01*
X48987391Y-44715983D01*
X48983699Y-44708176D01*
X48980789Y-44700045D01*
X48978691Y-44691668D01*
X48977424Y-44683126D01*
X48977000Y-44674500D01*
X48977000Y-43873500D01*
X48977424Y-43864874D01*
X48978691Y-43856332D01*
X48980789Y-43847955D01*
X48983699Y-43839824D01*
X48987391Y-43832017D01*
X48991831Y-43824610D01*
X48996975Y-43817673D01*
X49002775Y-43811275D01*
X49009173Y-43805475D01*
X49016110Y-43800331D01*
X49023517Y-43795891D01*
X49031324Y-43792199D01*
X49039455Y-43789289D01*
X49047832Y-43787191D01*
X49056374Y-43785924D01*
X49065000Y-43785500D01*
X49241000Y-43785500D01*
X49249626Y-43785924D01*
X49249626Y-43785924D01*
G37*
D23*
X49153000Y-44274000D03*
D12*
G36*
X49749626Y-43785924D02*
G01*
X49758168Y-43787191D01*
X49766545Y-43789289D01*
X49774676Y-43792199D01*
X49782483Y-43795891D01*
X49789890Y-43800331D01*
X49796827Y-43805475D01*
X49803225Y-43811275D01*
X49809025Y-43817673D01*
X49814169Y-43824610D01*
X49818609Y-43832017D01*
X49822301Y-43839824D01*
X49825211Y-43847955D01*
X49827309Y-43856332D01*
X49828576Y-43864874D01*
X49829000Y-43873500D01*
X49829000Y-44674500D01*
X49828576Y-44683126D01*
X49827309Y-44691668D01*
X49825211Y-44700045D01*
X49822301Y-44708176D01*
X49818609Y-44715983D01*
X49814169Y-44723390D01*
X49809025Y-44730327D01*
X49803225Y-44736725D01*
X49796827Y-44742525D01*
X49789890Y-44747669D01*
X49782483Y-44752109D01*
X49774676Y-44755801D01*
X49766545Y-44758711D01*
X49758168Y-44760809D01*
X49749626Y-44762076D01*
X49741000Y-44762500D01*
X49565000Y-44762500D01*
X49556374Y-44762076D01*
X49547832Y-44760809D01*
X49539455Y-44758711D01*
X49531324Y-44755801D01*
X49523517Y-44752109D01*
X49516110Y-44747669D01*
X49509173Y-44742525D01*
X49502775Y-44736725D01*
X49496975Y-44730327D01*
X49491831Y-44723390D01*
X49487391Y-44715983D01*
X49483699Y-44708176D01*
X49480789Y-44700045D01*
X49478691Y-44691668D01*
X49477424Y-44683126D01*
X49477000Y-44674500D01*
X49477000Y-43873500D01*
X49477424Y-43864874D01*
X49478691Y-43856332D01*
X49480789Y-43847955D01*
X49483699Y-43839824D01*
X49487391Y-43832017D01*
X49491831Y-43824610D01*
X49496975Y-43817673D01*
X49502775Y-43811275D01*
X49509173Y-43805475D01*
X49516110Y-43800331D01*
X49523517Y-43795891D01*
X49531324Y-43792199D01*
X49539455Y-43789289D01*
X49547832Y-43787191D01*
X49556374Y-43785924D01*
X49565000Y-43785500D01*
X49741000Y-43785500D01*
X49749626Y-43785924D01*
X49749626Y-43785924D01*
G37*
D23*
X49653000Y-44274000D03*
D12*
G36*
X50249626Y-43785924D02*
G01*
X50258168Y-43787191D01*
X50266545Y-43789289D01*
X50274676Y-43792199D01*
X50282483Y-43795891D01*
X50289890Y-43800331D01*
X50296827Y-43805475D01*
X50303225Y-43811275D01*
X50309025Y-43817673D01*
X50314169Y-43824610D01*
X50318609Y-43832017D01*
X50322301Y-43839824D01*
X50325211Y-43847955D01*
X50327309Y-43856332D01*
X50328576Y-43864874D01*
X50329000Y-43873500D01*
X50329000Y-44674500D01*
X50328576Y-44683126D01*
X50327309Y-44691668D01*
X50325211Y-44700045D01*
X50322301Y-44708176D01*
X50318609Y-44715983D01*
X50314169Y-44723390D01*
X50309025Y-44730327D01*
X50303225Y-44736725D01*
X50296827Y-44742525D01*
X50289890Y-44747669D01*
X50282483Y-44752109D01*
X50274676Y-44755801D01*
X50266545Y-44758711D01*
X50258168Y-44760809D01*
X50249626Y-44762076D01*
X50241000Y-44762500D01*
X50065000Y-44762500D01*
X50056374Y-44762076D01*
X50047832Y-44760809D01*
X50039455Y-44758711D01*
X50031324Y-44755801D01*
X50023517Y-44752109D01*
X50016110Y-44747669D01*
X50009173Y-44742525D01*
X50002775Y-44736725D01*
X49996975Y-44730327D01*
X49991831Y-44723390D01*
X49987391Y-44715983D01*
X49983699Y-44708176D01*
X49980789Y-44700045D01*
X49978691Y-44691668D01*
X49977424Y-44683126D01*
X49977000Y-44674500D01*
X49977000Y-43873500D01*
X49977424Y-43864874D01*
X49978691Y-43856332D01*
X49980789Y-43847955D01*
X49983699Y-43839824D01*
X49987391Y-43832017D01*
X49991831Y-43824610D01*
X49996975Y-43817673D01*
X50002775Y-43811275D01*
X50009173Y-43805475D01*
X50016110Y-43800331D01*
X50023517Y-43795891D01*
X50031324Y-43792199D01*
X50039455Y-43789289D01*
X50047832Y-43787191D01*
X50056374Y-43785924D01*
X50065000Y-43785500D01*
X50241000Y-43785500D01*
X50249626Y-43785924D01*
X50249626Y-43785924D01*
G37*
D23*
X50153000Y-44274000D03*
D12*
G36*
X50749626Y-43785924D02*
G01*
X50758168Y-43787191D01*
X50766545Y-43789289D01*
X50774676Y-43792199D01*
X50782483Y-43795891D01*
X50789890Y-43800331D01*
X50796827Y-43805475D01*
X50803225Y-43811275D01*
X50809025Y-43817673D01*
X50814169Y-43824610D01*
X50818609Y-43832017D01*
X50822301Y-43839824D01*
X50825211Y-43847955D01*
X50827309Y-43856332D01*
X50828576Y-43864874D01*
X50829000Y-43873500D01*
X50829000Y-44674500D01*
X50828576Y-44683126D01*
X50827309Y-44691668D01*
X50825211Y-44700045D01*
X50822301Y-44708176D01*
X50818609Y-44715983D01*
X50814169Y-44723390D01*
X50809025Y-44730327D01*
X50803225Y-44736725D01*
X50796827Y-44742525D01*
X50789890Y-44747669D01*
X50782483Y-44752109D01*
X50774676Y-44755801D01*
X50766545Y-44758711D01*
X50758168Y-44760809D01*
X50749626Y-44762076D01*
X50741000Y-44762500D01*
X50565000Y-44762500D01*
X50556374Y-44762076D01*
X50547832Y-44760809D01*
X50539455Y-44758711D01*
X50531324Y-44755801D01*
X50523517Y-44752109D01*
X50516110Y-44747669D01*
X50509173Y-44742525D01*
X50502775Y-44736725D01*
X50496975Y-44730327D01*
X50491831Y-44723390D01*
X50487391Y-44715983D01*
X50483699Y-44708176D01*
X50480789Y-44700045D01*
X50478691Y-44691668D01*
X50477424Y-44683126D01*
X50477000Y-44674500D01*
X50477000Y-43873500D01*
X50477424Y-43864874D01*
X50478691Y-43856332D01*
X50480789Y-43847955D01*
X50483699Y-43839824D01*
X50487391Y-43832017D01*
X50491831Y-43824610D01*
X50496975Y-43817673D01*
X50502775Y-43811275D01*
X50509173Y-43805475D01*
X50516110Y-43800331D01*
X50523517Y-43795891D01*
X50531324Y-43792199D01*
X50539455Y-43789289D01*
X50547832Y-43787191D01*
X50556374Y-43785924D01*
X50565000Y-43785500D01*
X50741000Y-43785500D01*
X50749626Y-43785924D01*
X50749626Y-43785924D01*
G37*
D23*
X50653000Y-44274000D03*
D12*
G36*
X51249626Y-43785924D02*
G01*
X51258168Y-43787191D01*
X51266545Y-43789289D01*
X51274676Y-43792199D01*
X51282483Y-43795891D01*
X51289890Y-43800331D01*
X51296827Y-43805475D01*
X51303225Y-43811275D01*
X51309025Y-43817673D01*
X51314169Y-43824610D01*
X51318609Y-43832017D01*
X51322301Y-43839824D01*
X51325211Y-43847955D01*
X51327309Y-43856332D01*
X51328576Y-43864874D01*
X51329000Y-43873500D01*
X51329000Y-44674500D01*
X51328576Y-44683126D01*
X51327309Y-44691668D01*
X51325211Y-44700045D01*
X51322301Y-44708176D01*
X51318609Y-44715983D01*
X51314169Y-44723390D01*
X51309025Y-44730327D01*
X51303225Y-44736725D01*
X51296827Y-44742525D01*
X51289890Y-44747669D01*
X51282483Y-44752109D01*
X51274676Y-44755801D01*
X51266545Y-44758711D01*
X51258168Y-44760809D01*
X51249626Y-44762076D01*
X51241000Y-44762500D01*
X51065000Y-44762500D01*
X51056374Y-44762076D01*
X51047832Y-44760809D01*
X51039455Y-44758711D01*
X51031324Y-44755801D01*
X51023517Y-44752109D01*
X51016110Y-44747669D01*
X51009173Y-44742525D01*
X51002775Y-44736725D01*
X50996975Y-44730327D01*
X50991831Y-44723390D01*
X50987391Y-44715983D01*
X50983699Y-44708176D01*
X50980789Y-44700045D01*
X50978691Y-44691668D01*
X50977424Y-44683126D01*
X50977000Y-44674500D01*
X50977000Y-43873500D01*
X50977424Y-43864874D01*
X50978691Y-43856332D01*
X50980789Y-43847955D01*
X50983699Y-43839824D01*
X50987391Y-43832017D01*
X50991831Y-43824610D01*
X50996975Y-43817673D01*
X51002775Y-43811275D01*
X51009173Y-43805475D01*
X51016110Y-43800331D01*
X51023517Y-43795891D01*
X51031324Y-43792199D01*
X51039455Y-43789289D01*
X51047832Y-43787191D01*
X51056374Y-43785924D01*
X51065000Y-43785500D01*
X51241000Y-43785500D01*
X51249626Y-43785924D01*
X51249626Y-43785924D01*
G37*
D23*
X51153000Y-44274000D03*
D12*
G36*
X52249626Y-44785924D02*
G01*
X52258168Y-44787191D01*
X52266545Y-44789289D01*
X52274676Y-44792199D01*
X52282483Y-44795891D01*
X52289890Y-44800331D01*
X52296827Y-44805475D01*
X52303225Y-44811275D01*
X52309025Y-44817673D01*
X52314169Y-44824610D01*
X52318609Y-44832017D01*
X52322301Y-44839824D01*
X52325211Y-44847955D01*
X52327309Y-44856332D01*
X52328576Y-44864874D01*
X52329000Y-44873500D01*
X52329000Y-45049500D01*
X52328576Y-45058126D01*
X52327309Y-45066668D01*
X52325211Y-45075045D01*
X52322301Y-45083176D01*
X52318609Y-45090983D01*
X52314169Y-45098390D01*
X52309025Y-45105327D01*
X52303225Y-45111725D01*
X52296827Y-45117525D01*
X52289890Y-45122669D01*
X52282483Y-45127109D01*
X52274676Y-45130801D01*
X52266545Y-45133711D01*
X52258168Y-45135809D01*
X52249626Y-45137076D01*
X52241000Y-45137500D01*
X51440000Y-45137500D01*
X51431374Y-45137076D01*
X51422832Y-45135809D01*
X51414455Y-45133711D01*
X51406324Y-45130801D01*
X51398517Y-45127109D01*
X51391110Y-45122669D01*
X51384173Y-45117525D01*
X51377775Y-45111725D01*
X51371975Y-45105327D01*
X51366831Y-45098390D01*
X51362391Y-45090983D01*
X51358699Y-45083176D01*
X51355789Y-45075045D01*
X51353691Y-45066668D01*
X51352424Y-45058126D01*
X51352000Y-45049500D01*
X51352000Y-44873500D01*
X51352424Y-44864874D01*
X51353691Y-44856332D01*
X51355789Y-44847955D01*
X51358699Y-44839824D01*
X51362391Y-44832017D01*
X51366831Y-44824610D01*
X51371975Y-44817673D01*
X51377775Y-44811275D01*
X51384173Y-44805475D01*
X51391110Y-44800331D01*
X51398517Y-44795891D01*
X51406324Y-44792199D01*
X51414455Y-44789289D01*
X51422832Y-44787191D01*
X51431374Y-44785924D01*
X51440000Y-44785500D01*
X52241000Y-44785500D01*
X52249626Y-44785924D01*
X52249626Y-44785924D01*
G37*
D23*
X51840500Y-44961500D03*
D12*
G36*
X52249626Y-45285924D02*
G01*
X52258168Y-45287191D01*
X52266545Y-45289289D01*
X52274676Y-45292199D01*
X52282483Y-45295891D01*
X52289890Y-45300331D01*
X52296827Y-45305475D01*
X52303225Y-45311275D01*
X52309025Y-45317673D01*
X52314169Y-45324610D01*
X52318609Y-45332017D01*
X52322301Y-45339824D01*
X52325211Y-45347955D01*
X52327309Y-45356332D01*
X52328576Y-45364874D01*
X52329000Y-45373500D01*
X52329000Y-45549500D01*
X52328576Y-45558126D01*
X52327309Y-45566668D01*
X52325211Y-45575045D01*
X52322301Y-45583176D01*
X52318609Y-45590983D01*
X52314169Y-45598390D01*
X52309025Y-45605327D01*
X52303225Y-45611725D01*
X52296827Y-45617525D01*
X52289890Y-45622669D01*
X52282483Y-45627109D01*
X52274676Y-45630801D01*
X52266545Y-45633711D01*
X52258168Y-45635809D01*
X52249626Y-45637076D01*
X52241000Y-45637500D01*
X51440000Y-45637500D01*
X51431374Y-45637076D01*
X51422832Y-45635809D01*
X51414455Y-45633711D01*
X51406324Y-45630801D01*
X51398517Y-45627109D01*
X51391110Y-45622669D01*
X51384173Y-45617525D01*
X51377775Y-45611725D01*
X51371975Y-45605327D01*
X51366831Y-45598390D01*
X51362391Y-45590983D01*
X51358699Y-45583176D01*
X51355789Y-45575045D01*
X51353691Y-45566668D01*
X51352424Y-45558126D01*
X51352000Y-45549500D01*
X51352000Y-45373500D01*
X51352424Y-45364874D01*
X51353691Y-45356332D01*
X51355789Y-45347955D01*
X51358699Y-45339824D01*
X51362391Y-45332017D01*
X51366831Y-45324610D01*
X51371975Y-45317673D01*
X51377775Y-45311275D01*
X51384173Y-45305475D01*
X51391110Y-45300331D01*
X51398517Y-45295891D01*
X51406324Y-45292199D01*
X51414455Y-45289289D01*
X51422832Y-45287191D01*
X51431374Y-45285924D01*
X51440000Y-45285500D01*
X52241000Y-45285500D01*
X52249626Y-45285924D01*
X52249626Y-45285924D01*
G37*
D23*
X51840500Y-45461500D03*
D12*
G36*
X52249626Y-45785924D02*
G01*
X52258168Y-45787191D01*
X52266545Y-45789289D01*
X52274676Y-45792199D01*
X52282483Y-45795891D01*
X52289890Y-45800331D01*
X52296827Y-45805475D01*
X52303225Y-45811275D01*
X52309025Y-45817673D01*
X52314169Y-45824610D01*
X52318609Y-45832017D01*
X52322301Y-45839824D01*
X52325211Y-45847955D01*
X52327309Y-45856332D01*
X52328576Y-45864874D01*
X52329000Y-45873500D01*
X52329000Y-46049500D01*
X52328576Y-46058126D01*
X52327309Y-46066668D01*
X52325211Y-46075045D01*
X52322301Y-46083176D01*
X52318609Y-46090983D01*
X52314169Y-46098390D01*
X52309025Y-46105327D01*
X52303225Y-46111725D01*
X52296827Y-46117525D01*
X52289890Y-46122669D01*
X52282483Y-46127109D01*
X52274676Y-46130801D01*
X52266545Y-46133711D01*
X52258168Y-46135809D01*
X52249626Y-46137076D01*
X52241000Y-46137500D01*
X51440000Y-46137500D01*
X51431374Y-46137076D01*
X51422832Y-46135809D01*
X51414455Y-46133711D01*
X51406324Y-46130801D01*
X51398517Y-46127109D01*
X51391110Y-46122669D01*
X51384173Y-46117525D01*
X51377775Y-46111725D01*
X51371975Y-46105327D01*
X51366831Y-46098390D01*
X51362391Y-46090983D01*
X51358699Y-46083176D01*
X51355789Y-46075045D01*
X51353691Y-46066668D01*
X51352424Y-46058126D01*
X51352000Y-46049500D01*
X51352000Y-45873500D01*
X51352424Y-45864874D01*
X51353691Y-45856332D01*
X51355789Y-45847955D01*
X51358699Y-45839824D01*
X51362391Y-45832017D01*
X51366831Y-45824610D01*
X51371975Y-45817673D01*
X51377775Y-45811275D01*
X51384173Y-45805475D01*
X51391110Y-45800331D01*
X51398517Y-45795891D01*
X51406324Y-45792199D01*
X51414455Y-45789289D01*
X51422832Y-45787191D01*
X51431374Y-45785924D01*
X51440000Y-45785500D01*
X52241000Y-45785500D01*
X52249626Y-45785924D01*
X52249626Y-45785924D01*
G37*
D23*
X51840500Y-45961500D03*
D12*
G36*
X52249626Y-46285924D02*
G01*
X52258168Y-46287191D01*
X52266545Y-46289289D01*
X52274676Y-46292199D01*
X52282483Y-46295891D01*
X52289890Y-46300331D01*
X52296827Y-46305475D01*
X52303225Y-46311275D01*
X52309025Y-46317673D01*
X52314169Y-46324610D01*
X52318609Y-46332017D01*
X52322301Y-46339824D01*
X52325211Y-46347955D01*
X52327309Y-46356332D01*
X52328576Y-46364874D01*
X52329000Y-46373500D01*
X52329000Y-46549500D01*
X52328576Y-46558126D01*
X52327309Y-46566668D01*
X52325211Y-46575045D01*
X52322301Y-46583176D01*
X52318609Y-46590983D01*
X52314169Y-46598390D01*
X52309025Y-46605327D01*
X52303225Y-46611725D01*
X52296827Y-46617525D01*
X52289890Y-46622669D01*
X52282483Y-46627109D01*
X52274676Y-46630801D01*
X52266545Y-46633711D01*
X52258168Y-46635809D01*
X52249626Y-46637076D01*
X52241000Y-46637500D01*
X51440000Y-46637500D01*
X51431374Y-46637076D01*
X51422832Y-46635809D01*
X51414455Y-46633711D01*
X51406324Y-46630801D01*
X51398517Y-46627109D01*
X51391110Y-46622669D01*
X51384173Y-46617525D01*
X51377775Y-46611725D01*
X51371975Y-46605327D01*
X51366831Y-46598390D01*
X51362391Y-46590983D01*
X51358699Y-46583176D01*
X51355789Y-46575045D01*
X51353691Y-46566668D01*
X51352424Y-46558126D01*
X51352000Y-46549500D01*
X51352000Y-46373500D01*
X51352424Y-46364874D01*
X51353691Y-46356332D01*
X51355789Y-46347955D01*
X51358699Y-46339824D01*
X51362391Y-46332017D01*
X51366831Y-46324610D01*
X51371975Y-46317673D01*
X51377775Y-46311275D01*
X51384173Y-46305475D01*
X51391110Y-46300331D01*
X51398517Y-46295891D01*
X51406324Y-46292199D01*
X51414455Y-46289289D01*
X51422832Y-46287191D01*
X51431374Y-46285924D01*
X51440000Y-46285500D01*
X52241000Y-46285500D01*
X52249626Y-46285924D01*
X52249626Y-46285924D01*
G37*
D23*
X51840500Y-46461500D03*
D12*
G36*
X52249626Y-46785924D02*
G01*
X52258168Y-46787191D01*
X52266545Y-46789289D01*
X52274676Y-46792199D01*
X52282483Y-46795891D01*
X52289890Y-46800331D01*
X52296827Y-46805475D01*
X52303225Y-46811275D01*
X52309025Y-46817673D01*
X52314169Y-46824610D01*
X52318609Y-46832017D01*
X52322301Y-46839824D01*
X52325211Y-46847955D01*
X52327309Y-46856332D01*
X52328576Y-46864874D01*
X52329000Y-46873500D01*
X52329000Y-47049500D01*
X52328576Y-47058126D01*
X52327309Y-47066668D01*
X52325211Y-47075045D01*
X52322301Y-47083176D01*
X52318609Y-47090983D01*
X52314169Y-47098390D01*
X52309025Y-47105327D01*
X52303225Y-47111725D01*
X52296827Y-47117525D01*
X52289890Y-47122669D01*
X52282483Y-47127109D01*
X52274676Y-47130801D01*
X52266545Y-47133711D01*
X52258168Y-47135809D01*
X52249626Y-47137076D01*
X52241000Y-47137500D01*
X51440000Y-47137500D01*
X51431374Y-47137076D01*
X51422832Y-47135809D01*
X51414455Y-47133711D01*
X51406324Y-47130801D01*
X51398517Y-47127109D01*
X51391110Y-47122669D01*
X51384173Y-47117525D01*
X51377775Y-47111725D01*
X51371975Y-47105327D01*
X51366831Y-47098390D01*
X51362391Y-47090983D01*
X51358699Y-47083176D01*
X51355789Y-47075045D01*
X51353691Y-47066668D01*
X51352424Y-47058126D01*
X51352000Y-47049500D01*
X51352000Y-46873500D01*
X51352424Y-46864874D01*
X51353691Y-46856332D01*
X51355789Y-46847955D01*
X51358699Y-46839824D01*
X51362391Y-46832017D01*
X51366831Y-46824610D01*
X51371975Y-46817673D01*
X51377775Y-46811275D01*
X51384173Y-46805475D01*
X51391110Y-46800331D01*
X51398517Y-46795891D01*
X51406324Y-46792199D01*
X51414455Y-46789289D01*
X51422832Y-46787191D01*
X51431374Y-46785924D01*
X51440000Y-46785500D01*
X52241000Y-46785500D01*
X52249626Y-46785924D01*
X52249626Y-46785924D01*
G37*
D23*
X51840500Y-46961500D03*
D12*
G36*
X52249626Y-47285924D02*
G01*
X52258168Y-47287191D01*
X52266545Y-47289289D01*
X52274676Y-47292199D01*
X52282483Y-47295891D01*
X52289890Y-47300331D01*
X52296827Y-47305475D01*
X52303225Y-47311275D01*
X52309025Y-47317673D01*
X52314169Y-47324610D01*
X52318609Y-47332017D01*
X52322301Y-47339824D01*
X52325211Y-47347955D01*
X52327309Y-47356332D01*
X52328576Y-47364874D01*
X52329000Y-47373500D01*
X52329000Y-47549500D01*
X52328576Y-47558126D01*
X52327309Y-47566668D01*
X52325211Y-47575045D01*
X52322301Y-47583176D01*
X52318609Y-47590983D01*
X52314169Y-47598390D01*
X52309025Y-47605327D01*
X52303225Y-47611725D01*
X52296827Y-47617525D01*
X52289890Y-47622669D01*
X52282483Y-47627109D01*
X52274676Y-47630801D01*
X52266545Y-47633711D01*
X52258168Y-47635809D01*
X52249626Y-47637076D01*
X52241000Y-47637500D01*
X51440000Y-47637500D01*
X51431374Y-47637076D01*
X51422832Y-47635809D01*
X51414455Y-47633711D01*
X51406324Y-47630801D01*
X51398517Y-47627109D01*
X51391110Y-47622669D01*
X51384173Y-47617525D01*
X51377775Y-47611725D01*
X51371975Y-47605327D01*
X51366831Y-47598390D01*
X51362391Y-47590983D01*
X51358699Y-47583176D01*
X51355789Y-47575045D01*
X51353691Y-47566668D01*
X51352424Y-47558126D01*
X51352000Y-47549500D01*
X51352000Y-47373500D01*
X51352424Y-47364874D01*
X51353691Y-47356332D01*
X51355789Y-47347955D01*
X51358699Y-47339824D01*
X51362391Y-47332017D01*
X51366831Y-47324610D01*
X51371975Y-47317673D01*
X51377775Y-47311275D01*
X51384173Y-47305475D01*
X51391110Y-47300331D01*
X51398517Y-47295891D01*
X51406324Y-47292199D01*
X51414455Y-47289289D01*
X51422832Y-47287191D01*
X51431374Y-47285924D01*
X51440000Y-47285500D01*
X52241000Y-47285500D01*
X52249626Y-47285924D01*
X52249626Y-47285924D01*
G37*
D23*
X51840500Y-47461500D03*
D12*
G36*
X52249626Y-47785924D02*
G01*
X52258168Y-47787191D01*
X52266545Y-47789289D01*
X52274676Y-47792199D01*
X52282483Y-47795891D01*
X52289890Y-47800331D01*
X52296827Y-47805475D01*
X52303225Y-47811275D01*
X52309025Y-47817673D01*
X52314169Y-47824610D01*
X52318609Y-47832017D01*
X52322301Y-47839824D01*
X52325211Y-47847955D01*
X52327309Y-47856332D01*
X52328576Y-47864874D01*
X52329000Y-47873500D01*
X52329000Y-48049500D01*
X52328576Y-48058126D01*
X52327309Y-48066668D01*
X52325211Y-48075045D01*
X52322301Y-48083176D01*
X52318609Y-48090983D01*
X52314169Y-48098390D01*
X52309025Y-48105327D01*
X52303225Y-48111725D01*
X52296827Y-48117525D01*
X52289890Y-48122669D01*
X52282483Y-48127109D01*
X52274676Y-48130801D01*
X52266545Y-48133711D01*
X52258168Y-48135809D01*
X52249626Y-48137076D01*
X52241000Y-48137500D01*
X51440000Y-48137500D01*
X51431374Y-48137076D01*
X51422832Y-48135809D01*
X51414455Y-48133711D01*
X51406324Y-48130801D01*
X51398517Y-48127109D01*
X51391110Y-48122669D01*
X51384173Y-48117525D01*
X51377775Y-48111725D01*
X51371975Y-48105327D01*
X51366831Y-48098390D01*
X51362391Y-48090983D01*
X51358699Y-48083176D01*
X51355789Y-48075045D01*
X51353691Y-48066668D01*
X51352424Y-48058126D01*
X51352000Y-48049500D01*
X51352000Y-47873500D01*
X51352424Y-47864874D01*
X51353691Y-47856332D01*
X51355789Y-47847955D01*
X51358699Y-47839824D01*
X51362391Y-47832017D01*
X51366831Y-47824610D01*
X51371975Y-47817673D01*
X51377775Y-47811275D01*
X51384173Y-47805475D01*
X51391110Y-47800331D01*
X51398517Y-47795891D01*
X51406324Y-47792199D01*
X51414455Y-47789289D01*
X51422832Y-47787191D01*
X51431374Y-47785924D01*
X51440000Y-47785500D01*
X52241000Y-47785500D01*
X52249626Y-47785924D01*
X52249626Y-47785924D01*
G37*
D23*
X51840500Y-47961500D03*
D12*
G36*
X52249626Y-48285924D02*
G01*
X52258168Y-48287191D01*
X52266545Y-48289289D01*
X52274676Y-48292199D01*
X52282483Y-48295891D01*
X52289890Y-48300331D01*
X52296827Y-48305475D01*
X52303225Y-48311275D01*
X52309025Y-48317673D01*
X52314169Y-48324610D01*
X52318609Y-48332017D01*
X52322301Y-48339824D01*
X52325211Y-48347955D01*
X52327309Y-48356332D01*
X52328576Y-48364874D01*
X52329000Y-48373500D01*
X52329000Y-48549500D01*
X52328576Y-48558126D01*
X52327309Y-48566668D01*
X52325211Y-48575045D01*
X52322301Y-48583176D01*
X52318609Y-48590983D01*
X52314169Y-48598390D01*
X52309025Y-48605327D01*
X52303225Y-48611725D01*
X52296827Y-48617525D01*
X52289890Y-48622669D01*
X52282483Y-48627109D01*
X52274676Y-48630801D01*
X52266545Y-48633711D01*
X52258168Y-48635809D01*
X52249626Y-48637076D01*
X52241000Y-48637500D01*
X51440000Y-48637500D01*
X51431374Y-48637076D01*
X51422832Y-48635809D01*
X51414455Y-48633711D01*
X51406324Y-48630801D01*
X51398517Y-48627109D01*
X51391110Y-48622669D01*
X51384173Y-48617525D01*
X51377775Y-48611725D01*
X51371975Y-48605327D01*
X51366831Y-48598390D01*
X51362391Y-48590983D01*
X51358699Y-48583176D01*
X51355789Y-48575045D01*
X51353691Y-48566668D01*
X51352424Y-48558126D01*
X51352000Y-48549500D01*
X51352000Y-48373500D01*
X51352424Y-48364874D01*
X51353691Y-48356332D01*
X51355789Y-48347955D01*
X51358699Y-48339824D01*
X51362391Y-48332017D01*
X51366831Y-48324610D01*
X51371975Y-48317673D01*
X51377775Y-48311275D01*
X51384173Y-48305475D01*
X51391110Y-48300331D01*
X51398517Y-48295891D01*
X51406324Y-48292199D01*
X51414455Y-48289289D01*
X51422832Y-48287191D01*
X51431374Y-48285924D01*
X51440000Y-48285500D01*
X52241000Y-48285500D01*
X52249626Y-48285924D01*
X52249626Y-48285924D01*
G37*
D23*
X51840500Y-48461500D03*
D12*
G36*
X51249626Y-48660924D02*
G01*
X51258168Y-48662191D01*
X51266545Y-48664289D01*
X51274676Y-48667199D01*
X51282483Y-48670891D01*
X51289890Y-48675331D01*
X51296827Y-48680475D01*
X51303225Y-48686275D01*
X51309025Y-48692673D01*
X51314169Y-48699610D01*
X51318609Y-48707017D01*
X51322301Y-48714824D01*
X51325211Y-48722955D01*
X51327309Y-48731332D01*
X51328576Y-48739874D01*
X51329000Y-48748500D01*
X51329000Y-49549500D01*
X51328576Y-49558126D01*
X51327309Y-49566668D01*
X51325211Y-49575045D01*
X51322301Y-49583176D01*
X51318609Y-49590983D01*
X51314169Y-49598390D01*
X51309025Y-49605327D01*
X51303225Y-49611725D01*
X51296827Y-49617525D01*
X51289890Y-49622669D01*
X51282483Y-49627109D01*
X51274676Y-49630801D01*
X51266545Y-49633711D01*
X51258168Y-49635809D01*
X51249626Y-49637076D01*
X51241000Y-49637500D01*
X51065000Y-49637500D01*
X51056374Y-49637076D01*
X51047832Y-49635809D01*
X51039455Y-49633711D01*
X51031324Y-49630801D01*
X51023517Y-49627109D01*
X51016110Y-49622669D01*
X51009173Y-49617525D01*
X51002775Y-49611725D01*
X50996975Y-49605327D01*
X50991831Y-49598390D01*
X50987391Y-49590983D01*
X50983699Y-49583176D01*
X50980789Y-49575045D01*
X50978691Y-49566668D01*
X50977424Y-49558126D01*
X50977000Y-49549500D01*
X50977000Y-48748500D01*
X50977424Y-48739874D01*
X50978691Y-48731332D01*
X50980789Y-48722955D01*
X50983699Y-48714824D01*
X50987391Y-48707017D01*
X50991831Y-48699610D01*
X50996975Y-48692673D01*
X51002775Y-48686275D01*
X51009173Y-48680475D01*
X51016110Y-48675331D01*
X51023517Y-48670891D01*
X51031324Y-48667199D01*
X51039455Y-48664289D01*
X51047832Y-48662191D01*
X51056374Y-48660924D01*
X51065000Y-48660500D01*
X51241000Y-48660500D01*
X51249626Y-48660924D01*
X51249626Y-48660924D01*
G37*
D23*
X51153000Y-49149000D03*
D12*
G36*
X50749626Y-48660924D02*
G01*
X50758168Y-48662191D01*
X50766545Y-48664289D01*
X50774676Y-48667199D01*
X50782483Y-48670891D01*
X50789890Y-48675331D01*
X50796827Y-48680475D01*
X50803225Y-48686275D01*
X50809025Y-48692673D01*
X50814169Y-48699610D01*
X50818609Y-48707017D01*
X50822301Y-48714824D01*
X50825211Y-48722955D01*
X50827309Y-48731332D01*
X50828576Y-48739874D01*
X50829000Y-48748500D01*
X50829000Y-49549500D01*
X50828576Y-49558126D01*
X50827309Y-49566668D01*
X50825211Y-49575045D01*
X50822301Y-49583176D01*
X50818609Y-49590983D01*
X50814169Y-49598390D01*
X50809025Y-49605327D01*
X50803225Y-49611725D01*
X50796827Y-49617525D01*
X50789890Y-49622669D01*
X50782483Y-49627109D01*
X50774676Y-49630801D01*
X50766545Y-49633711D01*
X50758168Y-49635809D01*
X50749626Y-49637076D01*
X50741000Y-49637500D01*
X50565000Y-49637500D01*
X50556374Y-49637076D01*
X50547832Y-49635809D01*
X50539455Y-49633711D01*
X50531324Y-49630801D01*
X50523517Y-49627109D01*
X50516110Y-49622669D01*
X50509173Y-49617525D01*
X50502775Y-49611725D01*
X50496975Y-49605327D01*
X50491831Y-49598390D01*
X50487391Y-49590983D01*
X50483699Y-49583176D01*
X50480789Y-49575045D01*
X50478691Y-49566668D01*
X50477424Y-49558126D01*
X50477000Y-49549500D01*
X50477000Y-48748500D01*
X50477424Y-48739874D01*
X50478691Y-48731332D01*
X50480789Y-48722955D01*
X50483699Y-48714824D01*
X50487391Y-48707017D01*
X50491831Y-48699610D01*
X50496975Y-48692673D01*
X50502775Y-48686275D01*
X50509173Y-48680475D01*
X50516110Y-48675331D01*
X50523517Y-48670891D01*
X50531324Y-48667199D01*
X50539455Y-48664289D01*
X50547832Y-48662191D01*
X50556374Y-48660924D01*
X50565000Y-48660500D01*
X50741000Y-48660500D01*
X50749626Y-48660924D01*
X50749626Y-48660924D01*
G37*
D23*
X50653000Y-49149000D03*
D12*
G36*
X50249626Y-48660924D02*
G01*
X50258168Y-48662191D01*
X50266545Y-48664289D01*
X50274676Y-48667199D01*
X50282483Y-48670891D01*
X50289890Y-48675331D01*
X50296827Y-48680475D01*
X50303225Y-48686275D01*
X50309025Y-48692673D01*
X50314169Y-48699610D01*
X50318609Y-48707017D01*
X50322301Y-48714824D01*
X50325211Y-48722955D01*
X50327309Y-48731332D01*
X50328576Y-48739874D01*
X50329000Y-48748500D01*
X50329000Y-49549500D01*
X50328576Y-49558126D01*
X50327309Y-49566668D01*
X50325211Y-49575045D01*
X50322301Y-49583176D01*
X50318609Y-49590983D01*
X50314169Y-49598390D01*
X50309025Y-49605327D01*
X50303225Y-49611725D01*
X50296827Y-49617525D01*
X50289890Y-49622669D01*
X50282483Y-49627109D01*
X50274676Y-49630801D01*
X50266545Y-49633711D01*
X50258168Y-49635809D01*
X50249626Y-49637076D01*
X50241000Y-49637500D01*
X50065000Y-49637500D01*
X50056374Y-49637076D01*
X50047832Y-49635809D01*
X50039455Y-49633711D01*
X50031324Y-49630801D01*
X50023517Y-49627109D01*
X50016110Y-49622669D01*
X50009173Y-49617525D01*
X50002775Y-49611725D01*
X49996975Y-49605327D01*
X49991831Y-49598390D01*
X49987391Y-49590983D01*
X49983699Y-49583176D01*
X49980789Y-49575045D01*
X49978691Y-49566668D01*
X49977424Y-49558126D01*
X49977000Y-49549500D01*
X49977000Y-48748500D01*
X49977424Y-48739874D01*
X49978691Y-48731332D01*
X49980789Y-48722955D01*
X49983699Y-48714824D01*
X49987391Y-48707017D01*
X49991831Y-48699610D01*
X49996975Y-48692673D01*
X50002775Y-48686275D01*
X50009173Y-48680475D01*
X50016110Y-48675331D01*
X50023517Y-48670891D01*
X50031324Y-48667199D01*
X50039455Y-48664289D01*
X50047832Y-48662191D01*
X50056374Y-48660924D01*
X50065000Y-48660500D01*
X50241000Y-48660500D01*
X50249626Y-48660924D01*
X50249626Y-48660924D01*
G37*
D23*
X50153000Y-49149000D03*
D12*
G36*
X49749626Y-48660924D02*
G01*
X49758168Y-48662191D01*
X49766545Y-48664289D01*
X49774676Y-48667199D01*
X49782483Y-48670891D01*
X49789890Y-48675331D01*
X49796827Y-48680475D01*
X49803225Y-48686275D01*
X49809025Y-48692673D01*
X49814169Y-48699610D01*
X49818609Y-48707017D01*
X49822301Y-48714824D01*
X49825211Y-48722955D01*
X49827309Y-48731332D01*
X49828576Y-48739874D01*
X49829000Y-48748500D01*
X49829000Y-49549500D01*
X49828576Y-49558126D01*
X49827309Y-49566668D01*
X49825211Y-49575045D01*
X49822301Y-49583176D01*
X49818609Y-49590983D01*
X49814169Y-49598390D01*
X49809025Y-49605327D01*
X49803225Y-49611725D01*
X49796827Y-49617525D01*
X49789890Y-49622669D01*
X49782483Y-49627109D01*
X49774676Y-49630801D01*
X49766545Y-49633711D01*
X49758168Y-49635809D01*
X49749626Y-49637076D01*
X49741000Y-49637500D01*
X49565000Y-49637500D01*
X49556374Y-49637076D01*
X49547832Y-49635809D01*
X49539455Y-49633711D01*
X49531324Y-49630801D01*
X49523517Y-49627109D01*
X49516110Y-49622669D01*
X49509173Y-49617525D01*
X49502775Y-49611725D01*
X49496975Y-49605327D01*
X49491831Y-49598390D01*
X49487391Y-49590983D01*
X49483699Y-49583176D01*
X49480789Y-49575045D01*
X49478691Y-49566668D01*
X49477424Y-49558126D01*
X49477000Y-49549500D01*
X49477000Y-48748500D01*
X49477424Y-48739874D01*
X49478691Y-48731332D01*
X49480789Y-48722955D01*
X49483699Y-48714824D01*
X49487391Y-48707017D01*
X49491831Y-48699610D01*
X49496975Y-48692673D01*
X49502775Y-48686275D01*
X49509173Y-48680475D01*
X49516110Y-48675331D01*
X49523517Y-48670891D01*
X49531324Y-48667199D01*
X49539455Y-48664289D01*
X49547832Y-48662191D01*
X49556374Y-48660924D01*
X49565000Y-48660500D01*
X49741000Y-48660500D01*
X49749626Y-48660924D01*
X49749626Y-48660924D01*
G37*
D23*
X49653000Y-49149000D03*
D12*
G36*
X49249626Y-48660924D02*
G01*
X49258168Y-48662191D01*
X49266545Y-48664289D01*
X49274676Y-48667199D01*
X49282483Y-48670891D01*
X49289890Y-48675331D01*
X49296827Y-48680475D01*
X49303225Y-48686275D01*
X49309025Y-48692673D01*
X49314169Y-48699610D01*
X49318609Y-48707017D01*
X49322301Y-48714824D01*
X49325211Y-48722955D01*
X49327309Y-48731332D01*
X49328576Y-48739874D01*
X49329000Y-48748500D01*
X49329000Y-49549500D01*
X49328576Y-49558126D01*
X49327309Y-49566668D01*
X49325211Y-49575045D01*
X49322301Y-49583176D01*
X49318609Y-49590983D01*
X49314169Y-49598390D01*
X49309025Y-49605327D01*
X49303225Y-49611725D01*
X49296827Y-49617525D01*
X49289890Y-49622669D01*
X49282483Y-49627109D01*
X49274676Y-49630801D01*
X49266545Y-49633711D01*
X49258168Y-49635809D01*
X49249626Y-49637076D01*
X49241000Y-49637500D01*
X49065000Y-49637500D01*
X49056374Y-49637076D01*
X49047832Y-49635809D01*
X49039455Y-49633711D01*
X49031324Y-49630801D01*
X49023517Y-49627109D01*
X49016110Y-49622669D01*
X49009173Y-49617525D01*
X49002775Y-49611725D01*
X48996975Y-49605327D01*
X48991831Y-49598390D01*
X48987391Y-49590983D01*
X48983699Y-49583176D01*
X48980789Y-49575045D01*
X48978691Y-49566668D01*
X48977424Y-49558126D01*
X48977000Y-49549500D01*
X48977000Y-48748500D01*
X48977424Y-48739874D01*
X48978691Y-48731332D01*
X48980789Y-48722955D01*
X48983699Y-48714824D01*
X48987391Y-48707017D01*
X48991831Y-48699610D01*
X48996975Y-48692673D01*
X49002775Y-48686275D01*
X49009173Y-48680475D01*
X49016110Y-48675331D01*
X49023517Y-48670891D01*
X49031324Y-48667199D01*
X49039455Y-48664289D01*
X49047832Y-48662191D01*
X49056374Y-48660924D01*
X49065000Y-48660500D01*
X49241000Y-48660500D01*
X49249626Y-48660924D01*
X49249626Y-48660924D01*
G37*
D23*
X49153000Y-49149000D03*
D12*
G36*
X48749626Y-48660924D02*
G01*
X48758168Y-48662191D01*
X48766545Y-48664289D01*
X48774676Y-48667199D01*
X48782483Y-48670891D01*
X48789890Y-48675331D01*
X48796827Y-48680475D01*
X48803225Y-48686275D01*
X48809025Y-48692673D01*
X48814169Y-48699610D01*
X48818609Y-48707017D01*
X48822301Y-48714824D01*
X48825211Y-48722955D01*
X48827309Y-48731332D01*
X48828576Y-48739874D01*
X48829000Y-48748500D01*
X48829000Y-49549500D01*
X48828576Y-49558126D01*
X48827309Y-49566668D01*
X48825211Y-49575045D01*
X48822301Y-49583176D01*
X48818609Y-49590983D01*
X48814169Y-49598390D01*
X48809025Y-49605327D01*
X48803225Y-49611725D01*
X48796827Y-49617525D01*
X48789890Y-49622669D01*
X48782483Y-49627109D01*
X48774676Y-49630801D01*
X48766545Y-49633711D01*
X48758168Y-49635809D01*
X48749626Y-49637076D01*
X48741000Y-49637500D01*
X48565000Y-49637500D01*
X48556374Y-49637076D01*
X48547832Y-49635809D01*
X48539455Y-49633711D01*
X48531324Y-49630801D01*
X48523517Y-49627109D01*
X48516110Y-49622669D01*
X48509173Y-49617525D01*
X48502775Y-49611725D01*
X48496975Y-49605327D01*
X48491831Y-49598390D01*
X48487391Y-49590983D01*
X48483699Y-49583176D01*
X48480789Y-49575045D01*
X48478691Y-49566668D01*
X48477424Y-49558126D01*
X48477000Y-49549500D01*
X48477000Y-48748500D01*
X48477424Y-48739874D01*
X48478691Y-48731332D01*
X48480789Y-48722955D01*
X48483699Y-48714824D01*
X48487391Y-48707017D01*
X48491831Y-48699610D01*
X48496975Y-48692673D01*
X48502775Y-48686275D01*
X48509173Y-48680475D01*
X48516110Y-48675331D01*
X48523517Y-48670891D01*
X48531324Y-48667199D01*
X48539455Y-48664289D01*
X48547832Y-48662191D01*
X48556374Y-48660924D01*
X48565000Y-48660500D01*
X48741000Y-48660500D01*
X48749626Y-48660924D01*
X48749626Y-48660924D01*
G37*
D23*
X48653000Y-49149000D03*
D12*
G36*
X48249626Y-48660924D02*
G01*
X48258168Y-48662191D01*
X48266545Y-48664289D01*
X48274676Y-48667199D01*
X48282483Y-48670891D01*
X48289890Y-48675331D01*
X48296827Y-48680475D01*
X48303225Y-48686275D01*
X48309025Y-48692673D01*
X48314169Y-48699610D01*
X48318609Y-48707017D01*
X48322301Y-48714824D01*
X48325211Y-48722955D01*
X48327309Y-48731332D01*
X48328576Y-48739874D01*
X48329000Y-48748500D01*
X48329000Y-49549500D01*
X48328576Y-49558126D01*
X48327309Y-49566668D01*
X48325211Y-49575045D01*
X48322301Y-49583176D01*
X48318609Y-49590983D01*
X48314169Y-49598390D01*
X48309025Y-49605327D01*
X48303225Y-49611725D01*
X48296827Y-49617525D01*
X48289890Y-49622669D01*
X48282483Y-49627109D01*
X48274676Y-49630801D01*
X48266545Y-49633711D01*
X48258168Y-49635809D01*
X48249626Y-49637076D01*
X48241000Y-49637500D01*
X48065000Y-49637500D01*
X48056374Y-49637076D01*
X48047832Y-49635809D01*
X48039455Y-49633711D01*
X48031324Y-49630801D01*
X48023517Y-49627109D01*
X48016110Y-49622669D01*
X48009173Y-49617525D01*
X48002775Y-49611725D01*
X47996975Y-49605327D01*
X47991831Y-49598390D01*
X47987391Y-49590983D01*
X47983699Y-49583176D01*
X47980789Y-49575045D01*
X47978691Y-49566668D01*
X47977424Y-49558126D01*
X47977000Y-49549500D01*
X47977000Y-48748500D01*
X47977424Y-48739874D01*
X47978691Y-48731332D01*
X47980789Y-48722955D01*
X47983699Y-48714824D01*
X47987391Y-48707017D01*
X47991831Y-48699610D01*
X47996975Y-48692673D01*
X48002775Y-48686275D01*
X48009173Y-48680475D01*
X48016110Y-48675331D01*
X48023517Y-48670891D01*
X48031324Y-48667199D01*
X48039455Y-48664289D01*
X48047832Y-48662191D01*
X48056374Y-48660924D01*
X48065000Y-48660500D01*
X48241000Y-48660500D01*
X48249626Y-48660924D01*
X48249626Y-48660924D01*
G37*
D23*
X48153000Y-49149000D03*
D12*
G36*
X47749626Y-48660924D02*
G01*
X47758168Y-48662191D01*
X47766545Y-48664289D01*
X47774676Y-48667199D01*
X47782483Y-48670891D01*
X47789890Y-48675331D01*
X47796827Y-48680475D01*
X47803225Y-48686275D01*
X47809025Y-48692673D01*
X47814169Y-48699610D01*
X47818609Y-48707017D01*
X47822301Y-48714824D01*
X47825211Y-48722955D01*
X47827309Y-48731332D01*
X47828576Y-48739874D01*
X47829000Y-48748500D01*
X47829000Y-49549500D01*
X47828576Y-49558126D01*
X47827309Y-49566668D01*
X47825211Y-49575045D01*
X47822301Y-49583176D01*
X47818609Y-49590983D01*
X47814169Y-49598390D01*
X47809025Y-49605327D01*
X47803225Y-49611725D01*
X47796827Y-49617525D01*
X47789890Y-49622669D01*
X47782483Y-49627109D01*
X47774676Y-49630801D01*
X47766545Y-49633711D01*
X47758168Y-49635809D01*
X47749626Y-49637076D01*
X47741000Y-49637500D01*
X47565000Y-49637500D01*
X47556374Y-49637076D01*
X47547832Y-49635809D01*
X47539455Y-49633711D01*
X47531324Y-49630801D01*
X47523517Y-49627109D01*
X47516110Y-49622669D01*
X47509173Y-49617525D01*
X47502775Y-49611725D01*
X47496975Y-49605327D01*
X47491831Y-49598390D01*
X47487391Y-49590983D01*
X47483699Y-49583176D01*
X47480789Y-49575045D01*
X47478691Y-49566668D01*
X47477424Y-49558126D01*
X47477000Y-49549500D01*
X47477000Y-48748500D01*
X47477424Y-48739874D01*
X47478691Y-48731332D01*
X47480789Y-48722955D01*
X47483699Y-48714824D01*
X47487391Y-48707017D01*
X47491831Y-48699610D01*
X47496975Y-48692673D01*
X47502775Y-48686275D01*
X47509173Y-48680475D01*
X47516110Y-48675331D01*
X47523517Y-48670891D01*
X47531324Y-48667199D01*
X47539455Y-48664289D01*
X47547832Y-48662191D01*
X47556374Y-48660924D01*
X47565000Y-48660500D01*
X47741000Y-48660500D01*
X47749626Y-48660924D01*
X47749626Y-48660924D01*
G37*
D23*
X47653000Y-49149000D03*
D16*
X125031500Y-48514000D03*
X114871500Y-48514000D03*
D17*
X116141500Y-45974000D03*
D18*
X119951500Y-48514000D03*
D17*
X122491500Y-43434000D03*
D16*
X101219000Y-29464000D03*
X91059000Y-29464000D03*
D17*
X92329000Y-26924000D03*
D18*
X96139000Y-29464000D03*
D17*
X98679000Y-24384000D03*
D16*
X82169000Y-29464000D03*
X72009000Y-29464000D03*
D17*
X73279000Y-26924000D03*
D18*
X77089000Y-29464000D03*
D17*
X79629000Y-24384000D03*
D16*
X253619000Y-29464000D03*
X243459000Y-29464000D03*
D17*
X244729000Y-26924000D03*
D18*
X248539000Y-29464000D03*
D17*
X251079000Y-24384000D03*
D16*
X205994000Y-86614000D03*
X195834000Y-86614000D03*
D17*
X197104000Y-84074000D03*
D18*
X200914000Y-86614000D03*
D17*
X203454000Y-81534000D03*
D24*
X28321000Y-44069000D03*
X27371000Y-46689000D03*
X29271000Y-46689000D03*
D25*
X41812750Y-14601500D03*
X50452750Y-14601500D03*
D26*
X41812750Y-18781500D03*
X50452750Y-18781500D03*
D27*
X49022750Y-18251500D03*
X43242750Y-18251500D03*
D20*
X55066000Y-68271000D03*
X61266000Y-64571000D03*
X55066000Y-64571000D03*
X61266000Y-68271000D03*
D12*
G36*
X44870691Y-26272176D02*
G01*
X44894401Y-26275693D01*
X44917652Y-26281517D01*
X44940220Y-26289592D01*
X44961889Y-26299841D01*
X44982448Y-26312164D01*
X45001701Y-26326442D01*
X45019461Y-26342539D01*
X45035558Y-26360299D01*
X45049836Y-26379552D01*
X45062159Y-26400111D01*
X45072408Y-26421780D01*
X45080483Y-26444348D01*
X45086307Y-26467599D01*
X45089824Y-26491309D01*
X45091000Y-26515250D01*
X45091000Y-27078750D01*
X45089824Y-27102691D01*
X45086307Y-27126401D01*
X45080483Y-27149652D01*
X45072408Y-27172220D01*
X45062159Y-27193889D01*
X45049836Y-27214448D01*
X45035558Y-27233701D01*
X45019461Y-27251461D01*
X45001701Y-27267558D01*
X44982448Y-27281836D01*
X44961889Y-27294159D01*
X44940220Y-27304408D01*
X44917652Y-27312483D01*
X44894401Y-27318307D01*
X44870691Y-27321824D01*
X44846750Y-27323000D01*
X44358250Y-27323000D01*
X44334309Y-27321824D01*
X44310599Y-27318307D01*
X44287348Y-27312483D01*
X44264780Y-27304408D01*
X44243111Y-27294159D01*
X44222552Y-27281836D01*
X44203299Y-27267558D01*
X44185539Y-27251461D01*
X44169442Y-27233701D01*
X44155164Y-27214448D01*
X44142841Y-27193889D01*
X44132592Y-27172220D01*
X44124517Y-27149652D01*
X44118693Y-27126401D01*
X44115176Y-27102691D01*
X44114000Y-27078750D01*
X44114000Y-26515250D01*
X44115176Y-26491309D01*
X44118693Y-26467599D01*
X44124517Y-26444348D01*
X44132592Y-26421780D01*
X44142841Y-26400111D01*
X44155164Y-26379552D01*
X44169442Y-26360299D01*
X44185539Y-26342539D01*
X44203299Y-26326442D01*
X44222552Y-26312164D01*
X44243111Y-26299841D01*
X44264780Y-26289592D01*
X44287348Y-26281517D01*
X44310599Y-26275693D01*
X44334309Y-26272176D01*
X44358250Y-26271000D01*
X44846750Y-26271000D01*
X44870691Y-26272176D01*
X44870691Y-26272176D01*
G37*
D14*
X44602500Y-26797000D03*
D12*
G36*
X43295691Y-26272176D02*
G01*
X43319401Y-26275693D01*
X43342652Y-26281517D01*
X43365220Y-26289592D01*
X43386889Y-26299841D01*
X43407448Y-26312164D01*
X43426701Y-26326442D01*
X43444461Y-26342539D01*
X43460558Y-26360299D01*
X43474836Y-26379552D01*
X43487159Y-26400111D01*
X43497408Y-26421780D01*
X43505483Y-26444348D01*
X43511307Y-26467599D01*
X43514824Y-26491309D01*
X43516000Y-26515250D01*
X43516000Y-27078750D01*
X43514824Y-27102691D01*
X43511307Y-27126401D01*
X43505483Y-27149652D01*
X43497408Y-27172220D01*
X43487159Y-27193889D01*
X43474836Y-27214448D01*
X43460558Y-27233701D01*
X43444461Y-27251461D01*
X43426701Y-27267558D01*
X43407448Y-27281836D01*
X43386889Y-27294159D01*
X43365220Y-27304408D01*
X43342652Y-27312483D01*
X43319401Y-27318307D01*
X43295691Y-27321824D01*
X43271750Y-27323000D01*
X42783250Y-27323000D01*
X42759309Y-27321824D01*
X42735599Y-27318307D01*
X42712348Y-27312483D01*
X42689780Y-27304408D01*
X42668111Y-27294159D01*
X42647552Y-27281836D01*
X42628299Y-27267558D01*
X42610539Y-27251461D01*
X42594442Y-27233701D01*
X42580164Y-27214448D01*
X42567841Y-27193889D01*
X42557592Y-27172220D01*
X42549517Y-27149652D01*
X42543693Y-27126401D01*
X42540176Y-27102691D01*
X42539000Y-27078750D01*
X42539000Y-26515250D01*
X42540176Y-26491309D01*
X42543693Y-26467599D01*
X42549517Y-26444348D01*
X42557592Y-26421780D01*
X42567841Y-26400111D01*
X42580164Y-26379552D01*
X42594442Y-26360299D01*
X42610539Y-26342539D01*
X42628299Y-26326442D01*
X42647552Y-26312164D01*
X42668111Y-26299841D01*
X42689780Y-26289592D01*
X42712348Y-26281517D01*
X42735599Y-26275693D01*
X42759309Y-26272176D01*
X42783250Y-26271000D01*
X43271750Y-26271000D01*
X43295691Y-26272176D01*
X43295691Y-26272176D01*
G37*
D14*
X43027500Y-26797000D03*
D12*
G36*
X49835691Y-66441676D02*
G01*
X49859401Y-66445193D01*
X49882652Y-66451017D01*
X49905220Y-66459092D01*
X49926889Y-66469341D01*
X49947448Y-66481664D01*
X49966701Y-66495942D01*
X49984461Y-66512039D01*
X50000558Y-66529799D01*
X50014836Y-66549052D01*
X50027159Y-66569611D01*
X50037408Y-66591280D01*
X50045483Y-66613848D01*
X50051307Y-66637099D01*
X50054824Y-66660809D01*
X50056000Y-66684750D01*
X50056000Y-67173250D01*
X50054824Y-67197191D01*
X50051307Y-67220901D01*
X50045483Y-67244152D01*
X50037408Y-67266720D01*
X50027159Y-67288389D01*
X50014836Y-67308948D01*
X50000558Y-67328201D01*
X49984461Y-67345961D01*
X49966701Y-67362058D01*
X49947448Y-67376336D01*
X49926889Y-67388659D01*
X49905220Y-67398908D01*
X49882652Y-67406983D01*
X49859401Y-67412807D01*
X49835691Y-67416324D01*
X49811750Y-67417500D01*
X49248250Y-67417500D01*
X49224309Y-67416324D01*
X49200599Y-67412807D01*
X49177348Y-67406983D01*
X49154780Y-67398908D01*
X49133111Y-67388659D01*
X49112552Y-67376336D01*
X49093299Y-67362058D01*
X49075539Y-67345961D01*
X49059442Y-67328201D01*
X49045164Y-67308948D01*
X49032841Y-67288389D01*
X49022592Y-67266720D01*
X49014517Y-67244152D01*
X49008693Y-67220901D01*
X49005176Y-67197191D01*
X49004000Y-67173250D01*
X49004000Y-66684750D01*
X49005176Y-66660809D01*
X49008693Y-66637099D01*
X49014517Y-66613848D01*
X49022592Y-66591280D01*
X49032841Y-66569611D01*
X49045164Y-66549052D01*
X49059442Y-66529799D01*
X49075539Y-66512039D01*
X49093299Y-66495942D01*
X49112552Y-66481664D01*
X49133111Y-66469341D01*
X49154780Y-66459092D01*
X49177348Y-66451017D01*
X49200599Y-66445193D01*
X49224309Y-66441676D01*
X49248250Y-66440500D01*
X49811750Y-66440500D01*
X49835691Y-66441676D01*
X49835691Y-66441676D01*
G37*
D14*
X49530000Y-66929000D03*
D12*
G36*
X49835691Y-68016676D02*
G01*
X49859401Y-68020193D01*
X49882652Y-68026017D01*
X49905220Y-68034092D01*
X49926889Y-68044341D01*
X49947448Y-68056664D01*
X49966701Y-68070942D01*
X49984461Y-68087039D01*
X50000558Y-68104799D01*
X50014836Y-68124052D01*
X50027159Y-68144611D01*
X50037408Y-68166280D01*
X50045483Y-68188848D01*
X50051307Y-68212099D01*
X50054824Y-68235809D01*
X50056000Y-68259750D01*
X50056000Y-68748250D01*
X50054824Y-68772191D01*
X50051307Y-68795901D01*
X50045483Y-68819152D01*
X50037408Y-68841720D01*
X50027159Y-68863389D01*
X50014836Y-68883948D01*
X50000558Y-68903201D01*
X49984461Y-68920961D01*
X49966701Y-68937058D01*
X49947448Y-68951336D01*
X49926889Y-68963659D01*
X49905220Y-68973908D01*
X49882652Y-68981983D01*
X49859401Y-68987807D01*
X49835691Y-68991324D01*
X49811750Y-68992500D01*
X49248250Y-68992500D01*
X49224309Y-68991324D01*
X49200599Y-68987807D01*
X49177348Y-68981983D01*
X49154780Y-68973908D01*
X49133111Y-68963659D01*
X49112552Y-68951336D01*
X49093299Y-68937058D01*
X49075539Y-68920961D01*
X49059442Y-68903201D01*
X49045164Y-68883948D01*
X49032841Y-68863389D01*
X49022592Y-68841720D01*
X49014517Y-68819152D01*
X49008693Y-68795901D01*
X49005176Y-68772191D01*
X49004000Y-68748250D01*
X49004000Y-68259750D01*
X49005176Y-68235809D01*
X49008693Y-68212099D01*
X49014517Y-68188848D01*
X49022592Y-68166280D01*
X49032841Y-68144611D01*
X49045164Y-68124052D01*
X49059442Y-68104799D01*
X49075539Y-68087039D01*
X49093299Y-68070942D01*
X49112552Y-68056664D01*
X49133111Y-68044341D01*
X49154780Y-68034092D01*
X49177348Y-68026017D01*
X49200599Y-68020193D01*
X49224309Y-68016676D01*
X49248250Y-68015500D01*
X49811750Y-68015500D01*
X49835691Y-68016676D01*
X49835691Y-68016676D01*
G37*
D14*
X49530000Y-68504000D03*
D12*
G36*
X47994691Y-26272176D02*
G01*
X48018401Y-26275693D01*
X48041652Y-26281517D01*
X48064220Y-26289592D01*
X48085889Y-26299841D01*
X48106448Y-26312164D01*
X48125701Y-26326442D01*
X48143461Y-26342539D01*
X48159558Y-26360299D01*
X48173836Y-26379552D01*
X48186159Y-26400111D01*
X48196408Y-26421780D01*
X48204483Y-26444348D01*
X48210307Y-26467599D01*
X48213824Y-26491309D01*
X48215000Y-26515250D01*
X48215000Y-27078750D01*
X48213824Y-27102691D01*
X48210307Y-27126401D01*
X48204483Y-27149652D01*
X48196408Y-27172220D01*
X48186159Y-27193889D01*
X48173836Y-27214448D01*
X48159558Y-27233701D01*
X48143461Y-27251461D01*
X48125701Y-27267558D01*
X48106448Y-27281836D01*
X48085889Y-27294159D01*
X48064220Y-27304408D01*
X48041652Y-27312483D01*
X48018401Y-27318307D01*
X47994691Y-27321824D01*
X47970750Y-27323000D01*
X47482250Y-27323000D01*
X47458309Y-27321824D01*
X47434599Y-27318307D01*
X47411348Y-27312483D01*
X47388780Y-27304408D01*
X47367111Y-27294159D01*
X47346552Y-27281836D01*
X47327299Y-27267558D01*
X47309539Y-27251461D01*
X47293442Y-27233701D01*
X47279164Y-27214448D01*
X47266841Y-27193889D01*
X47256592Y-27172220D01*
X47248517Y-27149652D01*
X47242693Y-27126401D01*
X47239176Y-27102691D01*
X47238000Y-27078750D01*
X47238000Y-26515250D01*
X47239176Y-26491309D01*
X47242693Y-26467599D01*
X47248517Y-26444348D01*
X47256592Y-26421780D01*
X47266841Y-26400111D01*
X47279164Y-26379552D01*
X47293442Y-26360299D01*
X47309539Y-26342539D01*
X47327299Y-26326442D01*
X47346552Y-26312164D01*
X47367111Y-26299841D01*
X47388780Y-26289592D01*
X47411348Y-26281517D01*
X47434599Y-26275693D01*
X47458309Y-26272176D01*
X47482250Y-26271000D01*
X47970750Y-26271000D01*
X47994691Y-26272176D01*
X47994691Y-26272176D01*
G37*
D14*
X47726500Y-26797000D03*
D12*
G36*
X49569691Y-26272176D02*
G01*
X49593401Y-26275693D01*
X49616652Y-26281517D01*
X49639220Y-26289592D01*
X49660889Y-26299841D01*
X49681448Y-26312164D01*
X49700701Y-26326442D01*
X49718461Y-26342539D01*
X49734558Y-26360299D01*
X49748836Y-26379552D01*
X49761159Y-26400111D01*
X49771408Y-26421780D01*
X49779483Y-26444348D01*
X49785307Y-26467599D01*
X49788824Y-26491309D01*
X49790000Y-26515250D01*
X49790000Y-27078750D01*
X49788824Y-27102691D01*
X49785307Y-27126401D01*
X49779483Y-27149652D01*
X49771408Y-27172220D01*
X49761159Y-27193889D01*
X49748836Y-27214448D01*
X49734558Y-27233701D01*
X49718461Y-27251461D01*
X49700701Y-27267558D01*
X49681448Y-27281836D01*
X49660889Y-27294159D01*
X49639220Y-27304408D01*
X49616652Y-27312483D01*
X49593401Y-27318307D01*
X49569691Y-27321824D01*
X49545750Y-27323000D01*
X49057250Y-27323000D01*
X49033309Y-27321824D01*
X49009599Y-27318307D01*
X48986348Y-27312483D01*
X48963780Y-27304408D01*
X48942111Y-27294159D01*
X48921552Y-27281836D01*
X48902299Y-27267558D01*
X48884539Y-27251461D01*
X48868442Y-27233701D01*
X48854164Y-27214448D01*
X48841841Y-27193889D01*
X48831592Y-27172220D01*
X48823517Y-27149652D01*
X48817693Y-27126401D01*
X48814176Y-27102691D01*
X48813000Y-27078750D01*
X48813000Y-26515250D01*
X48814176Y-26491309D01*
X48817693Y-26467599D01*
X48823517Y-26444348D01*
X48831592Y-26421780D01*
X48841841Y-26400111D01*
X48854164Y-26379552D01*
X48868442Y-26360299D01*
X48884539Y-26342539D01*
X48902299Y-26326442D01*
X48921552Y-26312164D01*
X48942111Y-26299841D01*
X48963780Y-26289592D01*
X48986348Y-26281517D01*
X49009599Y-26275693D01*
X49033309Y-26272176D01*
X49057250Y-26271000D01*
X49545750Y-26271000D01*
X49569691Y-26272176D01*
X49569691Y-26272176D01*
G37*
D14*
X49301500Y-26797000D03*
D16*
X253619000Y-86614000D03*
X243459000Y-86614000D03*
D17*
X244729000Y-84074000D03*
D18*
X248539000Y-86614000D03*
D17*
X251079000Y-81534000D03*
D16*
X229806500Y-86614000D03*
X219646500Y-86614000D03*
D17*
X220916500Y-84074000D03*
D18*
X224726500Y-86614000D03*
D17*
X227266500Y-81534000D03*
D16*
X86931500Y-86614000D03*
X76771500Y-86614000D03*
D17*
X78041500Y-84074000D03*
D18*
X81851500Y-86614000D03*
D17*
X84391500Y-81534000D03*
D16*
X63119000Y-86614000D03*
X52959000Y-86614000D03*
D17*
X54229000Y-84074000D03*
D18*
X58039000Y-86614000D03*
D17*
X60579000Y-81534000D03*
D16*
X275050250Y-67564000D03*
X264890250Y-67564000D03*
D17*
X266160250Y-65024000D03*
D18*
X269970250Y-67564000D03*
D17*
X272510250Y-62484000D03*
D16*
X251237750Y-67564000D03*
X241077750Y-67564000D03*
D17*
X242347750Y-65024000D03*
D18*
X246157750Y-67564000D03*
D17*
X248697750Y-62484000D03*
D16*
X229806500Y-67564000D03*
X219646500Y-67564000D03*
D17*
X220916500Y-65024000D03*
D18*
X224726500Y-67564000D03*
D17*
X227266500Y-62484000D03*
D16*
X210756500Y-67564000D03*
X200596500Y-67564000D03*
D17*
X201866500Y-65024000D03*
D18*
X205676500Y-67564000D03*
D17*
X208216500Y-62484000D03*
D16*
X191706500Y-67564000D03*
X181546500Y-67564000D03*
D17*
X182816500Y-65024000D03*
D18*
X186626500Y-67564000D03*
D17*
X189166500Y-62484000D03*
D16*
X172656500Y-67564000D03*
X162496500Y-67564000D03*
D17*
X163766500Y-65024000D03*
D18*
X167576500Y-67564000D03*
D17*
X170116500Y-62484000D03*
D16*
X153606500Y-67564000D03*
X143446500Y-67564000D03*
D17*
X144716500Y-65024000D03*
D18*
X148526500Y-67564000D03*
D17*
X151066500Y-62484000D03*
D16*
X134556500Y-67564000D03*
X124396500Y-67564000D03*
D17*
X125666500Y-65024000D03*
D18*
X129476500Y-67564000D03*
D17*
X132016500Y-62484000D03*
D16*
X115506500Y-67564000D03*
X105346500Y-67564000D03*
D17*
X106616500Y-65024000D03*
D18*
X110426500Y-67564000D03*
D17*
X112966500Y-62484000D03*
D16*
X77406500Y-67564000D03*
X67246500Y-67564000D03*
D17*
X68516500Y-65024000D03*
D18*
X72326500Y-67564000D03*
D17*
X74866500Y-62484000D03*
D16*
X239331500Y-48514000D03*
X229171500Y-48514000D03*
D17*
X230441500Y-45974000D03*
D18*
X234251500Y-48514000D03*
D17*
X236791500Y-43434000D03*
D16*
X220281500Y-48514000D03*
X210121500Y-48514000D03*
D17*
X211391500Y-45974000D03*
D18*
X215201500Y-48514000D03*
D17*
X217741500Y-43434000D03*
D16*
X201231500Y-48514000D03*
X191071500Y-48514000D03*
D17*
X192341500Y-45974000D03*
D18*
X196151500Y-48514000D03*
D17*
X198691500Y-43434000D03*
D16*
X182181500Y-48514000D03*
X172021500Y-48514000D03*
D17*
X173291500Y-45974000D03*
D18*
X177101500Y-48514000D03*
D17*
X179641500Y-43434000D03*
D16*
X163131500Y-48514000D03*
X152971500Y-48514000D03*
D17*
X154241500Y-45974000D03*
D18*
X158051500Y-48514000D03*
D17*
X160591500Y-43434000D03*
D16*
X144081500Y-48514000D03*
X133921500Y-48514000D03*
D17*
X135191500Y-45974000D03*
D18*
X139001500Y-48514000D03*
D17*
X141541500Y-43434000D03*
D16*
X105981500Y-48514000D03*
X95821500Y-48514000D03*
D17*
X97091500Y-45974000D03*
D18*
X100901500Y-48514000D03*
D17*
X103441500Y-43434000D03*
D16*
X86931500Y-48514000D03*
X76771500Y-48514000D03*
D17*
X78041500Y-45974000D03*
D18*
X81851500Y-48514000D03*
D17*
X84391500Y-43434000D03*
D16*
X277431500Y-29464000D03*
X267271500Y-29464000D03*
D17*
X268541500Y-26924000D03*
D18*
X272351500Y-29464000D03*
D17*
X274891500Y-24384000D03*
D16*
X234569000Y-29464000D03*
X224409000Y-29464000D03*
D17*
X225679000Y-26924000D03*
D18*
X229489000Y-29464000D03*
D17*
X232029000Y-24384000D03*
D16*
X215519000Y-29464000D03*
X205359000Y-29464000D03*
D17*
X206629000Y-26924000D03*
D18*
X210439000Y-29464000D03*
D17*
X212979000Y-24384000D03*
D16*
X196469000Y-29464000D03*
X186309000Y-29464000D03*
D17*
X187579000Y-26924000D03*
D18*
X191389000Y-29464000D03*
D17*
X193929000Y-24384000D03*
D16*
X177419000Y-29464000D03*
X167259000Y-29464000D03*
D17*
X168529000Y-26924000D03*
D18*
X172339000Y-29464000D03*
D17*
X174879000Y-24384000D03*
D16*
X158369000Y-29464000D03*
X148209000Y-29464000D03*
D17*
X149479000Y-26924000D03*
D18*
X153289000Y-29464000D03*
D17*
X155829000Y-24384000D03*
D16*
X139319000Y-29464000D03*
X129159000Y-29464000D03*
D17*
X130429000Y-26924000D03*
D18*
X134239000Y-29464000D03*
D17*
X136779000Y-24384000D03*
D16*
X120269000Y-29464000D03*
X110109000Y-29464000D03*
D17*
X111379000Y-26924000D03*
D18*
X115189000Y-29464000D03*
D17*
X117729000Y-24384000D03*
D16*
X63119000Y-29464000D03*
X52959000Y-29464000D03*
D17*
X54229000Y-26924000D03*
D18*
X58039000Y-29464000D03*
D17*
X60579000Y-24384000D03*
D28*
X33782000Y-61468000D03*
D29*
X33782000Y-60198000D03*
X35052000Y-61468000D03*
X35052000Y-60198000D03*
X36322000Y-61468000D03*
X36322000Y-60198000D03*
X37592000Y-61468000D03*
X37592000Y-60198000D03*
X38862000Y-61468000D03*
X38862000Y-60198000D03*
D12*
G36*
X40941104Y-26255302D02*
G01*
X40967352Y-26259196D01*
X40993093Y-26265643D01*
X41018078Y-26274583D01*
X41042066Y-26285928D01*
X41064826Y-26299571D01*
X41086140Y-26315378D01*
X41105802Y-26333198D01*
X41123622Y-26352860D01*
X41139429Y-26374174D01*
X41153072Y-26396934D01*
X41164417Y-26420922D01*
X41173357Y-26445907D01*
X41179804Y-26471648D01*
X41183698Y-26497896D01*
X41185000Y-26524400D01*
X41185000Y-27335600D01*
X41183698Y-27362104D01*
X41179804Y-27388352D01*
X41173357Y-27414093D01*
X41164417Y-27439078D01*
X41153072Y-27463066D01*
X41139429Y-27485826D01*
X41123622Y-27507140D01*
X41105802Y-27526802D01*
X41086140Y-27544622D01*
X41064826Y-27560429D01*
X41042066Y-27574072D01*
X41018078Y-27585417D01*
X40993093Y-27594357D01*
X40967352Y-27600804D01*
X40941104Y-27604698D01*
X40914600Y-27606000D01*
X39603400Y-27606000D01*
X39576896Y-27604698D01*
X39550648Y-27600804D01*
X39524907Y-27594357D01*
X39499922Y-27585417D01*
X39475934Y-27574072D01*
X39453174Y-27560429D01*
X39431860Y-27544622D01*
X39412198Y-27526802D01*
X39394378Y-27507140D01*
X39378571Y-27485826D01*
X39364928Y-27463066D01*
X39353583Y-27439078D01*
X39344643Y-27414093D01*
X39338196Y-27388352D01*
X39334302Y-27362104D01*
X39333000Y-27335600D01*
X39333000Y-26524400D01*
X39334302Y-26497896D01*
X39338196Y-26471648D01*
X39344643Y-26445907D01*
X39353583Y-26420922D01*
X39364928Y-26396934D01*
X39378571Y-26374174D01*
X39394378Y-26352860D01*
X39412198Y-26333198D01*
X39431860Y-26315378D01*
X39453174Y-26299571D01*
X39475934Y-26285928D01*
X39499922Y-26274583D01*
X39524907Y-26265643D01*
X39550648Y-26259196D01*
X39576896Y-26255302D01*
X39603400Y-26254000D01*
X40914600Y-26254000D01*
X40941104Y-26255302D01*
X40941104Y-26255302D01*
G37*
D30*
X40259000Y-26930000D03*
D12*
G36*
X40941104Y-23455302D02*
G01*
X40967352Y-23459196D01*
X40993093Y-23465643D01*
X41018078Y-23474583D01*
X41042066Y-23485928D01*
X41064826Y-23499571D01*
X41086140Y-23515378D01*
X41105802Y-23533198D01*
X41123622Y-23552860D01*
X41139429Y-23574174D01*
X41153072Y-23596934D01*
X41164417Y-23620922D01*
X41173357Y-23645907D01*
X41179804Y-23671648D01*
X41183698Y-23697896D01*
X41185000Y-23724400D01*
X41185000Y-24535600D01*
X41183698Y-24562104D01*
X41179804Y-24588352D01*
X41173357Y-24614093D01*
X41164417Y-24639078D01*
X41153072Y-24663066D01*
X41139429Y-24685826D01*
X41123622Y-24707140D01*
X41105802Y-24726802D01*
X41086140Y-24744622D01*
X41064826Y-24760429D01*
X41042066Y-24774072D01*
X41018078Y-24785417D01*
X40993093Y-24794357D01*
X40967352Y-24800804D01*
X40941104Y-24804698D01*
X40914600Y-24806000D01*
X39603400Y-24806000D01*
X39576896Y-24804698D01*
X39550648Y-24800804D01*
X39524907Y-24794357D01*
X39499922Y-24785417D01*
X39475934Y-24774072D01*
X39453174Y-24760429D01*
X39431860Y-24744622D01*
X39412198Y-24726802D01*
X39394378Y-24707140D01*
X39378571Y-24685826D01*
X39364928Y-24663066D01*
X39353583Y-24639078D01*
X39344643Y-24614093D01*
X39338196Y-24588352D01*
X39334302Y-24562104D01*
X39333000Y-24535600D01*
X39333000Y-23724400D01*
X39334302Y-23697896D01*
X39338196Y-23671648D01*
X39344643Y-23645907D01*
X39353583Y-23620922D01*
X39364928Y-23596934D01*
X39378571Y-23574174D01*
X39394378Y-23552860D01*
X39412198Y-23533198D01*
X39431860Y-23515378D01*
X39453174Y-23499571D01*
X39475934Y-23485928D01*
X39499922Y-23474583D01*
X39524907Y-23465643D01*
X39550648Y-23459196D01*
X39576896Y-23455302D01*
X39603400Y-23454000D01*
X40914600Y-23454000D01*
X40941104Y-23455302D01*
X40941104Y-23455302D01*
G37*
D30*
X40259000Y-24130000D03*
D12*
G36*
X48045957Y-28331833D02*
G01*
X48062751Y-28334324D01*
X48079219Y-28338449D01*
X48095204Y-28344169D01*
X48110552Y-28351428D01*
X48125114Y-28360156D01*
X48138750Y-28370269D01*
X48151329Y-28381671D01*
X48162731Y-28394250D01*
X48172844Y-28407886D01*
X48181572Y-28422448D01*
X48188831Y-28437796D01*
X48194551Y-28453781D01*
X48198676Y-28470249D01*
X48201167Y-28487043D01*
X48202000Y-28504000D01*
X48202000Y-28900000D01*
X48201167Y-28916957D01*
X48198676Y-28933751D01*
X48194551Y-28950219D01*
X48188831Y-28966204D01*
X48181572Y-28981552D01*
X48172844Y-28996114D01*
X48162731Y-29009750D01*
X48151329Y-29022329D01*
X48138750Y-29033731D01*
X48125114Y-29043844D01*
X48110552Y-29052572D01*
X48095204Y-29059831D01*
X48079219Y-29065551D01*
X48062751Y-29069676D01*
X48045957Y-29072167D01*
X48029000Y-29073000D01*
X47683000Y-29073000D01*
X47666043Y-29072167D01*
X47649249Y-29069676D01*
X47632781Y-29065551D01*
X47616796Y-29059831D01*
X47601448Y-29052572D01*
X47586886Y-29043844D01*
X47573250Y-29033731D01*
X47560671Y-29022329D01*
X47549269Y-29009750D01*
X47539156Y-28996114D01*
X47530428Y-28981552D01*
X47523169Y-28966204D01*
X47517449Y-28950219D01*
X47513324Y-28933751D01*
X47510833Y-28916957D01*
X47510000Y-28900000D01*
X47510000Y-28504000D01*
X47510833Y-28487043D01*
X47513324Y-28470249D01*
X47517449Y-28453781D01*
X47523169Y-28437796D01*
X47530428Y-28422448D01*
X47539156Y-28407886D01*
X47549269Y-28394250D01*
X47560671Y-28381671D01*
X47573250Y-28370269D01*
X47586886Y-28360156D01*
X47601448Y-28351428D01*
X47616796Y-28344169D01*
X47632781Y-28338449D01*
X47649249Y-28334324D01*
X47666043Y-28331833D01*
X47683000Y-28331000D01*
X48029000Y-28331000D01*
X48045957Y-28331833D01*
X48045957Y-28331833D01*
G37*
D13*
X47856000Y-28702000D03*
D12*
G36*
X47075957Y-28331833D02*
G01*
X47092751Y-28334324D01*
X47109219Y-28338449D01*
X47125204Y-28344169D01*
X47140552Y-28351428D01*
X47155114Y-28360156D01*
X47168750Y-28370269D01*
X47181329Y-28381671D01*
X47192731Y-28394250D01*
X47202844Y-28407886D01*
X47211572Y-28422448D01*
X47218831Y-28437796D01*
X47224551Y-28453781D01*
X47228676Y-28470249D01*
X47231167Y-28487043D01*
X47232000Y-28504000D01*
X47232000Y-28900000D01*
X47231167Y-28916957D01*
X47228676Y-28933751D01*
X47224551Y-28950219D01*
X47218831Y-28966204D01*
X47211572Y-28981552D01*
X47202844Y-28996114D01*
X47192731Y-29009750D01*
X47181329Y-29022329D01*
X47168750Y-29033731D01*
X47155114Y-29043844D01*
X47140552Y-29052572D01*
X47125204Y-29059831D01*
X47109219Y-29065551D01*
X47092751Y-29069676D01*
X47075957Y-29072167D01*
X47059000Y-29073000D01*
X46713000Y-29073000D01*
X46696043Y-29072167D01*
X46679249Y-29069676D01*
X46662781Y-29065551D01*
X46646796Y-29059831D01*
X46631448Y-29052572D01*
X46616886Y-29043844D01*
X46603250Y-29033731D01*
X46590671Y-29022329D01*
X46579269Y-29009750D01*
X46569156Y-28996114D01*
X46560428Y-28981552D01*
X46553169Y-28966204D01*
X46547449Y-28950219D01*
X46543324Y-28933751D01*
X46540833Y-28916957D01*
X46540000Y-28900000D01*
X46540000Y-28504000D01*
X46540833Y-28487043D01*
X46543324Y-28470249D01*
X46547449Y-28453781D01*
X46553169Y-28437796D01*
X46560428Y-28422448D01*
X46569156Y-28407886D01*
X46579269Y-28394250D01*
X46590671Y-28381671D01*
X46603250Y-28370269D01*
X46616886Y-28360156D01*
X46631448Y-28351428D01*
X46646796Y-28344169D01*
X46662781Y-28338449D01*
X46679249Y-28334324D01*
X46696043Y-28331833D01*
X46713000Y-28331000D01*
X47059000Y-28331000D01*
X47075957Y-28331833D01*
X47075957Y-28331833D01*
G37*
D13*
X46886000Y-28702000D03*
D12*
G36*
X45632957Y-28331833D02*
G01*
X45649751Y-28334324D01*
X45666219Y-28338449D01*
X45682204Y-28344169D01*
X45697552Y-28351428D01*
X45712114Y-28360156D01*
X45725750Y-28370269D01*
X45738329Y-28381671D01*
X45749731Y-28394250D01*
X45759844Y-28407886D01*
X45768572Y-28422448D01*
X45775831Y-28437796D01*
X45781551Y-28453781D01*
X45785676Y-28470249D01*
X45788167Y-28487043D01*
X45789000Y-28504000D01*
X45789000Y-28900000D01*
X45788167Y-28916957D01*
X45785676Y-28933751D01*
X45781551Y-28950219D01*
X45775831Y-28966204D01*
X45768572Y-28981552D01*
X45759844Y-28996114D01*
X45749731Y-29009750D01*
X45738329Y-29022329D01*
X45725750Y-29033731D01*
X45712114Y-29043844D01*
X45697552Y-29052572D01*
X45682204Y-29059831D01*
X45666219Y-29065551D01*
X45649751Y-29069676D01*
X45632957Y-29072167D01*
X45616000Y-29073000D01*
X45270000Y-29073000D01*
X45253043Y-29072167D01*
X45236249Y-29069676D01*
X45219781Y-29065551D01*
X45203796Y-29059831D01*
X45188448Y-29052572D01*
X45173886Y-29043844D01*
X45160250Y-29033731D01*
X45147671Y-29022329D01*
X45136269Y-29009750D01*
X45126156Y-28996114D01*
X45117428Y-28981552D01*
X45110169Y-28966204D01*
X45104449Y-28950219D01*
X45100324Y-28933751D01*
X45097833Y-28916957D01*
X45097000Y-28900000D01*
X45097000Y-28504000D01*
X45097833Y-28487043D01*
X45100324Y-28470249D01*
X45104449Y-28453781D01*
X45110169Y-28437796D01*
X45117428Y-28422448D01*
X45126156Y-28407886D01*
X45136269Y-28394250D01*
X45147671Y-28381671D01*
X45160250Y-28370269D01*
X45173886Y-28360156D01*
X45188448Y-28351428D01*
X45203796Y-28344169D01*
X45219781Y-28338449D01*
X45236249Y-28334324D01*
X45253043Y-28331833D01*
X45270000Y-28331000D01*
X45616000Y-28331000D01*
X45632957Y-28331833D01*
X45632957Y-28331833D01*
G37*
D13*
X45443000Y-28702000D03*
D12*
G36*
X44662957Y-28331833D02*
G01*
X44679751Y-28334324D01*
X44696219Y-28338449D01*
X44712204Y-28344169D01*
X44727552Y-28351428D01*
X44742114Y-28360156D01*
X44755750Y-28370269D01*
X44768329Y-28381671D01*
X44779731Y-28394250D01*
X44789844Y-28407886D01*
X44798572Y-28422448D01*
X44805831Y-28437796D01*
X44811551Y-28453781D01*
X44815676Y-28470249D01*
X44818167Y-28487043D01*
X44819000Y-28504000D01*
X44819000Y-28900000D01*
X44818167Y-28916957D01*
X44815676Y-28933751D01*
X44811551Y-28950219D01*
X44805831Y-28966204D01*
X44798572Y-28981552D01*
X44789844Y-28996114D01*
X44779731Y-29009750D01*
X44768329Y-29022329D01*
X44755750Y-29033731D01*
X44742114Y-29043844D01*
X44727552Y-29052572D01*
X44712204Y-29059831D01*
X44696219Y-29065551D01*
X44679751Y-29069676D01*
X44662957Y-29072167D01*
X44646000Y-29073000D01*
X44300000Y-29073000D01*
X44283043Y-29072167D01*
X44266249Y-29069676D01*
X44249781Y-29065551D01*
X44233796Y-29059831D01*
X44218448Y-29052572D01*
X44203886Y-29043844D01*
X44190250Y-29033731D01*
X44177671Y-29022329D01*
X44166269Y-29009750D01*
X44156156Y-28996114D01*
X44147428Y-28981552D01*
X44140169Y-28966204D01*
X44134449Y-28950219D01*
X44130324Y-28933751D01*
X44127833Y-28916957D01*
X44127000Y-28900000D01*
X44127000Y-28504000D01*
X44127833Y-28487043D01*
X44130324Y-28470249D01*
X44134449Y-28453781D01*
X44140169Y-28437796D01*
X44147428Y-28422448D01*
X44156156Y-28407886D01*
X44166269Y-28394250D01*
X44177671Y-28381671D01*
X44190250Y-28370269D01*
X44203886Y-28360156D01*
X44218448Y-28351428D01*
X44233796Y-28344169D01*
X44249781Y-28338449D01*
X44266249Y-28334324D01*
X44283043Y-28331833D01*
X44300000Y-28331000D01*
X44646000Y-28331000D01*
X44662957Y-28331833D01*
X44662957Y-28331833D01*
G37*
D13*
X44473000Y-28702000D03*
D21*
X254095250Y-84232750D03*
X254095250Y-82032750D03*
X230282750Y-84232750D03*
X230282750Y-82032750D03*
X206470250Y-84232750D03*
X206470250Y-82032750D03*
X162020250Y-83427750D03*
X162020250Y-81227750D03*
X120745250Y-84232750D03*
X120745250Y-82032750D03*
X87407750Y-84232750D03*
X87407750Y-82032750D03*
X63595250Y-84232750D03*
X63595250Y-82032750D03*
X275526500Y-65182750D03*
X275526500Y-62982750D03*
X251714000Y-65182750D03*
X251714000Y-62982750D03*
X230282750Y-65182750D03*
X230282750Y-62982750D03*
X211232750Y-65182750D03*
X211232750Y-62982750D03*
X192182750Y-65182750D03*
X192182750Y-62982750D03*
X173132750Y-65182750D03*
X173132750Y-62982750D03*
X154082750Y-65182750D03*
X154082750Y-62982750D03*
X135032750Y-65182750D03*
X135032750Y-62982750D03*
X115982750Y-65182750D03*
X115982750Y-62982750D03*
X96932750Y-65182750D03*
X96932750Y-62982750D03*
X77882750Y-65182750D03*
X77882750Y-62982750D03*
X46926500Y-65182750D03*
X46926500Y-62982750D03*
X270764000Y-46132750D03*
X270764000Y-43932750D03*
X239807750Y-46132750D03*
X239807750Y-43932750D03*
X220757750Y-46132750D03*
X220757750Y-43932750D03*
X201707750Y-46132750D03*
X201707750Y-43932750D03*
X163607750Y-46132750D03*
X163607750Y-43932750D03*
X144557750Y-46132750D03*
X144557750Y-43932750D03*
X125507750Y-46132750D03*
X125507750Y-43932750D03*
X106457750Y-46132750D03*
X106457750Y-43932750D03*
X87407750Y-46132750D03*
X87407750Y-43932750D03*
X68357750Y-46132750D03*
X68357750Y-43932750D03*
X35814000Y-45212000D03*
X35814000Y-43012000D03*
X277907750Y-27082750D03*
X277907750Y-24882750D03*
X254095250Y-27082750D03*
X254095250Y-24882750D03*
X235045250Y-27082750D03*
X235045250Y-24882750D03*
X215995250Y-27082750D03*
X215995250Y-24882750D03*
X196977000Y-27082750D03*
X196977000Y-24882750D03*
X177895250Y-27082750D03*
X177895250Y-24882750D03*
X158845250Y-27082750D03*
X158845250Y-24882750D03*
X139795250Y-27082750D03*
X139795250Y-24882750D03*
X120745250Y-27082750D03*
X120745250Y-24882750D03*
X101695250Y-27082750D03*
X101695250Y-24882750D03*
X82645250Y-27082750D03*
X82645250Y-24882750D03*
X63595250Y-27082750D03*
X63595250Y-24882750D03*
X33782000Y-26035000D03*
X33782000Y-23835000D03*
M02*
