G04 #@! TF.GenerationSoftware,KiCad,Pcbnew,(5.1.4-0-10_14)*
G04 #@! TF.CreationDate,2020-05-16T16:30:02+09:00*
G04 #@! TF.ProjectId,chavdai40-case,63686176-6461-4693-9430-2d636173652e,rev?*
G04 #@! TF.SameCoordinates,Original*
G04 #@! TF.FileFunction,Profile,NP*
%FSLAX46Y46*%
G04 Gerber Fmt 4.6, Leading zero omitted, Abs format (unit mm)*
G04 Created by KiCad (PCBNEW (5.1.4-0-10_14)) date 2020-05-16 16:30:02*
%MOMM*%
%LPD*%
G04 APERTURE LIST*
%ADD10C,0.050000*%
G04 APERTURE END LIST*
D10*
X20000000Y-18900000D02*
X286700000Y-18900000D01*
X19000000Y-19900000D02*
G75*
G02X20000000Y-18900000I1000000J0D01*
G01*
X286700000Y-18900000D02*
G75*
G02X287700000Y-19900000I0J-1000000D01*
G01*
X287700000Y-58000000D02*
X287700000Y-19900000D01*
X287700000Y-58000000D02*
G75*
G02X286700000Y-59000000I-1000000J0D01*
G01*
X283900000Y-59000000D02*
X286700000Y-59000000D01*
X282900000Y-60000000D02*
G75*
G02X283900000Y-59000000I1000000J0D01*
G01*
X282900000Y-77100000D02*
G75*
G02X281900000Y-78100000I-1000000J0D01*
G01*
X282900000Y-77100000D02*
X282900000Y-60000000D01*
X261500000Y-79100000D02*
G75*
G02X262500000Y-78100000I1000000J0D01*
G01*
X262500000Y-78100000D02*
X281900000Y-78100000D01*
X261500000Y-96200000D02*
X261500000Y-79100000D01*
X261500000Y-96200000D02*
G75*
G02X260500000Y-97200000I-1000000J0D01*
G01*
X46100000Y-97200000D02*
X260500000Y-97200000D01*
X46100000Y-97200000D02*
G75*
G02X45100000Y-96200000I0J1000000D01*
G01*
X44100000Y-78100000D02*
G75*
G02X45100000Y-79100000I0J-1000000D01*
G01*
X45100000Y-79100000D02*
X45100000Y-96200000D01*
X20000000Y-78100000D02*
X44100000Y-78100000D01*
X20000000Y-78100000D02*
G75*
G02X19000000Y-77100000I0J1000000D01*
G01*
X19000000Y-19900000D02*
X19000000Y-77100000D01*
X289600000Y-12000000D02*
G75*
G02X294600000Y-17000000I0J-5000000D01*
G01*
X294600000Y-99000000D02*
G75*
G02X289600000Y-104000000I-5000000J0D01*
G01*
X17000000Y-104000000D02*
G75*
G02X12000000Y-99000000I0J5000000D01*
G01*
X12001500Y-17000000D02*
G75*
G02X17000000Y-12001500I4998500J0D01*
G01*
X17000000Y-104000000D02*
X289600000Y-104000000D01*
X294600000Y-99000000D02*
X294600000Y-17000000D01*
X12000000Y-17000000D02*
X12000000Y-99000000D01*
X17000000Y-12001500D02*
X289600000Y-12000000D01*
M02*
