G04 #@! TF.GenerationSoftware,KiCad,Pcbnew,(5.1.4-0-10_14)*
G04 #@! TF.CreationDate,2020-05-16T16:30:02+09:00*
G04 #@! TF.ProjectId,chavdai40-case,63686176-6461-4693-9430-2d636173652e,rev?*
G04 #@! TF.SameCoordinates,Original*
G04 #@! TF.FileFunction,Legend,Bot*
G04 #@! TF.FilePolarity,Positive*
%FSLAX46Y46*%
G04 Gerber Fmt 4.6, Leading zero omitted, Abs format (unit mm)*
G04 Created by KiCad (PCBNEW (5.1.4-0-10_14)) date 2020-05-16 16:30:02*
%MOMM*%
%LPD*%
G04 APERTURE LIST*
%ADD10C,0.150000*%
%ADD11C,1.449000*%
G04 APERTURE END LIST*
D10*
X50655047Y-14881380D02*
X50655047Y-15595666D01*
X50702666Y-15738523D01*
X50797904Y-15833761D01*
X50940761Y-15881380D01*
X51036000Y-15881380D01*
X49702666Y-15881380D02*
X50178857Y-15881380D01*
X50178857Y-14881380D01*
X48797904Y-15786142D02*
X48845523Y-15833761D01*
X48988380Y-15881380D01*
X49083619Y-15881380D01*
X49226476Y-15833761D01*
X49321714Y-15738523D01*
X49369333Y-15643285D01*
X49416952Y-15452809D01*
X49416952Y-15309952D01*
X49369333Y-15119476D01*
X49321714Y-15024238D01*
X49226476Y-14929000D01*
X49083619Y-14881380D01*
X48988380Y-14881380D01*
X48845523Y-14929000D01*
X48797904Y-14976619D01*
X48083619Y-14881380D02*
X48083619Y-15595666D01*
X48131238Y-15738523D01*
X48226476Y-15833761D01*
X48369333Y-15881380D01*
X48464571Y-15881380D01*
X47131238Y-15881380D02*
X47607428Y-15881380D01*
X47607428Y-14881380D01*
X46226476Y-15786142D02*
X46274095Y-15833761D01*
X46416952Y-15881380D01*
X46512190Y-15881380D01*
X46655047Y-15833761D01*
X46750285Y-15738523D01*
X46797904Y-15643285D01*
X46845523Y-15452809D01*
X46845523Y-15309952D01*
X46797904Y-15119476D01*
X46750285Y-15024238D01*
X46655047Y-14929000D01*
X46512190Y-14881380D01*
X46416952Y-14881380D01*
X46274095Y-14929000D01*
X46226476Y-14976619D01*
X45512190Y-14881380D02*
X45512190Y-15595666D01*
X45559809Y-15738523D01*
X45655047Y-15833761D01*
X45797904Y-15881380D01*
X45893142Y-15881380D01*
X44559809Y-15881380D02*
X45036000Y-15881380D01*
X45036000Y-14881380D01*
X43655047Y-15786142D02*
X43702666Y-15833761D01*
X43845523Y-15881380D01*
X43940761Y-15881380D01*
X44083619Y-15833761D01*
X44178857Y-15738523D01*
X44226476Y-15643285D01*
X44274095Y-15452809D01*
X44274095Y-15309952D01*
X44226476Y-15119476D01*
X44178857Y-15024238D01*
X44083619Y-14929000D01*
X43940761Y-14881380D01*
X43845523Y-14881380D01*
X43702666Y-14929000D01*
X43655047Y-14976619D01*
X42940761Y-14881380D02*
X42940761Y-15595666D01*
X42988380Y-15738523D01*
X43083619Y-15833761D01*
X43226476Y-15881380D01*
X43321714Y-15881380D01*
X41988380Y-15881380D02*
X42464571Y-15881380D01*
X42464571Y-14881380D01*
X41083619Y-15786142D02*
X41131238Y-15833761D01*
X41274095Y-15881380D01*
X41369333Y-15881380D01*
X41512190Y-15833761D01*
X41607428Y-15738523D01*
X41655047Y-15643285D01*
X41702666Y-15452809D01*
X41702666Y-15309952D01*
X41655047Y-15119476D01*
X41607428Y-15024238D01*
X41512190Y-14929000D01*
X41369333Y-14881380D01*
X41274095Y-14881380D01*
X41131238Y-14929000D01*
X41083619Y-14976619D01*
%LPC*%
D11*
X52246000Y-14540000D03*
X52246000Y-12889000D03*
X52246000Y-16191000D03*
X52246000Y-17842000D03*
X39800000Y-17842000D03*
X39800000Y-16191000D03*
X39800000Y-14540000D03*
X39800000Y-12889000D03*
M02*
