G04 #@! TF.GenerationSoftware,KiCad,Pcbnew,(5.1.4-0-10_14)*
G04 #@! TF.CreationDate,2020-05-16T16:30:02+09:00*
G04 #@! TF.ProjectId,chavdai40-case,63686176-6461-4693-9430-2d636173652e,rev?*
G04 #@! TF.SameCoordinates,Original*
G04 #@! TF.FileFunction,Copper,L1,Top*
G04 #@! TF.FilePolarity,Positive*
%FSLAX46Y46*%
G04 Gerber Fmt 4.6, Leading zero omitted, Abs format (unit mm)*
G04 Created by KiCad (PCBNEW (5.1.4-0-10_14)) date 2020-05-16 16:30:02*
%MOMM*%
%LPD*%
G04 APERTURE LIST*
%ADD10C,1.153000*%
%ADD11C,0.254000*%
G04 APERTURE END LIST*
D10*
X52246000Y-14540000D03*
X52246000Y-12889000D03*
X52246000Y-16191000D03*
X52246000Y-17842000D03*
X39800000Y-17842000D03*
X39800000Y-16191000D03*
X39800000Y-14540000D03*
X39800000Y-12889000D03*
D11*
G36*
X290368083Y-12731173D02*
G01*
X291111891Y-12934656D01*
X291807905Y-13266638D01*
X292434130Y-13716626D01*
X292970777Y-14270403D01*
X293400871Y-14910451D01*
X293710829Y-15616553D01*
X293892065Y-16371457D01*
X293940001Y-17024220D01*
X293940000Y-98970608D01*
X293868827Y-99768083D01*
X293665344Y-100511890D01*
X293333363Y-101207904D01*
X292883374Y-101834130D01*
X292329597Y-102370777D01*
X291689549Y-102800871D01*
X290983447Y-103110829D01*
X290228543Y-103292065D01*
X289575793Y-103340000D01*
X17029392Y-103340000D01*
X16231917Y-103268827D01*
X15488110Y-103065344D01*
X14792096Y-102733363D01*
X14165870Y-102283374D01*
X13629223Y-101729597D01*
X13199129Y-101089549D01*
X12889171Y-100383447D01*
X12707935Y-99628543D01*
X12660000Y-98975793D01*
X12660000Y-17046199D01*
X12732649Y-16232184D01*
X12936062Y-15488631D01*
X13267928Y-14792859D01*
X13717763Y-14166847D01*
X14271345Y-13630391D01*
X14911177Y-13200441D01*
X15617035Y-12890593D01*
X16371676Y-12709419D01*
X17024211Y-12661500D01*
X38610041Y-12661381D01*
X38588500Y-12769678D01*
X38588500Y-13008322D01*
X38635057Y-13242382D01*
X38726383Y-13462860D01*
X38858966Y-13661286D01*
X38912180Y-13714500D01*
X38858966Y-13767714D01*
X38726383Y-13966140D01*
X38635057Y-14186618D01*
X38588500Y-14420678D01*
X38588500Y-14659322D01*
X38635057Y-14893382D01*
X38726383Y-15113860D01*
X38858966Y-15312286D01*
X38912180Y-15365500D01*
X38858966Y-15418714D01*
X38726383Y-15617140D01*
X38635057Y-15837618D01*
X38588500Y-16071678D01*
X38588500Y-16310322D01*
X38635057Y-16544382D01*
X38726383Y-16764860D01*
X38858966Y-16963286D01*
X38912180Y-17016500D01*
X38858966Y-17069714D01*
X38726383Y-17268140D01*
X38635057Y-17488618D01*
X38588500Y-17722678D01*
X38588500Y-17961322D01*
X38635057Y-18195382D01*
X38653539Y-18240000D01*
X19967581Y-18240000D01*
X19939326Y-18242783D01*
X19933199Y-18242740D01*
X19924028Y-18243640D01*
X19729931Y-18264041D01*
X19671348Y-18276066D01*
X19612577Y-18287277D01*
X19603755Y-18289941D01*
X19417317Y-18347653D01*
X19362162Y-18370838D01*
X19306709Y-18393242D01*
X19298573Y-18397568D01*
X19126896Y-18490393D01*
X19077278Y-18523861D01*
X19027247Y-18556600D01*
X19020106Y-18562424D01*
X18869728Y-18686828D01*
X18827589Y-18729263D01*
X18784839Y-18771126D01*
X18778966Y-18778227D01*
X18655616Y-18929469D01*
X18622534Y-18979262D01*
X18588716Y-19028651D01*
X18584333Y-19036757D01*
X18492708Y-19209079D01*
X18469909Y-19264394D01*
X18446348Y-19319366D01*
X18443623Y-19328169D01*
X18387214Y-19515005D01*
X18375594Y-19573693D01*
X18363158Y-19632196D01*
X18362195Y-19641361D01*
X18343150Y-19835595D01*
X18340000Y-19867582D01*
X18340001Y-77132419D01*
X18342783Y-77160664D01*
X18342740Y-77166801D01*
X18343640Y-77175972D01*
X18364041Y-77370069D01*
X18376068Y-77428658D01*
X18387277Y-77487423D01*
X18389941Y-77496245D01*
X18447653Y-77682683D01*
X18470838Y-77737838D01*
X18493242Y-77793291D01*
X18497568Y-77801427D01*
X18590393Y-77973104D01*
X18623846Y-78022699D01*
X18656600Y-78072753D01*
X18662424Y-78079894D01*
X18786828Y-78230272D01*
X18829263Y-78272411D01*
X18871126Y-78315161D01*
X18878227Y-78321034D01*
X19029469Y-78444384D01*
X19079277Y-78477477D01*
X19128651Y-78511284D01*
X19136757Y-78515667D01*
X19309080Y-78607292D01*
X19364392Y-78630090D01*
X19419366Y-78653652D01*
X19428169Y-78656377D01*
X19615006Y-78712786D01*
X19673686Y-78724405D01*
X19732196Y-78736842D01*
X19741361Y-78737805D01*
X19935594Y-78756850D01*
X19935598Y-78756850D01*
X19967581Y-78760000D01*
X44067721Y-78760000D01*
X44165424Y-78769580D01*
X44228356Y-78788580D01*
X44286405Y-78819445D01*
X44337343Y-78860989D01*
X44379248Y-78911644D01*
X44410515Y-78969471D01*
X44429956Y-79032272D01*
X44440000Y-79127835D01*
X44440001Y-96232419D01*
X44442783Y-96260664D01*
X44442740Y-96266801D01*
X44443640Y-96275972D01*
X44464041Y-96470069D01*
X44476068Y-96528658D01*
X44487277Y-96587423D01*
X44489941Y-96596245D01*
X44547653Y-96782683D01*
X44570838Y-96837838D01*
X44593242Y-96893291D01*
X44597568Y-96901427D01*
X44690393Y-97073104D01*
X44723846Y-97122699D01*
X44756600Y-97172753D01*
X44762424Y-97179894D01*
X44886828Y-97330272D01*
X44929263Y-97372411D01*
X44971126Y-97415161D01*
X44978227Y-97421034D01*
X45129469Y-97544384D01*
X45179277Y-97577477D01*
X45228651Y-97611284D01*
X45236757Y-97615667D01*
X45409080Y-97707292D01*
X45464392Y-97730090D01*
X45519366Y-97753652D01*
X45528169Y-97756377D01*
X45715006Y-97812786D01*
X45773686Y-97824405D01*
X45832196Y-97836842D01*
X45841361Y-97837805D01*
X46035594Y-97856850D01*
X46035598Y-97856850D01*
X46067581Y-97860000D01*
X260532419Y-97860000D01*
X260560674Y-97857217D01*
X260566801Y-97857260D01*
X260575972Y-97856360D01*
X260770069Y-97835959D01*
X260828658Y-97823932D01*
X260887423Y-97812723D01*
X260896245Y-97810059D01*
X261082683Y-97752347D01*
X261137838Y-97729162D01*
X261193291Y-97706758D01*
X261201427Y-97702432D01*
X261373104Y-97609607D01*
X261422699Y-97576154D01*
X261472753Y-97543400D01*
X261479894Y-97537576D01*
X261630272Y-97413172D01*
X261672411Y-97370737D01*
X261715161Y-97328874D01*
X261721034Y-97321773D01*
X261844384Y-97170531D01*
X261877477Y-97120723D01*
X261911284Y-97071349D01*
X261915667Y-97063243D01*
X262007292Y-96890920D01*
X262030090Y-96835608D01*
X262053652Y-96780634D01*
X262056377Y-96771831D01*
X262112786Y-96584994D01*
X262124405Y-96526314D01*
X262136842Y-96467804D01*
X262137805Y-96458639D01*
X262156850Y-96264406D01*
X262156850Y-96264402D01*
X262160000Y-96232419D01*
X262160000Y-79132279D01*
X262169580Y-79034576D01*
X262188580Y-78971644D01*
X262219445Y-78913595D01*
X262260989Y-78862657D01*
X262311644Y-78820752D01*
X262369471Y-78789485D01*
X262432272Y-78770044D01*
X262527835Y-78760000D01*
X281932419Y-78760000D01*
X281960674Y-78757217D01*
X281966801Y-78757260D01*
X281975972Y-78756360D01*
X282170069Y-78735959D01*
X282228658Y-78723932D01*
X282287423Y-78712723D01*
X282296245Y-78710059D01*
X282482683Y-78652347D01*
X282537838Y-78629162D01*
X282593291Y-78606758D01*
X282601427Y-78602432D01*
X282773104Y-78509607D01*
X282822699Y-78476154D01*
X282872753Y-78443400D01*
X282879894Y-78437576D01*
X283030272Y-78313172D01*
X283072411Y-78270737D01*
X283115161Y-78228874D01*
X283121034Y-78221773D01*
X283244384Y-78070531D01*
X283277477Y-78020723D01*
X283311284Y-77971349D01*
X283315667Y-77963243D01*
X283407292Y-77790920D01*
X283430090Y-77735608D01*
X283453652Y-77680634D01*
X283456377Y-77671831D01*
X283512786Y-77484994D01*
X283524405Y-77426314D01*
X283536842Y-77367804D01*
X283537805Y-77358639D01*
X283556850Y-77164406D01*
X283556850Y-77164402D01*
X283560000Y-77132419D01*
X283560000Y-60032279D01*
X283569580Y-59934576D01*
X283588580Y-59871644D01*
X283619445Y-59813595D01*
X283660989Y-59762657D01*
X283711644Y-59720752D01*
X283769471Y-59689485D01*
X283832272Y-59670044D01*
X283927835Y-59660000D01*
X286732419Y-59660000D01*
X286760674Y-59657217D01*
X286766801Y-59657260D01*
X286775972Y-59656360D01*
X286970069Y-59635959D01*
X287028658Y-59623932D01*
X287087423Y-59612723D01*
X287096245Y-59610059D01*
X287282683Y-59552347D01*
X287337838Y-59529162D01*
X287393291Y-59506758D01*
X287401427Y-59502432D01*
X287573104Y-59409607D01*
X287622699Y-59376154D01*
X287672753Y-59343400D01*
X287679894Y-59337576D01*
X287830272Y-59213172D01*
X287872411Y-59170737D01*
X287915161Y-59128874D01*
X287921034Y-59121773D01*
X288044384Y-58970531D01*
X288077477Y-58920723D01*
X288111284Y-58871349D01*
X288115667Y-58863243D01*
X288207292Y-58690920D01*
X288230090Y-58635608D01*
X288253652Y-58580634D01*
X288256377Y-58571831D01*
X288312786Y-58384994D01*
X288324405Y-58326314D01*
X288336842Y-58267804D01*
X288337805Y-58258639D01*
X288356850Y-58064406D01*
X288356850Y-58064402D01*
X288360000Y-58032419D01*
X288360000Y-19867581D01*
X288357217Y-19839326D01*
X288357260Y-19833199D01*
X288356360Y-19824028D01*
X288335959Y-19629931D01*
X288323934Y-19571348D01*
X288312723Y-19512577D01*
X288310059Y-19503755D01*
X288252347Y-19317317D01*
X288229162Y-19262162D01*
X288206758Y-19206709D01*
X288202432Y-19198573D01*
X288109607Y-19026896D01*
X288076139Y-18977278D01*
X288043400Y-18927247D01*
X288037576Y-18920106D01*
X287913172Y-18769728D01*
X287870737Y-18727589D01*
X287828874Y-18684839D01*
X287821773Y-18678966D01*
X287670531Y-18555616D01*
X287620738Y-18522534D01*
X287571349Y-18488716D01*
X287563243Y-18484333D01*
X287390921Y-18392708D01*
X287335606Y-18369909D01*
X287280634Y-18346348D01*
X287271831Y-18343623D01*
X287084995Y-18287214D01*
X287026307Y-18275594D01*
X286967804Y-18263158D01*
X286958639Y-18262195D01*
X286764405Y-18243150D01*
X286764402Y-18243150D01*
X286732419Y-18240000D01*
X53392461Y-18240000D01*
X53410943Y-18195382D01*
X53457500Y-17961322D01*
X53457500Y-17722678D01*
X53410943Y-17488618D01*
X53319617Y-17268140D01*
X53187034Y-17069714D01*
X53133820Y-17016500D01*
X53187034Y-16963286D01*
X53319617Y-16764860D01*
X53410943Y-16544382D01*
X53457500Y-16310322D01*
X53457500Y-16071678D01*
X53410943Y-15837618D01*
X53319617Y-15617140D01*
X53187034Y-15418714D01*
X53133820Y-15365500D01*
X53187034Y-15312286D01*
X53319617Y-15113860D01*
X53410943Y-14893382D01*
X53457500Y-14659322D01*
X53457500Y-14420678D01*
X53410943Y-14186618D01*
X53319617Y-13966140D01*
X53187034Y-13767714D01*
X53133820Y-13714500D01*
X53187034Y-13661286D01*
X53319617Y-13462860D01*
X53410943Y-13242382D01*
X53457500Y-13008322D01*
X53457500Y-12769678D01*
X53435942Y-12661299D01*
X289570601Y-12659999D01*
X290368083Y-12731173D01*
X290368083Y-12731173D01*
G37*
X290368083Y-12731173D02*
X291111891Y-12934656D01*
X291807905Y-13266638D01*
X292434130Y-13716626D01*
X292970777Y-14270403D01*
X293400871Y-14910451D01*
X293710829Y-15616553D01*
X293892065Y-16371457D01*
X293940001Y-17024220D01*
X293940000Y-98970608D01*
X293868827Y-99768083D01*
X293665344Y-100511890D01*
X293333363Y-101207904D01*
X292883374Y-101834130D01*
X292329597Y-102370777D01*
X291689549Y-102800871D01*
X290983447Y-103110829D01*
X290228543Y-103292065D01*
X289575793Y-103340000D01*
X17029392Y-103340000D01*
X16231917Y-103268827D01*
X15488110Y-103065344D01*
X14792096Y-102733363D01*
X14165870Y-102283374D01*
X13629223Y-101729597D01*
X13199129Y-101089549D01*
X12889171Y-100383447D01*
X12707935Y-99628543D01*
X12660000Y-98975793D01*
X12660000Y-17046199D01*
X12732649Y-16232184D01*
X12936062Y-15488631D01*
X13267928Y-14792859D01*
X13717763Y-14166847D01*
X14271345Y-13630391D01*
X14911177Y-13200441D01*
X15617035Y-12890593D01*
X16371676Y-12709419D01*
X17024211Y-12661500D01*
X38610041Y-12661381D01*
X38588500Y-12769678D01*
X38588500Y-13008322D01*
X38635057Y-13242382D01*
X38726383Y-13462860D01*
X38858966Y-13661286D01*
X38912180Y-13714500D01*
X38858966Y-13767714D01*
X38726383Y-13966140D01*
X38635057Y-14186618D01*
X38588500Y-14420678D01*
X38588500Y-14659322D01*
X38635057Y-14893382D01*
X38726383Y-15113860D01*
X38858966Y-15312286D01*
X38912180Y-15365500D01*
X38858966Y-15418714D01*
X38726383Y-15617140D01*
X38635057Y-15837618D01*
X38588500Y-16071678D01*
X38588500Y-16310322D01*
X38635057Y-16544382D01*
X38726383Y-16764860D01*
X38858966Y-16963286D01*
X38912180Y-17016500D01*
X38858966Y-17069714D01*
X38726383Y-17268140D01*
X38635057Y-17488618D01*
X38588500Y-17722678D01*
X38588500Y-17961322D01*
X38635057Y-18195382D01*
X38653539Y-18240000D01*
X19967581Y-18240000D01*
X19939326Y-18242783D01*
X19933199Y-18242740D01*
X19924028Y-18243640D01*
X19729931Y-18264041D01*
X19671348Y-18276066D01*
X19612577Y-18287277D01*
X19603755Y-18289941D01*
X19417317Y-18347653D01*
X19362162Y-18370838D01*
X19306709Y-18393242D01*
X19298573Y-18397568D01*
X19126896Y-18490393D01*
X19077278Y-18523861D01*
X19027247Y-18556600D01*
X19020106Y-18562424D01*
X18869728Y-18686828D01*
X18827589Y-18729263D01*
X18784839Y-18771126D01*
X18778966Y-18778227D01*
X18655616Y-18929469D01*
X18622534Y-18979262D01*
X18588716Y-19028651D01*
X18584333Y-19036757D01*
X18492708Y-19209079D01*
X18469909Y-19264394D01*
X18446348Y-19319366D01*
X18443623Y-19328169D01*
X18387214Y-19515005D01*
X18375594Y-19573693D01*
X18363158Y-19632196D01*
X18362195Y-19641361D01*
X18343150Y-19835595D01*
X18340000Y-19867582D01*
X18340001Y-77132419D01*
X18342783Y-77160664D01*
X18342740Y-77166801D01*
X18343640Y-77175972D01*
X18364041Y-77370069D01*
X18376068Y-77428658D01*
X18387277Y-77487423D01*
X18389941Y-77496245D01*
X18447653Y-77682683D01*
X18470838Y-77737838D01*
X18493242Y-77793291D01*
X18497568Y-77801427D01*
X18590393Y-77973104D01*
X18623846Y-78022699D01*
X18656600Y-78072753D01*
X18662424Y-78079894D01*
X18786828Y-78230272D01*
X18829263Y-78272411D01*
X18871126Y-78315161D01*
X18878227Y-78321034D01*
X19029469Y-78444384D01*
X19079277Y-78477477D01*
X19128651Y-78511284D01*
X19136757Y-78515667D01*
X19309080Y-78607292D01*
X19364392Y-78630090D01*
X19419366Y-78653652D01*
X19428169Y-78656377D01*
X19615006Y-78712786D01*
X19673686Y-78724405D01*
X19732196Y-78736842D01*
X19741361Y-78737805D01*
X19935594Y-78756850D01*
X19935598Y-78756850D01*
X19967581Y-78760000D01*
X44067721Y-78760000D01*
X44165424Y-78769580D01*
X44228356Y-78788580D01*
X44286405Y-78819445D01*
X44337343Y-78860989D01*
X44379248Y-78911644D01*
X44410515Y-78969471D01*
X44429956Y-79032272D01*
X44440000Y-79127835D01*
X44440001Y-96232419D01*
X44442783Y-96260664D01*
X44442740Y-96266801D01*
X44443640Y-96275972D01*
X44464041Y-96470069D01*
X44476068Y-96528658D01*
X44487277Y-96587423D01*
X44489941Y-96596245D01*
X44547653Y-96782683D01*
X44570838Y-96837838D01*
X44593242Y-96893291D01*
X44597568Y-96901427D01*
X44690393Y-97073104D01*
X44723846Y-97122699D01*
X44756600Y-97172753D01*
X44762424Y-97179894D01*
X44886828Y-97330272D01*
X44929263Y-97372411D01*
X44971126Y-97415161D01*
X44978227Y-97421034D01*
X45129469Y-97544384D01*
X45179277Y-97577477D01*
X45228651Y-97611284D01*
X45236757Y-97615667D01*
X45409080Y-97707292D01*
X45464392Y-97730090D01*
X45519366Y-97753652D01*
X45528169Y-97756377D01*
X45715006Y-97812786D01*
X45773686Y-97824405D01*
X45832196Y-97836842D01*
X45841361Y-97837805D01*
X46035594Y-97856850D01*
X46035598Y-97856850D01*
X46067581Y-97860000D01*
X260532419Y-97860000D01*
X260560674Y-97857217D01*
X260566801Y-97857260D01*
X260575972Y-97856360D01*
X260770069Y-97835959D01*
X260828658Y-97823932D01*
X260887423Y-97812723D01*
X260896245Y-97810059D01*
X261082683Y-97752347D01*
X261137838Y-97729162D01*
X261193291Y-97706758D01*
X261201427Y-97702432D01*
X261373104Y-97609607D01*
X261422699Y-97576154D01*
X261472753Y-97543400D01*
X261479894Y-97537576D01*
X261630272Y-97413172D01*
X261672411Y-97370737D01*
X261715161Y-97328874D01*
X261721034Y-97321773D01*
X261844384Y-97170531D01*
X261877477Y-97120723D01*
X261911284Y-97071349D01*
X261915667Y-97063243D01*
X262007292Y-96890920D01*
X262030090Y-96835608D01*
X262053652Y-96780634D01*
X262056377Y-96771831D01*
X262112786Y-96584994D01*
X262124405Y-96526314D01*
X262136842Y-96467804D01*
X262137805Y-96458639D01*
X262156850Y-96264406D01*
X262156850Y-96264402D01*
X262160000Y-96232419D01*
X262160000Y-79132279D01*
X262169580Y-79034576D01*
X262188580Y-78971644D01*
X262219445Y-78913595D01*
X262260989Y-78862657D01*
X262311644Y-78820752D01*
X262369471Y-78789485D01*
X262432272Y-78770044D01*
X262527835Y-78760000D01*
X281932419Y-78760000D01*
X281960674Y-78757217D01*
X281966801Y-78757260D01*
X281975972Y-78756360D01*
X282170069Y-78735959D01*
X282228658Y-78723932D01*
X282287423Y-78712723D01*
X282296245Y-78710059D01*
X282482683Y-78652347D01*
X282537838Y-78629162D01*
X282593291Y-78606758D01*
X282601427Y-78602432D01*
X282773104Y-78509607D01*
X282822699Y-78476154D01*
X282872753Y-78443400D01*
X282879894Y-78437576D01*
X283030272Y-78313172D01*
X283072411Y-78270737D01*
X283115161Y-78228874D01*
X283121034Y-78221773D01*
X283244384Y-78070531D01*
X283277477Y-78020723D01*
X283311284Y-77971349D01*
X283315667Y-77963243D01*
X283407292Y-77790920D01*
X283430090Y-77735608D01*
X283453652Y-77680634D01*
X283456377Y-77671831D01*
X283512786Y-77484994D01*
X283524405Y-77426314D01*
X283536842Y-77367804D01*
X283537805Y-77358639D01*
X283556850Y-77164406D01*
X283556850Y-77164402D01*
X283560000Y-77132419D01*
X283560000Y-60032279D01*
X283569580Y-59934576D01*
X283588580Y-59871644D01*
X283619445Y-59813595D01*
X283660989Y-59762657D01*
X283711644Y-59720752D01*
X283769471Y-59689485D01*
X283832272Y-59670044D01*
X283927835Y-59660000D01*
X286732419Y-59660000D01*
X286760674Y-59657217D01*
X286766801Y-59657260D01*
X286775972Y-59656360D01*
X286970069Y-59635959D01*
X287028658Y-59623932D01*
X287087423Y-59612723D01*
X287096245Y-59610059D01*
X287282683Y-59552347D01*
X287337838Y-59529162D01*
X287393291Y-59506758D01*
X287401427Y-59502432D01*
X287573104Y-59409607D01*
X287622699Y-59376154D01*
X287672753Y-59343400D01*
X287679894Y-59337576D01*
X287830272Y-59213172D01*
X287872411Y-59170737D01*
X287915161Y-59128874D01*
X287921034Y-59121773D01*
X288044384Y-58970531D01*
X288077477Y-58920723D01*
X288111284Y-58871349D01*
X288115667Y-58863243D01*
X288207292Y-58690920D01*
X288230090Y-58635608D01*
X288253652Y-58580634D01*
X288256377Y-58571831D01*
X288312786Y-58384994D01*
X288324405Y-58326314D01*
X288336842Y-58267804D01*
X288337805Y-58258639D01*
X288356850Y-58064406D01*
X288356850Y-58064402D01*
X288360000Y-58032419D01*
X288360000Y-19867581D01*
X288357217Y-19839326D01*
X288357260Y-19833199D01*
X288356360Y-19824028D01*
X288335959Y-19629931D01*
X288323934Y-19571348D01*
X288312723Y-19512577D01*
X288310059Y-19503755D01*
X288252347Y-19317317D01*
X288229162Y-19262162D01*
X288206758Y-19206709D01*
X288202432Y-19198573D01*
X288109607Y-19026896D01*
X288076139Y-18977278D01*
X288043400Y-18927247D01*
X288037576Y-18920106D01*
X287913172Y-18769728D01*
X287870737Y-18727589D01*
X287828874Y-18684839D01*
X287821773Y-18678966D01*
X287670531Y-18555616D01*
X287620738Y-18522534D01*
X287571349Y-18488716D01*
X287563243Y-18484333D01*
X287390921Y-18392708D01*
X287335606Y-18369909D01*
X287280634Y-18346348D01*
X287271831Y-18343623D01*
X287084995Y-18287214D01*
X287026307Y-18275594D01*
X286967804Y-18263158D01*
X286958639Y-18262195D01*
X286764405Y-18243150D01*
X286764402Y-18243150D01*
X286732419Y-18240000D01*
X53392461Y-18240000D01*
X53410943Y-18195382D01*
X53457500Y-17961322D01*
X53457500Y-17722678D01*
X53410943Y-17488618D01*
X53319617Y-17268140D01*
X53187034Y-17069714D01*
X53133820Y-17016500D01*
X53187034Y-16963286D01*
X53319617Y-16764860D01*
X53410943Y-16544382D01*
X53457500Y-16310322D01*
X53457500Y-16071678D01*
X53410943Y-15837618D01*
X53319617Y-15617140D01*
X53187034Y-15418714D01*
X53133820Y-15365500D01*
X53187034Y-15312286D01*
X53319617Y-15113860D01*
X53410943Y-14893382D01*
X53457500Y-14659322D01*
X53457500Y-14420678D01*
X53410943Y-14186618D01*
X53319617Y-13966140D01*
X53187034Y-13767714D01*
X53133820Y-13714500D01*
X53187034Y-13661286D01*
X53319617Y-13462860D01*
X53410943Y-13242382D01*
X53457500Y-13008322D01*
X53457500Y-12769678D01*
X53435942Y-12661299D01*
X289570601Y-12659999D01*
X290368083Y-12731173D01*
G36*
X51034500Y-12769678D02*
G01*
X51034500Y-13008322D01*
X51081057Y-13242382D01*
X51172383Y-13462860D01*
X51304966Y-13661286D01*
X51358180Y-13714500D01*
X51304966Y-13767714D01*
X51172383Y-13966140D01*
X51081057Y-14186618D01*
X51034500Y-14420678D01*
X51034500Y-14659322D01*
X51081057Y-14893382D01*
X51172383Y-15113860D01*
X51304966Y-15312286D01*
X51358180Y-15365500D01*
X51304966Y-15418714D01*
X51172383Y-15617140D01*
X51081057Y-15837618D01*
X51034500Y-16071678D01*
X51034500Y-16310322D01*
X51081057Y-16544382D01*
X51172383Y-16764860D01*
X51304966Y-16963286D01*
X51358180Y-17016500D01*
X51304966Y-17069714D01*
X51172383Y-17268140D01*
X51081057Y-17488618D01*
X51034500Y-17722678D01*
X51034500Y-17961322D01*
X51081057Y-18195382D01*
X51099539Y-18240000D01*
X40946461Y-18240000D01*
X40964943Y-18195382D01*
X41011500Y-17961322D01*
X41011500Y-17722678D01*
X40964943Y-17488618D01*
X40873617Y-17268140D01*
X40741034Y-17069714D01*
X40687820Y-17016500D01*
X40741034Y-16963286D01*
X40873617Y-16764860D01*
X40964943Y-16544382D01*
X41011500Y-16310322D01*
X41011500Y-16071678D01*
X40964943Y-15837618D01*
X40873617Y-15617140D01*
X40741034Y-15418714D01*
X40687820Y-15365500D01*
X40741034Y-15312286D01*
X40873617Y-15113860D01*
X40964943Y-14893382D01*
X41011500Y-14659322D01*
X41011500Y-14420678D01*
X40964943Y-14186618D01*
X40873617Y-13966140D01*
X40741034Y-13767714D01*
X40687820Y-13714500D01*
X40741034Y-13661286D01*
X40873617Y-13462860D01*
X40964943Y-13242382D01*
X41011500Y-13008322D01*
X41011500Y-12769678D01*
X40989956Y-12661368D01*
X51056055Y-12661312D01*
X51034500Y-12769678D01*
X51034500Y-12769678D01*
G37*
X51034500Y-12769678D02*
X51034500Y-13008322D01*
X51081057Y-13242382D01*
X51172383Y-13462860D01*
X51304966Y-13661286D01*
X51358180Y-13714500D01*
X51304966Y-13767714D01*
X51172383Y-13966140D01*
X51081057Y-14186618D01*
X51034500Y-14420678D01*
X51034500Y-14659322D01*
X51081057Y-14893382D01*
X51172383Y-15113860D01*
X51304966Y-15312286D01*
X51358180Y-15365500D01*
X51304966Y-15418714D01*
X51172383Y-15617140D01*
X51081057Y-15837618D01*
X51034500Y-16071678D01*
X51034500Y-16310322D01*
X51081057Y-16544382D01*
X51172383Y-16764860D01*
X51304966Y-16963286D01*
X51358180Y-17016500D01*
X51304966Y-17069714D01*
X51172383Y-17268140D01*
X51081057Y-17488618D01*
X51034500Y-17722678D01*
X51034500Y-17961322D01*
X51081057Y-18195382D01*
X51099539Y-18240000D01*
X40946461Y-18240000D01*
X40964943Y-18195382D01*
X41011500Y-17961322D01*
X41011500Y-17722678D01*
X40964943Y-17488618D01*
X40873617Y-17268140D01*
X40741034Y-17069714D01*
X40687820Y-17016500D01*
X40741034Y-16963286D01*
X40873617Y-16764860D01*
X40964943Y-16544382D01*
X41011500Y-16310322D01*
X41011500Y-16071678D01*
X40964943Y-15837618D01*
X40873617Y-15617140D01*
X40741034Y-15418714D01*
X40687820Y-15365500D01*
X40741034Y-15312286D01*
X40873617Y-15113860D01*
X40964943Y-14893382D01*
X41011500Y-14659322D01*
X41011500Y-14420678D01*
X40964943Y-14186618D01*
X40873617Y-13966140D01*
X40741034Y-13767714D01*
X40687820Y-13714500D01*
X40741034Y-13661286D01*
X40873617Y-13462860D01*
X40964943Y-13242382D01*
X41011500Y-13008322D01*
X41011500Y-12769678D01*
X40989956Y-12661368D01*
X51056055Y-12661312D01*
X51034500Y-12769678D01*
M02*
